G04*
G04 #@! TF.GenerationSoftware,Altium Limited,Altium Designer,18.1.6 (161)*
G04*
G04 Layer_Physical_Order=2*
G04 Layer_Color=16711680*
%FSLAX25Y25*%
%MOIN*%
G70*
G01*
G75*
%ADD11C,0.01000*%
%ADD31C,0.06000*%
%ADD32R,0.06000X0.06000*%
%ADD33R,0.05906X0.05906*%
%ADD34C,0.05906*%
%ADD35C,0.15000*%
%ADD36R,0.05500X0.07500*%
%ADD37O,0.05500X0.07500*%
%ADD38R,0.10000X0.06000*%
%ADD39O,0.10000X0.06000*%
%ADD40C,0.02200*%
%ADD41R,0.09449X0.12598*%
%ADD42R,0.09449X0.03937*%
%ADD43R,0.03740X0.03937*%
%ADD44R,0.04134X0.03937*%
%ADD45O,0.08661X0.02362*%
%ADD46R,0.03543X0.02756*%
%ADD47R,0.03937X0.03740*%
G36*
X181971Y-11971D02*
X1529D01*
Y244971D01*
X181971D01*
Y-11971D01*
D02*
G37*
%LPC*%
G36*
X171201Y240636D02*
X170169Y240501D01*
X169207Y240102D01*
X168382Y239469D01*
X167748Y238643D01*
X167350Y237682D01*
X167214Y236650D01*
X167350Y235618D01*
X167748Y234656D01*
X168382Y233830D01*
X169207Y233197D01*
X170169Y232799D01*
X171201Y232663D01*
X172233Y232799D01*
X173194Y233197D01*
X174020Y233830D01*
X174653Y234656D01*
X175052Y235618D01*
X175188Y236650D01*
X175052Y237682D01*
X174653Y238643D01*
X174020Y239469D01*
X173194Y240102D01*
X172233Y240501D01*
X171201Y240636D01*
D02*
G37*
G36*
Y230637D02*
X170169Y230501D01*
X169207Y230102D01*
X168382Y229469D01*
X167748Y228643D01*
X167350Y227681D01*
X167214Y226650D01*
X167350Y225618D01*
X167748Y224656D01*
X168382Y223831D01*
X168809Y223502D01*
X168894Y222824D01*
X168820Y222729D01*
X129700D01*
X129115Y222613D01*
X128619Y222281D01*
X125419Y219081D01*
X125087Y218585D01*
X124971Y218000D01*
Y217926D01*
X124609Y217776D01*
X123826Y217175D01*
X123224Y216391D01*
X123030Y215921D01*
X122539Y215824D01*
X110981Y227381D01*
X110485Y227713D01*
X109900Y227829D01*
X83200D01*
X82615Y227713D01*
X82119Y227381D01*
X73482Y218744D01*
X73150Y218248D01*
X73090Y217949D01*
X72672Y217776D01*
X71889Y217175D01*
X71287Y216391D01*
X70910Y215479D01*
X70850Y215029D01*
X44034D01*
X39181Y219881D01*
X38685Y220213D01*
X38100Y220329D01*
X24000D01*
X23415Y220213D01*
X22919Y219881D01*
X21545Y218507D01*
X21213Y218011D01*
X21205Y217970D01*
X20735Y217776D01*
X19951Y217175D01*
X19350Y216391D01*
X18972Y215479D01*
X18844Y214500D01*
Y212500D01*
X18972Y211521D01*
X19350Y210609D01*
X19951Y209825D01*
X20735Y209224D01*
X21647Y208846D01*
X22626Y208718D01*
X23605Y208846D01*
X24517Y209224D01*
X25300Y209825D01*
X25902Y210609D01*
X26280Y211521D01*
X26750Y211412D01*
Y208750D01*
X29331D01*
X29419Y208619D01*
X30919Y207119D01*
X31415Y206787D01*
X32000Y206671D01*
X81000D01*
X81503Y206771D01*
X82245Y206029D01*
X82038Y205529D01*
X55157D01*
X54572Y205413D01*
X54076Y205081D01*
X51130Y202136D01*
X50338Y201978D01*
X49643Y201514D01*
X49179Y200819D01*
X49016Y200000D01*
X49179Y199181D01*
X49643Y198486D01*
X50338Y198022D01*
X51157Y197859D01*
X51977Y198022D01*
X52671Y198486D01*
X53136Y199181D01*
X53293Y199973D01*
X55791Y202471D01*
X133416D01*
X133595Y201971D01*
X132460Y201040D01*
X131398Y199745D01*
X130609Y198269D01*
X130123Y196666D01*
X129959Y195000D01*
X130123Y193334D01*
X130609Y191731D01*
X131398Y190255D01*
X132460Y188961D01*
X133755Y187898D01*
X135231Y187109D01*
X136834Y186623D01*
X138500Y186459D01*
X140166Y186623D01*
X141769Y187109D01*
X143245Y187898D01*
X144539Y188961D01*
X145602Y190255D01*
X146391Y191731D01*
X146877Y193334D01*
X147041Y195000D01*
X146877Y196666D01*
X146391Y198269D01*
X145602Y199745D01*
X144539Y201040D01*
X143405Y201971D01*
X143584Y202471D01*
X146367D01*
X148719Y200119D01*
X149215Y199787D01*
X149800Y199671D01*
X167906D01*
X168153Y199171D01*
X167748Y198643D01*
X167350Y197681D01*
X167214Y196650D01*
X167350Y195618D01*
X167542Y195154D01*
X166968Y194579D01*
X164800D01*
X164215Y194463D01*
X163719Y194131D01*
X139117Y169529D01*
X109200D01*
X108615Y169413D01*
X108119Y169081D01*
X107332Y168295D01*
X106870Y168486D01*
Y171571D01*
X138300D01*
X138885Y171687D01*
X139381Y172019D01*
X161927Y194564D01*
X162719Y194722D01*
X163414Y195186D01*
X163878Y195881D01*
X164041Y196700D01*
X163878Y197519D01*
X163414Y198214D01*
X162719Y198678D01*
X161900Y198841D01*
X161081Y198678D01*
X160386Y198214D01*
X159922Y197519D01*
X159764Y196727D01*
X137666Y174629D01*
X106870D01*
Y175756D01*
X104000D01*
Y176256D01*
X103500D01*
Y179224D01*
X101130D01*
Y177785D01*
X95745D01*
X95678Y178119D01*
X95214Y178814D01*
X94519Y179278D01*
X94200Y179342D01*
Y177300D01*
X93200D01*
Y179342D01*
X92881Y179278D01*
X92186Y178814D01*
X91722Y178119D01*
X91655Y177785D01*
X68778D01*
X47381Y199181D01*
X46885Y199513D01*
X46300Y199629D01*
X37297D01*
X36711Y199513D01*
X36215Y199181D01*
X35115Y198081D01*
X35045Y197976D01*
X33228D01*
Y195606D01*
X36197D01*
Y195106D01*
X36697D01*
Y192236D01*
X39165D01*
Y192236D01*
X39527D01*
X39865Y191876D01*
X39907Y191774D01*
X39319Y191186D01*
X38527Y191029D01*
X37832Y190564D01*
X37368Y189870D01*
X37205Y189050D01*
X37368Y188231D01*
X37832Y187536D01*
X38527Y187072D01*
X39346Y186909D01*
X40166Y187072D01*
X40860Y187536D01*
X41325Y188231D01*
X41482Y189023D01*
X43577Y191119D01*
X43909Y191615D01*
X44025Y192200D01*
Y192236D01*
X45465D01*
Y196065D01*
X45965Y196273D01*
X63990Y178247D01*
X63799Y177785D01*
X22156D01*
X21571Y177669D01*
X21074Y177337D01*
X11819Y168081D01*
X11487Y167585D01*
X11371Y167000D01*
Y135724D01*
X10500D01*
Y132756D01*
X10000D01*
Y132256D01*
X7130D01*
Y132023D01*
X6919Y131881D01*
X5919Y130881D01*
X5587Y130385D01*
X5471Y129800D01*
Y123300D01*
X5587Y122715D01*
X5919Y122219D01*
X6415Y121887D01*
X7000Y121771D01*
X8471D01*
Y117224D01*
X7130D01*
Y115479D01*
X6919Y115337D01*
X5919Y114337D01*
X5587Y113841D01*
X5471Y113256D01*
Y79100D01*
X5587Y78515D01*
X5919Y78019D01*
X10019Y73919D01*
X10515Y73587D01*
X11100Y73471D01*
X15667D01*
X15913Y72971D01*
X15547Y72493D01*
X15149Y71532D01*
X15013Y70500D01*
X15149Y69468D01*
X15547Y68507D01*
X16181Y67681D01*
X17007Y67047D01*
X17968Y66649D01*
X19000Y66513D01*
X20032Y66649D01*
X20993Y67047D01*
X21819Y67681D01*
X22453Y68507D01*
X22851Y69468D01*
X22987Y70500D01*
X22851Y71532D01*
X22453Y72493D01*
X22087Y72971D01*
X22333Y73471D01*
X75967D01*
X76213Y72971D01*
X75847Y72493D01*
X75449Y71532D01*
X75313Y70500D01*
X75449Y69468D01*
X75847Y68507D01*
X76481Y67681D01*
X77307Y67047D01*
X78268Y66649D01*
X79300Y66513D01*
X80332Y66649D01*
X81293Y67047D01*
X82119Y67681D01*
X82753Y68507D01*
X83151Y69468D01*
X83287Y70500D01*
X83151Y71532D01*
X82753Y72493D01*
X82387Y72971D01*
X82633Y73471D01*
X88666D01*
X127376Y34761D01*
X127185Y34299D01*
X124693D01*
Y28529D01*
X113307D01*
Y29969D01*
X108083D01*
Y27000D01*
Y24032D01*
X113307D01*
Y25471D01*
X124693D01*
Y19701D01*
X128888D01*
Y0D01*
X129004Y-585D01*
X129336Y-1081D01*
X133836Y-5581D01*
X134332Y-5913D01*
X134917Y-6029D01*
X165634D01*
Y-7468D01*
X168201D01*
Y-4500D01*
Y-1531D01*
X165634D01*
Y-2971D01*
X135551D01*
X131947Y634D01*
Y19701D01*
X136142D01*
Y26500D01*
X130417D01*
Y27500D01*
X136142D01*
Y34299D01*
X131947D01*
Y59534D01*
X142534Y70120D01*
X167500D01*
Y67650D01*
X171000D01*
Y71650D01*
Y75650D01*
X167500D01*
Y73179D01*
X141900D01*
X141315Y73063D01*
X140819Y72731D01*
X129336Y61248D01*
X129004Y60752D01*
X128888Y60167D01*
Y38228D01*
X128426Y38037D01*
X90381Y76081D01*
X89885Y76413D01*
X89300Y76529D01*
X84704D01*
X84655Y77029D01*
X85119Y77122D01*
X85814Y77586D01*
X86278Y78281D01*
X86436Y79073D01*
X87433Y80071D01*
X165209D01*
X165881Y79622D01*
X166700Y79459D01*
X167519Y79622D01*
X168214Y80086D01*
X168678Y80781D01*
X168841Y81600D01*
X168794Y81836D01*
X169255Y82082D01*
X174471Y76867D01*
Y75650D01*
X172000D01*
Y71650D01*
Y67650D01*
X174471D01*
Y65042D01*
X173971Y64796D01*
X173517Y65144D01*
X172544Y65547D01*
X171500Y65684D01*
X170456Y65547D01*
X169483Y65144D01*
X168647Y64502D01*
X168006Y63667D01*
X167603Y62694D01*
X167465Y61650D01*
X167603Y60605D01*
X168006Y59632D01*
X168647Y58797D01*
X169483Y58156D01*
X170456Y57753D01*
X171500Y57615D01*
X172544Y57753D01*
X173517Y58156D01*
X173971Y58504D01*
X174471Y58257D01*
Y56783D01*
X173032Y55345D01*
X172544Y55547D01*
X171500Y55684D01*
X170456Y55547D01*
X169483Y55144D01*
X168647Y54502D01*
X168006Y53667D01*
X167603Y52694D01*
X167465Y51650D01*
X167603Y50605D01*
X168006Y49632D01*
X168647Y48797D01*
X169483Y48156D01*
X170456Y47753D01*
X171500Y47615D01*
X172544Y47753D01*
X173517Y48156D01*
X174353Y48797D01*
X174994Y49632D01*
X175397Y50605D01*
X175534Y51650D01*
X175397Y52694D01*
X175195Y53182D01*
X177081Y55068D01*
X177413Y55564D01*
X177529Y56150D01*
Y77500D01*
X177413Y78085D01*
X177081Y78581D01*
X164192Y91471D01*
X164329Y91908D01*
X164377Y91971D01*
X173958D01*
X174543Y92087D01*
X175039Y92419D01*
X179935Y97314D01*
X180267Y97810D01*
X180383Y98396D01*
Y178997D01*
X180267Y179582D01*
X179935Y180078D01*
X174860Y185154D01*
X175052Y185618D01*
X175188Y186650D01*
X175052Y187681D01*
X174653Y188643D01*
X174020Y189469D01*
X173925Y189541D01*
X173909Y190042D01*
X173987Y190124D01*
X176781Y192919D01*
X177113Y193415D01*
X177229Y194000D01*
Y200000D01*
X177113Y200585D01*
X176781Y201081D01*
X175581Y202281D01*
X175085Y202613D01*
X174500Y202729D01*
X173581D01*
X173508Y202824D01*
X173592Y203502D01*
X174020Y203831D01*
X174653Y204656D01*
X175052Y205618D01*
X175188Y206650D01*
X175052Y207681D01*
X174860Y208145D01*
X176781Y210067D01*
X177113Y210563D01*
X177229Y211149D01*
Y220000D01*
X177113Y220585D01*
X176781Y221081D01*
X175581Y222281D01*
X175085Y222613D01*
X174500Y222729D01*
X173581D01*
X173508Y222824D01*
X173592Y223502D01*
X174020Y223831D01*
X174653Y224656D01*
X175052Y225618D01*
X175188Y226650D01*
X175052Y227681D01*
X174653Y228643D01*
X174020Y229469D01*
X173194Y230102D01*
X172233Y230501D01*
X171201Y230637D01*
D02*
G37*
G36*
X35697Y194606D02*
X33228D01*
Y192236D01*
X35697D01*
Y194606D01*
D02*
G37*
G36*
X16500Y203541D02*
X14834Y203377D01*
X13231Y202891D01*
X11755Y202102D01*
X10460Y201040D01*
X9398Y199745D01*
X8609Y198269D01*
X8123Y196666D01*
X7959Y195000D01*
X8123Y193334D01*
X8609Y191731D01*
X9398Y190255D01*
X10460Y188961D01*
X11755Y187898D01*
X13231Y187109D01*
X14834Y186623D01*
X16500Y186459D01*
X18166Y186623D01*
X19769Y187109D01*
X21245Y187898D01*
X22539Y188961D01*
X23602Y190255D01*
X24391Y191731D01*
X24877Y193334D01*
X25041Y195000D01*
X24877Y196666D01*
X24391Y198269D01*
X23602Y199745D01*
X22539Y201040D01*
X21245Y202102D01*
X19769Y202891D01*
X18166Y203377D01*
X16500Y203541D01*
D02*
G37*
G36*
X106870Y179224D02*
X104500D01*
Y176756D01*
X106870D01*
Y179224D01*
D02*
G37*
G36*
X9500Y135724D02*
X7130D01*
Y133256D01*
X9500D01*
Y135724D01*
D02*
G37*
G36*
X19000Y64487D02*
X17968Y64351D01*
X17007Y63953D01*
X16181Y63319D01*
X15547Y62493D01*
X15149Y61532D01*
X15013Y60500D01*
X15149Y59468D01*
X15547Y58507D01*
X16181Y57681D01*
X17007Y57047D01*
X17968Y56649D01*
X19000Y56513D01*
X20032Y56649D01*
X20993Y57047D01*
X21819Y57681D01*
X22453Y58507D01*
X22851Y59468D01*
X22987Y60500D01*
X22851Y61532D01*
X22453Y62493D01*
X21819Y63319D01*
X20993Y63953D01*
X20032Y64351D01*
X19000Y64487D01*
D02*
G37*
G36*
X79300Y54487D02*
X78268Y54351D01*
X77307Y53953D01*
X76481Y53319D01*
X75847Y52493D01*
X75449Y51532D01*
X75313Y50500D01*
X75449Y49468D01*
X75847Y48507D01*
X76481Y47681D01*
X77307Y47047D01*
X78268Y46649D01*
X79300Y46513D01*
X80332Y46649D01*
X81293Y47047D01*
X82119Y47681D01*
X82753Y48507D01*
X83151Y49468D01*
X83287Y50500D01*
X83151Y51532D01*
X82753Y52493D01*
X82119Y53319D01*
X81293Y53953D01*
X80332Y54351D01*
X79300Y54487D01*
D02*
G37*
G36*
X19000D02*
X17968Y54351D01*
X17007Y53953D01*
X16181Y53319D01*
X15547Y52493D01*
X15149Y51532D01*
X15013Y50500D01*
X15149Y49468D01*
X15547Y48507D01*
X16181Y47681D01*
X17007Y47047D01*
X17968Y46649D01*
X19000Y46513D01*
X20032Y46649D01*
X20993Y47047D01*
X21819Y47681D01*
X22453Y48507D01*
X22851Y49468D01*
X22987Y50500D01*
X22851Y51532D01*
X22453Y52493D01*
X21819Y53319D01*
X20993Y53953D01*
X20032Y54351D01*
X19000Y54487D01*
D02*
G37*
G36*
X171500Y45684D02*
X170456Y45547D01*
X169483Y45144D01*
X168647Y44502D01*
X168006Y43667D01*
X167804Y43179D01*
X144541D01*
X143870Y43628D01*
X143050Y43791D01*
X142231Y43628D01*
X141536Y43164D01*
X141072Y42469D01*
X140909Y41650D01*
X141072Y40830D01*
X141536Y40136D01*
X142231Y39671D01*
X143050Y39509D01*
X143870Y39671D01*
X144541Y40120D01*
X167804D01*
X168006Y39632D01*
X168647Y38797D01*
X169483Y38156D01*
X170456Y37753D01*
X171500Y37615D01*
X172544Y37753D01*
X173517Y38156D01*
X174353Y38797D01*
X174994Y39632D01*
X175397Y40605D01*
X175534Y41650D01*
X175397Y42694D01*
X174994Y43667D01*
X174353Y44502D01*
X173517Y45144D01*
X172544Y45547D01*
X171500Y45684D01*
D02*
G37*
G36*
X19000Y44487D02*
X17968Y44351D01*
X17007Y43953D01*
X16181Y43319D01*
X15547Y42493D01*
X15149Y41532D01*
X15013Y40500D01*
X15149Y39468D01*
X15547Y38507D01*
X16181Y37681D01*
X17007Y37047D01*
X17968Y36649D01*
X19000Y36513D01*
X20032Y36649D01*
X20993Y37047D01*
X21819Y37681D01*
X22453Y38507D01*
X22851Y39468D01*
X22987Y40500D01*
X22851Y41532D01*
X22453Y42493D01*
X21819Y43319D01*
X20993Y43953D01*
X20032Y44351D01*
X19000Y44487D01*
D02*
G37*
G36*
X79300Y64487D02*
X78268Y64351D01*
X77307Y63953D01*
X76481Y63319D01*
X75847Y62493D01*
X75449Y61532D01*
X75313Y60500D01*
X75449Y59468D01*
X75847Y58507D01*
X76481Y57681D01*
X77307Y57047D01*
X77824Y56833D01*
X77887Y56515D01*
X78219Y56019D01*
X78715Y55687D01*
X79300Y55571D01*
X90066D01*
X99771Y45867D01*
Y36933D01*
X98832Y35995D01*
X98370Y36186D01*
Y41189D01*
X92630D01*
Y39013D01*
X91146Y37529D01*
X82633D01*
X82387Y38029D01*
X82753Y38507D01*
X83151Y39468D01*
X83287Y40500D01*
X83151Y41532D01*
X82753Y42493D01*
X82119Y43319D01*
X81293Y43953D01*
X80332Y44351D01*
X79300Y44487D01*
X78268Y44351D01*
X77307Y43953D01*
X76481Y43319D01*
X75847Y42493D01*
X75449Y41532D01*
X75313Y40500D01*
X75449Y39468D01*
X75847Y38507D01*
X76213Y38029D01*
X75967Y37529D01*
X30400D01*
X29815Y37413D01*
X29318Y37081D01*
X24266Y32029D01*
X22645D01*
X22453Y32493D01*
X21819Y33319D01*
X20993Y33953D01*
X20032Y34351D01*
X19000Y34487D01*
X17968Y34351D01*
X17007Y33953D01*
X16181Y33319D01*
X15547Y32493D01*
X15149Y31532D01*
X15013Y30500D01*
X15149Y29468D01*
X15547Y28507D01*
X16181Y27681D01*
X17007Y27047D01*
X17968Y26649D01*
X19000Y26513D01*
X20032Y26649D01*
X20993Y27047D01*
X21819Y27681D01*
X22453Y28507D01*
X22645Y28971D01*
X24900D01*
X25485Y29087D01*
X25981Y29419D01*
X31034Y34471D01*
X77250D01*
X77350Y33971D01*
X77307Y33953D01*
X76481Y33319D01*
X75847Y32493D01*
X75449Y31532D01*
X75313Y30500D01*
X75449Y29468D01*
X75847Y28507D01*
X76481Y27681D01*
X77307Y27047D01*
X78268Y26649D01*
X79300Y26513D01*
X80332Y26649D01*
X81293Y27047D01*
X82119Y27681D01*
X82753Y28507D01*
X83151Y29468D01*
X83287Y30500D01*
X83151Y31532D01*
X82753Y32493D01*
X82119Y33319D01*
X81293Y33953D01*
X81250Y33971D01*
X81350Y34471D01*
X89400D01*
Y18000D01*
X89517Y17415D01*
X89848Y16919D01*
X92069Y14698D01*
X92565Y14367D01*
X92630Y14354D01*
Y12811D01*
X98370D01*
Y14250D01*
X100400D01*
X100985Y14367D01*
X101481Y14698D01*
X101481Y14698D01*
X101488Y14703D01*
X101858Y14976D01*
X113307D01*
Y20913D01*
X102719D01*
X102528Y21375D01*
X103881Y22729D01*
X104213Y23225D01*
X104329Y23810D01*
Y24032D01*
X107083D01*
Y27000D01*
Y29969D01*
X101858D01*
Y28175D01*
X101719Y28081D01*
X101387Y27585D01*
X101271Y27000D01*
Y24538D01*
X101024Y24343D01*
X100529Y24565D01*
Y33367D01*
X101358Y34195D01*
X101858Y33988D01*
Y33087D01*
X113307D01*
Y39024D01*
X102829D01*
Y46500D01*
X102713Y47085D01*
X102381Y47581D01*
X91781Y58181D01*
X91285Y58513D01*
X90700Y58629D01*
X83254D01*
X82976Y59045D01*
X83151Y59468D01*
X83287Y60500D01*
X83151Y61532D01*
X82753Y62493D01*
X82119Y63319D01*
X81293Y63953D01*
X80332Y64351D01*
X79300Y64487D01*
D02*
G37*
G36*
X171500Y35684D02*
X170456Y35547D01*
X169483Y35144D01*
X168647Y34502D01*
X168006Y33667D01*
X167603Y32694D01*
X167465Y31650D01*
X167603Y30605D01*
X168006Y29632D01*
X168647Y28797D01*
X169483Y28156D01*
X170456Y27753D01*
X171500Y27615D01*
X172544Y27753D01*
X173517Y28156D01*
X174353Y28797D01*
X174994Y29632D01*
X175397Y30605D01*
X175534Y31650D01*
X175397Y32694D01*
X174994Y33667D01*
X174353Y34502D01*
X173517Y35144D01*
X172544Y35547D01*
X171500Y35684D01*
D02*
G37*
G36*
Y25684D02*
X170456Y25547D01*
X169483Y25144D01*
X168647Y24502D01*
X168006Y23667D01*
X167603Y22694D01*
X167465Y21650D01*
X167603Y20605D01*
X168006Y19632D01*
X168647Y18797D01*
X169483Y18156D01*
X170456Y17752D01*
X171500Y17615D01*
X172544Y17752D01*
X173517Y18156D01*
X174353Y18797D01*
X174994Y19632D01*
X175397Y20605D01*
X175534Y21650D01*
X175397Y22694D01*
X174994Y23667D01*
X174353Y24502D01*
X173517Y25144D01*
X172544Y25547D01*
X171500Y25684D01*
D02*
G37*
G36*
X79300Y24487D02*
X78268Y24351D01*
X77307Y23953D01*
X76481Y23319D01*
X75847Y22493D01*
X75449Y21532D01*
X75313Y20500D01*
X75449Y19468D01*
X75847Y18507D01*
X76481Y17681D01*
X77307Y17047D01*
X78268Y16649D01*
X79300Y16513D01*
X80332Y16649D01*
X81293Y17047D01*
X82119Y17681D01*
X82753Y18507D01*
X83151Y19468D01*
X83287Y20500D01*
X83151Y21532D01*
X82753Y22493D01*
X82119Y23319D01*
X81293Y23953D01*
X80332Y24351D01*
X79300Y24487D01*
D02*
G37*
G36*
X19000D02*
X17968Y24351D01*
X17007Y23953D01*
X16181Y23319D01*
X15547Y22493D01*
X15149Y21532D01*
X15013Y20500D01*
X15149Y19468D01*
X15547Y18507D01*
X16181Y17681D01*
X17007Y17047D01*
X17968Y16649D01*
X19000Y16513D01*
X20032Y16649D01*
X20993Y17047D01*
X21819Y17681D01*
X22453Y18507D01*
X22851Y19468D01*
X22987Y20500D01*
X22851Y21532D01*
X22453Y22493D01*
X21819Y23319D01*
X20993Y23953D01*
X20032Y24351D01*
X19000Y24487D01*
D02*
G37*
G36*
X83253Y14453D02*
X75347D01*
Y6547D01*
X83253D01*
Y14453D01*
D02*
G37*
G36*
X22953D02*
X15047D01*
Y6547D01*
X22953D01*
Y14453D01*
D02*
G37*
G36*
X150500Y23479D02*
X148834Y23315D01*
X147231Y22829D01*
X145755Y22040D01*
X144460Y20978D01*
X143398Y19683D01*
X142609Y18207D01*
X142123Y16604D01*
X141959Y14938D01*
X142123Y13272D01*
X142609Y11670D01*
X143398Y10193D01*
X144460Y8899D01*
X145755Y7836D01*
X147231Y7047D01*
X148834Y6561D01*
X150500Y6397D01*
X152166Y6561D01*
X153769Y7047D01*
X155245Y7836D01*
X156539Y8899D01*
X157602Y10193D01*
X158391Y11670D01*
X158877Y13272D01*
X159041Y14938D01*
X158877Y16604D01*
X158391Y18207D01*
X157602Y19683D01*
X156539Y20978D01*
X155245Y22040D01*
X153769Y22829D01*
X152166Y23315D01*
X150500Y23479D01*
D02*
G37*
G36*
X45000D02*
X43334Y23315D01*
X41732Y22829D01*
X40255Y22040D01*
X38960Y20978D01*
X37898Y19683D01*
X37109Y18207D01*
X36623Y16604D01*
X36459Y14938D01*
X36623Y13272D01*
X37109Y11670D01*
X37898Y10193D01*
X38960Y8899D01*
X40255Y7836D01*
X41732Y7047D01*
X43334Y6561D01*
X45000Y6397D01*
X46666Y6561D01*
X48268Y7047D01*
X49745Y7836D01*
X51039Y8899D01*
X52102Y10193D01*
X52891Y11670D01*
X53377Y13272D01*
X53541Y14938D01*
X53377Y16604D01*
X52891Y18207D01*
X52102Y19683D01*
X51039Y20978D01*
X49745Y22040D01*
X48268Y22829D01*
X46666Y23315D01*
X45000Y23479D01*
D02*
G37*
G36*
X171933Y-1531D02*
X171433Y-1531D01*
X169201D01*
Y-4500D01*
Y-7468D01*
X171433D01*
X171768Y-7468D01*
X172268Y-7468D01*
X177212D01*
X177322Y-8019D01*
X177786Y-8714D01*
X178481Y-9178D01*
X179300Y-9341D01*
X180119Y-9178D01*
X180814Y-8714D01*
X181278Y-8019D01*
X181441Y-7200D01*
X181278Y-6381D01*
X180814Y-5686D01*
X180806Y-5680D01*
X180713Y-5215D01*
X180381Y-4719D01*
X179081Y-3419D01*
X178585Y-3087D01*
X178067Y-2984D01*
Y-1531D01*
X172268D01*
X171933Y-1531D01*
D02*
G37*
%LPD*%
G36*
X168153Y219171D02*
X167748Y218643D01*
X167556Y218179D01*
X138124D01*
Y218250D01*
X130624D01*
Y215588D01*
X130154Y215479D01*
X129776Y216391D01*
X129174Y217175D01*
X128719Y217524D01*
X128686Y218023D01*
X130333Y219671D01*
X167906D01*
X168153Y219171D01*
D02*
G37*
G36*
X167748Y214656D02*
X168382Y213830D01*
X169207Y213197D01*
X170169Y212799D01*
X171201Y212663D01*
X172233Y212799D01*
X173194Y213197D01*
X173671Y213562D01*
X174171Y213316D01*
Y211782D01*
X172697Y210308D01*
X172233Y210501D01*
X171201Y210636D01*
X170169Y210501D01*
X169207Y210102D01*
X168382Y209469D01*
X167748Y208643D01*
X167350Y207681D01*
X167214Y206650D01*
X167350Y205618D01*
X167748Y204656D01*
X168382Y203831D01*
X168809Y203502D01*
X168894Y202824D01*
X168820Y202729D01*
X150434D01*
X148081Y205081D01*
X147585Y205413D01*
X147000Y205529D01*
X133599D01*
X133392Y206029D01*
X135455Y208093D01*
X135787Y208589D01*
X135819Y208750D01*
X138124D01*
Y215087D01*
X138157Y215120D01*
X167556D01*
X167748Y214656D01*
D02*
G37*
G36*
X42319Y212419D02*
X42815Y212087D01*
X43400Y211971D01*
X70850D01*
X70910Y211521D01*
X71287Y210609D01*
X71579Y210229D01*
X71332Y209729D01*
X34250D01*
Y217271D01*
X37466D01*
X42319Y212419D01*
D02*
G37*
G36*
X121619D02*
X122115Y212087D01*
X122700Y211971D01*
X122787D01*
X122846Y211521D01*
X123224Y210609D01*
X123826Y209825D01*
X124609Y209224D01*
X125521Y208846D01*
X125651Y208829D01*
X125618Y208329D01*
X86379D01*
X86187Y208750D01*
Y218250D01*
X78687D01*
Y215588D01*
X78216Y215479D01*
X77839Y216391D01*
X77237Y217175D01*
X76973Y217378D01*
X76940Y217877D01*
X83833Y224771D01*
X109266D01*
X121619Y212419D01*
D02*
G37*
G36*
X169207Y183197D02*
X170169Y182799D01*
X171201Y182663D01*
X172233Y182799D01*
X172697Y182991D01*
X177324Y178363D01*
Y172792D01*
X176862Y172601D01*
X176781Y172681D01*
X176285Y173013D01*
X175700Y173129D01*
X173928D01*
X173758Y173629D01*
X174020Y173830D01*
X174653Y174656D01*
X175052Y175618D01*
X175188Y176650D01*
X175052Y177682D01*
X174653Y178643D01*
X174020Y179469D01*
X173194Y180102D01*
X172233Y180501D01*
X171201Y180637D01*
X170169Y180501D01*
X169207Y180102D01*
X168729Y179736D01*
X168229Y179982D01*
Y183317D01*
X168729Y183564D01*
X169207Y183197D01*
D02*
G37*
G36*
X100286Y174226D02*
X100219Y174181D01*
X97304Y171267D01*
X96973Y170771D01*
X96856Y170186D01*
Y167216D01*
X96470Y166899D01*
X96386Y166915D01*
X70586D01*
X70000Y166799D01*
X69504Y166467D01*
X65591Y162554D01*
X65129Y162746D01*
Y171337D01*
X68748Y174726D01*
X100134D01*
X100286Y174226D01*
D02*
G37*
G36*
X101130Y170114D02*
Y166988D01*
X101247D01*
X101564Y166602D01*
X101545Y166502D01*
Y163000D01*
X101661Y162415D01*
X101993Y161919D01*
X103199Y160712D01*
X103695Y160381D01*
X104280Y160264D01*
X106921D01*
X108219Y158967D01*
Y158020D01*
X106878D01*
Y156581D01*
X100454D01*
X100303Y157081D01*
X100320Y157092D01*
X100784Y157787D01*
X100947Y158606D01*
X100784Y159426D01*
X100320Y160120D01*
X99626Y160584D01*
X98806Y160747D01*
X97987Y160584D01*
X97315Y160136D01*
X75550D01*
X75521Y160179D01*
X74800Y160661D01*
X73949Y160830D01*
X68846D01*
X68655Y161292D01*
X71219Y163856D01*
X95752D01*
X96250Y163359D01*
X96408Y162566D01*
X96872Y161872D01*
X97566Y161408D01*
X98386Y161245D01*
X99205Y161408D01*
X99900Y161872D01*
X100364Y162566D01*
X100527Y163386D01*
X100364Y164205D01*
X99915Y164877D01*
Y169552D01*
X100668Y170305D01*
X101130Y170114D01*
D02*
G37*
G36*
X145546Y155491D02*
X145354Y155029D01*
X123056D01*
X122978Y155419D01*
X122514Y156114D01*
X121819Y156578D01*
X121000Y156741D01*
X120181Y156578D01*
X119486Y156114D01*
X119022Y155419D01*
X118859Y154600D01*
X118992Y153929D01*
X118701Y153429D01*
X112618D01*
Y158020D01*
X111277D01*
Y159922D01*
X112465Y161109D01*
X112965Y160902D01*
Y158807D01*
X124965D01*
Y161278D01*
X139760D01*
X145546Y155491D01*
D02*
G37*
G36*
X90945Y156581D02*
X90360Y156464D01*
X89864Y156133D01*
X88867Y155136D01*
X75550D01*
X75521Y155179D01*
X74800Y155661D01*
X73949Y155830D01*
X67650D01*
X67579Y155816D01*
X67225Y156106D01*
X67579Y156396D01*
X67650Y156382D01*
X73949D01*
X74800Y156552D01*
X75521Y157034D01*
X75550Y157077D01*
X90936D01*
X90945Y156581D01*
D02*
G37*
G36*
X63777Y174261D02*
X62555Y173116D01*
X62540Y173096D01*
X62519Y173081D01*
X62366Y172854D01*
X62207Y172631D01*
X62201Y172606D01*
X62187Y172585D01*
X62134Y172317D01*
X62071Y172050D01*
X62076Y172025D01*
X62071Y172000D01*
Y148095D01*
X61609Y147904D01*
X56966Y152546D01*
X57106Y152755D01*
X57275Y153606D01*
X57106Y154457D01*
X56624Y155179D01*
X55902Y155661D01*
X55051Y155830D01*
X48752D01*
X47901Y155661D01*
X47179Y155179D01*
X47151Y155136D01*
X23191D01*
X22519Y155584D01*
X21700Y155747D01*
X20881Y155584D01*
X20811Y155538D01*
X20370Y155774D01*
Y160425D01*
X20370Y160425D01*
Y160787D01*
X20370D01*
X20370Y160925D01*
Y162226D01*
X32467D01*
X37168Y157525D01*
X37664Y157193D01*
X38250Y157077D01*
X47151D01*
X47179Y157034D01*
X47901Y156552D01*
X48752Y156382D01*
X55051D01*
X55902Y156552D01*
X56624Y157034D01*
X57106Y157755D01*
X57275Y158606D01*
X57106Y159457D01*
X56624Y160179D01*
X55902Y160661D01*
X55051Y160830D01*
X48752D01*
X47901Y160661D01*
X47482Y160381D01*
X43229Y164634D01*
Y168209D01*
X43678Y168881D01*
X43841Y169700D01*
X43678Y170519D01*
X43214Y171214D01*
X42519Y171678D01*
X41700Y171841D01*
X40881Y171678D01*
X40186Y171214D01*
X39722Y170519D01*
X39559Y169700D01*
X39722Y168881D01*
X40171Y168209D01*
Y164000D01*
X40287Y163415D01*
X40619Y162919D01*
X42940Y160598D01*
X42748Y160136D01*
X38883D01*
X34181Y164837D01*
X33685Y165169D01*
X33100Y165285D01*
X20370D01*
Y166724D01*
X15440D01*
X15249Y167186D01*
X22789Y174726D01*
X63594D01*
X63777Y174261D01*
D02*
G37*
G36*
X110248Y145783D02*
X112618D01*
Y147223D01*
X116029D01*
X116061Y146723D01*
X115920Y146704D01*
X114947Y146301D01*
X114112Y145660D01*
X113471Y144824D01*
X113268Y144336D01*
X100000D01*
X99415Y144220D01*
X98919Y143888D01*
X92219Y137188D01*
X91887Y136692D01*
X91771Y136107D01*
Y111913D01*
X91618Y111476D01*
X90179D01*
Y139457D01*
X90063Y140042D01*
X89731Y140538D01*
X83654Y146615D01*
X83846Y147077D01*
X90200D01*
X90785Y147193D01*
X90829Y147223D01*
X106878D01*
Y145783D01*
X109248D01*
Y148752D01*
X110248D01*
Y145783D01*
D02*
G37*
G36*
X46531Y148592D02*
X46697Y147755D01*
X47179Y147034D01*
X47901Y146552D01*
X48752Y146382D01*
X55051D01*
X55685Y146509D01*
X56119Y146143D01*
X56112Y146038D01*
X55643Y145712D01*
X55051Y145830D01*
X48752D01*
X47901Y145661D01*
X47179Y145179D01*
X46697Y144457D01*
X46528Y143606D01*
X46697Y142755D01*
X47179Y142034D01*
X47901Y141552D01*
X48752Y141382D01*
X55051D01*
X55821Y141535D01*
X56321Y141289D01*
Y133075D01*
X54783D01*
Y127138D01*
X60917D01*
X60917Y127138D01*
X61083D01*
Y127138D01*
X61417Y127138D01*
X67216D01*
Y133075D01*
X63529D01*
Y140323D01*
X63991Y140514D01*
X64287Y140219D01*
X64783Y139887D01*
X65368Y139771D01*
X75000D01*
X75585Y139887D01*
X76081Y140219D01*
X77381Y141519D01*
X77713Y142015D01*
X77829Y142600D01*
Y147077D01*
X78866D01*
X87120Y138823D01*
Y114375D01*
X86620Y114223D01*
X86581Y114281D01*
X81081Y119781D01*
X80585Y120113D01*
X80000Y120229D01*
X51022D01*
X25343Y145909D01*
X25535Y146371D01*
X42509D01*
X43181Y145922D01*
X44000Y145759D01*
X44819Y145922D01*
X45514Y146386D01*
X45978Y147081D01*
X46141Y147900D01*
X46069Y148262D01*
X46414Y148577D01*
X46511Y148606D01*
X46531Y148592D01*
D02*
G37*
G36*
X165451Y190831D02*
X165287Y190585D01*
X165171Y190000D01*
Y174000D01*
X165287Y173415D01*
X165619Y172919D01*
X167473Y171064D01*
X167281Y170602D01*
X167248D01*
Y162697D01*
X172991D01*
X174124Y161563D01*
Y138953D01*
X172730D01*
Y148199D01*
X172614Y148784D01*
X172282Y149281D01*
X165081Y156481D01*
X164585Y156813D01*
X164000Y156929D01*
X148433D01*
X147090Y158273D01*
X147298Y158773D01*
X150965D01*
X152009Y158910D01*
X152982Y159313D01*
X153817Y159954D01*
X154459Y160790D01*
X154862Y161763D01*
X154999Y162807D01*
X154862Y163851D01*
X154459Y164824D01*
X153817Y165660D01*
X152982Y166301D01*
X152009Y166704D01*
X150965Y166841D01*
X146965D01*
X145920Y166704D01*
X144947Y166301D01*
X144112Y165660D01*
X143471Y164824D01*
X143068Y163851D01*
X142969Y163101D01*
X142441Y162922D01*
X141474Y163888D01*
X140978Y164220D01*
X140393Y164336D01*
X124965D01*
Y166471D01*
X139750D01*
X140336Y166587D01*
X140832Y166919D01*
X165062Y191149D01*
X165451Y190831D01*
D02*
G37*
G36*
X146061Y146723D02*
X145920Y146704D01*
X144947Y146301D01*
X144112Y145660D01*
X143471Y144824D01*
X143068Y143851D01*
X142930Y142807D01*
X143068Y141763D01*
X143471Y140790D01*
X144112Y139954D01*
X144947Y139313D01*
X145920Y138910D01*
X146965Y138772D01*
X150965D01*
X152009Y138910D01*
X152982Y139313D01*
X153817Y139954D01*
X154459Y140790D01*
X154862Y141763D01*
X154999Y142807D01*
X154862Y143851D01*
X154712Y144212D01*
X155092Y144602D01*
X157248D01*
Y146980D01*
X158248D01*
Y144602D01*
X160520D01*
Y146164D01*
X160982Y146355D01*
X163571Y143766D01*
Y111101D01*
X163687Y110515D01*
X164019Y110019D01*
X167542Y106496D01*
X167350Y106032D01*
X167214Y105000D01*
X167350Y103968D01*
X167748Y103007D01*
X168114Y102529D01*
X167868Y102029D01*
X73176D01*
X73078Y102519D01*
X72614Y103214D01*
X71919Y103678D01*
X71100Y103841D01*
X70281Y103678D01*
X69609Y103229D01*
X47695D01*
X47504Y103691D01*
X48731Y104919D01*
X48943Y105236D01*
X50618D01*
Y106661D01*
X65222Y107077D01*
X79382D01*
Y105736D01*
X83971D01*
Y105700D01*
X84087Y105115D01*
X84419Y104619D01*
X85919Y103119D01*
X86415Y102787D01*
X87000Y102671D01*
X90000D01*
X90585Y102787D01*
X91081Y103119D01*
X94381Y106419D01*
X94713Y106915D01*
X94829Y107500D01*
Y135474D01*
X100634Y141278D01*
X113268D01*
X113471Y140790D01*
X114112Y139954D01*
X114947Y139313D01*
X115920Y138910D01*
X116965Y138772D01*
X120965D01*
X122009Y138910D01*
X122982Y139313D01*
X123817Y139954D01*
X124459Y140790D01*
X124862Y141763D01*
X124999Y142807D01*
X124862Y143851D01*
X124459Y144824D01*
X123817Y145660D01*
X122982Y146301D01*
X122009Y146704D01*
X121868Y146723D01*
X121901Y147223D01*
X146029D01*
X146061Y146723D01*
D02*
G37*
G36*
X169671Y147566D02*
Y138953D01*
X167248D01*
Y131047D01*
X167248Y131047D01*
X167248D01*
X167118Y130905D01*
X166629Y131107D01*
Y144400D01*
X166513Y144985D01*
X166181Y145481D01*
X161081Y150581D01*
X160585Y150913D01*
X160520Y150926D01*
Y153871D01*
X163366D01*
X169671Y147566D01*
D02*
G37*
G36*
X18000Y129740D02*
X19506D01*
X38382Y110864D01*
Y108606D01*
X41350D01*
Y107606D01*
X38382D01*
Y105529D01*
X24490D01*
X21341Y108678D01*
X21581Y108919D01*
X21913Y109415D01*
X22029Y110000D01*
Y121957D01*
X21913Y122542D01*
X21581Y123038D01*
X17081Y127538D01*
X16585Y127870D01*
X16000Y127986D01*
X12870D01*
Y129425D01*
X12870Y129425D01*
Y129787D01*
X12870D01*
X12870Y129925D01*
Y131226D01*
X13510D01*
X13747Y131179D01*
X14630D01*
Y129740D01*
X17000D01*
Y132709D01*
X18000D01*
Y129740D01*
D02*
G37*
G36*
X175724Y128960D02*
Y121686D01*
X172697Y118659D01*
X172233Y118851D01*
X171201Y118987D01*
X170169Y118851D01*
X169207Y118453D01*
X168729Y118086D01*
X168229Y118333D01*
Y121668D01*
X168729Y121914D01*
X169207Y121547D01*
X170169Y121149D01*
X171201Y121013D01*
X172233Y121149D01*
X173194Y121547D01*
X174020Y122181D01*
X174653Y123007D01*
X175052Y123968D01*
X175188Y125000D01*
X175052Y126032D01*
X174653Y126993D01*
X174020Y127819D01*
X173194Y128453D01*
X173037Y128518D01*
X173137Y129018D01*
X175654D01*
X175724Y128960D01*
D02*
G37*
G36*
X46120Y113625D02*
Y110976D01*
X44681D01*
Y110976D01*
X44319D01*
Y110976D01*
X42541D01*
X42432Y111140D01*
X23481Y130090D01*
X23668Y130611D01*
X24270Y130730D01*
X24964Y131195D01*
X25429Y131889D01*
X25492Y132209D01*
X23450D01*
Y133209D01*
X25492D01*
X25429Y133528D01*
X25265Y133773D01*
X25653Y134092D01*
X46120Y113625D01*
D02*
G37*
G36*
X20108Y146819D02*
X49308Y117619D01*
X49804Y117287D01*
X50389Y117171D01*
X79366D01*
X83971Y112566D01*
Y111476D01*
X79382D01*
Y110136D01*
X65200D01*
X65178Y110131D01*
X65156Y110135D01*
X50977Y109731D01*
X50618Y110080D01*
Y110976D01*
X49179D01*
Y114258D01*
X49063Y114843D01*
X48731Y115340D01*
X23981Y140089D01*
X23485Y140421D01*
X22900Y140537D01*
X20370D01*
Y141976D01*
X16029D01*
Y150212D01*
X16092Y150260D01*
X16529Y150397D01*
X20108Y146819D01*
D02*
G37*
G36*
X22775Y102919D02*
X23271Y102587D01*
X23857Y102471D01*
X28154D01*
X28346Y102009D01*
X27919Y101582D01*
X27919Y101581D01*
X20496Y94159D01*
X20032Y94351D01*
X19000Y94487D01*
X17968Y94351D01*
X17007Y93953D01*
X16181Y93319D01*
X15547Y92493D01*
X15149Y91532D01*
X15013Y90500D01*
X15149Y89468D01*
X15547Y88507D01*
X16181Y87681D01*
X17007Y87047D01*
X17968Y86649D01*
X19000Y86513D01*
X20032Y86649D01*
X20993Y87047D01*
X21819Y87681D01*
X22453Y88507D01*
X22851Y89468D01*
X22987Y90500D01*
X22851Y91532D01*
X22659Y91996D01*
X29634Y98971D01*
X174154D01*
X174739Y99087D01*
X175235Y99419D01*
X176735Y100919D01*
X176824Y101052D01*
X177324Y100900D01*
Y99029D01*
X173325Y95029D01*
X104391D01*
X103719Y95478D01*
X102900Y95641D01*
X102081Y95478D01*
X101386Y95014D01*
X100922Y94319D01*
X100759Y93500D01*
X100922Y92681D01*
X101062Y92470D01*
X100827Y92029D01*
X82945D01*
X82753Y92493D01*
X82119Y93319D01*
X81293Y93953D01*
X80332Y94351D01*
X79300Y94487D01*
X78268Y94351D01*
X77307Y93953D01*
X76481Y93319D01*
X75847Y92493D01*
X75449Y91532D01*
X75313Y90500D01*
X75449Y89468D01*
X75847Y88507D01*
X76481Y87681D01*
X77307Y87047D01*
X78268Y86649D01*
X79300Y86513D01*
X80332Y86649D01*
X81293Y87047D01*
X82119Y87681D01*
X82753Y88507D01*
X82945Y88971D01*
X162366D01*
X167182Y84155D01*
X166936Y83694D01*
X166700Y83741D01*
X165881Y83578D01*
X165209Y83129D01*
X86800D01*
X86215Y83013D01*
X85719Y82681D01*
X84273Y81236D01*
X83709Y81124D01*
X83165Y81423D01*
X83151Y81532D01*
X82753Y82493D01*
X82119Y83319D01*
X81293Y83953D01*
X80332Y84351D01*
X79300Y84487D01*
X78268Y84351D01*
X77307Y83953D01*
X76481Y83319D01*
X75847Y82493D01*
X75449Y81532D01*
X75313Y80500D01*
X75449Y79468D01*
X75847Y78507D01*
X76481Y77681D01*
X77307Y77047D01*
X77350Y77029D01*
X77250Y76529D01*
X21050D01*
X20950Y77029D01*
X20993Y77047D01*
X21819Y77681D01*
X22453Y78507D01*
X22851Y79468D01*
X22987Y80500D01*
X22851Y81532D01*
X22453Y82493D01*
X21819Y83319D01*
X20993Y83953D01*
X20032Y84351D01*
X19000Y84487D01*
X17968Y84351D01*
X17007Y83953D01*
X16181Y83319D01*
X15547Y82493D01*
X15149Y81532D01*
X15013Y80500D01*
X15149Y79468D01*
X15547Y78507D01*
X16181Y77681D01*
X17007Y77047D01*
X17050Y77029D01*
X16950Y76529D01*
X11733D01*
X8529Y79734D01*
Y104988D01*
X12870D01*
Y106427D01*
X19266D01*
X22775Y102919D01*
D02*
G37*
D11*
X93700Y176256D02*
X95100D01*
X79500Y148606D02*
X90200D01*
X76300D02*
X79500D01*
X70799D02*
X76300D01*
X130417Y33883D02*
Y60167D01*
X102800Y23810D02*
Y27000D01*
X95100Y176256D02*
X104000D01*
X68144D02*
X93700D01*
X22156D02*
X68144D01*
X14000Y132709D02*
X17500D01*
X13747D02*
X14000D01*
X18700D02*
X23450D01*
X8000Y130800D02*
X10000D01*
X62000Y130106D02*
Y145350D01*
X82437Y209637D02*
Y213500D01*
Y208000D02*
Y209637D01*
X24000Y151100D02*
X45400D01*
X109748Y159600D02*
Y160555D01*
Y155051D02*
Y159600D01*
X38250Y158606D02*
X47094D01*
X14500Y161900D02*
X17500D01*
X90930Y36000D02*
X91780D01*
X30400D02*
X90930D01*
X10600Y126457D02*
X16000D01*
X18457Y107957D02*
X19900D01*
X10000D02*
X18457D01*
X21189Y147900D02*
X50389Y118700D01*
X17500Y151589D02*
X21189Y147900D01*
X29000Y100500D02*
X30200Y101700D01*
X29000Y100500D02*
X174154D01*
X101055Y36055D02*
X101300D01*
X79300Y57100D02*
X90700D01*
X63600Y172000D02*
X68144Y176256D01*
X63600Y143068D02*
Y172000D01*
Y143068D02*
X65368Y141300D01*
X75000D01*
X76300Y142600D01*
Y148606D01*
X98386Y163386D02*
Y170186D01*
X101300Y173100D01*
X138300D01*
X161900Y196700D01*
X21700Y153606D02*
X51902D01*
X137524Y216650D02*
X171201D01*
X134374Y213500D02*
X137524Y216650D01*
X24000Y151100D02*
Y151200D01*
X45400Y151100D02*
X51902Y148606D01*
X102900Y93500D02*
X173958D01*
X178854Y98396D01*
Y178997D01*
X171201Y186650D02*
X178854Y178997D01*
X79300Y90500D02*
X163000D01*
X176000Y77500D01*
Y56150D02*
Y77500D01*
X171500Y51650D02*
X176000Y56150D01*
X94000Y38220D02*
X95500D01*
X90930Y18000D02*
Y36000D01*
Y18000D02*
X93150Y15780D01*
X95500D01*
X65200Y108606D02*
X82350D01*
X47650Y108106D02*
X65200Y108606D01*
X33100Y163756D02*
X38250Y158606D01*
X17500Y163756D02*
X33100D01*
X18457Y107957D02*
X20500Y110000D01*
Y121957D01*
X16000Y126457D02*
X20500Y121957D01*
X155114Y152886D02*
X157748D01*
X154500Y153500D02*
X155114Y152886D01*
X122100Y153500D02*
X154500D01*
X121000Y154600D02*
X122100Y153500D01*
X21189Y147900D02*
X44000D01*
X143050Y41650D02*
X171500D01*
X30200Y101700D02*
X71100D01*
X171201Y206650D02*
X175700Y211149D01*
Y220000D01*
X174500Y221200D02*
X175700Y220000D01*
X129700Y221200D02*
X174500D01*
X126500Y218000D02*
X129700Y221200D01*
X126500Y213500D02*
Y218000D01*
X105400Y164200D02*
X109200Y168000D01*
X139750D01*
X164800Y193050D01*
X167601D01*
X171201Y196650D01*
X95500Y28270D02*
Y31921D01*
X92530Y25300D02*
X95500Y28270D01*
X92530Y19010D02*
Y25300D01*
Y19010D02*
X98000D01*
X102800Y23810D01*
Y27000D02*
X107583D01*
X95500Y22079D02*
X98000D01*
X99000Y23079D01*
Y34000D01*
X101055Y36055D01*
X84300Y79100D02*
X86800Y81600D01*
X166700D01*
X76600Y151300D02*
X77200Y151900D01*
X146820D01*
X148220Y150500D01*
X155400D01*
X156400Y149500D01*
X160000D01*
X165100Y144400D01*
Y111101D02*
Y144400D01*
Y111101D02*
X171201Y105000D01*
Y115000D02*
X177254Y121053D01*
Y170046D01*
X175700Y171600D02*
X177254Y170046D01*
X169100Y171600D02*
X175700D01*
X166700Y174000D02*
X169100Y171600D01*
X166700Y174000D02*
Y190000D01*
X167900Y191200D01*
X172900D01*
X175700Y194000D01*
Y200000D01*
X174500Y201200D02*
X175700Y200000D01*
X149800Y201200D02*
X174500D01*
X147000Y204000D02*
X149800Y201200D01*
X55157Y204000D02*
X147000D01*
X51157Y200000D02*
X55157Y204000D01*
X19000Y90500D02*
X29000Y100500D01*
X174154D02*
X175654Y102000D01*
Y108000D01*
X173154Y110500D02*
X175654Y108000D01*
X168000Y110500D02*
X173154D01*
X166700Y111800D02*
X168000Y110500D01*
X166700Y111800D02*
Y128000D01*
X169247Y130547D01*
X175654D01*
Y162197D01*
X171201Y166650D02*
X175654Y162197D01*
X93700Y177300D02*
X94056D01*
X95100Y176256D01*
X96386Y165386D02*
X98386Y163386D01*
X70586Y165386D02*
X96386D01*
X65200Y160000D02*
X70586Y165386D01*
X65200Y146006D02*
Y160000D01*
Y146006D02*
X67600Y143606D01*
X70799D01*
X51902Y153606D02*
X53743D01*
X62000Y145350D01*
Y130106D02*
X64150D01*
X104000Y167428D02*
Y169957D01*
X103074Y166502D02*
X104000Y167428D01*
X103074Y163000D02*
Y166502D01*
Y163000D02*
X104280Y161794D01*
X107554D01*
X109748Y159600D01*
X100000Y142807D02*
X118965D01*
X93300Y136107D02*
X100000Y142807D01*
X93300Y107500D02*
Y136107D01*
X90000Y104200D02*
X93300Y107500D01*
X87000Y104200D02*
X90000D01*
X85500Y105700D02*
X87000Y104200D01*
X85500Y105700D02*
Y113200D01*
X80000Y118700D02*
X85500Y113200D01*
X50389Y118700D02*
X80000D01*
X17500Y151589D02*
Y157457D01*
X70799Y158606D02*
X98806D01*
X41700Y164000D02*
Y169700D01*
Y164000D02*
X47094Y158606D01*
X51902D01*
X39346Y189050D02*
X42496Y192200D01*
Y195106D01*
X130417Y27000D02*
Y33883D01*
X89300Y75000D02*
X130417Y33883D01*
X11100Y75000D02*
X89300D01*
X7000Y79100D02*
X11100Y75000D01*
X7000Y79100D02*
Y113256D01*
X8000Y114256D01*
X10000D01*
X179300Y-7200D02*
Y-5800D01*
X178000Y-4500D02*
X179300Y-5800D01*
X175000Y-4500D02*
X178000D01*
X17500Y139008D02*
X22900D01*
X47650Y114258D01*
Y108106D02*
Y114258D01*
X12900Y133809D02*
X14000Y132709D01*
X12900Y133809D02*
Y167000D01*
X22156Y176256D01*
X16801Y120256D02*
X17500D01*
X10600Y126457D02*
X16801Y120256D01*
X10000Y126457D02*
X10600D01*
X10000Y130800D02*
Y132756D01*
X7000Y129800D02*
X8000Y130800D01*
X7000Y123300D02*
Y129800D01*
Y123300D02*
X9500D01*
X10000Y122800D01*
Y114256D02*
Y122800D01*
X17500Y132709D02*
X18700D01*
X41350Y110058D01*
Y108106D02*
Y110058D01*
X36197Y195106D02*
Y197000D01*
X37297Y198100D01*
X46300D01*
X68144Y176256D01*
X130417Y60167D02*
X141900Y71650D01*
X171500D01*
X155820Y146980D02*
X157748D01*
X154048Y148752D02*
X155820Y146980D01*
X109748Y148752D02*
X154048D01*
X79300Y57100D02*
Y60500D01*
X90700Y57100D02*
X101300Y46500D01*
Y36055D02*
Y46500D01*
Y36055D02*
X107583D01*
X112000Y162807D02*
X118965D01*
X109748Y160555D02*
X112000Y162807D01*
X134917Y-4500D02*
X168701D01*
X130417Y0D02*
X134917Y-4500D01*
X130417Y0D02*
Y27000D01*
X171201Y135000D02*
Y148199D01*
X164000Y155400D02*
X171201Y148199D01*
X147800Y155400D02*
X164000D01*
X140393Y162807D02*
X147800Y155400D01*
X118965Y162807D02*
X140393D01*
X88650Y108606D02*
Y139457D01*
X79500Y148606D02*
X88650Y139457D01*
X51902Y148606D02*
X56244D01*
X57850Y147000D01*
Y130106D02*
Y147000D01*
X19000Y30500D02*
X24900D01*
X30400Y36000D01*
X91780D02*
X94000Y38220D01*
X47650Y106000D02*
Y108106D01*
X45650Y104000D02*
X47650Y106000D01*
X23857Y104000D02*
X45650D01*
X19900Y107957D02*
X23857Y104000D01*
X43400Y213500D02*
X74563D01*
X38100Y218800D02*
X43400Y213500D01*
X24000Y218800D02*
X38100D01*
X22626Y217426D02*
X24000Y218800D01*
X22626Y213500D02*
Y217426D01*
X30500Y209700D02*
Y213500D01*
Y209700D02*
X32000Y208200D01*
X81000D01*
X82437Y209637D01*
X134374Y209174D02*
Y213500D01*
X132000Y206800D02*
X134374Y209174D01*
X83637Y206800D02*
X132000D01*
X82437Y208000D02*
X83637Y206800D01*
X122700Y213500D02*
X126500D01*
X109900Y226300D02*
X122700Y213500D01*
X83200Y226300D02*
X109900D01*
X74563Y217663D02*
X83200Y226300D01*
X74563Y213500D02*
Y217663D01*
X17500Y161900D02*
Y163756D01*
X14500Y139008D02*
Y161900D01*
Y139008D02*
X17500D01*
X16130Y113957D02*
X17500D01*
X15831Y114256D02*
X16130Y113957D01*
X10000Y114256D02*
X15831D01*
X107583Y27000D02*
X130417D01*
X90346Y148752D02*
X109748D01*
X90200Y148606D02*
X90346Y148752D01*
X13700Y132756D02*
X13747Y132709D01*
X10000Y132756D02*
X13700D01*
X90945Y155051D02*
X109748D01*
X89500Y153606D02*
X90945Y155051D01*
X70799Y153606D02*
X89500D01*
X102565Y17945D02*
X107583D01*
X100400Y15780D02*
X102565Y17945D01*
X95500Y15780D02*
X100400D01*
D31*
X171500Y21650D02*
D03*
Y31650D02*
D03*
Y41650D02*
D03*
Y51650D02*
D03*
Y61650D02*
D03*
D32*
Y71650D02*
D03*
D33*
X171201Y135000D02*
D03*
Y166650D02*
D03*
X19000Y10500D02*
D03*
X79300D02*
D03*
D34*
X171201Y125000D02*
D03*
Y115000D02*
D03*
Y105000D02*
D03*
Y176650D02*
D03*
Y186650D02*
D03*
Y196650D02*
D03*
Y206650D02*
D03*
Y216650D02*
D03*
Y226650D02*
D03*
Y236650D02*
D03*
X19000Y30500D02*
D03*
Y40500D02*
D03*
Y50500D02*
D03*
Y60500D02*
D03*
Y70500D02*
D03*
Y80500D02*
D03*
Y90500D02*
D03*
Y20500D02*
D03*
X79300Y30500D02*
D03*
Y40500D02*
D03*
Y50500D02*
D03*
Y60500D02*
D03*
Y70500D02*
D03*
Y80500D02*
D03*
Y90500D02*
D03*
Y20500D02*
D03*
D35*
X16500Y195000D02*
D03*
X138500D02*
D03*
X150500Y14938D02*
D03*
X45000D02*
D03*
D36*
X30500Y213500D02*
D03*
X82437D02*
D03*
X134374D02*
D03*
D37*
X22626D02*
D03*
X74563D02*
D03*
X126500D02*
D03*
D38*
X118965Y162807D02*
D03*
D39*
X148965D02*
D03*
Y142807D02*
D03*
X118965D02*
D03*
D40*
X98386Y163386D02*
D03*
X161900Y196700D02*
D03*
X21700Y153606D02*
D03*
X24000Y151200D02*
D03*
X102900Y93500D02*
D03*
X121000Y154600D02*
D03*
X44000Y147900D02*
D03*
X143050Y41650D02*
D03*
X71100Y101700D02*
D03*
X105400Y164200D02*
D03*
X84300Y79100D02*
D03*
X166700Y81600D02*
D03*
X76600Y151300D02*
D03*
X51157Y200000D02*
D03*
X93700Y177300D02*
D03*
X98806Y158606D02*
D03*
X41700Y169700D02*
D03*
X39346Y189050D02*
D03*
X23450Y132709D02*
D03*
X179300Y-7200D02*
D03*
D41*
X130417Y27000D02*
D03*
D42*
X107583Y36055D02*
D03*
Y27000D02*
D03*
Y17945D02*
D03*
D43*
X95500Y15780D02*
D03*
Y22079D02*
D03*
Y38220D02*
D03*
Y31921D02*
D03*
X17500Y120256D02*
D03*
Y113957D02*
D03*
X109748Y155051D02*
D03*
Y148752D02*
D03*
X10000Y107957D02*
D03*
Y114256D02*
D03*
X17500Y139008D02*
D03*
Y132709D02*
D03*
X104000Y169957D02*
D03*
Y176256D02*
D03*
X17500Y163756D02*
D03*
Y157457D02*
D03*
X10000Y126457D02*
D03*
Y132756D02*
D03*
D44*
X64150Y130106D02*
D03*
X57850D02*
D03*
X175000Y-4500D02*
D03*
X168701D02*
D03*
D45*
X51902Y143606D02*
D03*
Y148606D02*
D03*
Y153606D02*
D03*
Y158606D02*
D03*
X70799Y143606D02*
D03*
Y148606D02*
D03*
Y153606D02*
D03*
Y158606D02*
D03*
D46*
X157748Y146980D02*
D03*
Y152886D02*
D03*
D47*
X47650Y108106D02*
D03*
X41350D02*
D03*
X82350Y108606D02*
D03*
X88650D02*
D03*
X42496Y195106D02*
D03*
X36197D02*
D03*
M02*
