G04*
G04 #@! TF.GenerationSoftware,Altium Limited,Altium Designer,18.1.6 (161)*
G04*
G04 Layer_Color=32768*
%FSLAX25Y25*%
%MOIN*%
G70*
G01*
G75*
%ADD11C,0.01000*%
%ADD55C,0.00394*%
%ADD56C,0.00197*%
D11*
X163500Y13650D02*
Y79650D01*
Y13650D02*
X179500D01*
Y79650D01*
X163500D02*
X179500D01*
D55*
X119000Y25031D02*
Y28969D01*
X117032Y27000D02*
X120969D01*
X93630Y18929D02*
X97370D01*
X95500Y17059D02*
Y20799D01*
X93630Y35071D02*
X97370D01*
X95500Y33201D02*
Y36941D01*
X15630Y117106D02*
X19370D01*
X17500Y115236D02*
Y118976D01*
X61000Y128236D02*
Y131976D01*
X59130Y130106D02*
X62870D01*
X107878Y151902D02*
X111618D01*
X109748Y150032D02*
Y153772D01*
X169980Y-4500D02*
X173720D01*
X171850Y-6370D02*
Y-2630D01*
Y-6370D02*
Y-2630D01*
X169980Y-4500D02*
X173720D01*
X61350Y149138D02*
Y153075D01*
X59382Y151106D02*
X63319D01*
X155583Y145209D02*
X159913D01*
X155583Y154657D02*
X159913D01*
Y145209D02*
Y154657D01*
X155583Y145209D02*
Y154657D01*
X157748Y148063D02*
Y151803D01*
X155878Y149933D02*
X159618D01*
X8130Y111106D02*
X11870D01*
X10000Y109236D02*
Y112976D01*
X15630Y135858D02*
X19370D01*
X17500Y133988D02*
Y137728D01*
X102130Y173106D02*
X105870D01*
X104000Y171236D02*
Y174976D01*
X44500Y106236D02*
Y109976D01*
X42630Y108106D02*
X46370D01*
X85500Y106736D02*
Y110476D01*
X83630Y108606D02*
X87370D01*
X39346Y193236D02*
Y196976D01*
X37476Y195106D02*
X41217D01*
X15630Y160606D02*
X19370D01*
X17500Y158736D02*
Y162476D01*
X8130Y129606D02*
X11870D01*
X10000Y127736D02*
Y131476D01*
X59032Y151606D02*
X62969D01*
X61000Y149638D02*
Y153575D01*
D56*
X101874Y41173D02*
X136126D01*
X101874Y12827D02*
X136126D01*
Y41173D01*
X101874Y12827D02*
Y41173D01*
X98453Y12827D02*
Y25032D01*
X92547Y12827D02*
Y25032D01*
Y12827D02*
X98453D01*
X92547Y25032D02*
X98453D01*
X92547Y28968D02*
Y41173D01*
X98453Y28968D02*
Y41173D01*
X92547D02*
X98453D01*
X92547Y28968D02*
X98453D01*
X14547Y111004D02*
Y123209D01*
X20453Y111004D02*
Y123209D01*
X14547D02*
X20453D01*
X14547Y111004D02*
X20453D01*
X54898Y133059D02*
X67102D01*
X54898Y127153D02*
X67102D01*
Y133059D01*
X54898Y127153D02*
Y133059D01*
X106795Y145799D02*
Y158004D01*
X112701Y145799D02*
Y158004D01*
X106795D02*
X112701D01*
X106795Y145799D02*
X112701D01*
X165748Y-7453D02*
Y-1547D01*
X177953Y-7453D02*
Y-1547D01*
X165748D02*
X177953D01*
X165748Y-7453D02*
X177953D01*
X165748Y-1547D02*
X177953D01*
X165748Y-7453D02*
X177953D01*
Y-1547D01*
X165748Y-7453D02*
Y-1547D01*
X46587Y140279D02*
X76114D01*
X46587Y161933D02*
X76114D01*
X46587Y140279D02*
Y161933D01*
X76114Y140279D02*
Y161933D01*
X12953Y105004D02*
Y117209D01*
X7047Y105004D02*
Y117209D01*
Y105004D02*
X12953D01*
X7047Y117209D02*
X12953D01*
X14547Y129756D02*
Y141961D01*
X20453Y129756D02*
Y141961D01*
X14547D02*
X20453D01*
X14547Y129756D02*
X20453D01*
X106953Y167004D02*
Y179209D01*
X101047Y167004D02*
Y179209D01*
Y167004D02*
X106953D01*
X101047Y179209D02*
X106953D01*
X38398Y111059D02*
X50602D01*
X38398Y105153D02*
X50602D01*
Y111059D01*
X38398Y105153D02*
Y111059D01*
X79398Y105653D02*
X91602D01*
X79398Y111559D02*
X91602D01*
X79398Y105653D02*
Y111559D01*
X91602Y105653D02*
Y111559D01*
X33244Y198059D02*
X45449D01*
X33244Y192153D02*
X45449D01*
Y198059D01*
X33244Y192153D02*
Y198059D01*
X14547Y154504D02*
Y166708D01*
X20453Y154504D02*
Y166708D01*
X14547D02*
X20453D01*
X14547Y154504D02*
X20453D01*
X12953Y123504D02*
Y135709D01*
X7047Y123504D02*
Y135709D01*
Y123504D02*
X12953D01*
X7047Y135709D02*
X12953D01*
X26748Y117354D02*
Y185858D01*
X95252Y117354D02*
Y185858D01*
X26748D02*
X95252D01*
X26748Y117354D02*
X95252D01*
M02*
