G04*
G04 #@! TF.GenerationSoftware,Altium Limited,Altium Designer,18.1.6 (161)*
G04*
G04 Layer_Color=32896*
%FSLAX25Y25*%
%MOIN*%
G70*
G01*
G75*
%ADD10C,0.02362*%
%ADD11C,0.01000*%
%ADD12C,0.00984*%
%ADD13C,0.00787*%
%ADD15C,0.00600*%
D10*
X66469Y157012D02*
G03*
X66469Y157012I-1181J0D01*
G01*
D11*
X135200Y48298D02*
X131201Y44300D01*
X135200D02*
X131201Y48298D01*
X135200Y46299D02*
X131201D01*
X133201Y44300D02*
Y48298D01*
D12*
X108075Y13811D02*
G03*
X108075Y13811I-492J0D01*
G01*
X71291Y161953D02*
G03*
X71291Y161953I-492J0D01*
G01*
D13*
X113488Y40189D02*
X124512D01*
X113488Y13811D02*
X124512D01*
Y40189D01*
X113488Y13811D02*
Y40189D01*
X53476Y141264D02*
X69224D01*
X53476Y160949D02*
X69224D01*
X53476Y141264D02*
Y160949D01*
X69224Y141264D02*
Y160949D01*
X159126Y149146D02*
Y150720D01*
X156370Y149146D02*
Y150720D01*
D15*
X90832Y17595D02*
X91499Y16928D01*
Y15596D01*
X90832Y14929D01*
X88166D01*
X87500Y15596D01*
Y16928D01*
X88166Y17595D01*
X87500Y18928D02*
Y20261D01*
Y19594D01*
X91499D01*
X90832Y18928D01*
X87500Y22260D02*
Y23593D01*
Y22927D01*
X91499D01*
X90832Y22260D01*
Y32237D02*
X91499Y31570D01*
Y30237D01*
X90832Y29571D01*
X88166D01*
X87500Y30237D01*
Y31570D01*
X88166Y32237D01*
X87500Y33569D02*
Y34902D01*
Y34236D01*
X91499D01*
X90832Y33569D01*
X87500Y39568D02*
Y36902D01*
X90166Y39568D01*
X90832D01*
X91499Y38901D01*
Y37568D01*
X90832Y36902D01*
X66000Y135806D02*
Y139805D01*
X64001D01*
X63334Y139138D01*
Y137805D01*
X64001Y137139D01*
X66000D01*
X64667D02*
X63334Y135806D01*
X62001D02*
X60668D01*
X61335D01*
Y139805D01*
X62001Y139138D01*
X58669D02*
X58003Y139805D01*
X56670D01*
X56003Y139138D01*
Y136473D01*
X56670Y135806D01*
X58003D01*
X58669Y136473D01*
Y139138D01*
X159548Y157450D02*
Y161448D01*
X157549D01*
X156882Y160782D01*
Y159449D01*
X157549Y158782D01*
X159548D01*
X158215D02*
X156882Y157450D01*
X152884D02*
X155549D01*
X152884Y160115D01*
Y160782D01*
X153550Y161448D01*
X154883D01*
X155549Y160782D01*
X17334Y172696D02*
X18001Y173362D01*
X19334D01*
X20000Y172696D01*
Y170030D01*
X19334Y169364D01*
X18001D01*
X17334Y170030D01*
X16001Y169364D02*
X14668D01*
X15335D01*
Y173362D01*
X16001Y172696D01*
X42278Y204138D02*
X42945Y204805D01*
X44278D01*
X44944Y204138D01*
Y201473D01*
X44278Y200806D01*
X42945D01*
X42278Y201473D01*
X38280Y200806D02*
X40945D01*
X38280Y203472D01*
Y204138D01*
X38946Y204805D01*
X40279D01*
X40945Y204138D01*
X96834Y109939D02*
X97501Y110605D01*
X98834D01*
X99500Y109939D01*
Y107273D01*
X98834Y106606D01*
X97501D01*
X96834Y107273D01*
X95501Y109939D02*
X94835Y110605D01*
X93502D01*
X92835Y109939D01*
Y109272D01*
X93502Y108606D01*
X94168D01*
X93502D01*
X92835Y107939D01*
Y107273D01*
X93502Y106606D01*
X94835D01*
X95501Y107273D01*
X55334Y109939D02*
X56001Y110605D01*
X57334D01*
X58000Y109939D01*
Y107273D01*
X57334Y106606D01*
X56001D01*
X55334Y107273D01*
X52002Y106606D02*
Y110605D01*
X54001Y108606D01*
X51336D01*
X104334Y186585D02*
X105001Y187251D01*
X106333D01*
X107000Y186585D01*
Y183919D01*
X106333Y183253D01*
X105001D01*
X104334Y183919D01*
X100336Y187251D02*
X103001D01*
Y185252D01*
X101668Y185918D01*
X101002D01*
X100336Y185252D01*
Y183919D01*
X101002Y183253D01*
X102335D01*
X103001Y183919D01*
X109582Y164082D02*
X110249Y164748D01*
X111582D01*
X112248Y164082D01*
Y161416D01*
X111582Y160750D01*
X110249D01*
X109582Y161416D01*
X105584Y164748D02*
X106916Y164082D01*
X108249Y162749D01*
Y161416D01*
X107583Y160750D01*
X106250D01*
X105584Y161416D01*
Y162083D01*
X106250Y162749D01*
X108249D01*
X9834Y140438D02*
X10501Y141105D01*
X11834D01*
X12500Y140438D01*
Y137773D01*
X11834Y137106D01*
X10501D01*
X9834Y137773D01*
X8501Y141105D02*
X5835D01*
Y140438D01*
X8501Y137773D01*
Y137106D01*
X19834Y147939D02*
X20501Y148605D01*
X21834D01*
X22500Y147939D01*
Y145273D01*
X21834Y144606D01*
X20501D01*
X19834Y145273D01*
X18501Y147939D02*
X17835Y148605D01*
X16502D01*
X15835Y147939D01*
Y147272D01*
X16502Y146606D01*
X15835Y145939D01*
Y145273D01*
X16502Y144606D01*
X17835D01*
X18501Y145273D01*
Y145939D01*
X17835Y146606D01*
X18501Y147272D01*
Y147939D01*
X17835Y146606D02*
X16502D01*
X18334Y127938D02*
X19001Y128605D01*
X20334D01*
X21000Y127938D01*
Y125273D01*
X20334Y124606D01*
X19001D01*
X18334Y125273D01*
X17001D02*
X16335Y124606D01*
X15002D01*
X14335Y125273D01*
Y127938D01*
X15002Y128605D01*
X16335D01*
X17001Y127938D01*
Y127272D01*
X16335Y126605D01*
X14335D01*
X10834Y121439D02*
X11501Y122105D01*
X12833D01*
X13500Y121439D01*
Y118773D01*
X12833Y118106D01*
X11501D01*
X10834Y118773D01*
X9501Y118106D02*
X8168D01*
X8835D01*
Y122105D01*
X9501Y121439D01*
X6169D02*
X5503Y122105D01*
X4170D01*
X3503Y121439D01*
Y118773D01*
X4170Y118106D01*
X5503D01*
X6169Y118773D01*
Y121439D01*
X175500Y2000D02*
Y5999D01*
X173501D01*
X172834Y5332D01*
Y3999D01*
X173501Y3333D01*
X175500D01*
X174167D02*
X172834Y2000D01*
X171501D02*
X170168D01*
X170835D01*
Y5999D01*
X171501Y5332D01*
X75600Y169505D02*
Y166173D01*
X74934Y165506D01*
X73601D01*
X72934Y166173D01*
Y169505D01*
X69602Y165506D02*
Y169505D01*
X71601Y167506D01*
X68936D01*
X94012Y242451D02*
X94679Y243118D01*
X96012D01*
X96678Y242451D01*
Y239786D01*
X96012Y239119D01*
X94679D01*
X94012Y239786D01*
X92679Y239119D02*
Y241785D01*
X91347Y243118D01*
X90014Y241785D01*
Y239119D01*
Y241119D01*
X92679D01*
X88681Y239119D02*
Y243118D01*
X86015Y239119D01*
Y243118D01*
X84682Y239119D02*
Y241785D01*
X83349Y243118D01*
X82016Y241785D01*
Y239119D01*
Y241119D01*
X84682D01*
X145912Y242451D02*
X146579Y243118D01*
X147912D01*
X148578Y242451D01*
Y239786D01*
X147912Y239119D01*
X146579D01*
X145912Y239786D01*
X144579Y239119D02*
Y241785D01*
X143247Y243118D01*
X141914Y241785D01*
Y239119D01*
Y241119D01*
X144579D01*
X140581Y239119D02*
Y243118D01*
X137915Y239119D01*
Y243118D01*
X136582Y239119D02*
Y241785D01*
X135249Y243118D01*
X133916Y241785D01*
Y239119D01*
Y241119D01*
X136582D01*
X42012Y242451D02*
X42679Y243118D01*
X44012D01*
X44678Y242451D01*
Y239786D01*
X44012Y239119D01*
X42679D01*
X42012Y239786D01*
X40679Y239119D02*
Y241785D01*
X39347Y243118D01*
X38014Y241785D01*
Y239119D01*
Y241119D01*
X40679D01*
X36681Y239119D02*
Y243118D01*
X34015Y239119D01*
Y243118D01*
X32682Y239119D02*
Y241785D01*
X31349Y243118D01*
X30016Y241785D01*
Y239119D01*
Y241119D01*
X32682D01*
M02*
