G04*
G04 #@! TF.GenerationSoftware,Altium Limited,Altium Designer,18.1.6 (161)*
G04*
G04 Layer_Color=65535*
%FSLAX25Y25*%
%MOIN*%
G70*
G01*
G75*
%ADD10C,0.02362*%
%ADD11C,0.01000*%
%ADD12C,0.00984*%
%ADD13C,0.00787*%
%ADD14C,0.00500*%
%ADD15C,0.00600*%
G36*
X147537Y95103D02*
X148841D01*
Y94777D01*
X149819D01*
Y94451D01*
X150145D01*
Y94125D01*
X150797D01*
Y93799D01*
X151123D01*
Y93473D01*
X151449D01*
Y93147D01*
X151775D01*
Y92821D01*
X152101D01*
Y92495D01*
X152427D01*
Y92169D01*
X152753D01*
Y91843D01*
X153079D01*
Y91517D01*
Y91191D01*
X153405D01*
Y90865D01*
X153731D01*
Y90539D01*
Y90213D01*
Y89887D01*
Y89561D01*
X154057D01*
Y89235D01*
Y88909D01*
Y88583D01*
Y88257D01*
Y87932D01*
X154383D01*
Y87606D01*
Y87279D01*
Y86954D01*
Y86628D01*
Y86301D01*
Y85976D01*
Y85650D01*
Y85324D01*
Y84998D01*
Y84672D01*
Y84346D01*
Y84020D01*
Y83694D01*
Y83368D01*
Y83042D01*
Y82716D01*
Y82390D01*
Y82064D01*
Y81738D01*
Y81412D01*
Y81086D01*
Y80760D01*
Y80434D01*
Y80108D01*
Y79782D01*
Y79456D01*
Y79130D01*
Y78804D01*
Y78478D01*
Y78152D01*
Y77826D01*
Y77500D01*
Y77174D01*
Y76848D01*
Y76522D01*
Y76196D01*
Y75870D01*
Y75544D01*
Y75218D01*
Y74892D01*
Y74566D01*
Y74240D01*
Y73914D01*
Y73588D01*
Y73262D01*
Y72936D01*
Y72610D01*
Y72284D01*
Y71958D01*
Y71632D01*
Y71306D01*
Y70980D01*
Y70654D01*
Y70328D01*
Y70002D01*
Y69676D01*
Y69350D01*
Y69024D01*
Y68699D01*
Y68372D01*
Y68046D01*
Y67721D01*
Y67395D01*
Y67069D01*
Y66743D01*
Y66417D01*
Y66091D01*
Y65765D01*
Y65439D01*
Y65113D01*
Y64787D01*
Y64461D01*
Y64135D01*
Y63809D01*
Y63483D01*
Y63157D01*
Y62831D01*
Y62505D01*
Y62179D01*
Y61853D01*
Y61527D01*
Y61201D01*
Y60875D01*
Y60549D01*
Y60223D01*
Y59897D01*
Y59571D01*
Y59245D01*
Y58919D01*
Y58593D01*
Y58267D01*
Y57941D01*
Y57615D01*
Y57289D01*
Y56963D01*
Y56637D01*
Y56311D01*
Y55985D01*
Y55659D01*
Y55333D01*
Y55007D01*
Y54681D01*
Y54355D01*
X154057D01*
Y54029D01*
Y53703D01*
Y53377D01*
Y53051D01*
X153731D01*
Y52725D01*
Y52399D01*
Y52073D01*
Y51747D01*
X153405D01*
Y51421D01*
Y51095D01*
X153079D01*
Y50769D01*
X152753D01*
Y50443D01*
Y50117D01*
X152427D01*
Y49791D01*
X152101D01*
Y49466D01*
X151775D01*
Y49139D01*
X151449D01*
Y48814D01*
X151123D01*
Y48487D01*
X150471D01*
Y48162D01*
X150145D01*
Y47836D01*
X149167D01*
Y47510D01*
X148515D01*
Y47184D01*
X147211D01*
Y46858D01*
X97988D01*
Y47184D01*
X96684D01*
Y47510D01*
X95706D01*
Y47836D01*
X95054D01*
Y48162D01*
X94402D01*
Y48487D01*
X94076D01*
Y48814D01*
X93750D01*
Y49139D01*
X93098D01*
Y49466D01*
Y49791D01*
X92772D01*
Y50117D01*
X92446D01*
Y50443D01*
X92120D01*
Y50769D01*
Y51095D01*
X91794D01*
Y51421D01*
X91468D01*
Y51747D01*
Y52073D01*
X91142D01*
Y52399D01*
Y52725D01*
Y53051D01*
Y53377D01*
Y53703D01*
X90816D01*
Y54029D01*
Y54355D01*
Y54681D01*
Y55007D01*
Y55333D01*
Y55659D01*
Y55985D01*
Y56311D01*
Y56637D01*
Y56963D01*
Y57289D01*
Y57615D01*
Y57941D01*
Y58267D01*
Y58593D01*
Y58919D01*
Y59245D01*
Y59571D01*
Y59897D01*
Y60223D01*
Y60549D01*
Y60875D01*
Y61201D01*
Y61527D01*
Y61853D01*
Y62179D01*
Y62505D01*
Y62831D01*
Y63157D01*
Y63483D01*
Y63809D01*
Y64135D01*
Y64461D01*
Y64787D01*
Y65113D01*
Y65439D01*
Y65765D01*
Y66091D01*
Y66417D01*
Y66743D01*
Y67069D01*
Y67395D01*
Y67721D01*
Y68046D01*
Y68372D01*
Y68699D01*
Y69024D01*
Y69350D01*
Y69676D01*
Y70002D01*
Y70328D01*
Y70654D01*
Y70980D01*
Y71306D01*
Y71632D01*
Y71958D01*
Y72284D01*
Y72610D01*
Y72936D01*
Y73262D01*
Y73588D01*
Y73914D01*
Y74240D01*
Y74566D01*
Y74892D01*
Y75218D01*
Y75544D01*
Y75870D01*
Y76196D01*
Y76522D01*
Y76848D01*
Y77174D01*
Y77500D01*
Y77826D01*
Y78152D01*
Y78478D01*
Y78804D01*
Y79130D01*
Y79456D01*
Y79782D01*
Y80108D01*
Y80434D01*
Y80760D01*
Y81086D01*
Y81412D01*
Y81738D01*
Y82064D01*
Y82390D01*
Y82716D01*
Y83042D01*
Y83368D01*
Y83694D01*
Y84020D01*
Y84346D01*
Y84672D01*
Y84998D01*
Y85324D01*
Y85650D01*
Y85976D01*
Y86301D01*
Y86628D01*
Y86954D01*
Y87279D01*
Y87606D01*
Y87932D01*
Y88257D01*
Y88583D01*
X91142D01*
Y88909D01*
Y89235D01*
Y89561D01*
Y89887D01*
Y90213D01*
X91468D01*
Y90539D01*
Y90865D01*
X91794D01*
Y91191D01*
Y91517D01*
X92120D01*
Y91843D01*
X92446D01*
Y92169D01*
Y92495D01*
X92772D01*
Y92821D01*
X93098D01*
Y93147D01*
X93424D01*
Y93473D01*
X93750D01*
Y93799D01*
X94402D01*
Y94125D01*
X94728D01*
Y94451D01*
X95054D01*
Y94777D01*
X96358D01*
Y95103D01*
X97336D01*
Y95429D01*
X147537D01*
Y95103D01*
D02*
G37*
%LPC*%
G36*
X146885Y92169D02*
X98313D01*
Y91843D01*
X97336D01*
Y91517D01*
X96684D01*
Y91191D01*
X96358D01*
Y90865D01*
X95706D01*
Y90539D01*
X95380D01*
Y90213D01*
X95054D01*
Y89887D01*
Y89561D01*
X94728D01*
Y89235D01*
Y88909D01*
X94402D01*
Y88583D01*
Y88257D01*
Y87932D01*
X94076D01*
Y87606D01*
Y87279D01*
Y86954D01*
Y86628D01*
Y86301D01*
Y85976D01*
Y85650D01*
Y85324D01*
Y84998D01*
Y84672D01*
Y84346D01*
Y84020D01*
Y83694D01*
Y83368D01*
Y83042D01*
Y82716D01*
Y82390D01*
Y82064D01*
Y81738D01*
Y81412D01*
Y81086D01*
Y80760D01*
Y80434D01*
Y80108D01*
Y79782D01*
Y79456D01*
Y79130D01*
Y78804D01*
Y78478D01*
Y78152D01*
Y77826D01*
Y77500D01*
Y77174D01*
Y76848D01*
Y76522D01*
Y76196D01*
Y75870D01*
Y75544D01*
Y75218D01*
Y74892D01*
Y74566D01*
Y74240D01*
Y73914D01*
Y73588D01*
Y73262D01*
Y72936D01*
Y72610D01*
Y72284D01*
Y71958D01*
Y71632D01*
Y71306D01*
Y70980D01*
Y70654D01*
Y70328D01*
Y70002D01*
Y69676D01*
Y69350D01*
Y69024D01*
Y68699D01*
Y68372D01*
Y68046D01*
Y67721D01*
Y67395D01*
Y67069D01*
Y66743D01*
Y66417D01*
Y66091D01*
Y65765D01*
Y65439D01*
Y65113D01*
Y64787D01*
Y64461D01*
Y64135D01*
Y63809D01*
Y63483D01*
Y63157D01*
Y62831D01*
Y62505D01*
Y62179D01*
Y61853D01*
Y61527D01*
Y61201D01*
Y60875D01*
Y60549D01*
Y60223D01*
Y59897D01*
Y59571D01*
Y59245D01*
Y58919D01*
Y58593D01*
Y58267D01*
Y57941D01*
Y57615D01*
Y57289D01*
Y56963D01*
Y56637D01*
Y56311D01*
Y55985D01*
Y55659D01*
Y55333D01*
Y55007D01*
Y54681D01*
X94402D01*
Y54355D01*
Y54029D01*
Y53703D01*
Y53377D01*
X94728D01*
Y53051D01*
X95054D01*
Y52725D01*
Y52399D01*
Y52073D01*
X95380D01*
Y51747D01*
X96032D01*
Y51421D01*
X96358D01*
Y51095D01*
X96684D01*
Y50769D01*
X97662D01*
Y50443D01*
X147537D01*
Y50769D01*
X148189D01*
Y51095D01*
X148515D01*
Y51421D01*
X149167D01*
Y51747D01*
X149493D01*
Y52073D01*
X149819D01*
Y52399D01*
Y52725D01*
X150145D01*
Y53051D01*
X150471D01*
Y53377D01*
Y53703D01*
X150797D01*
Y54029D01*
Y54355D01*
Y54681D01*
Y55007D01*
Y55333D01*
Y55659D01*
Y55985D01*
Y56311D01*
Y56637D01*
Y56963D01*
Y57289D01*
Y57615D01*
Y57941D01*
Y58267D01*
Y58593D01*
Y58919D01*
Y59245D01*
Y59571D01*
Y59897D01*
Y60223D01*
Y60549D01*
Y60875D01*
Y61201D01*
Y61527D01*
Y61853D01*
Y62179D01*
Y62505D01*
Y62831D01*
Y63157D01*
Y63483D01*
Y63809D01*
Y64135D01*
Y64461D01*
Y64787D01*
Y65113D01*
Y65439D01*
Y65765D01*
Y66091D01*
Y66417D01*
Y66743D01*
Y67069D01*
Y67395D01*
Y67721D01*
Y68046D01*
Y68372D01*
Y68699D01*
Y69024D01*
Y69350D01*
Y69676D01*
Y70002D01*
Y70328D01*
Y70654D01*
Y70980D01*
Y71306D01*
Y71632D01*
Y71958D01*
Y72284D01*
Y72610D01*
Y72936D01*
Y73262D01*
Y73588D01*
Y73914D01*
Y74240D01*
Y74566D01*
Y74892D01*
Y75218D01*
Y75544D01*
Y75870D01*
Y76196D01*
Y76522D01*
Y76848D01*
Y77174D01*
Y77500D01*
Y77826D01*
Y78152D01*
Y78478D01*
Y78804D01*
Y79130D01*
Y79456D01*
Y79782D01*
Y80108D01*
Y80434D01*
Y80760D01*
Y81086D01*
Y81412D01*
Y81738D01*
Y82064D01*
Y82390D01*
Y82716D01*
Y83042D01*
Y83368D01*
Y83694D01*
Y84020D01*
Y84346D01*
Y84672D01*
Y84998D01*
Y85324D01*
Y85650D01*
Y85976D01*
Y86301D01*
Y86628D01*
Y86954D01*
Y87279D01*
Y87606D01*
Y87932D01*
Y88257D01*
Y88583D01*
X150471D01*
Y88909D01*
Y89235D01*
X150145D01*
Y89561D01*
Y89887D01*
X149819D01*
Y90213D01*
Y90539D01*
X149493D01*
Y90865D01*
X148841D01*
Y91191D01*
X148515D01*
Y91517D01*
X147863D01*
Y91843D01*
X146885D01*
Y92169D01*
D02*
G37*
%LPD*%
G36*
X121458Y88583D02*
Y88257D01*
Y87932D01*
Y87606D01*
Y87279D01*
Y86954D01*
Y86628D01*
Y86301D01*
Y85976D01*
Y85650D01*
Y85324D01*
Y84998D01*
Y84672D01*
Y84346D01*
Y84020D01*
Y83694D01*
Y83368D01*
Y83042D01*
Y82716D01*
Y82390D01*
Y82064D01*
Y81738D01*
Y81412D01*
Y81086D01*
Y80760D01*
Y80434D01*
Y80108D01*
Y79782D01*
Y79456D01*
Y79130D01*
Y78804D01*
Y78478D01*
Y78152D01*
Y77826D01*
Y77500D01*
Y77174D01*
Y76848D01*
Y76522D01*
Y76196D01*
Y75870D01*
Y75544D01*
Y75218D01*
Y74892D01*
Y74566D01*
Y74240D01*
Y73914D01*
Y73588D01*
Y73262D01*
Y72936D01*
Y72610D01*
Y72284D01*
Y71958D01*
Y71632D01*
Y71306D01*
Y70980D01*
Y70654D01*
Y70328D01*
Y70002D01*
Y69676D01*
Y69350D01*
Y69024D01*
Y68699D01*
Y68372D01*
Y68046D01*
Y67721D01*
Y67395D01*
Y67069D01*
Y66743D01*
Y66417D01*
Y66091D01*
Y65765D01*
Y65439D01*
Y65113D01*
Y64787D01*
Y64461D01*
Y64135D01*
Y63809D01*
Y63483D01*
Y63157D01*
Y62831D01*
Y62505D01*
Y62179D01*
Y61853D01*
Y61527D01*
Y61201D01*
Y60875D01*
Y60549D01*
Y60223D01*
Y59897D01*
Y59571D01*
Y59245D01*
Y58919D01*
Y58593D01*
Y58267D01*
Y57941D01*
Y57615D01*
Y57289D01*
Y56963D01*
Y56637D01*
Y56311D01*
X115917D01*
Y56637D01*
Y56963D01*
Y57289D01*
Y57615D01*
Y57941D01*
X119828D01*
Y58267D01*
Y58593D01*
Y58919D01*
Y59245D01*
Y59571D01*
Y59897D01*
Y60223D01*
Y60549D01*
Y60875D01*
Y61201D01*
Y61527D01*
Y61853D01*
Y62179D01*
Y62505D01*
Y62831D01*
Y63157D01*
Y63483D01*
Y63809D01*
Y64135D01*
Y64461D01*
Y64787D01*
Y65113D01*
Y65439D01*
Y65765D01*
Y66091D01*
Y66417D01*
Y66743D01*
Y67069D01*
Y67395D01*
Y67721D01*
Y68046D01*
Y68372D01*
Y68699D01*
Y69024D01*
Y69350D01*
Y69676D01*
Y70002D01*
Y70328D01*
Y70654D01*
X119502D01*
Y70980D01*
X118850D01*
Y71306D01*
X118524D01*
Y71632D01*
X118199D01*
Y71958D01*
X117873D01*
Y72284D01*
X117546D01*
Y72610D01*
X117220D01*
Y72936D01*
X116894D01*
Y73262D01*
X116569D01*
Y73588D01*
X116243D01*
Y73914D01*
X115591D01*
Y74240D01*
Y74566D01*
X114939D01*
Y74892D01*
X114613D01*
Y75218D01*
X114287D01*
Y75544D01*
X113961D01*
Y75870D01*
X113635D01*
Y76196D01*
X113309D01*
Y76522D01*
X112983D01*
Y76848D01*
X112657D01*
Y77174D01*
X112005D01*
Y77500D01*
X111679D01*
Y77826D01*
X111353D01*
Y78152D01*
X111027D01*
Y78478D01*
X110701D01*
Y78804D01*
X110375D01*
Y79130D01*
X110049D01*
Y79456D01*
X109723D01*
Y79782D01*
X109397D01*
Y79456D01*
X109071D01*
Y79130D01*
Y78804D01*
Y78478D01*
X108745D01*
Y78152D01*
Y77826D01*
X108419D01*
Y77500D01*
Y77174D01*
Y76848D01*
X108093D01*
Y76522D01*
Y76196D01*
Y75870D01*
Y75544D01*
Y75218D01*
X107767D01*
Y74892D01*
Y74566D01*
X107441D01*
Y74240D01*
Y73914D01*
Y73588D01*
X107115D01*
Y73262D01*
Y72936D01*
Y72610D01*
X106789D01*
Y72284D01*
Y71958D01*
Y71632D01*
Y71306D01*
X106463D01*
Y70980D01*
Y70654D01*
Y70328D01*
X106137D01*
Y70002D01*
Y69676D01*
X105811D01*
Y69350D01*
Y69024D01*
Y68699D01*
X105485D01*
Y68372D01*
Y68046D01*
Y67721D01*
Y67395D01*
Y67069D01*
X105159D01*
Y66743D01*
Y66417D01*
Y66091D01*
X104833D01*
Y65765D01*
Y65439D01*
X104507D01*
Y65113D01*
Y64787D01*
Y64461D01*
X104181D01*
Y64135D01*
Y63809D01*
Y63483D01*
Y63157D01*
X103855D01*
Y62831D01*
Y62505D01*
Y62179D01*
X103529D01*
Y61853D01*
Y61527D01*
Y61201D01*
X103203D01*
Y60875D01*
Y60549D01*
X102877D01*
Y60223D01*
Y59897D01*
Y59571D01*
Y59245D01*
Y58919D01*
X104507D01*
Y58593D01*
Y58267D01*
Y57941D01*
Y57615D01*
Y57289D01*
X97336D01*
Y57615D01*
Y57941D01*
Y58267D01*
Y58593D01*
Y58919D01*
X101899D01*
Y59245D01*
X102225D01*
Y59571D01*
Y59897D01*
X102551D01*
Y60223D01*
Y60549D01*
Y60875D01*
X102877D01*
Y61201D01*
Y61527D01*
Y61853D01*
Y62179D01*
Y62505D01*
X103203D01*
Y62831D01*
Y63157D01*
X103529D01*
Y63483D01*
Y63809D01*
Y64135D01*
X103855D01*
Y64461D01*
Y64787D01*
X104181D01*
Y65113D01*
Y65439D01*
Y65765D01*
Y66091D01*
Y66417D01*
X104507D01*
Y66743D01*
Y67069D01*
Y67395D01*
X104833D01*
Y67721D01*
Y68046D01*
X105159D01*
Y68372D01*
Y68699D01*
Y69024D01*
X105485D01*
Y69350D01*
Y69676D01*
Y70002D01*
Y70328D01*
X105811D01*
Y70654D01*
Y70980D01*
Y71306D01*
X106137D01*
Y71632D01*
Y71958D01*
Y72284D01*
X106463D01*
Y72610D01*
Y72936D01*
X106789D01*
Y73262D01*
Y73588D01*
Y73914D01*
Y74240D01*
Y74566D01*
X107115D01*
Y74892D01*
Y75218D01*
X107441D01*
Y75544D01*
Y75870D01*
Y76196D01*
X107767D01*
Y76522D01*
Y76848D01*
Y77174D01*
X108093D01*
Y77500D01*
Y77826D01*
Y78152D01*
Y78478D01*
X108419D01*
Y78804D01*
Y79130D01*
Y79456D01*
X108745D01*
Y79782D01*
Y80108D01*
Y80434D01*
X109071D01*
Y80760D01*
Y81086D01*
X109397D01*
Y81412D01*
Y81738D01*
Y82064D01*
Y82390D01*
Y82716D01*
X109723D01*
Y83042D01*
Y83368D01*
X110049D01*
Y83694D01*
Y84020D01*
Y84346D01*
X110375D01*
Y84672D01*
Y84998D01*
X110701D01*
Y84672D01*
X111027D01*
Y84346D01*
X111353D01*
Y84020D01*
X111679D01*
Y83694D01*
X112005D01*
Y83368D01*
X112331D01*
Y83042D01*
X112657D01*
Y82716D01*
X112983D01*
Y82390D01*
X113309D01*
Y82064D01*
X113635D01*
Y81738D01*
X113961D01*
Y81412D01*
X114287D01*
Y81086D01*
X114613D01*
Y80760D01*
X114939D01*
Y80434D01*
X115265D01*
Y80108D01*
X115591D01*
Y79782D01*
X115917D01*
Y79456D01*
X116243D01*
Y79130D01*
X116569D01*
Y78804D01*
X116894D01*
Y78478D01*
X117220D01*
Y78152D01*
X117546D01*
Y77826D01*
X117873D01*
Y77500D01*
X118199D01*
Y77174D01*
X118524D01*
Y76848D01*
X118850D01*
Y76522D01*
X119176D01*
Y76196D01*
X119502D01*
Y75870D01*
X119828D01*
Y76196D01*
Y76522D01*
Y76848D01*
Y77174D01*
Y77500D01*
Y77826D01*
Y78152D01*
Y78478D01*
Y78804D01*
Y79130D01*
Y79456D01*
Y79782D01*
Y80108D01*
Y80434D01*
Y80760D01*
Y81086D01*
Y81412D01*
Y81738D01*
Y82064D01*
Y82390D01*
Y82716D01*
Y83042D01*
Y83368D01*
Y83694D01*
Y84020D01*
Y84346D01*
Y84672D01*
Y84998D01*
Y85324D01*
Y85650D01*
Y85976D01*
Y86301D01*
Y86628D01*
Y86954D01*
Y87279D01*
X115265D01*
Y87606D01*
Y87932D01*
Y88257D01*
Y88583D01*
Y88909D01*
X121458D01*
Y88583D01*
D02*
G37*
G36*
X129934D02*
Y88257D01*
Y87932D01*
Y87606D01*
Y87279D01*
X125044D01*
Y86954D01*
Y86628D01*
Y86301D01*
Y85976D01*
Y85650D01*
Y85324D01*
Y84998D01*
Y84672D01*
Y84346D01*
Y84020D01*
Y83694D01*
Y83368D01*
Y83042D01*
Y82716D01*
Y82390D01*
Y82064D01*
Y81738D01*
Y81412D01*
Y81086D01*
Y80760D01*
Y80434D01*
Y80108D01*
Y79782D01*
Y79456D01*
Y79130D01*
Y78804D01*
Y78478D01*
Y78152D01*
Y77826D01*
Y77500D01*
Y77174D01*
Y76848D01*
Y76522D01*
Y76196D01*
Y75870D01*
X125696D01*
Y76196D01*
X126022D01*
Y76522D01*
X126348D01*
Y76848D01*
X126674D01*
Y77174D01*
X127000D01*
Y77500D01*
X127326D01*
Y77826D01*
X127652D01*
Y78152D01*
X127978D01*
Y78478D01*
X128304D01*
Y78804D01*
X128630D01*
Y79130D01*
X128956D01*
Y79456D01*
X129282D01*
Y79782D01*
X129608D01*
Y80108D01*
X129934D01*
Y80434D01*
X130260D01*
Y80760D01*
X130586D01*
Y81086D01*
X130912D01*
Y81412D01*
X131238D01*
Y81738D01*
X131564D01*
Y82064D01*
X131890D01*
Y82390D01*
X132216D01*
Y82716D01*
X132542D01*
Y83042D01*
X132868D01*
Y83368D01*
X133194D01*
Y83694D01*
X133520D01*
Y84020D01*
X133846D01*
Y84346D01*
X134172D01*
Y84672D01*
X134498D01*
Y84998D01*
X134824D01*
Y84672D01*
Y84346D01*
Y84020D01*
X135150D01*
Y83694D01*
Y83368D01*
X135476D01*
Y83042D01*
Y82716D01*
Y82390D01*
Y82064D01*
Y81738D01*
X135801D01*
Y81412D01*
Y81086D01*
Y80760D01*
X136127D01*
Y80434D01*
Y80108D01*
X136453D01*
Y79782D01*
Y79456D01*
Y79130D01*
X136779D01*
Y78804D01*
Y78478D01*
Y78152D01*
Y77826D01*
X137106D01*
Y77500D01*
Y77174D01*
Y76848D01*
X137432D01*
Y76522D01*
Y76196D01*
Y75870D01*
X137757D01*
Y75544D01*
Y75218D01*
X138083D01*
Y74892D01*
Y74566D01*
Y74240D01*
Y73914D01*
Y73588D01*
X138409D01*
Y73262D01*
Y72936D01*
Y72610D01*
X138735D01*
Y72284D01*
Y71958D01*
X139061D01*
Y71632D01*
Y71306D01*
Y70980D01*
X139387D01*
Y70654D01*
Y70328D01*
Y70002D01*
Y69676D01*
X139713D01*
Y69350D01*
Y69024D01*
Y68699D01*
X140039D01*
Y68372D01*
Y68046D01*
Y67721D01*
X140365D01*
Y67395D01*
Y67069D01*
X140691D01*
Y66743D01*
Y66417D01*
Y66091D01*
Y65765D01*
Y65439D01*
X141017D01*
Y65113D01*
Y64787D01*
X141343D01*
Y64461D01*
Y64135D01*
Y63809D01*
X141669D01*
Y63483D01*
Y63157D01*
Y62831D01*
X141995D01*
Y62505D01*
Y62179D01*
Y61853D01*
Y61527D01*
X142321D01*
Y61201D01*
Y60875D01*
Y60549D01*
X142647D01*
Y60223D01*
Y59897D01*
Y59571D01*
X142973D01*
Y59245D01*
Y58919D01*
X147537D01*
Y58593D01*
Y58267D01*
Y57941D01*
Y57615D01*
Y57289D01*
X140691D01*
Y57615D01*
Y57941D01*
Y58267D01*
Y58593D01*
Y58919D01*
X142321D01*
Y59245D01*
Y59571D01*
X141995D01*
Y59897D01*
Y60223D01*
Y60549D01*
Y60875D01*
X141669D01*
Y61201D01*
Y61527D01*
Y61853D01*
X141343D01*
Y62179D01*
Y62505D01*
Y62831D01*
X141017D01*
Y63157D01*
Y63483D01*
X140691D01*
Y63809D01*
Y64135D01*
Y64461D01*
Y64787D01*
Y65113D01*
X140365D01*
Y65439D01*
Y65765D01*
Y66091D01*
X140039D01*
Y66417D01*
Y66743D01*
X139713D01*
Y67069D01*
Y67395D01*
Y67721D01*
X139387D01*
Y68046D01*
Y68372D01*
Y68699D01*
Y69024D01*
Y69350D01*
X139061D01*
Y69676D01*
Y70002D01*
X138735D01*
Y70328D01*
Y70654D01*
Y70980D01*
X138409D01*
Y71306D01*
Y71632D01*
Y71958D01*
X138083D01*
Y72284D01*
Y72610D01*
Y72936D01*
Y73262D01*
X137757D01*
Y73588D01*
Y73914D01*
Y74240D01*
X137432D01*
Y74566D01*
Y74892D01*
X137106D01*
Y75218D01*
Y75544D01*
Y75870D01*
X136779D01*
Y76196D01*
Y76522D01*
Y76848D01*
Y77174D01*
Y77500D01*
X136453D01*
Y77826D01*
Y78152D01*
X136127D01*
Y78478D01*
Y78804D01*
Y79130D01*
X135801D01*
Y79456D01*
Y79782D01*
X135476D01*
Y79456D01*
X135150D01*
Y79130D01*
X134498D01*
Y78804D01*
X134172D01*
Y78478D01*
Y78152D01*
X133846D01*
Y77826D01*
X133194D01*
Y77500D01*
X132868D01*
Y77174D01*
X132542D01*
Y76848D01*
X132216D01*
Y76522D01*
X131890D01*
Y76196D01*
X131564D01*
Y75870D01*
X131238D01*
Y75544D01*
X130912D01*
Y75218D01*
X130260D01*
Y74892D01*
X129934D01*
Y74566D01*
X129608D01*
Y74240D01*
X129282D01*
Y73914D01*
X128956D01*
Y73588D01*
X128630D01*
Y73262D01*
X128304D01*
Y72936D01*
X127978D01*
Y72610D01*
X127652D01*
Y72284D01*
X127000D01*
Y71958D01*
X126674D01*
Y71632D01*
X126348D01*
Y71306D01*
X126022D01*
Y70980D01*
X125696D01*
Y70654D01*
X125370D01*
Y70328D01*
X125044D01*
Y70002D01*
Y69676D01*
Y69350D01*
Y69024D01*
Y68699D01*
Y68372D01*
Y68046D01*
Y67721D01*
Y67395D01*
Y67069D01*
Y66743D01*
Y66417D01*
Y66091D01*
Y65765D01*
Y65439D01*
Y65113D01*
Y64787D01*
Y64461D01*
Y64135D01*
Y63809D01*
Y63483D01*
Y63157D01*
Y62831D01*
Y62505D01*
Y62179D01*
Y61853D01*
Y61527D01*
Y61201D01*
Y60875D01*
Y60549D01*
Y60223D01*
Y59897D01*
Y59571D01*
Y59245D01*
Y58919D01*
Y58593D01*
Y58267D01*
Y57941D01*
X128956D01*
Y57615D01*
Y57289D01*
Y56963D01*
Y56637D01*
Y56311D01*
X123740D01*
Y56637D01*
Y56963D01*
Y57289D01*
Y57615D01*
Y57941D01*
Y58267D01*
Y58593D01*
Y58919D01*
Y59245D01*
Y59571D01*
Y59897D01*
Y60223D01*
Y60549D01*
Y60875D01*
Y61201D01*
Y61527D01*
Y61853D01*
Y62179D01*
Y62505D01*
Y62831D01*
Y63157D01*
Y63483D01*
Y63809D01*
Y64135D01*
Y64461D01*
Y64787D01*
Y65113D01*
Y65439D01*
Y65765D01*
Y66091D01*
Y66417D01*
Y66743D01*
Y67069D01*
Y67395D01*
Y67721D01*
Y68046D01*
Y68372D01*
Y68699D01*
Y69024D01*
Y69350D01*
Y69676D01*
Y70002D01*
Y70328D01*
Y70654D01*
Y70980D01*
Y71306D01*
Y71632D01*
Y71958D01*
Y72284D01*
Y72610D01*
Y72936D01*
Y73262D01*
Y73588D01*
Y73914D01*
Y74240D01*
Y74566D01*
Y74892D01*
Y75218D01*
Y75544D01*
Y75870D01*
Y76196D01*
Y76522D01*
Y76848D01*
Y77174D01*
Y77500D01*
Y77826D01*
Y78152D01*
Y78478D01*
Y78804D01*
Y79130D01*
Y79456D01*
Y79782D01*
Y80108D01*
Y80434D01*
Y80760D01*
Y81086D01*
Y81412D01*
Y81738D01*
Y82064D01*
Y82390D01*
Y82716D01*
Y83042D01*
Y83368D01*
Y83694D01*
Y84020D01*
Y84346D01*
Y84672D01*
Y84998D01*
Y85324D01*
Y85650D01*
Y85976D01*
Y86301D01*
Y86628D01*
Y86954D01*
Y87279D01*
Y87606D01*
Y87932D01*
Y88257D01*
Y88583D01*
Y88909D01*
X129934D01*
Y88583D01*
D02*
G37*
G36*
X147537Y54681D02*
Y54355D01*
Y54029D01*
Y53703D01*
Y53377D01*
X147211D01*
Y53703D01*
X97662D01*
Y53377D01*
X97336D01*
Y53703D01*
Y54029D01*
Y54355D01*
Y54681D01*
Y55007D01*
X147537D01*
Y54681D01*
D02*
G37*
D10*
X162500Y71650D02*
G03*
X162500Y71650I-1000J0D01*
G01*
X41512Y172275D02*
G03*
X41512Y172275I-1181J0D01*
G01*
D11*
X145151Y152571D02*
G03*
X145151Y152571I-10832J0D01*
G01*
X166500Y16650D02*
Y76650D01*
Y16650D02*
X176500D01*
Y76650D01*
X166500D02*
X176500D01*
X113453Y132650D02*
X154791D01*
X113453Y172650D02*
X154791D01*
Y132650D02*
Y172650D01*
X113453Y132650D02*
Y172650D01*
D12*
X31768Y177984D02*
G03*
X31768Y177984I-492J0D01*
G01*
D13*
X166201Y100000D02*
X176201D01*
X166201D02*
Y140000D01*
X176201Y100000D02*
Y140000D01*
X166201D02*
X176201D01*
X166201Y241650D02*
X176201D01*
Y161650D02*
Y241650D01*
X166201Y161650D02*
X176201D01*
X166201D02*
Y241650D01*
X36394Y127000D02*
Y176213D01*
X85606Y127000D02*
Y176213D01*
X36394D02*
X85606D01*
X36394Y127000D02*
X85606D01*
X14000Y95500D02*
X24000D01*
Y5500D02*
Y95500D01*
X14000Y5500D02*
X24000D01*
X14000D02*
Y95500D01*
X74300D02*
X84300D01*
Y5500D02*
Y95500D01*
X74300Y5500D02*
X84300D01*
X74300D02*
Y95500D01*
D14*
X11500Y206000D02*
Y213791D01*
Y206000D02*
X19000D01*
Y207791D01*
X24299D01*
X28827D01*
X34000D01*
Y206000D02*
Y207791D01*
Y206000D02*
X42000D01*
X11500Y241000D02*
X42000D01*
X11500Y213791D02*
Y241000D01*
X42000Y206000D02*
Y213417D01*
Y241000D01*
X63437Y206000D02*
Y213791D01*
Y206000D02*
X70937D01*
Y207791D01*
X76236D01*
X80764D01*
X85937D01*
Y206000D02*
Y207791D01*
Y206000D02*
X93937D01*
X63437Y241000D02*
X93937D01*
X63437Y213791D02*
Y241000D01*
X93937Y206000D02*
Y213417D01*
Y241000D01*
X115374Y206000D02*
Y213791D01*
Y206000D02*
X122874D01*
Y207791D01*
X128173D01*
X132701D01*
X137874D01*
Y206000D02*
Y207791D01*
Y206000D02*
X145874D01*
X115374Y241000D02*
X145874D01*
X115374Y213791D02*
Y241000D01*
X145874Y206000D02*
Y213417D01*
Y241000D01*
X171358Y-5484D02*
X172343Y-4500D01*
X171358Y-5484D02*
Y-3516D01*
X172343Y-4500D01*
D15*
X158002Y189500D02*
X164000D01*
Y192499D01*
X163000Y193499D01*
X159002D01*
X158002Y192499D01*
Y189500D01*
Y199497D02*
Y195498D01*
X164000D01*
Y199497D01*
X161001Y195498D02*
Y197497D01*
X158002Y201496D02*
X164000D01*
Y204495D01*
X163000Y205495D01*
X162001D01*
X161001Y204495D01*
Y201496D01*
Y204495D01*
X160001Y205495D01*
X159002D01*
X158002Y204495D01*
Y201496D01*
Y207494D02*
X163000D01*
X164000Y208494D01*
Y210493D01*
X163000Y211493D01*
X158002D01*
X159002Y217491D02*
X158002Y216491D01*
Y214492D01*
X159002Y213492D01*
X163000D01*
X164000Y214492D01*
Y216491D01*
X163000Y217491D01*
X161001D01*
Y215492D01*
X158002Y114500D02*
X164000D01*
Y118499D01*
X159002Y124497D02*
X158002Y123497D01*
Y121498D01*
X159002Y120498D01*
X163000D01*
X164000Y121498D01*
Y123497D01*
X163000Y124497D01*
X158002Y126496D02*
X164000D01*
Y129495D01*
X163000Y130495D01*
X159002D01*
X158002Y129495D01*
Y126496D01*
X2000Y-7001D02*
Y-10334D01*
X2667Y-11000D01*
X3999D01*
X4666Y-10334D01*
Y-7001D01*
X8664Y-7668D02*
X7998Y-7001D01*
X6665D01*
X5999Y-7668D01*
Y-8334D01*
X6665Y-9001D01*
X7998D01*
X8664Y-9667D01*
Y-10334D01*
X7998Y-11000D01*
X6665D01*
X5999Y-10334D01*
X9997Y-7001D02*
Y-11000D01*
X11997D01*
X12663Y-10334D01*
Y-9667D01*
X11997Y-9001D01*
X9997D01*
X11997D01*
X12663Y-8334D01*
Y-7668D01*
X11997Y-7001D01*
X9997D01*
X14663Y-7668D02*
Y-8334D01*
X13996D01*
X15329D01*
X14663D01*
Y-10334D01*
X15329Y-11000D01*
X17995D02*
X19328D01*
X19994Y-10334D01*
Y-9001D01*
X19328Y-8334D01*
X17995D01*
X17328Y-9001D01*
Y-10334D01*
X17995Y-11000D01*
X23993Y-7668D02*
X23326Y-7001D01*
X21993D01*
X21327Y-7668D01*
Y-10334D01*
X21993Y-11000D01*
X23326D01*
X23993Y-10334D01*
X25326Y-11000D02*
Y-8334D01*
X26659Y-7001D01*
X27992Y-8334D01*
Y-11000D01*
Y-9001D01*
X25326D01*
X29324Y-11000D02*
Y-7001D01*
X31990Y-11000D01*
Y-7001D01*
X33323Y-11666D02*
X35989D01*
X37322Y-7001D02*
Y-9667D01*
X38655Y-11000D01*
X39988Y-9667D01*
Y-7001D01*
X43320Y-11000D02*
Y-7001D01*
X41321Y-9001D01*
X43986D01*
X49318Y-11000D02*
Y-7001D01*
X51317D01*
X51984Y-7668D01*
Y-9001D01*
X51317Y-9667D01*
X49318D01*
X50651D02*
X51984Y-11000D01*
X53983D02*
X55316D01*
X55983Y-10334D01*
Y-9001D01*
X55316Y-8334D01*
X53983D01*
X53317Y-9001D01*
Y-10334D01*
X53983Y-11000D01*
X57315D02*
X59315D01*
X59981Y-10334D01*
X59315Y-9667D01*
X57982D01*
X57315Y-9001D01*
X57982Y-8334D01*
X59981D01*
X63314Y-11000D02*
X61981D01*
X61314Y-10334D01*
Y-9001D01*
X61981Y-8334D01*
X63314D01*
X63980Y-9001D01*
Y-9667D01*
X61314D01*
X65313Y-11000D02*
Y-8334D01*
X65979D01*
X66646Y-9001D01*
Y-11000D01*
Y-9001D01*
X67312Y-8334D01*
X67979Y-9001D01*
Y-11000D01*
X69978D02*
X71311D01*
X71977Y-10334D01*
Y-9001D01*
X71311Y-8334D01*
X69978D01*
X69312Y-9001D01*
Y-10334D01*
X69978Y-11000D01*
X73310D02*
Y-8334D01*
X75310D01*
X75976Y-9001D01*
Y-11000D01*
X79975Y-7001D02*
Y-11000D01*
X77975D01*
X77309Y-10334D01*
Y-9001D01*
X77975Y-8334D01*
X79975D01*
X87972Y-7001D02*
X85307D01*
Y-9001D01*
X86639D01*
X85307D01*
Y-11000D01*
X89972Y-8334D02*
X91304D01*
X91971Y-9001D01*
Y-11000D01*
X89972D01*
X89305Y-10334D01*
X89972Y-9667D01*
X91971D01*
X93304Y-7001D02*
Y-11000D01*
X95303D01*
X95970Y-10334D01*
Y-9667D01*
Y-9001D01*
X95303Y-8334D01*
X93304D01*
X97303Y-11000D02*
X98636D01*
X97969D01*
Y-8334D01*
X97303D01*
X102634Y-11000D02*
X101301D01*
X100635Y-10334D01*
Y-9001D01*
X101301Y-8334D01*
X102634D01*
X103301Y-9001D01*
Y-9667D01*
X100635D01*
X104634Y-11000D02*
Y-8334D01*
X106633D01*
X107299Y-9001D01*
Y-11000D01*
X179684Y102133D02*
X179201Y101649D01*
Y100683D01*
X179684Y100200D01*
X180167D01*
X180650Y100683D01*
Y101649D01*
X181134Y102133D01*
X181617D01*
X182100Y101649D01*
Y100683D01*
X181617Y100200D01*
X179684Y105032D02*
X179201Y104549D01*
Y103582D01*
X179684Y103099D01*
X181617D01*
X182100Y103582D01*
Y104549D01*
X181617Y105032D01*
X179201Y105998D02*
X182100D01*
Y107931D01*
X179684Y113729D02*
X179201Y113246D01*
Y112279D01*
X179684Y111796D01*
X180167D01*
X180650Y112279D01*
Y113246D01*
X181134Y113729D01*
X181617D01*
X182100Y113246D01*
Y112279D01*
X181617Y111796D01*
X179201Y114695D02*
X182100D01*
Y116145D01*
X181617Y116628D01*
X179684D01*
X179201Y116145D01*
Y114695D01*
X182100Y117594D02*
X180167D01*
X179201Y118561D01*
X180167Y119527D01*
X182100D01*
X180650D01*
Y117594D01*
X179201Y125325D02*
Y123392D01*
X180650D01*
X180167Y124359D01*
Y124842D01*
X180650Y125325D01*
X181617D01*
X182100Y124842D01*
Y123876D01*
X181617Y123392D01*
X179201Y126292D02*
X181134D01*
X182100Y127258D01*
X181134Y128224D01*
X179201D01*
X179684Y134022D02*
X179201Y133539D01*
Y132573D01*
X179684Y132090D01*
X181617D01*
X182100Y132573D01*
Y133539D01*
X181617Y134022D01*
X180650D01*
Y133056D01*
X182100Y134989D02*
X179201D01*
X182100Y136921D01*
X179201D01*
Y137888D02*
X182100D01*
Y139337D01*
X181617Y139821D01*
X179684D01*
X179201Y139337D01*
Y137888D01*
X116214Y179082D02*
X115547Y179748D01*
X114215D01*
X113548Y179082D01*
Y178415D01*
X114215Y177749D01*
X115547D01*
X116214Y177083D01*
Y176416D01*
X115547Y175750D01*
X114215D01*
X113548Y176416D01*
X117547Y175750D02*
X118880D01*
X118213D01*
Y179748D01*
X117547Y179082D01*
X23000Y186105D02*
Y182773D01*
X23666Y182106D01*
X24999D01*
X25666Y182773D01*
Y186105D01*
X26999Y182106D02*
X28332D01*
X27665D01*
Y186105D01*
X26999Y185439D01*
X162000Y83500D02*
Y87499D01*
X163999D01*
X164666Y86832D01*
Y85499D01*
X163999Y84833D01*
X162000D01*
X165999Y82834D02*
X168665D01*
X172663Y86832D02*
X171997Y87499D01*
X170664D01*
X169997Y86832D01*
Y86166D01*
X170664Y85499D01*
X171997D01*
X172663Y84833D01*
Y84166D01*
X171997Y83500D01*
X170664D01*
X169997Y84166D01*
X173996Y87499D02*
Y83500D01*
X175329Y84833D01*
X176662Y83500D01*
Y87499D01*
X177995D02*
Y83500D01*
X179994D01*
X180661Y84166D01*
Y86832D01*
X179994Y87499D01*
X177995D01*
X179201Y161800D02*
Y163333D01*
Y162566D01*
X181500D01*
X179201Y164099D02*
X181500Y165632D01*
X179201D02*
X181500Y164099D01*
Y168698D02*
X179201D01*
Y169847D01*
X179584Y170231D01*
X180350D01*
X180734Y169847D01*
Y168698D01*
Y169464D02*
X181500Y170231D01*
X179201Y170997D02*
X181500Y172530D01*
X179201D02*
X181500Y170997D01*
X179584Y177128D02*
X179201Y176745D01*
Y175979D01*
X179584Y175596D01*
X181117D01*
X181500Y175979D01*
Y176745D01*
X181117Y177128D01*
X179201Y177895D02*
Y179428D01*
Y178661D01*
X181500D01*
X179584Y181727D02*
X179201Y181344D01*
Y180577D01*
X179584Y180194D01*
X179967D01*
X180350Y180577D01*
Y181344D01*
X180734Y181727D01*
X181117D01*
X181500Y181344D01*
Y180577D01*
X181117Y180194D01*
X181500Y184793D02*
X179201D01*
Y185942D01*
X179584Y186325D01*
X180350D01*
X180734Y185942D01*
Y184793D01*
Y185559D02*
X181500Y186325D01*
X179201Y187092D02*
Y188625D01*
Y187858D01*
X181500D01*
X179584Y190924D02*
X179201Y190541D01*
Y189774D01*
X179584Y189391D01*
X179967D01*
X180350Y189774D01*
Y190541D01*
X180734Y190924D01*
X181117D01*
X181500Y190541D01*
Y189774D01*
X181117Y189391D01*
X179584Y195522D02*
X179201Y195139D01*
Y194373D01*
X179584Y193990D01*
X181117D01*
X181500Y194373D01*
Y195139D01*
X181117Y195522D01*
X181500Y196289D02*
X179967D01*
X179201Y197055D01*
X179967Y197822D01*
X181500D01*
X180350D01*
Y196289D01*
X181500Y198588D02*
X179201D01*
X181500Y200121D01*
X179201D01*
Y200887D02*
X181500D01*
X180350D01*
Y202420D01*
X179201D01*
X181500D01*
X179584Y207019D02*
X179201Y206636D01*
Y205869D01*
X179584Y205486D01*
X181117D01*
X181500Y205869D01*
Y206636D01*
X181117Y207019D01*
X181500Y207785D02*
X179967D01*
X179201Y208552D01*
X179967Y209318D01*
X181500D01*
X180350D01*
Y207785D01*
X181500Y210085D02*
X179201D01*
X181500Y211617D01*
X179201D01*
Y212384D02*
X181500D01*
Y213917D01*
X179584Y218515D02*
X179201Y218132D01*
Y217366D01*
X179584Y216982D01*
X181117D01*
X181500Y217366D01*
Y218132D01*
X181117Y218515D01*
X181500Y219282D02*
X179967D01*
X179201Y220048D01*
X179967Y220814D01*
X181500D01*
X180350D01*
Y219282D01*
X181500Y221581D02*
X179201D01*
X181500Y223114D01*
X179201D01*
Y223880D02*
Y225413D01*
Y224646D01*
X181500D01*
X179201Y226179D02*
X181500Y227712D01*
X179201D02*
X181500Y226179D01*
X179584Y232311D02*
X179201Y231927D01*
Y231161D01*
X179584Y230778D01*
X181117D01*
X181500Y231161D01*
Y231927D01*
X181117Y232311D01*
X181500Y233077D02*
X179967D01*
X179201Y233843D01*
X179967Y234610D01*
X181500D01*
X180350D01*
Y233077D01*
X181500Y235376D02*
X179201D01*
X181500Y236909D01*
X179201D01*
X181500Y237676D02*
X179201D01*
Y238825D01*
X179584Y239208D01*
X180350D01*
X180734Y238825D01*
Y237676D01*
Y238442D02*
X181500Y239208D01*
X179201Y239975D02*
X181500Y241508D01*
X179201D02*
X181500Y239975D01*
X14200Y98500D02*
Y102499D01*
X16199D01*
X16866Y101832D01*
Y100499D01*
X16199Y99833D01*
X14200D01*
X20865Y98500D02*
X18199D01*
X20865Y101166D01*
Y101832D01*
X20198Y102499D01*
X18865D01*
X18199Y101832D01*
X74500Y98500D02*
Y102499D01*
X76499D01*
X77166Y101832D01*
Y100499D01*
X76499Y99833D01*
X74500D01*
X78499Y98500D02*
X79832D01*
X79165D01*
Y102499D01*
X78499Y101832D01*
X165500Y4999D02*
Y1000D01*
X168166D01*
X172164Y4999D02*
X169499D01*
Y1000D01*
X172164D01*
X169499Y2999D02*
X170832D01*
X173497Y4999D02*
Y1000D01*
X175497D01*
X176163Y1667D01*
Y4332D01*
X175497Y4999D01*
X173497D01*
X177496Y1000D02*
X178829D01*
X178163D01*
Y4999D01*
X177496Y4332D01*
M02*
