M48
;Layer_Color=9474304
;FILE_FORMAT=2:5
INCH,LZ
;TYPE=PLATED
T1F00S00C0.01000
T2F00S00C0.03000
T3F00S00C0.03150
T4F00S00C0.03543
T5F00S00C0.03937
T6F00S00C0.12850
%
T01
X01793Y-00072
X014305Y004165
X01667Y00816
X01029Y00935
X00843Y00791
X00711Y01017
X00766Y01513
X0098806Y0158606
X0098386Y0163386
X01054Y01642
X00937Y01773
X0121Y01546
X01619Y01967
X0051157Y02
X0039346Y018905
X00417Y01697
X0044Y01479
X0024Y01512
X00217Y0153606
X002345Y0132709
T02
X0118965Y0142807
Y0162807
X0148965
Y0142807
T03
X0022626Y02135
X00305
X0074563
X0082437
X01265
X0134374
T04
X0019Y00105
Y00205
Y00305
Y00405
Y00505
X00793
Y00405
Y00305
Y00205
Y00105
Y00605
Y00705
Y00805
Y00905
X0171201Y0105
Y0115
Y0125
Y0135
Y016665
Y017665
Y018665
Y019665
Y020665
X0019Y00905
Y00805
Y00705
Y00605
X0171201Y021665
Y022665
Y023665
T05
X01715Y002165
Y003165
Y004165
Y005165
Y006165
Y007165
T06
X0045Y0014938
X01505
X01385Y0195
X00165
M30
