G04*
G04 #@! TF.GenerationSoftware,Altium Limited,Altium Designer,18.1.6 (161)*
G04*
G04 Layer_Color=16711935*
%FSLAX25Y25*%
%MOIN*%
G70*
G01*
G75*
%ADD22C,0.06800*%
%ADD23R,0.06800X0.06800*%
%ADD24R,0.06706X0.06706*%
%ADD25C,0.06706*%
%ADD26C,0.15800*%
%ADD27R,0.06300X0.08300*%
%ADD28O,0.06300X0.08300*%
%ADD29R,0.10800X0.06800*%
%ADD30O,0.10800X0.06800*%
%ADD48R,0.10249X0.13398*%
%ADD49R,0.10249X0.04737*%
%ADD50R,0.04540X0.04737*%
%ADD51R,0.04934X0.04737*%
%ADD52O,0.09461X0.03162*%
%ADD53R,0.04343X0.03556*%
%ADD54R,0.04737X0.04540*%
D22*
X171500Y21650D02*
D03*
Y31650D02*
D03*
Y41650D02*
D03*
Y51650D02*
D03*
Y61650D02*
D03*
D23*
Y71650D02*
D03*
D24*
X171201Y135000D02*
D03*
Y166650D02*
D03*
X19000Y10500D02*
D03*
X79300D02*
D03*
D25*
X171201Y125000D02*
D03*
Y115000D02*
D03*
Y105000D02*
D03*
Y176650D02*
D03*
Y186650D02*
D03*
Y196650D02*
D03*
Y206650D02*
D03*
Y216650D02*
D03*
Y226650D02*
D03*
Y236650D02*
D03*
X19000Y30500D02*
D03*
Y40500D02*
D03*
Y50500D02*
D03*
Y60500D02*
D03*
Y70500D02*
D03*
Y80500D02*
D03*
Y90500D02*
D03*
Y20500D02*
D03*
X79300Y30500D02*
D03*
Y40500D02*
D03*
Y50500D02*
D03*
Y60500D02*
D03*
Y70500D02*
D03*
Y80500D02*
D03*
Y90500D02*
D03*
Y20500D02*
D03*
D26*
X16500Y195000D02*
D03*
X138500D02*
D03*
X150500Y14938D02*
D03*
X45000D02*
D03*
D27*
X30500Y213500D02*
D03*
X82437D02*
D03*
X134374D02*
D03*
D28*
X22626D02*
D03*
X74563D02*
D03*
X126500D02*
D03*
D29*
X118965Y162807D02*
D03*
D30*
X148965D02*
D03*
Y142807D02*
D03*
X118965D02*
D03*
D48*
X130417Y27000D02*
D03*
D49*
X107583Y36055D02*
D03*
Y27000D02*
D03*
Y17945D02*
D03*
D50*
X95500Y15780D02*
D03*
Y22079D02*
D03*
Y38220D02*
D03*
Y31921D02*
D03*
X17500Y120256D02*
D03*
Y113957D02*
D03*
X109748Y155051D02*
D03*
Y148752D02*
D03*
X10000Y107957D02*
D03*
Y114256D02*
D03*
X17500Y139008D02*
D03*
Y132709D02*
D03*
X104000Y169957D02*
D03*
Y176256D02*
D03*
X17500Y163756D02*
D03*
Y157457D02*
D03*
X10000Y126457D02*
D03*
Y132756D02*
D03*
D51*
X64150Y130106D02*
D03*
X57850D02*
D03*
X175000Y-4500D02*
D03*
X168701D02*
D03*
D52*
X51902Y143606D02*
D03*
Y148606D02*
D03*
Y153606D02*
D03*
Y158606D02*
D03*
X70799Y143606D02*
D03*
Y148606D02*
D03*
Y153606D02*
D03*
Y158606D02*
D03*
D53*
X157748Y146980D02*
D03*
Y152886D02*
D03*
D54*
X47650Y108106D02*
D03*
X41350D02*
D03*
X82350Y108606D02*
D03*
X88650D02*
D03*
X42496Y195106D02*
D03*
X36197D02*
D03*
M02*
