G04*
G04 #@! TF.GenerationSoftware,Altium Limited,Altium Designer,18.1.6 (161)*
G04*
G04 Layer_Physical_Order=1*
G04 Layer_Color=255*
%FSLAX25Y25*%
%MOIN*%
G70*
G01*
G75*
%ADD11C,0.01000*%
%ADD16R,0.03150X0.03150*%
%ADD17O,0.07087X0.01181*%
%ADD18O,0.01181X0.07087*%
%ADD31C,0.06000*%
%ADD32R,0.06000X0.06000*%
%ADD33R,0.05906X0.05906*%
%ADD34C,0.05906*%
%ADD35C,0.15000*%
%ADD36R,0.05500X0.07500*%
%ADD37O,0.05500X0.07500*%
%ADD38R,0.10000X0.06000*%
%ADD39O,0.10000X0.06000*%
%ADD40C,0.02200*%
G36*
X26750Y211412D02*
Y208750D01*
X28971D01*
Y181734D01*
X27491Y180254D01*
X27029Y180446D01*
Y200326D01*
X26913Y200911D01*
X26581Y201407D01*
X24155Y203834D01*
Y209074D01*
X24517Y209224D01*
X25300Y209825D01*
X25902Y210609D01*
X26280Y211521D01*
X26750Y211412D01*
D02*
G37*
G36*
X56442Y176880D02*
X57063Y176756D01*
X57532Y176849D01*
X57619Y176415D01*
X57950Y175919D01*
X59150Y174719D01*
X59646Y174387D01*
X60232Y174271D01*
X83801D01*
X84008Y173771D01*
X83319Y173081D01*
X82987Y172585D01*
X82871Y172000D01*
Y139556D01*
X82627Y139356D01*
X48346D01*
X48154Y139818D01*
X50270Y141934D01*
X50602Y142430D01*
X50718Y143016D01*
Y176334D01*
X51153Y176757D01*
X51157Y176756D01*
X51210Y176767D01*
X51597Y176449D01*
Y174774D01*
X51713Y174189D01*
X52045Y173693D01*
X74464Y151273D01*
X74622Y150481D01*
X75086Y149786D01*
X75781Y149322D01*
X76600Y149159D01*
X77419Y149322D01*
X78114Y149786D01*
X78578Y150481D01*
X78741Y151300D01*
X78578Y152119D01*
X78114Y152814D01*
X77419Y153278D01*
X76627Y153436D01*
X54655Y175408D01*
Y176449D01*
X55042Y176767D01*
X55094Y176756D01*
X55715Y176880D01*
X56079Y177123D01*
X56442Y176880D01*
D02*
G37*
G36*
X47660Y143649D02*
X43367Y139356D01*
X36157D01*
X35840Y139743D01*
X35850Y139795D01*
X35727Y140416D01*
X35484Y140779D01*
X35727Y141143D01*
X35850Y141764D01*
X35727Y142384D01*
X35484Y142748D01*
X35727Y143112D01*
X35850Y143732D01*
X35727Y144353D01*
X35484Y144716D01*
X35727Y145080D01*
X35850Y145701D01*
X35727Y146321D01*
X35484Y146685D01*
X35727Y147049D01*
X35850Y147669D01*
X35840Y147722D01*
X36157Y148108D01*
X41629D01*
X41864Y147873D01*
X42022Y147081D01*
X42486Y146386D01*
X43181Y145922D01*
X44000Y145759D01*
X44819Y145922D01*
X45514Y146386D01*
X45978Y147081D01*
X46141Y147900D01*
X45978Y148719D01*
X45514Y149414D01*
X44819Y149878D01*
X44027Y150036D01*
X43344Y150719D01*
X42847Y151051D01*
X42262Y151167D01*
X36157D01*
X35840Y151554D01*
X35850Y151606D01*
X35727Y152227D01*
X35484Y152591D01*
X35727Y152954D01*
X35850Y153575D01*
X35727Y154195D01*
X35484Y154559D01*
X35727Y154923D01*
X35850Y155543D01*
X35727Y156164D01*
X35484Y156527D01*
X35727Y156891D01*
X35850Y157512D01*
X35727Y158132D01*
X35484Y158496D01*
X35727Y158860D01*
X35850Y159480D01*
X35727Y160101D01*
X35484Y160465D01*
X35727Y160828D01*
X35850Y161449D01*
X35727Y162069D01*
X35484Y162433D01*
X35727Y162797D01*
X35850Y163417D01*
X36262Y163909D01*
X36585Y163973D01*
X37081Y164304D01*
X38459Y165682D01*
X38791Y166179D01*
X38907Y166764D01*
Y169299D01*
X39407Y169577D01*
X39608Y169453D01*
X39722Y168881D01*
X40186Y168186D01*
X40881Y167722D01*
X41200Y167658D01*
Y169700D01*
X41700D01*
Y170200D01*
X43742D01*
X43678Y170519D01*
X43214Y171214D01*
X42519Y171678D01*
X41727Y171836D01*
X40876Y172687D01*
Y175071D01*
X47660D01*
Y143649D01*
D02*
G37*
G36*
X124368Y167269D02*
X124177Y166807D01*
X119465D01*
Y163307D01*
X124965D01*
Y166019D01*
X125426Y166211D01*
X130071Y161566D01*
Y138553D01*
X129609Y138361D01*
X124974Y142996D01*
X124862Y143851D01*
X124459Y144824D01*
X123817Y145660D01*
X122982Y146301D01*
X122529Y146488D01*
Y153109D01*
X122978Y153781D01*
X123141Y154600D01*
X122978Y155419D01*
X122514Y156114D01*
X121819Y156578D01*
X121000Y156741D01*
X120181Y156578D01*
X119486Y156114D01*
X119022Y155419D01*
X118859Y154600D01*
X119022Y153781D01*
X119471Y153109D01*
Y146842D01*
X116965D01*
X115920Y146704D01*
X114947Y146301D01*
X114112Y145660D01*
X113471Y144824D01*
X113068Y143851D01*
X112930Y142807D01*
X113068Y141763D01*
X113471Y140790D01*
X114112Y139954D01*
X114947Y139313D01*
X115920Y138910D01*
X116965Y138772D01*
X120965D01*
X122009Y138910D01*
X122982Y139313D01*
X123745Y139899D01*
X127571Y136074D01*
Y77100D01*
X127687Y76515D01*
X128019Y76019D01*
X165471Y38566D01*
Y32650D01*
X165587Y32064D01*
X165919Y31568D01*
X166919Y30568D01*
X167415Y30237D01*
X167786Y30163D01*
X168006Y29632D01*
X168647Y28797D01*
X169483Y28156D01*
X170456Y27753D01*
X171500Y27615D01*
X172544Y27753D01*
X173517Y28156D01*
X173971Y28504D01*
X174471Y28257D01*
Y26783D01*
X173032Y25345D01*
X172544Y25547D01*
X171500Y25684D01*
X170456Y25547D01*
X169483Y25144D01*
X168647Y24502D01*
X168006Y23667D01*
X167603Y22694D01*
X167465Y21650D01*
X167603Y20605D01*
X168006Y19632D01*
X168647Y18797D01*
X169483Y18156D01*
X170456Y17752D01*
X171500Y17615D01*
X172544Y17752D01*
X173517Y18156D01*
X174353Y18797D01*
X174994Y19632D01*
X175397Y20605D01*
X175534Y21650D01*
X175397Y22694D01*
X175195Y23182D01*
X175609Y23595D01*
X176071Y23404D01*
Y-1365D01*
X175598Y-1837D01*
Y-4500D01*
X175098D01*
Y-5000D01*
X172524D01*
Y-5671D01*
X171936D01*
X171177Y-4912D01*
Y-1925D01*
X166028D01*
Y-7075D01*
X169014D01*
X169448Y-7509D01*
X169257Y-7971D01*
X160933D01*
X145623Y7340D01*
X145924Y7746D01*
X147231Y7047D01*
X148834Y6561D01*
X150500Y6397D01*
X152166Y6561D01*
X153769Y7047D01*
X155245Y7836D01*
X156539Y8899D01*
X157602Y10193D01*
X158391Y11670D01*
X158877Y13272D01*
X159041Y14938D01*
X158877Y16604D01*
X158391Y18207D01*
X157602Y19683D01*
X156539Y20978D01*
X155245Y22040D01*
X153769Y22829D01*
X152166Y23315D01*
X150500Y23479D01*
X148834Y23315D01*
X147231Y22829D01*
X145755Y22040D01*
X144460Y20978D01*
X143398Y19683D01*
X142609Y18207D01*
X142123Y16604D01*
X141959Y14938D01*
X142123Y13272D01*
X142609Y11670D01*
X143308Y10362D01*
X142902Y10061D01*
X109699Y43264D01*
Y72185D01*
X110161Y72377D01*
X140915Y41622D01*
X141072Y40830D01*
X141536Y40136D01*
X142231Y39671D01*
X143050Y39509D01*
X143870Y39671D01*
X144564Y40136D01*
X145029Y40830D01*
X145192Y41650D01*
X145029Y42469D01*
X144564Y43164D01*
X143870Y43628D01*
X143078Y43785D01*
X111299Y75564D01*
Y164785D01*
X111760Y164977D01*
X112965Y163772D01*
Y163307D01*
X118465D01*
Y166807D01*
X114256D01*
X112907Y168156D01*
Y169000D01*
X112791Y169585D01*
X112459Y170081D01*
X108199Y174341D01*
X107703Y174673D01*
X107118Y174789D01*
X95606D01*
X95288Y175176D01*
X95299Y175228D01*
X95229Y175577D01*
Y175809D01*
X95678Y176481D01*
X95841Y177300D01*
X95765Y177684D01*
X96082Y178071D01*
X113567D01*
X124368Y167269D01*
D02*
G37*
G36*
X103626Y165325D02*
X103422Y165019D01*
X103259Y164200D01*
X103422Y163381D01*
X103871Y162709D01*
Y138333D01*
X97019Y131482D01*
X95606D01*
X95288Y131869D01*
X95299Y131921D01*
X95175Y132542D01*
X94933Y132905D01*
X95175Y133269D01*
X95299Y133890D01*
X95175Y134510D01*
X94932Y134874D01*
X95175Y135238D01*
X95299Y135858D01*
X95175Y136479D01*
X94933Y136842D01*
X95175Y137206D01*
X95299Y137827D01*
X95175Y138447D01*
X94932Y138811D01*
X95175Y139175D01*
X95299Y139795D01*
X95175Y140416D01*
X94933Y140779D01*
X95175Y141143D01*
X95299Y141764D01*
X95175Y142384D01*
X94932Y142748D01*
X95175Y143112D01*
X95299Y143732D01*
X95175Y144353D01*
X94933Y144716D01*
X95175Y145080D01*
X95299Y145701D01*
X95175Y146321D01*
X94932Y146685D01*
X95175Y147049D01*
X95299Y147669D01*
X95175Y148290D01*
X94932Y148653D01*
X95175Y149017D01*
X95299Y149638D01*
X95175Y150258D01*
X94933Y150622D01*
X95175Y150986D01*
X95299Y151606D01*
X95175Y152227D01*
X94932Y152591D01*
X95175Y152954D01*
X95299Y153575D01*
X95175Y154195D01*
X94933Y154559D01*
X95175Y154923D01*
X95299Y155543D01*
X95175Y156164D01*
X94932Y156527D01*
X95175Y156891D01*
X95299Y157512D01*
X95175Y158132D01*
X94933Y158496D01*
X95175Y158860D01*
X95299Y159480D01*
X95175Y160101D01*
X94932Y160465D01*
X95175Y160828D01*
X95299Y161449D01*
X95175Y162069D01*
X94933Y162433D01*
X95175Y162797D01*
X95299Y163417D01*
X95765Y163588D01*
X96010Y163599D01*
X96250Y163359D01*
X96408Y162566D01*
X96872Y161872D01*
X97566Y161408D01*
X98135Y161295D01*
X98432Y160811D01*
X98437Y160764D01*
X98390Y160664D01*
X97987Y160584D01*
X97292Y160120D01*
X96828Y159426D01*
X96665Y158606D01*
X96828Y157787D01*
X97292Y157092D01*
X97987Y156628D01*
X98806Y156465D01*
X99626Y156628D01*
X100320Y157092D01*
X100784Y157787D01*
X100942Y158579D01*
X102081Y159719D01*
X102413Y160215D01*
X102529Y160800D01*
Y165577D01*
X102733Y165825D01*
X103359D01*
X103626Y165325D01*
D02*
G37*
G36*
X170701Y240571D02*
X170169Y240501D01*
X169207Y240102D01*
X168382Y239469D01*
X167748Y238643D01*
X167350Y237682D01*
X167214Y236650D01*
X167350Y235618D01*
X167542Y235154D01*
X160819Y228430D01*
X160487Y227934D01*
X160371Y227349D01*
Y198191D01*
X159922Y197519D01*
X159759Y196700D01*
X159922Y195881D01*
X160386Y195186D01*
X161081Y194722D01*
X161900Y194559D01*
X162719Y194722D01*
X163414Y195186D01*
X163878Y195881D01*
X164041Y196700D01*
X163878Y197519D01*
X163429Y198191D01*
Y226715D01*
X164709Y227995D01*
X165171Y227803D01*
Y181150D01*
X165287Y180565D01*
X165619Y180069D01*
X167542Y178146D01*
X167350Y177682D01*
X167214Y176650D01*
X167350Y175618D01*
X167748Y174656D01*
X168382Y173830D01*
X169207Y173197D01*
X170169Y172799D01*
X171201Y172663D01*
X172233Y172799D01*
X173194Y173197D01*
X174020Y173830D01*
X174653Y174656D01*
X175052Y175618D01*
X175188Y176650D01*
X175052Y177682D01*
X174653Y178643D01*
X174020Y179469D01*
X173194Y180102D01*
X172233Y180501D01*
X171201Y180637D01*
X170169Y180501D01*
X169705Y180308D01*
X168229Y181784D01*
Y183317D01*
X168729Y183564D01*
X169207Y183197D01*
X170169Y182799D01*
X171201Y182663D01*
X172233Y182799D01*
X173194Y183197D01*
X174020Y183830D01*
X174653Y184656D01*
X175052Y185618D01*
X175188Y186650D01*
X175052Y187681D01*
X174653Y188643D01*
X174020Y189469D01*
X173194Y190102D01*
X172233Y190501D01*
X171201Y190637D01*
X170169Y190501D01*
X169207Y190102D01*
X168729Y189736D01*
X168229Y189982D01*
Y193317D01*
X168729Y193564D01*
X169207Y193197D01*
X170169Y192799D01*
X171201Y192663D01*
X172233Y192799D01*
X173194Y193197D01*
X174020Y193831D01*
X174653Y194656D01*
X175052Y195618D01*
X175188Y196650D01*
X175052Y197681D01*
X174653Y198643D01*
X174020Y199469D01*
X173194Y200102D01*
X172233Y200501D01*
X171201Y200637D01*
X170169Y200501D01*
X169207Y200102D01*
X168729Y199736D01*
X168229Y199982D01*
Y203317D01*
X168729Y203564D01*
X169207Y203197D01*
X170169Y202799D01*
X171201Y202663D01*
X172233Y202799D01*
X173194Y203197D01*
X174020Y203831D01*
X174653Y204656D01*
X175052Y205618D01*
X175188Y206650D01*
X175052Y207681D01*
X174653Y208643D01*
X174020Y209469D01*
X173194Y210102D01*
X172233Y210501D01*
X171201Y210636D01*
X170169Y210501D01*
X169207Y210102D01*
X168729Y209736D01*
X168229Y209982D01*
Y213317D01*
X168729Y213564D01*
X169207Y213197D01*
X170169Y212799D01*
X171201Y212663D01*
X172233Y212799D01*
X173194Y213197D01*
X174020Y213830D01*
X174653Y214656D01*
X175052Y215618D01*
X175188Y216650D01*
X175052Y217682D01*
X174653Y218643D01*
X174020Y219469D01*
X173194Y220102D01*
X172233Y220501D01*
X171201Y220637D01*
X170169Y220501D01*
X169207Y220102D01*
X168729Y219736D01*
X168229Y219982D01*
Y223317D01*
X168729Y223564D01*
X169207Y223197D01*
X170169Y222799D01*
X171201Y222663D01*
X172233Y222799D01*
X172697Y222991D01*
X177671Y218017D01*
Y152846D01*
X177209Y152654D01*
X167666Y162197D01*
X167873Y162697D01*
X175154D01*
Y170602D01*
X167248D01*
Y163322D01*
X166748Y163115D01*
X151681Y178181D01*
X151185Y178513D01*
X150600Y178629D01*
X130734D01*
X123281Y186081D01*
X122785Y186413D01*
X122200Y186529D01*
X84622D01*
X84037Y186413D01*
X83541Y186081D01*
X83320Y185751D01*
X83274Y185782D01*
X82654Y185905D01*
X82033Y185782D01*
X81669Y185539D01*
X81306Y185782D01*
X80685Y185905D01*
X80064Y185782D01*
X79701Y185539D01*
X79337Y185782D01*
X78717Y185905D01*
X78096Y185782D01*
X77732Y185539D01*
X77369Y185782D01*
X76748Y185905D01*
X76127Y185782D01*
X75764Y185539D01*
X75400Y185782D01*
X74780Y185905D01*
X74159Y185782D01*
X73795Y185539D01*
X73432Y185782D01*
X72811Y185905D01*
X72190Y185782D01*
X71827Y185539D01*
X71463Y185782D01*
X70843Y185905D01*
X70222Y185782D01*
X69858Y185539D01*
X69495Y185782D01*
X68874Y185905D01*
X68253Y185782D01*
X67890Y185539D01*
X67526Y185782D01*
X66906Y185905D01*
X66285Y185782D01*
X65921Y185539D01*
X65558Y185782D01*
X64937Y185905D01*
X64316Y185782D01*
X63953Y185539D01*
X63589Y185782D01*
X62969Y185905D01*
X62348Y185782D01*
X61984Y185539D01*
X61621Y185782D01*
X61000Y185905D01*
X60379Y185782D01*
X60016Y185539D01*
X59652Y185782D01*
X59032Y185905D01*
X58411Y185782D01*
X58047Y185539D01*
X57684Y185782D01*
X57063Y185905D01*
X56442Y185782D01*
X56079Y185539D01*
X55715Y185782D01*
X55094Y185905D01*
X54474Y185782D01*
X54110Y185539D01*
X53747Y185782D01*
X53126Y185905D01*
X53073Y185895D01*
X52687Y186212D01*
Y198509D01*
X53136Y199181D01*
X53298Y200000D01*
X53136Y200819D01*
X52671Y201514D01*
X51977Y201978D01*
X51157Y202141D01*
X50338Y201978D01*
X49643Y201514D01*
X49179Y200819D01*
X49016Y200000D01*
X49179Y199181D01*
X49628Y198509D01*
Y186212D01*
X49242Y185895D01*
X49189Y185905D01*
X48568Y185782D01*
X48205Y185539D01*
X47841Y185782D01*
X47220Y185905D01*
X46600Y185782D01*
X46236Y185539D01*
X45873Y185782D01*
X45252Y185905D01*
X44631Y185782D01*
X44268Y185539D01*
X43904Y185782D01*
X43283Y185905D01*
X42663Y185782D01*
X42299Y185539D01*
X41936Y185782D01*
X41315Y185905D01*
X41262Y185895D01*
X40876Y186212D01*
Y187559D01*
X41325Y188231D01*
X41388Y188550D01*
X37305D01*
X37368Y188231D01*
X37817Y187559D01*
Y186212D01*
X37431Y185895D01*
X37378Y185905D01*
X36757Y185782D01*
X36231Y185430D01*
X35880Y184904D01*
X35756Y184283D01*
Y178378D01*
X35849Y177914D01*
Y176566D01*
X35495Y176423D01*
X35349Y176393D01*
X34849Y176726D01*
X34228Y176850D01*
X29066D01*
X28875Y177312D01*
X31581Y180019D01*
X31913Y180515D01*
X32029Y181100D01*
Y208750D01*
X34250D01*
Y218250D01*
X26750D01*
Y215588D01*
X26280Y215479D01*
X25902Y216391D01*
X25300Y217175D01*
X24517Y217776D01*
X23605Y218154D01*
X22626Y218282D01*
X21647Y218154D01*
X20735Y217776D01*
X19951Y217175D01*
X19350Y216391D01*
X18972Y215479D01*
X18844Y214500D01*
Y212500D01*
X18972Y211521D01*
X19350Y210609D01*
X19951Y209825D01*
X20735Y209224D01*
X21097Y209074D01*
Y203200D01*
X21197Y202694D01*
X21022Y202489D01*
X20796Y202342D01*
X19769Y202891D01*
X18166Y203377D01*
X16500Y203541D01*
X14834Y203377D01*
X13231Y202891D01*
X11755Y202102D01*
X10460Y201040D01*
X9529Y199905D01*
X9029Y200084D01*
Y210767D01*
X39334Y241071D01*
X170668D01*
X170701Y240571D01*
D02*
G37*
G36*
X129019Y176019D02*
X129515Y175687D01*
X130100Y175571D01*
X149967D01*
X175771Y149767D01*
Y133716D01*
X175271Y133452D01*
X175154Y133532D01*
Y134500D01*
X171701D01*
Y131047D01*
X172991D01*
X174171Y129867D01*
Y128334D01*
X173671Y128087D01*
X173194Y128453D01*
X172233Y128851D01*
X171201Y128987D01*
X170169Y128851D01*
X169207Y128453D01*
X168382Y127819D01*
X167748Y126993D01*
X167350Y126032D01*
X167214Y125000D01*
X167350Y123968D01*
X167542Y123504D01*
X165619Y121581D01*
X165287Y121084D01*
X165171Y120499D01*
Y83091D01*
X164722Y82419D01*
X164559Y81600D01*
X164722Y80781D01*
X165186Y80086D01*
X165881Y79622D01*
X166700Y79459D01*
X167519Y79622D01*
X168214Y80086D01*
X168678Y80781D01*
X168841Y81600D01*
X168678Y82419D01*
X168229Y83091D01*
Y101667D01*
X168729Y101914D01*
X169207Y101547D01*
X170169Y101149D01*
X171201Y101013D01*
X172233Y101149D01*
X173194Y101547D01*
X173671Y101913D01*
X174171Y101666D01*
Y85156D01*
X165919Y76904D01*
X165587Y76408D01*
X165471Y75823D01*
Y56150D01*
X165587Y55564D01*
X165919Y55068D01*
X167805Y53182D01*
X167603Y52694D01*
X167531Y52150D01*
X171000D01*
Y55618D01*
X170456Y55547D01*
X169968Y55345D01*
X168529Y56783D01*
Y58257D01*
X169029Y58504D01*
X169483Y58156D01*
X170456Y57753D01*
X171500Y57615D01*
X172544Y57753D01*
X173517Y58156D01*
X174353Y58797D01*
X174994Y59632D01*
X175397Y60605D01*
X175534Y61650D01*
X175397Y62694D01*
X175195Y63182D01*
X177209Y65195D01*
X177671Y65004D01*
Y48295D01*
X177209Y48104D01*
X175195Y50117D01*
X175397Y50605D01*
X175469Y51150D01*
X167531D01*
X167603Y50605D01*
X167771Y50199D01*
X167348Y49915D01*
X133129Y84133D01*
Y162200D01*
X133013Y162785D01*
X132681Y163281D01*
X115281Y180681D01*
X114785Y181013D01*
X114200Y181129D01*
X88275D01*
X87690Y181013D01*
X87194Y180681D01*
X86706Y180193D01*
X86244Y180385D01*
Y183471D01*
X121566D01*
X129019Y176019D01*
D02*
G37*
G36*
X81116Y126765D02*
X80730Y126447D01*
X80685Y126456D01*
X80064Y126333D01*
X79701Y126090D01*
X79337Y126333D01*
X78717Y126456D01*
X78096Y126333D01*
X77732Y126090D01*
X77369Y126333D01*
X76748Y126456D01*
X76127Y126333D01*
X75764Y126090D01*
X75400Y126333D01*
X74780Y126456D01*
X74159Y126333D01*
X73795Y126090D01*
X73432Y126333D01*
X72811Y126456D01*
X72190Y126333D01*
X71827Y126090D01*
X71463Y126333D01*
X70843Y126456D01*
X70222Y126333D01*
X69858Y126090D01*
X69495Y126333D01*
X68874Y126456D01*
X68253Y126333D01*
X67890Y126090D01*
X67526Y126333D01*
X66906Y126456D01*
X66285Y126333D01*
X65921Y126090D01*
X65558Y126333D01*
X64937Y126456D01*
X64316Y126333D01*
X63953Y126090D01*
X63589Y126333D01*
X62969Y126456D01*
X62348Y126333D01*
X61984Y126090D01*
X61621Y126333D01*
X61000Y126456D01*
X60379Y126333D01*
X60016Y126090D01*
X59652Y126333D01*
X59032Y126456D01*
X58411Y126333D01*
X58047Y126090D01*
X57684Y126333D01*
X57063Y126456D01*
X56442Y126333D01*
X56079Y126090D01*
X55715Y126333D01*
X55094Y126456D01*
X54474Y126333D01*
X54110Y126090D01*
X53747Y126333D01*
X53126Y126456D01*
X52505Y126333D01*
X52142Y126090D01*
X51778Y126333D01*
X51157Y126456D01*
X50537Y126333D01*
X50173Y126090D01*
X49810Y126333D01*
X49189Y126456D01*
X48568Y126333D01*
X48205Y126090D01*
X47841Y126333D01*
X47220Y126456D01*
X46600Y126333D01*
X46236Y126090D01*
X45873Y126333D01*
X45252Y126456D01*
X44631Y126333D01*
X44268Y126090D01*
X43904Y126333D01*
X43283Y126456D01*
X43231Y126446D01*
X42844Y126763D01*
Y128575D01*
X42728Y129160D01*
X42396Y129656D01*
X37081Y134971D01*
X36585Y135303D01*
X36262Y135367D01*
X35850Y135858D01*
X35840Y135911D01*
X36157Y136297D01*
X81100D01*
X81116Y126765D01*
D02*
G37*
G36*
X10460Y188961D02*
X11755Y187898D01*
X13231Y187109D01*
X14834Y186623D01*
X16500Y186459D01*
X18166Y186623D01*
X19769Y187109D01*
X21245Y187898D01*
X22539Y188961D01*
X23471Y190095D01*
X23971Y189916D01*
Y179734D01*
X20619Y176381D01*
X20287Y175885D01*
X20171Y175300D01*
Y155097D01*
X19722Y154426D01*
X19559Y153606D01*
X19722Y152787D01*
X20186Y152092D01*
X20881Y151628D01*
X21700Y151465D01*
X21900Y150995D01*
X22022Y150381D01*
X22486Y149686D01*
X23181Y149222D01*
X24000Y149059D01*
X24571Y149172D01*
X25071Y148834D01*
Y136492D01*
X23423Y134844D01*
X22631Y134687D01*
X21936Y134223D01*
X21472Y133528D01*
X21309Y132709D01*
X21472Y131889D01*
X21936Y131195D01*
X22631Y130730D01*
X23450Y130568D01*
X24270Y130730D01*
X24964Y131195D01*
X25429Y131889D01*
X25586Y132682D01*
X26342Y133437D01*
X26756Y133311D01*
X26847Y133235D01*
X27068Y132905D01*
X26825Y132542D01*
X26701Y131921D01*
X26825Y131301D01*
X27068Y130937D01*
X26825Y130573D01*
X26701Y129953D01*
X26825Y129332D01*
X27068Y128968D01*
X26825Y128605D01*
X26701Y127984D01*
X26825Y127364D01*
X27176Y126838D01*
X27702Y126486D01*
X28323Y126363D01*
X34228D01*
X34849Y126486D01*
X35375Y126838D01*
X35727Y127364D01*
X35850Y127984D01*
X35727Y128605D01*
X35484Y128968D01*
X35727Y129332D01*
X35850Y129953D01*
X35727Y130573D01*
X35484Y130937D01*
X35727Y131301D01*
X35739Y131364D01*
X36218Y131509D01*
X39786Y127941D01*
Y126763D01*
X39399Y126446D01*
X39346Y126456D01*
X38726Y126333D01*
X38362Y126090D01*
X37999Y126333D01*
X37378Y126456D01*
X36757Y126333D01*
X36231Y125981D01*
X35880Y125455D01*
X35756Y124835D01*
Y118929D01*
X35880Y118308D01*
X36231Y117782D01*
X36757Y117431D01*
X37378Y117307D01*
X37999Y117431D01*
X38362Y117674D01*
X38726Y117431D01*
X39346Y117307D01*
X39967Y117431D01*
X40331Y117674D01*
X40694Y117431D01*
X41315Y117307D01*
X41936Y117431D01*
X42299Y117674D01*
X42663Y117431D01*
X43283Y117307D01*
X43904Y117431D01*
X44268Y117674D01*
X44631Y117431D01*
X45252Y117307D01*
X45873Y117431D01*
X46236Y117674D01*
X46600Y117431D01*
X47220Y117307D01*
X47841Y117431D01*
X48205Y117674D01*
X48568Y117431D01*
X49189Y117307D01*
X49810Y117431D01*
X50173Y117674D01*
X50537Y117431D01*
X51157Y117307D01*
X51778Y117431D01*
X52142Y117674D01*
X52505Y117431D01*
X53126Y117307D01*
X53747Y117431D01*
X54110Y117674D01*
X54474Y117431D01*
X55094Y117307D01*
X55715Y117431D01*
X56079Y117674D01*
X56442Y117431D01*
X57063Y117307D01*
X57684Y117431D01*
X58047Y117674D01*
X58411Y117431D01*
X59032Y117307D01*
X59652Y117431D01*
X60016Y117674D01*
X60379Y117431D01*
X61000Y117307D01*
X61621Y117431D01*
X61984Y117674D01*
X62348Y117431D01*
X62969Y117307D01*
X63589Y117431D01*
X63953Y117674D01*
X64316Y117431D01*
X64937Y117307D01*
X65558Y117431D01*
X65921Y117674D01*
X66285Y117431D01*
X66906Y117307D01*
X67526Y117431D01*
X67890Y117674D01*
X68253Y117431D01*
X68874Y117307D01*
X69495Y117431D01*
X69858Y117674D01*
X70222Y117431D01*
X70843Y117307D01*
X71463Y117431D01*
X71827Y117674D01*
X72190Y117431D01*
X72811Y117307D01*
X73432Y117431D01*
X73795Y117674D01*
X74159Y117431D01*
X74780Y117307D01*
X74832Y117318D01*
X75219Y117001D01*
Y107982D01*
X71073Y103836D01*
X70281Y103678D01*
X69586Y103214D01*
X69122Y102519D01*
X68959Y101700D01*
X69122Y100881D01*
X69586Y100186D01*
X70281Y99722D01*
X71100Y99559D01*
X71481Y99635D01*
X71728Y99174D01*
X69183Y96629D01*
X16000D01*
X15415Y96513D01*
X14919Y96181D01*
X11819Y93081D01*
X11487Y92585D01*
X11371Y92000D01*
Y32646D01*
X10909Y32454D01*
X9029Y34334D01*
Y189916D01*
X9529Y190095D01*
X10460Y188961D01*
D02*
G37*
G36*
X106640Y136070D02*
Y126129D01*
X106178Y125938D01*
X101081Y131034D01*
X101065Y131202D01*
X106140Y136277D01*
X106640Y136070D01*
D02*
G37*
G36*
X85123Y117013D02*
Y81587D01*
X84623Y81177D01*
X84300Y81241D01*
X83709Y81124D01*
X83165Y81423D01*
X83151Y81532D01*
X82753Y82493D01*
X82119Y83319D01*
X81293Y83953D01*
X80332Y84351D01*
X79300Y84487D01*
X78268Y84351D01*
X77307Y83953D01*
X76481Y83319D01*
X75847Y82493D01*
X75449Y81532D01*
X75313Y80500D01*
X75449Y79468D01*
X75847Y78507D01*
X76481Y77681D01*
X77032Y77258D01*
X77016Y76647D01*
X76919Y76581D01*
X73719Y73381D01*
X73387Y72885D01*
X73271Y72300D01*
Y65000D01*
X73387Y64415D01*
X73719Y63919D01*
X75641Y61996D01*
X75449Y61532D01*
X75313Y60500D01*
X75449Y59468D01*
X75847Y58507D01*
X76481Y57681D01*
X77307Y57047D01*
X78268Y56649D01*
X79300Y56513D01*
X80332Y56649D01*
X81293Y57047D01*
X82119Y57681D01*
X82753Y58507D01*
X83151Y59468D01*
X83287Y60500D01*
X83151Y61532D01*
X82753Y62493D01*
X82119Y63319D01*
X81293Y63953D01*
X80332Y64351D01*
X79300Y64487D01*
X78268Y64351D01*
X77804Y64159D01*
X76329Y65633D01*
Y67167D01*
X76829Y67413D01*
X77307Y67047D01*
X78268Y66649D01*
X79300Y66513D01*
X80332Y66649D01*
X81293Y67047D01*
X82119Y67681D01*
X82753Y68507D01*
X83151Y69468D01*
X83287Y70500D01*
X83151Y71532D01*
X82753Y72493D01*
X82119Y73319D01*
X81615Y73706D01*
X81635Y74321D01*
X81781Y74419D01*
X84327Y76964D01*
X84623Y77023D01*
X85123Y76613D01*
Y48486D01*
X80796Y44159D01*
X80332Y44351D01*
X79300Y44487D01*
X78268Y44351D01*
X77307Y43953D01*
X76481Y43319D01*
X75847Y42493D01*
X75449Y41532D01*
X75313Y40500D01*
X75449Y39468D01*
X75847Y38507D01*
X76213Y38029D01*
X75967Y37529D01*
X54133D01*
X22659Y69004D01*
X22851Y69468D01*
X22987Y70500D01*
X22851Y71532D01*
X22453Y72493D01*
X22087Y72971D01*
X22333Y73471D01*
X63800D01*
X64385Y73587D01*
X64881Y73919D01*
X77804Y86841D01*
X78268Y86649D01*
X78800Y86579D01*
Y90000D01*
X75379D01*
X75449Y89468D01*
X75641Y89004D01*
X63166Y76529D01*
X21050D01*
X20950Y77029D01*
X20993Y77047D01*
X21819Y77681D01*
X22453Y78507D01*
X22851Y79468D01*
X22987Y80500D01*
X22851Y81532D01*
X22453Y82493D01*
X21819Y83319D01*
X20993Y83953D01*
X20032Y84351D01*
X19000Y84487D01*
X17968Y84351D01*
X17007Y83953D01*
X16181Y83319D01*
X15547Y82493D01*
X15149Y81532D01*
X15013Y80500D01*
X15149Y79468D01*
X15547Y78507D01*
X16181Y77681D01*
X17007Y77047D01*
X17050Y77029D01*
X16950Y76529D01*
X15500D01*
X14929Y76416D01*
X14840Y76402D01*
X14429Y76682D01*
Y91143D01*
X14611Y91275D01*
X15079Y90997D01*
X15013Y90500D01*
X15149Y89468D01*
X15547Y88507D01*
X16181Y87681D01*
X17007Y87047D01*
X17968Y86649D01*
X19000Y86513D01*
X20032Y86649D01*
X20993Y87047D01*
X21819Y87681D01*
X22453Y88507D01*
X22851Y89468D01*
X22987Y90500D01*
X22851Y91532D01*
X22453Y92493D01*
X22010Y93071D01*
X22256Y93571D01*
X69817D01*
X70402Y93687D01*
X70898Y94019D01*
X79798Y102919D01*
X80130Y103415D01*
X80246Y104000D01*
Y117001D01*
X80633Y117318D01*
X80685Y117307D01*
X80738Y117318D01*
X81124Y117001D01*
Y94487D01*
X80796Y94159D01*
X80332Y94351D01*
X79800Y94421D01*
Y91000D01*
X83221D01*
X83151Y91532D01*
X82959Y91996D01*
X83735Y92772D01*
X84067Y93268D01*
X84183Y93854D01*
Y117001D01*
X84570Y117318D01*
X84622Y117307D01*
X84737Y117330D01*
X85123Y117013D01*
D02*
G37*
G36*
X104271Y123519D02*
Y95640D01*
X103830Y95404D01*
X103719Y95478D01*
X102900Y95641D01*
X102081Y95478D01*
X101386Y95014D01*
X100922Y94319D01*
X100759Y93500D01*
X100922Y92681D01*
X101371Y92009D01*
Y64733D01*
X88644Y52007D01*
X88182Y52198D01*
Y126147D01*
X88359Y126363D01*
X93677D01*
X94298Y126486D01*
X94824Y126838D01*
X95175Y127364D01*
X95299Y127984D01*
X95288Y128037D01*
X95606Y128423D01*
X99366D01*
X104271Y123519D01*
D02*
G37*
G36*
X166919Y46019D02*
X167415Y45687D01*
X168000Y45571D01*
X169256D01*
X169311Y45467D01*
X169388Y45071D01*
X168647Y44502D01*
X168006Y43667D01*
X167603Y42694D01*
X167465Y41650D01*
X167478Y41554D01*
X167030Y41333D01*
X130629Y77733D01*
Y81654D01*
X131091Y81846D01*
X166919Y46019D01*
D02*
G37*
G36*
X104271Y62601D02*
Y53633D01*
X88166Y37529D01*
X82633D01*
X82387Y38029D01*
X82753Y38507D01*
X83151Y39468D01*
X83287Y40500D01*
X83151Y41532D01*
X82959Y41996D01*
X87734Y46771D01*
X103771Y62808D01*
X104271Y62601D01*
D02*
G37*
G36*
X181971Y11746D02*
X181509Y11554D01*
X180729Y12333D01*
Y218650D01*
X180613Y219236D01*
X180281Y219732D01*
X174860Y225154D01*
X175052Y225618D01*
X175188Y226650D01*
X175052Y227681D01*
X174653Y228643D01*
X174020Y229469D01*
X173236Y230071D01*
X173235Y230127D01*
X173573Y230571D01*
X174000D01*
X174585Y230687D01*
X175081Y231019D01*
X176781Y232719D01*
X177113Y233215D01*
X177229Y233800D01*
Y240000D01*
X177113Y240585D01*
X176781Y241081D01*
X174181Y243681D01*
X173685Y244013D01*
X173100Y244129D01*
X38700D01*
X38115Y244013D01*
X37619Y243681D01*
X6419Y212481D01*
X6087Y211985D01*
X5971Y211400D01*
Y33700D01*
X6087Y33115D01*
X6419Y32619D01*
X14119Y24919D01*
X14615Y24587D01*
X15200Y24471D01*
X16950D01*
X17050Y23971D01*
X17007Y23953D01*
X16181Y23319D01*
X15547Y22493D01*
X15149Y21532D01*
X15013Y20500D01*
X15149Y19468D01*
X15547Y18507D01*
X16181Y17681D01*
X17007Y17047D01*
X17968Y16649D01*
X19000Y16513D01*
X20032Y16649D01*
X20993Y17047D01*
X21819Y17681D01*
X22453Y18507D01*
X22851Y19468D01*
X22987Y20500D01*
X22851Y21532D01*
X22453Y22493D01*
X21819Y23319D01*
X20993Y23953D01*
X20950Y23971D01*
X21050Y24471D01*
X21500D01*
X22085Y24587D01*
X22581Y24919D01*
X24581Y26919D01*
X24913Y27415D01*
X25029Y28000D01*
Y46000D01*
X24913Y46585D01*
X24581Y47081D01*
X22659Y49004D01*
X22851Y49468D01*
X22987Y50500D01*
X22851Y51532D01*
X22453Y52493D01*
X21819Y53319D01*
X20993Y53953D01*
X20032Y54351D01*
X19000Y54487D01*
X17968Y54351D01*
X17007Y53953D01*
X16529Y53587D01*
X16029Y53833D01*
Y57167D01*
X16529Y57413D01*
X17007Y57047D01*
X17968Y56649D01*
X19000Y56513D01*
X20032Y56649D01*
X20993Y57047D01*
X21819Y57681D01*
X22453Y58507D01*
X22851Y59468D01*
X22987Y60500D01*
X22851Y61532D01*
X22453Y62493D01*
X21819Y63319D01*
X20993Y63953D01*
X20032Y64351D01*
X19000Y64487D01*
X17968Y64351D01*
X17007Y63953D01*
X16529Y63587D01*
X16029Y63833D01*
Y67167D01*
X16529Y67413D01*
X17007Y67047D01*
X17968Y66649D01*
X19000Y66513D01*
X20032Y66649D01*
X20496Y66841D01*
X52419Y34919D01*
X52915Y34587D01*
X53500Y34471D01*
X77250D01*
X77350Y33971D01*
X77307Y33953D01*
X76481Y33319D01*
X75847Y32493D01*
X75449Y31532D01*
X75313Y30500D01*
X75449Y29468D01*
X75847Y28507D01*
X76481Y27681D01*
X77307Y27047D01*
X78268Y26649D01*
X79300Y26513D01*
X80332Y26649D01*
X81293Y27047D01*
X82119Y27681D01*
X82753Y28507D01*
X83151Y29468D01*
X83287Y30500D01*
X83151Y31532D01*
X82753Y32493D01*
X82119Y33319D01*
X81293Y33953D01*
X81250Y33971D01*
X81350Y34471D01*
X88800D01*
X89385Y34587D01*
X89881Y34919D01*
X106178Y51215D01*
X106640Y51024D01*
Y42631D01*
X106756Y42046D01*
X107088Y41549D01*
X159219Y-10581D01*
X159715Y-10913D01*
X160300Y-11029D01*
X181600D01*
X181971Y-11333D01*
Y-11971D01*
X1529D01*
Y244971D01*
X181971D01*
Y11746D01*
D02*
G37*
%LPC*%
G36*
X43742Y169200D02*
X42200D01*
Y167658D01*
X42519Y167722D01*
X43214Y168186D01*
X43678Y168881D01*
X43742Y169200D01*
D02*
G37*
G36*
X124965Y162307D02*
X119465D01*
Y158807D01*
X124965D01*
Y162307D01*
D02*
G37*
G36*
X118465D02*
X112965D01*
Y158807D01*
X118465D01*
Y162307D01*
D02*
G37*
G36*
X174598Y-1925D02*
X172524D01*
Y-4000D01*
X174598D01*
Y-1925D01*
D02*
G37*
G36*
X126500Y218282D02*
X125521Y218154D01*
X124609Y217776D01*
X123826Y217175D01*
X123224Y216391D01*
X122846Y215479D01*
X122718Y214500D01*
Y212500D01*
X122846Y211521D01*
X123224Y210609D01*
X123826Y209825D01*
X124609Y209224D01*
X125521Y208846D01*
X126500Y208718D01*
X127479Y208846D01*
X128391Y209224D01*
X129174Y209825D01*
X129776Y210609D01*
X130154Y211521D01*
X130624Y211412D01*
Y208750D01*
X138124D01*
Y218250D01*
X130624D01*
Y215588D01*
X130154Y215479D01*
X129776Y216391D01*
X129174Y217175D01*
X128391Y217776D01*
X127479Y218154D01*
X126500Y218282D01*
D02*
G37*
G36*
X74563D02*
X73584Y218154D01*
X72672Y217776D01*
X71889Y217175D01*
X71287Y216391D01*
X70910Y215479D01*
X70781Y214500D01*
Y212500D01*
X70910Y211521D01*
X71287Y210609D01*
X71889Y209825D01*
X72672Y209224D01*
X73584Y208846D01*
X74563Y208718D01*
X75542Y208846D01*
X76454Y209224D01*
X77237Y209825D01*
X77839Y210609D01*
X78216Y211521D01*
X78687Y211412D01*
Y208750D01*
X86187D01*
Y218250D01*
X78687D01*
Y215588D01*
X78216Y215479D01*
X77839Y216391D01*
X77237Y217175D01*
X76454Y217776D01*
X75542Y218154D01*
X74563Y218282D01*
D02*
G37*
G36*
X39846Y191092D02*
Y189550D01*
X41388D01*
X41325Y189870D01*
X40860Y190564D01*
X40166Y191029D01*
X39846Y191092D01*
D02*
G37*
G36*
X38846D02*
X38527Y191029D01*
X37832Y190564D01*
X37368Y189870D01*
X37305Y189550D01*
X38846D01*
Y191092D01*
D02*
G37*
G36*
X138500Y203541D02*
X136834Y203377D01*
X135231Y202891D01*
X133755Y202102D01*
X132460Y201040D01*
X131398Y199745D01*
X130609Y198269D01*
X130123Y196666D01*
X129959Y195000D01*
X130123Y193334D01*
X130609Y191731D01*
X131398Y190255D01*
X132460Y188961D01*
X133755Y187898D01*
X135231Y187109D01*
X136834Y186623D01*
X138500Y186459D01*
X140166Y186623D01*
X141769Y187109D01*
X143245Y187898D01*
X144539Y188961D01*
X145602Y190255D01*
X146391Y191731D01*
X146877Y193334D01*
X147041Y195000D01*
X146877Y196666D01*
X146391Y198269D01*
X145602Y199745D01*
X144539Y201040D01*
X143245Y202102D01*
X141769Y202891D01*
X140166Y203377D01*
X138500Y203541D01*
D02*
G37*
G36*
X150965Y166841D02*
X146965D01*
X145920Y166704D01*
X144947Y166301D01*
X144112Y165660D01*
X143471Y164824D01*
X143068Y163851D01*
X142930Y162807D01*
X143068Y161763D01*
X143471Y160790D01*
X144112Y159954D01*
X144947Y159313D01*
X145920Y158910D01*
X146965Y158773D01*
X150965D01*
X152009Y158910D01*
X152982Y159313D01*
X153817Y159954D01*
X154459Y160790D01*
X154862Y161763D01*
X154999Y162807D01*
X154862Y163851D01*
X154459Y164824D01*
X153817Y165660D01*
X152982Y166301D01*
X152009Y166704D01*
X150965Y166841D01*
D02*
G37*
G36*
Y146842D02*
X146965D01*
X145920Y146704D01*
X144947Y146301D01*
X144112Y145660D01*
X143471Y144824D01*
X143068Y143851D01*
X142930Y142807D01*
X143068Y141763D01*
X143471Y140790D01*
X144112Y139954D01*
X144947Y139313D01*
X145920Y138910D01*
X146965Y138772D01*
X150965D01*
X152009Y138910D01*
X152982Y139313D01*
X153817Y139954D01*
X154459Y140790D01*
X154862Y141763D01*
X154999Y142807D01*
X154862Y143851D01*
X154459Y144824D01*
X153817Y145660D01*
X152982Y146301D01*
X152009Y146704D01*
X150965Y146842D01*
D02*
G37*
G36*
X175154Y138953D02*
X171701D01*
Y135500D01*
X175154D01*
Y138953D01*
D02*
G37*
G36*
X170701D02*
X167248D01*
Y135500D01*
X170701D01*
Y138953D01*
D02*
G37*
G36*
Y134500D02*
X167248D01*
Y131047D01*
X170701D01*
Y134500D01*
D02*
G37*
G36*
X172000Y55618D02*
Y52150D01*
X175469D01*
X175397Y52694D01*
X174994Y53667D01*
X174353Y54502D01*
X173517Y55144D01*
X172544Y55547D01*
X172000Y55618D01*
D02*
G37*
G36*
X78800Y94421D02*
X78268Y94351D01*
X77307Y93953D01*
X76481Y93319D01*
X75847Y92493D01*
X75449Y91532D01*
X75379Y91000D01*
X78800D01*
Y94421D01*
D02*
G37*
G36*
X83221Y90000D02*
X79800D01*
Y86579D01*
X80332Y86649D01*
X81293Y87047D01*
X82119Y87681D01*
X82753Y88507D01*
X83151Y89468D01*
X83221Y90000D01*
D02*
G37*
G36*
X79300Y54487D02*
X78268Y54351D01*
X77307Y53953D01*
X76481Y53319D01*
X75847Y52493D01*
X75449Y51532D01*
X75313Y50500D01*
X75449Y49468D01*
X75847Y48507D01*
X76481Y47681D01*
X77307Y47047D01*
X78268Y46649D01*
X79300Y46513D01*
X80332Y46649D01*
X81293Y47047D01*
X82119Y47681D01*
X82753Y48507D01*
X83151Y49468D01*
X83287Y50500D01*
X83151Y51532D01*
X82753Y52493D01*
X82119Y53319D01*
X81293Y53953D01*
X80332Y54351D01*
X79300Y54487D01*
D02*
G37*
G36*
Y24487D02*
X78268Y24351D01*
X77307Y23953D01*
X76481Y23319D01*
X75847Y22493D01*
X75449Y21532D01*
X75313Y20500D01*
X75449Y19468D01*
X75847Y18507D01*
X76481Y17681D01*
X77307Y17047D01*
X78268Y16649D01*
X79300Y16513D01*
X80332Y16649D01*
X81293Y17047D01*
X82119Y17681D01*
X82753Y18507D01*
X83151Y19468D01*
X83287Y20500D01*
X83151Y21532D01*
X82753Y22493D01*
X82119Y23319D01*
X81293Y23953D01*
X80332Y24351D01*
X79300Y24487D01*
D02*
G37*
G36*
X83253Y14453D02*
X75347D01*
Y6547D01*
X83253D01*
Y14453D01*
D02*
G37*
G36*
X22953D02*
X15047D01*
Y6547D01*
X22953D01*
Y14453D01*
D02*
G37*
G36*
X45000Y23479D02*
X43334Y23315D01*
X41732Y22829D01*
X40255Y22040D01*
X38960Y20978D01*
X37898Y19683D01*
X37109Y18207D01*
X36623Y16604D01*
X36459Y14938D01*
X36623Y13272D01*
X37109Y11670D01*
X37898Y10193D01*
X38960Y8899D01*
X40255Y7836D01*
X41732Y7047D01*
X43334Y6561D01*
X45000Y6397D01*
X46666Y6561D01*
X48268Y7047D01*
X49745Y7836D01*
X51039Y8899D01*
X52102Y10193D01*
X52891Y11670D01*
X53377Y13272D01*
X53541Y14938D01*
X53377Y16604D01*
X52891Y18207D01*
X52102Y19683D01*
X51039Y20978D01*
X49745Y22040D01*
X48268Y22829D01*
X46666Y23315D01*
X45000Y23479D01*
D02*
G37*
%LPD*%
D11*
X93700Y175228D02*
Y177300D01*
X99223Y167354D02*
X106954D01*
X86653Y47853D02*
X102900Y64100D01*
X79300Y40500D02*
X86653Y47853D01*
X49189Y143016D02*
Y176600D01*
X44000Y137827D02*
X82627D01*
X31276D02*
X44000D01*
X39346Y172054D02*
Y176600D01*
X121000Y142807D02*
X123000D01*
X121000D02*
Y154600D01*
X84622Y185000D02*
X122200D01*
X16800Y26000D02*
X21500D01*
X15200D02*
X16800D01*
X97653Y129953D02*
X100000D01*
X90724D02*
X97653D01*
X96386Y165386D02*
X98386Y163386D01*
X161900Y196700D02*
Y227349D01*
X171201Y236650D01*
Y226650D02*
X179200Y218650D01*
Y11700D02*
Y218650D01*
Y11700D02*
X181600Y9300D01*
Y-9500D02*
Y9300D01*
X160300Y-9500D02*
X181600D01*
X108169Y42631D02*
X160300Y-9500D01*
X108169Y42631D02*
Y166139D01*
X106954Y167354D02*
X108169Y166139D01*
X22626Y203200D02*
Y213500D01*
Y203200D02*
X25500Y200326D01*
Y179100D02*
Y200326D01*
X21700Y175300D02*
X25500Y179100D01*
X21700Y153606D02*
Y175300D01*
X30500Y181100D02*
Y213500D01*
X25000Y175600D02*
X30500Y181100D01*
X25000Y152200D02*
Y175600D01*
X24000Y151200D02*
X25000Y152200D01*
X102900Y64100D02*
Y93500D01*
X87000Y131921D02*
X90724D01*
X86000Y130921D02*
X87000Y131921D01*
X86000Y126800D02*
Y130921D01*
Y126800D02*
X86653Y126147D01*
Y47853D02*
Y126147D01*
X171500Y51650D02*
X177600Y45550D01*
Y-1998D02*
Y45550D01*
X175098Y-4500D02*
X177600Y-1998D01*
X116093Y162807D02*
X118965D01*
X111378Y167522D02*
X116093Y162807D01*
X111378Y167522D02*
Y169000D01*
X107118Y173260D02*
X111378Y169000D01*
X90724Y173260D02*
X107118D01*
X167000Y56150D02*
X171500Y51650D01*
X167000Y56150D02*
Y75823D01*
X175700Y84523D01*
Y130501D01*
X171201Y135000D02*
X175700Y130501D01*
X14500Y35000D02*
X19000Y30500D01*
X14500Y35000D02*
Y74000D01*
X15500Y75000D01*
X63800D01*
X79300Y90500D01*
X82627Y137827D02*
X82654Y121882D01*
X118965Y142807D02*
X121000D01*
X42262Y149638D02*
X44000Y147900D01*
X31276Y149638D02*
X42262D01*
X109769Y74931D02*
X143050Y41650D01*
X109769Y74931D02*
Y167898D01*
X108667Y169000D02*
X109769Y167898D01*
X96300Y169000D02*
X108667D01*
X95977Y169323D02*
X96300Y169000D01*
X90724Y169323D02*
X95977D01*
X59032Y177000D02*
Y181331D01*
Y177000D02*
X60232Y175800D01*
X84475D01*
X88275Y179600D01*
X114200D01*
X131600Y162200D01*
Y83500D02*
Y162200D01*
Y83500D02*
X168000Y47100D01*
X173050D01*
X176000Y44150D01*
Y26150D02*
Y44150D01*
X171500Y21650D02*
X176000Y26150D01*
X19000Y50500D02*
X23500Y46000D01*
Y28000D02*
Y46000D01*
X21500Y26000D02*
X23500Y28000D01*
X12900Y29900D02*
X16800Y26000D01*
X12900Y29900D02*
Y92000D01*
X16000Y95100D01*
X69817D01*
X78717Y104000D01*
Y121882D01*
X71100Y101700D02*
X76748Y107348D01*
Y121882D01*
X19000Y70500D02*
X53500Y36000D01*
X88800D01*
X105800Y53000D01*
Y124153D01*
X100000Y129953D02*
X105800Y124153D01*
X97653Y129953D02*
X105400Y137700D01*
Y164200D01*
X166700Y181150D02*
X171201Y176650D01*
X166700Y181150D02*
Y229100D01*
X169700Y232100D01*
X174000D01*
X175700Y233800D01*
Y240000D01*
X173100Y242600D02*
X175700Y240000D01*
X38700Y242600D02*
X173100D01*
X7500Y211400D02*
X38700Y242600D01*
X7500Y33700D02*
Y211400D01*
Y33700D02*
X15200Y26000D01*
X74800Y65000D02*
X79300Y60500D01*
X74800Y65000D02*
Y72300D01*
X78000Y75500D01*
X80700D01*
X84300Y79100D01*
X166700Y81600D02*
Y120499D01*
X171201Y125000D01*
X82654Y93854D02*
Y121882D01*
X79300Y90500D02*
X82654Y93854D01*
X53126Y174774D02*
Y181331D01*
Y174774D02*
X76600Y151300D01*
X51157Y181331D02*
Y200000D01*
X90724Y175228D02*
X93700D01*
X90724Y165386D02*
X96386D01*
X98806Y158606D02*
X101000Y160800D01*
Y165577D01*
X99223Y167354D02*
X101000Y165577D01*
X90724Y167354D02*
X99223D01*
X168000Y31650D02*
X171500D01*
X167000Y32650D02*
X168000Y31650D01*
X167000Y32650D02*
Y39200D01*
X129100Y77100D02*
X167000Y39200D01*
X129100Y77100D02*
Y136707D01*
X123000Y142807D02*
X129100Y136707D01*
X39346Y172054D02*
X41700Y169700D01*
X39346Y181331D02*
Y189050D01*
X171500Y61650D02*
X177300Y67450D01*
Y150400D01*
X150600Y177100D02*
X177300Y150400D01*
X130100Y177100D02*
X150600D01*
X122200Y185000D02*
X130100Y177100D01*
X84622Y181331D02*
Y185000D01*
X41315Y121882D02*
Y128575D01*
X36000Y133890D02*
X41315Y128575D01*
X31276Y133890D02*
X36000D01*
X23450Y132709D02*
X26600Y135858D01*
X31276Y165386D02*
X36000D01*
X37378Y166764D01*
Y181331D01*
X168602Y-4500D02*
X171302Y-7200D01*
X179300D01*
X44000Y137827D02*
X49189Y143016D01*
X86328Y175228D02*
X90724D01*
X86100Y175000D02*
X86328Y175228D01*
X86100Y173700D02*
Y175000D01*
X84400Y172000D02*
X86100Y173700D01*
X84400Y125022D02*
Y172000D01*
Y125022D02*
X84622Y124800D01*
Y121882D02*
Y124800D01*
X26600Y165386D02*
X31276D01*
X26600Y135858D02*
Y165386D01*
Y135858D02*
X31276D01*
X39346Y176600D02*
Y181331D01*
Y176600D02*
X49189D01*
Y181331D01*
X31276Y133890D02*
Y135858D01*
D16*
X168602Y-4500D02*
D03*
X175098D02*
D03*
D17*
X31276Y175228D02*
D03*
Y173260D02*
D03*
Y171291D02*
D03*
Y169323D02*
D03*
Y167354D02*
D03*
Y165386D02*
D03*
Y163417D02*
D03*
Y161449D02*
D03*
Y159480D02*
D03*
Y157512D02*
D03*
Y155543D02*
D03*
Y153575D02*
D03*
Y151606D02*
D03*
Y149638D02*
D03*
Y147669D02*
D03*
Y145701D02*
D03*
Y143732D02*
D03*
Y141764D02*
D03*
Y139795D02*
D03*
Y137827D02*
D03*
Y135858D02*
D03*
Y133890D02*
D03*
Y131921D02*
D03*
Y129953D02*
D03*
Y127984D02*
D03*
X90724D02*
D03*
Y129953D02*
D03*
Y131921D02*
D03*
Y133890D02*
D03*
Y135858D02*
D03*
Y137827D02*
D03*
Y139795D02*
D03*
Y141764D02*
D03*
Y143732D02*
D03*
Y145701D02*
D03*
Y147669D02*
D03*
Y149638D02*
D03*
Y151606D02*
D03*
Y153575D02*
D03*
Y155543D02*
D03*
Y157512D02*
D03*
Y159480D02*
D03*
Y161449D02*
D03*
Y163417D02*
D03*
Y165386D02*
D03*
Y167354D02*
D03*
Y169323D02*
D03*
Y171291D02*
D03*
Y173260D02*
D03*
Y175228D02*
D03*
D18*
X37378Y121882D02*
D03*
X39346D02*
D03*
X41315D02*
D03*
X43283D02*
D03*
X45252D02*
D03*
X47220D02*
D03*
X49189D02*
D03*
X51157D02*
D03*
X53126D02*
D03*
X55094D02*
D03*
X57063D02*
D03*
X59032D02*
D03*
X61000D02*
D03*
X62969D02*
D03*
X64937D02*
D03*
X66906D02*
D03*
X68874D02*
D03*
X70843D02*
D03*
X72811D02*
D03*
X74780D02*
D03*
X76748D02*
D03*
X78717D02*
D03*
X80685D02*
D03*
X82654D02*
D03*
X84622D02*
D03*
Y181331D02*
D03*
X82654D02*
D03*
X80685D02*
D03*
X78717D02*
D03*
X76748D02*
D03*
X74780D02*
D03*
X72811D02*
D03*
X70843D02*
D03*
X68874D02*
D03*
X66906D02*
D03*
X64937D02*
D03*
X62969D02*
D03*
X61000D02*
D03*
X59032D02*
D03*
X57063D02*
D03*
X55094D02*
D03*
X53126D02*
D03*
X51157D02*
D03*
X49189D02*
D03*
X47220D02*
D03*
X45252D02*
D03*
X43283D02*
D03*
X41315D02*
D03*
X39346D02*
D03*
X37378D02*
D03*
D31*
X171500Y21650D02*
D03*
Y31650D02*
D03*
Y41650D02*
D03*
Y51650D02*
D03*
Y61650D02*
D03*
D32*
Y71650D02*
D03*
D33*
X171201Y135000D02*
D03*
Y166650D02*
D03*
X19000Y10500D02*
D03*
X79300D02*
D03*
D34*
X171201Y125000D02*
D03*
Y115000D02*
D03*
Y105000D02*
D03*
Y176650D02*
D03*
Y186650D02*
D03*
Y196650D02*
D03*
Y206650D02*
D03*
Y216650D02*
D03*
Y226650D02*
D03*
Y236650D02*
D03*
X19000Y30500D02*
D03*
Y40500D02*
D03*
Y50500D02*
D03*
Y60500D02*
D03*
Y70500D02*
D03*
Y80500D02*
D03*
Y90500D02*
D03*
Y20500D02*
D03*
X79300Y30500D02*
D03*
Y40500D02*
D03*
Y50500D02*
D03*
Y60500D02*
D03*
Y70500D02*
D03*
Y80500D02*
D03*
Y90500D02*
D03*
Y20500D02*
D03*
D35*
X16500Y195000D02*
D03*
X138500D02*
D03*
X150500Y14938D02*
D03*
X45000D02*
D03*
D36*
X30500Y213500D02*
D03*
X82437D02*
D03*
X134374D02*
D03*
D37*
X22626D02*
D03*
X74563D02*
D03*
X126500D02*
D03*
D38*
X118965Y162807D02*
D03*
D39*
X148965D02*
D03*
Y142807D02*
D03*
X118965D02*
D03*
D40*
X98386Y163386D02*
D03*
X161900Y196700D02*
D03*
X21700Y153606D02*
D03*
X24000Y151200D02*
D03*
X102900Y93500D02*
D03*
X121000Y154600D02*
D03*
X44000Y147900D02*
D03*
X143050Y41650D02*
D03*
X71100Y101700D02*
D03*
X105400Y164200D02*
D03*
X84300Y79100D02*
D03*
X166700Y81600D02*
D03*
X76600Y151300D02*
D03*
X51157Y200000D02*
D03*
X93700Y177300D02*
D03*
X98806Y158606D02*
D03*
X41700Y169700D02*
D03*
X39346Y189050D02*
D03*
X23450Y132709D02*
D03*
X179300Y-7200D02*
D03*
M02*
