G04*
G04 #@! TF.GenerationSoftware,Altium Limited,Altium Designer,18.1.6 (161)*
G04*
G04 Layer_Color=8421504*
%FSLAX25Y25*%
%MOIN*%
G70*
G01*
G75*
%ADD16R,0.03150X0.03150*%
%ADD17O,0.07087X0.01181*%
%ADD18O,0.01181X0.07087*%
D16*
X168602Y-4500D02*
D03*
X175098D02*
D03*
D17*
X31276Y175228D02*
D03*
Y173260D02*
D03*
Y171291D02*
D03*
Y169323D02*
D03*
Y167354D02*
D03*
Y165386D02*
D03*
Y163417D02*
D03*
Y161449D02*
D03*
Y159480D02*
D03*
Y157512D02*
D03*
Y155543D02*
D03*
Y153575D02*
D03*
Y151606D02*
D03*
Y149638D02*
D03*
Y147669D02*
D03*
Y145701D02*
D03*
Y143732D02*
D03*
Y141764D02*
D03*
Y139795D02*
D03*
Y137827D02*
D03*
Y135858D02*
D03*
Y133890D02*
D03*
Y131921D02*
D03*
Y129953D02*
D03*
Y127984D02*
D03*
X90724D02*
D03*
Y129953D02*
D03*
Y131921D02*
D03*
Y133890D02*
D03*
Y135858D02*
D03*
Y137827D02*
D03*
Y139795D02*
D03*
Y141764D02*
D03*
Y143732D02*
D03*
Y145701D02*
D03*
Y147669D02*
D03*
Y149638D02*
D03*
Y151606D02*
D03*
Y153575D02*
D03*
Y155543D02*
D03*
Y157512D02*
D03*
Y159480D02*
D03*
Y161449D02*
D03*
Y163417D02*
D03*
Y165386D02*
D03*
Y167354D02*
D03*
Y169323D02*
D03*
Y171291D02*
D03*
Y173260D02*
D03*
Y175228D02*
D03*
D18*
X37378Y121882D02*
D03*
X39346D02*
D03*
X41315D02*
D03*
X43283D02*
D03*
X45252D02*
D03*
X47220D02*
D03*
X49189D02*
D03*
X51157D02*
D03*
X53126D02*
D03*
X55094D02*
D03*
X57063D02*
D03*
X59032D02*
D03*
X61000D02*
D03*
X62969D02*
D03*
X64937D02*
D03*
X66906D02*
D03*
X68874D02*
D03*
X70843D02*
D03*
X72811D02*
D03*
X74780D02*
D03*
X76748D02*
D03*
X78717D02*
D03*
X80685D02*
D03*
X82654D02*
D03*
X84622D02*
D03*
Y181331D02*
D03*
X82654D02*
D03*
X80685D02*
D03*
X78717D02*
D03*
X76748D02*
D03*
X74780D02*
D03*
X72811D02*
D03*
X70843D02*
D03*
X68874D02*
D03*
X66906D02*
D03*
X64937D02*
D03*
X62969D02*
D03*
X61000D02*
D03*
X59032D02*
D03*
X57063D02*
D03*
X55094D02*
D03*
X53126D02*
D03*
X51157D02*
D03*
X49189D02*
D03*
X47220D02*
D03*
X45252D02*
D03*
X43283D02*
D03*
X41315D02*
D03*
X39346D02*
D03*
X37378D02*
D03*
M02*
