G04*
G04 #@! TF.GenerationSoftware,Altium Limited,Altium Designer,18.1.6 (161)*
G04*
G04 Layer_Color=16711935*
%FSLAX25Y25*%
%MOIN*%
G70*
G01*
G75*
%ADD55C,0.00394*%
D55*
X67650Y157405D02*
G03*
X67650Y157405I-1969J0D01*
G01*
X38953Y175622D02*
G03*
X38953Y175622I-1969J0D01*
G01*
X111717Y40189D02*
X126283D01*
X111717Y13811D02*
X126283D01*
Y40189D01*
X111717Y13811D02*
Y40189D01*
X97370Y15484D02*
Y22374D01*
X93630Y15484D02*
Y22374D01*
Y15484D02*
X97370D01*
X93630Y22374D02*
X97370D01*
X93630Y31626D02*
Y38516D01*
X97370Y31626D02*
Y38516D01*
X93630D02*
X97370D01*
X93630Y31626D02*
X97370D01*
X15630Y113661D02*
Y120551D01*
X19370Y113661D02*
Y120551D01*
X15630D02*
X19370D01*
X15630Y113661D02*
X19370D01*
X57555Y131976D02*
X64445D01*
X57555Y128236D02*
X64445D01*
Y131976D01*
X57555Y128236D02*
Y131976D01*
X107878Y148457D02*
Y155346D01*
X111618Y148457D02*
Y155346D01*
X107878D02*
X111618D01*
X107878Y148457D02*
X111618D01*
X168406Y-6370D02*
Y-2630D01*
X175295Y-6370D02*
Y-2630D01*
X168406D02*
X175295D01*
X168406Y-6370D02*
X175295D01*
X168406Y-2630D02*
X175295D01*
X168406Y-6370D02*
X175295D01*
Y-2630D01*
X168406Y-6370D02*
Y-2630D01*
X53476Y141264D02*
X69224D01*
X53476Y160949D02*
X69224D01*
X53476Y141264D02*
Y160949D01*
X69224Y141264D02*
Y160949D01*
X155878Y146587D02*
X159618D01*
X155878Y153280D02*
X159618D01*
Y146587D02*
Y153280D01*
X155878Y146587D02*
Y153280D01*
X11870Y107661D02*
Y114551D01*
X8130Y107661D02*
Y114551D01*
Y107661D02*
X11870D01*
X8130Y114551D02*
X11870D01*
X15630Y132413D02*
Y139303D01*
X19370Y132413D02*
Y139303D01*
X15630D02*
X19370D01*
X15630Y132413D02*
X19370D01*
X105870Y169661D02*
Y176551D01*
X102130Y169661D02*
Y176551D01*
Y169661D02*
X105870D01*
X102130Y176551D02*
X105870D01*
X41055Y109976D02*
X47945D01*
X41055Y106236D02*
X47945D01*
Y109976D01*
X41055Y106236D02*
Y109976D01*
X82055Y106736D02*
X88945D01*
X82055Y110476D02*
X88945D01*
X82055Y106736D02*
Y110476D01*
X88945Y106736D02*
Y110476D01*
X35902Y196976D02*
X42791D01*
X35902Y193236D02*
X42791D01*
Y196976D01*
X35902Y193236D02*
Y196976D01*
X15630Y157161D02*
Y164051D01*
X19370Y157161D02*
Y164051D01*
X15630D02*
X19370D01*
X15630Y157161D02*
X19370D01*
X11870Y126161D02*
Y133051D01*
X8130Y126161D02*
Y133051D01*
Y126161D02*
X11870D01*
X8130Y133051D02*
X11870D01*
X33441Y124047D02*
Y179165D01*
X88559Y124047D02*
Y179165D01*
X33441D02*
X88559D01*
X33441Y124047D02*
X88559D01*
M02*
