G04*
G04 #@! TF.GenerationSoftware,Altium Limited,Altium Designer,21.6.4 (81)*
G04*
G04 Layer_Color=32768*
%FSLAX25Y25*%
%MOIN*%
G70*
G04*
G04 #@! TF.SameCoordinates,725644BE-5CAA-454B-8F19-4296BE5BC7E9*
G04*
G04*
G04 #@! TF.FilePolarity,Positive*
G04*
G01*
G75*
%ADD50C,0.00394*%
%ADD54C,0.00197*%
D50*
X126732Y-153400D02*
X130668D01*
X128700Y-155368D02*
Y-151432D01*
X114330Y-176333D02*
Y-130467D01*
X143070Y-176333D02*
Y-130467D01*
X114330Y-176333D02*
X143070D01*
X114330Y-130467D02*
X143070D01*
X244046Y-152945D02*
X247983D01*
X246014Y-154913D02*
Y-150976D01*
X231644Y-175878D02*
Y-130012D01*
X260384Y-175878D02*
Y-130012D01*
X231644Y-175878D02*
X260384D01*
X231644Y-130012D02*
X260384D01*
X113260Y-83495D02*
Y-79558D01*
X111291Y-81526D02*
X115228D01*
X230978Y-84569D02*
Y-80632D01*
X229010Y-82600D02*
X232946D01*
X122630Y-83000D02*
X126370D01*
X124500Y-84870D02*
Y-81130D01*
X227630Y-94000D02*
X231370D01*
X229500Y-95870D02*
Y-92130D01*
X210530Y-152945D02*
X214467D01*
X212498Y-154913D02*
Y-150976D01*
X198128Y-175878D02*
Y-130012D01*
X226869Y-175878D02*
Y-130012D01*
X198128Y-175878D02*
X226869D01*
X198128Y-130012D02*
X226869D01*
X177032Y-161044D02*
X180968D01*
X179000Y-163013D02*
Y-159076D01*
X187858Y-173052D02*
Y-149036D01*
X170142Y-173052D02*
Y-149036D01*
X187858D01*
X170142Y-173052D02*
X187858D01*
X113726Y-66969D02*
Y-63032D01*
X111758Y-65000D02*
X115694D01*
X101718Y-71890D02*
X125734D01*
X101718Y-58110D02*
X125734D01*
Y-71890D02*
Y-58110D01*
X101718Y-71890D02*
Y-58110D01*
X230726Y-67968D02*
Y-64031D01*
X228758Y-66000D02*
X232695D01*
X218718Y-72890D02*
X242734D01*
X218718Y-59110D02*
X242734D01*
Y-72890D02*
Y-59110D01*
X218718Y-72890D02*
Y-59110D01*
X294531Y-161077D02*
X298468D01*
X296500Y-163046D02*
Y-159109D01*
X305358Y-173085D02*
Y-149069D01*
X287642Y-173085D02*
Y-149069D01*
X305358D01*
X287642Y-173085D02*
X305358D01*
X250909Y-47854D02*
X254847D01*
X252878Y-49823D02*
Y-45886D01*
X245988Y-59862D02*
Y-35846D01*
X259768Y-59862D02*
Y-35846D01*
X245988Y-59862D02*
X259768D01*
X245988Y-35846D02*
X259768D01*
X130062Y-35586D02*
X143842D01*
X130062Y-59602D02*
X143842D01*
Y-35586D01*
X130062Y-59602D02*
Y-35586D01*
X136952Y-49562D02*
Y-45625D01*
X134984Y-47594D02*
X138920D01*
X80814Y-130412D02*
X109554D01*
X80814Y-176278D02*
X109554D01*
Y-130412D01*
X80814Y-176278D02*
Y-130412D01*
X95184Y-155313D02*
Y-151376D01*
X93216Y-153345D02*
X97153D01*
D54*
X106173Y-73750D02*
X120346D01*
X106173Y-89302D02*
X120346D01*
Y-73750D01*
X106173Y-89302D02*
Y-73750D01*
X223202Y-75513D02*
X238754D01*
X223202Y-89687D02*
X238754D01*
X223202D02*
Y-75513D01*
X238754Y-89687D02*
Y-75513D01*
X127453Y-89102D02*
Y-76898D01*
X121547Y-89102D02*
Y-76898D01*
X127453D01*
X121547Y-89102D02*
X127453D01*
X223398Y-96953D02*
Y-91047D01*
X235602Y-96953D02*
Y-91047D01*
X223398D02*
X235602D01*
X223398Y-96953D02*
X235602D01*
M02*
