G04*
G04 #@! TF.GenerationSoftware,Altium Limited,Altium Designer,21.6.4 (81)*
G04*
G04 Layer_Color=8388736*
%FSLAX25Y25*%
%MOIN*%
G70*
G04*
G04 #@! TF.SameCoordinates,725644BE-5CAA-454B-8F19-4296BE5BC7E9*
G04*
G04*
G04 #@! TF.FilePolarity,Negative*
G04*
G01*
G75*
%ADD23R,0.27572X0.29540*%
%ADD24R,0.05721X0.12808*%
%ADD25O,0.03162X0.05131*%
%ADD26O,0.05131X0.03162*%
%ADD27R,0.04737X0.04934*%
%ADD28R,0.04934X0.04737*%
%ADD29R,0.09855X0.10642*%
%ADD30R,0.08674X0.08674*%
%ADD31R,0.10642X0.06706*%
%ADD32R,0.08674X0.08674*%
%ADD33C,0.07600*%
%ADD34C,0.22600*%
%ADD35C,0.07100*%
%ADD36C,0.02600*%
%ADD37C,0.03600*%
%ADD38C,0.20800*%
%ADD39C,0.05800*%
%ADD40C,0.27800*%
G36*
X301000Y-37000D02*
Y-123500D01*
X350000D01*
Y-233000D01*
X325000D01*
Y-148000D01*
X292000Y-148000D01*
X285000Y-155000D01*
X274500Y-155000D01*
Y-123500D01*
Y-37000D01*
X183500D01*
Y-147500D01*
X183000Y-148000D01*
X174000D01*
X166500Y-155500D01*
X156500D01*
Y-37250D01*
X156750Y-37000D01*
X65500D01*
X66000Y-37500D01*
Y-147000D01*
Y-234000D01*
X39000D01*
X39000Y-37000D01*
Y-15500D01*
X301000D01*
Y-37000D01*
D02*
G37*
G36*
X321000Y-233000D02*
X297000D01*
X264000Y-200000D01*
X136000Y-200000D01*
X103000Y-233000D01*
X70000Y-233000D01*
Y-173500D01*
X321000D01*
Y-233000D01*
D02*
G37*
D23*
X128700Y-161077D02*
D03*
X246014Y-160622D02*
D03*
X212498D02*
D03*
X95184Y-161022D02*
D03*
D24*
X119684Y-137455D02*
D03*
X137716D02*
D03*
X236998Y-137000D02*
D03*
X255030D02*
D03*
X203483D02*
D03*
X221514D02*
D03*
X104200Y-137400D02*
D03*
X86168D02*
D03*
D25*
X117000Y-76900D02*
D03*
X113260D02*
D03*
X109520D02*
D03*
Y-86152D02*
D03*
X113260D02*
D03*
X117000D02*
D03*
D26*
X226352Y-86340D02*
D03*
Y-82600D02*
D03*
Y-78860D02*
D03*
X235604D02*
D03*
Y-82600D02*
D03*
Y-86340D02*
D03*
D27*
X124500Y-79850D02*
D03*
Y-86150D02*
D03*
D28*
X226350Y-94000D02*
D03*
X232650D02*
D03*
D29*
X179000Y-152579D02*
D03*
Y-169509D02*
D03*
X296500Y-152613D02*
D03*
Y-169542D02*
D03*
D30*
X121600Y-65000D02*
D03*
X105852D02*
D03*
X238600Y-66000D02*
D03*
X222852D02*
D03*
D31*
X136952Y-64480D02*
D03*
Y-77000D02*
D03*
X161500Y-158422D02*
D03*
Y-170942D02*
D03*
X252878Y-78500D02*
D03*
Y-65980D02*
D03*
X222852Y-39480D02*
D03*
Y-52000D02*
D03*
X279500Y-158422D02*
D03*
Y-170942D02*
D03*
X105852Y-52120D02*
D03*
Y-39600D02*
D03*
D32*
X252878Y-55728D02*
D03*
Y-39980D02*
D03*
X136952Y-39720D02*
D03*
Y-55468D02*
D03*
D33*
X203483Y-66000D02*
X222852D01*
X88414Y-65000D02*
X105852D01*
D34*
X204683Y-111000D02*
X235798D01*
X203483Y-132000D02*
Y-112200D01*
X236998Y-132000D02*
Y-112200D01*
X119684Y-132000D02*
Y-105184D01*
X203483Y-66000D02*
Y-52000D01*
Y-78860D02*
Y-66000D01*
Y-111500D02*
Y-78860D01*
X86000Y-66000D02*
Y-52000D01*
Y-86500D02*
Y-66000D01*
Y-105500D02*
Y-86500D01*
X86316Y-105184D02*
X119684D01*
X86000Y-132000D02*
Y-105500D01*
D35*
X203483Y-52000D02*
X222852D01*
X86000D02*
X105563D01*
D36*
X203483Y-78860D02*
X226352D01*
D37*
X86348Y-86152D02*
X109010D01*
D38*
X170000Y-52000D02*
D03*
X203483D02*
D03*
X337500Y-186750D02*
D03*
X337200Y-210500D02*
D03*
X308000Y-211500D02*
D03*
Y-187500D02*
D03*
X85909Y-189500D02*
D03*
X86000Y-52000D02*
D03*
X52500Y-213500D02*
D03*
Y-189500D02*
D03*
X52000Y-52000D02*
D03*
X85909Y-213500D02*
D03*
D39*
X131000Y-93000D02*
D03*
X221500Y-127000D02*
D03*
X219000Y-90500D02*
D03*
X255030Y-127000D02*
D03*
X104200D02*
D03*
X137716Y-126400D02*
D03*
D40*
X19508Y-162500D02*
D03*
X369500Y-31000D02*
D03*
X20000Y-32000D02*
D03*
X369500Y-162500D02*
D03*
M02*
