G04*
G04 #@! TF.GenerationSoftware,Altium Limited,Altium Designer,21.6.4 (81)*
G04*
G04 Layer_Color=255*
%FSLAX25Y25*%
%MOIN*%
G70*
G04*
G04 #@! TF.SameCoordinates,725644BE-5CAA-454B-8F19-4296BE5BC7E9*
G04*
G04*
G04 #@! TF.FilePolarity,Positive*
G04*
G01*
G75*
%ADD13R,0.26772X0.28740*%
%ADD14R,0.04921X0.12008*%
%ADD15O,0.02362X0.04331*%
%ADD16O,0.04331X0.02362*%
%ADD17R,0.03937X0.04134*%
%ADD18R,0.04134X0.03937*%
%ADD19R,0.09055X0.09843*%
%ADD20R,0.07874X0.07874*%
%ADD21R,0.09843X0.05906*%
%ADD22R,0.07874X0.07874*%
D13*
X128700Y-161077D02*
D03*
X246014Y-160622D02*
D03*
X212498D02*
D03*
X95184Y-161022D02*
D03*
D14*
X119684Y-137455D02*
D03*
X137716D02*
D03*
X236998Y-137000D02*
D03*
X255030D02*
D03*
X203483D02*
D03*
X221514D02*
D03*
X104200Y-137400D02*
D03*
X86168D02*
D03*
D15*
X117000Y-76900D02*
D03*
X113260D02*
D03*
X109520D02*
D03*
Y-86152D02*
D03*
X113260D02*
D03*
X117000D02*
D03*
D16*
X226352Y-86340D02*
D03*
Y-82600D02*
D03*
Y-78860D02*
D03*
X235604D02*
D03*
Y-82600D02*
D03*
Y-86340D02*
D03*
D17*
X124500Y-79850D02*
D03*
Y-86150D02*
D03*
D18*
X226350Y-94000D02*
D03*
X232650D02*
D03*
D19*
X179000Y-152579D02*
D03*
Y-169509D02*
D03*
X296500Y-152613D02*
D03*
Y-169542D02*
D03*
D20*
X121600Y-65000D02*
D03*
X105852D02*
D03*
X238600Y-66000D02*
D03*
X222852D02*
D03*
D21*
X136952Y-64480D02*
D03*
Y-77000D02*
D03*
X161500Y-158422D02*
D03*
Y-170942D02*
D03*
X252878Y-78500D02*
D03*
Y-65980D02*
D03*
X222852Y-39480D02*
D03*
Y-52000D02*
D03*
X279500Y-158422D02*
D03*
Y-170942D02*
D03*
X105852Y-52120D02*
D03*
Y-39600D02*
D03*
D22*
X252878Y-55728D02*
D03*
Y-39980D02*
D03*
X136952Y-39720D02*
D03*
Y-55468D02*
D03*
M02*
