M48
;Layer_Color=9474304
;FILE_FORMAT=2:5
INCH,LZ
;TYPE=PLATED
T1F00S00C0.02800
T2F00S00C0.17000
T3F00S00C0.20000
%
T01
X02215Y-0127
X025503
X0219Y-00905
X0131Y-0093
X0137716Y-01264
X01042Y-0127
T02
X03695Y-01625
X0019508
X002Y-0032
X03695Y-0031
T03
X0308Y-02115
Y-01875
X03375Y-018675
X03372Y-02105
X0085909Y-02135
Y-01895
X00525
Y-02135
X0052Y-0052
X0086
X017
X0203483
M30
