G04*
G04 #@! TF.GenerationSoftware,Altium Limited,Altium Designer,21.6.4 (81)*
G04*
G04 Layer_Color=16711935*
%FSLAX25Y25*%
%MOIN*%
G70*
G04*
G04 #@! TF.SameCoordinates,725644BE-5CAA-454B-8F19-4296BE5BC7E9*
G04*
G04*
G04 #@! TF.FilePolarity,Positive*
G04*
G01*
G75*
%ADD50C,0.00394*%
%ADD51R,0.15512X0.02420*%
%ADD52R,0.02420X0.11496*%
%ADD53R,0.11496X0.02420*%
D50*
X115413Y-167849D02*
Y-143361D01*
X141987Y-167849D02*
Y-143361D01*
X115413Y-167849D02*
X141987D01*
X115413Y-143361D02*
X141987D01*
X232727Y-167394D02*
Y-142905D01*
X259302Y-167394D02*
Y-142905D01*
X232727Y-167394D02*
X259302D01*
X232727Y-142905D02*
X259302D01*
X107256Y-78081D02*
X119264D01*
X107256Y-84971D02*
X119264D01*
Y-78081D01*
X107256Y-84971D02*
Y-78081D01*
X227533Y-76596D02*
X234423D01*
X227533Y-88604D02*
X234423D01*
X227533D02*
Y-76596D01*
X234423Y-88604D02*
Y-76596D01*
X126370Y-86445D02*
Y-79555D01*
X122630Y-86445D02*
Y-79555D01*
X126370D01*
X122630Y-86445D02*
X126370D01*
X226055Y-95870D02*
Y-92130D01*
X232945Y-95870D02*
Y-92130D01*
X226055D02*
X232945D01*
X226055Y-95870D02*
X232945D01*
X199211Y-167394D02*
Y-142905D01*
X225786Y-167394D02*
Y-142905D01*
X199211Y-167394D02*
X225786D01*
X199211Y-142905D02*
X225786D01*
X186756Y-170040D02*
Y-152048D01*
X171244Y-170040D02*
Y-152048D01*
X186756D01*
X171244Y-170040D02*
X186756D01*
X104730Y-70748D02*
X122722D01*
X104730Y-59252D02*
X122722D01*
Y-70748D02*
Y-59252D01*
X104730Y-70748D02*
Y-59252D01*
X221730Y-71748D02*
X239722D01*
X221730Y-60252D02*
X239722D01*
Y-71748D02*
Y-60252D01*
X221730Y-71748D02*
Y-60252D01*
X304256Y-170073D02*
Y-152081D01*
X288744Y-170073D02*
Y-152081D01*
X304256D01*
X288744Y-170073D02*
X304256D01*
X247130Y-56850D02*
Y-38858D01*
X258626Y-56850D02*
Y-38858D01*
X247130Y-56850D02*
X258626D01*
X247130Y-38858D02*
X258626D01*
X131204Y-38598D02*
X142700D01*
X131204Y-56590D02*
X142700D01*
Y-38598D01*
X131204Y-56590D02*
Y-38598D01*
X81897Y-143306D02*
X108472D01*
X81897Y-167794D02*
X108472D01*
Y-143306D01*
X81897Y-167794D02*
Y-143306D01*
D51*
X179000Y-168830D02*
D03*
X296500Y-168863D02*
D03*
D52*
X105939Y-65000D02*
D03*
X222940Y-66000D02*
D03*
D53*
X252878Y-40068D02*
D03*
X136952Y-39808D02*
D03*
M02*
