G04*
G04 #@! TF.GenerationSoftware,Altium Limited,Altium Designer,21.6.4 (81)*
G04*
G04 Layer_Physical_Order=2*
G04 Layer_Color=16711680*
%FSLAX25Y25*%
%MOIN*%
G70*
G04*
G04 #@! TF.SameCoordinates,725644BE-5CAA-454B-8F19-4296BE5BC7E9*
G04*
G04*
G04 #@! TF.FilePolarity,Positive*
G04*
G01*
G75*
%ADD12C,0.01000*%
%ADD47C,0.20000*%
%ADD48C,0.05000*%
%ADD49C,0.27000*%
G36*
X384000Y-27142D02*
X383500Y-27201D01*
X383333Y-26505D01*
X382459Y-24397D01*
X381267Y-22451D01*
X379785Y-20715D01*
X378049Y-19233D01*
X376103Y-18041D01*
X373995Y-17167D01*
X371775Y-16634D01*
X369500Y-16455D01*
X367225Y-16634D01*
X365005Y-17167D01*
X362897Y-18041D01*
X360951Y-19233D01*
X359215Y-20715D01*
X357733Y-22451D01*
X356540Y-24397D01*
X355667Y-26505D01*
X355134Y-28725D01*
X354955Y-31000D01*
X355134Y-33275D01*
X355667Y-35495D01*
X356540Y-37603D01*
X357733Y-39549D01*
X359215Y-41285D01*
X360951Y-42767D01*
X362897Y-43960D01*
X365005Y-44833D01*
X367225Y-45366D01*
X369500Y-45545D01*
X371775Y-45366D01*
X373995Y-44833D01*
X376103Y-43960D01*
X378049Y-42767D01*
X379785Y-41285D01*
X381267Y-39549D01*
X382459Y-37603D01*
X383333Y-35495D01*
X383500Y-34799D01*
X384000Y-34858D01*
Y-158642D01*
X383500Y-158701D01*
X383333Y-158005D01*
X382459Y-155897D01*
X381267Y-153951D01*
X379785Y-152215D01*
X378049Y-150733D01*
X376103Y-149540D01*
X373995Y-148667D01*
X371775Y-148134D01*
X369500Y-147955D01*
X367225Y-148134D01*
X365005Y-148667D01*
X362897Y-149540D01*
X360951Y-150733D01*
X359215Y-152215D01*
X357733Y-153951D01*
X356540Y-155897D01*
X355667Y-158005D01*
X355134Y-160225D01*
X354955Y-162500D01*
X355134Y-164775D01*
X355667Y-166995D01*
X356540Y-169103D01*
X357733Y-171049D01*
X359215Y-172785D01*
X360951Y-174267D01*
X362897Y-175460D01*
X365005Y-176333D01*
X367225Y-176866D01*
X369500Y-177045D01*
X371775Y-176866D01*
X373995Y-176333D01*
X376103Y-175460D01*
X378049Y-174267D01*
X379785Y-172785D01*
X381267Y-171049D01*
X382459Y-169103D01*
X383333Y-166995D01*
X383500Y-166299D01*
X384000Y-166358D01*
Y-240000D01*
X296000D01*
X262000Y-208000D01*
X136000Y-208000D01*
X102000Y-242000D01*
X-0Y-242000D01*
X0Y-0D01*
X384000Y0D01*
Y-27142D01*
D02*
G37*
G36*
X390000Y-236000D02*
X384441Y-239706D01*
X384000Y-239470D01*
X384005Y-163002D01*
X384045Y-162500D01*
X384005Y-161999D01*
X384015Y-31386D01*
X384045Y-31000D01*
X384015Y-30615D01*
X384017Y-0D01*
X390000Y0D01*
Y-236000D01*
D02*
G37*
%LPC*%
G36*
X20000Y-17455D02*
X17725Y-17634D01*
X15505Y-18167D01*
X13397Y-19040D01*
X11451Y-20233D01*
X9715Y-21715D01*
X8233Y-23451D01*
X7040Y-25397D01*
X6167Y-27505D01*
X5634Y-29725D01*
X5455Y-32000D01*
X5634Y-34275D01*
X6167Y-36495D01*
X7040Y-38603D01*
X8233Y-40549D01*
X9715Y-42285D01*
X11451Y-43767D01*
X13397Y-44960D01*
X15505Y-45833D01*
X17725Y-46366D01*
X20000Y-46545D01*
X22275Y-46366D01*
X24495Y-45833D01*
X26603Y-44960D01*
X28549Y-43767D01*
X30285Y-42285D01*
X31767Y-40549D01*
X32960Y-38603D01*
X33833Y-36495D01*
X34366Y-34275D01*
X34545Y-32000D01*
X34366Y-29725D01*
X33833Y-27505D01*
X32960Y-25397D01*
X31767Y-23451D01*
X30285Y-21715D01*
X28549Y-20233D01*
X26603Y-19040D01*
X24495Y-18167D01*
X22275Y-17634D01*
X20000Y-17455D01*
D02*
G37*
G36*
X203483Y-40966D02*
X201757Y-41102D01*
X200073Y-41506D01*
X198473Y-42169D01*
X196997Y-43073D01*
X195680Y-44198D01*
X194556Y-45514D01*
X193651Y-46991D01*
X192989Y-48590D01*
X192585Y-50274D01*
X192449Y-52000D01*
X192585Y-53726D01*
X192989Y-55410D01*
X193651Y-57009D01*
X194556Y-58486D01*
X195680Y-59802D01*
X196997Y-60927D01*
X198473Y-61831D01*
X200073Y-62494D01*
X201757Y-62898D01*
X203483Y-63034D01*
X205209Y-62898D01*
X206892Y-62494D01*
X208492Y-61831D01*
X209968Y-60927D01*
X211285Y-59802D01*
X212409Y-58486D01*
X213314Y-57009D01*
X213977Y-55410D01*
X214381Y-53726D01*
X214517Y-52000D01*
X214381Y-50274D01*
X213977Y-48590D01*
X213314Y-46991D01*
X212409Y-45514D01*
X211285Y-44198D01*
X209968Y-43073D01*
X208492Y-42169D01*
X206892Y-41506D01*
X205209Y-41102D01*
X203483Y-40966D01*
D02*
G37*
G36*
X86000D02*
X84274Y-41102D01*
X82590Y-41506D01*
X80991Y-42169D01*
X79514Y-43073D01*
X78198Y-44198D01*
X77073Y-45514D01*
X76169Y-46991D01*
X75506Y-48590D01*
X75102Y-50274D01*
X74966Y-52000D01*
X75102Y-53726D01*
X75506Y-55410D01*
X76169Y-57009D01*
X77073Y-58486D01*
X78198Y-59802D01*
X79514Y-60927D01*
X80991Y-61831D01*
X82590Y-62494D01*
X84274Y-62898D01*
X86000Y-63034D01*
X87726Y-62898D01*
X89410Y-62494D01*
X91009Y-61831D01*
X92486Y-60927D01*
X93802Y-59802D01*
X94927Y-58486D01*
X95831Y-57009D01*
X96494Y-55410D01*
X96898Y-53726D01*
X97034Y-52000D01*
X96898Y-50274D01*
X96494Y-48590D01*
X95831Y-46991D01*
X94927Y-45514D01*
X93802Y-44198D01*
X92486Y-43073D01*
X91009Y-42169D01*
X89410Y-41506D01*
X87726Y-41102D01*
X86000Y-40966D01*
D02*
G37*
G36*
X131000Y-89470D02*
X130086Y-89590D01*
X129235Y-89943D01*
X128504Y-90504D01*
X127943Y-91235D01*
X127590Y-92086D01*
X127470Y-93000D01*
X127590Y-93914D01*
X127688Y-94149D01*
X103119Y-118719D01*
X102787Y-119215D01*
X102671Y-119800D01*
Y-123845D01*
X102435Y-123943D01*
X101704Y-124504D01*
X101143Y-125235D01*
X100790Y-126086D01*
X100670Y-127000D01*
X100790Y-127914D01*
X101143Y-128765D01*
X101704Y-129496D01*
X102435Y-130057D01*
X103286Y-130410D01*
X104200Y-130530D01*
X105114Y-130410D01*
X105965Y-130057D01*
X106696Y-129496D01*
X107257Y-128765D01*
X107610Y-127914D01*
X107730Y-127000D01*
X107610Y-126086D01*
X107257Y-125235D01*
X106696Y-124504D01*
X105965Y-123943D01*
X105729Y-123845D01*
Y-120433D01*
X129009Y-97154D01*
X129471Y-97346D01*
Y-119684D01*
X129587Y-120270D01*
X129919Y-120766D01*
X134404Y-125251D01*
X134306Y-125486D01*
X134186Y-126400D01*
X134306Y-127314D01*
X134659Y-128165D01*
X135220Y-128896D01*
X135951Y-129457D01*
X136802Y-129810D01*
X137716Y-129930D01*
X138629Y-129810D01*
X139481Y-129457D01*
X140212Y-128896D01*
X140773Y-128165D01*
X141126Y-127314D01*
X141246Y-126400D01*
X141126Y-125486D01*
X140773Y-124635D01*
X140212Y-123904D01*
X139481Y-123343D01*
X138629Y-122990D01*
X137716Y-122870D01*
X136802Y-122990D01*
X136566Y-123088D01*
X132529Y-119051D01*
Y-96155D01*
X132765Y-96057D01*
X133496Y-95496D01*
X134057Y-94765D01*
X134410Y-93914D01*
X134530Y-93000D01*
X134410Y-92086D01*
X134057Y-91235D01*
X133496Y-90504D01*
X132765Y-89943D01*
X131914Y-89590D01*
X131000Y-89470D01*
D02*
G37*
G36*
X219000Y-86970D02*
X218086Y-87090D01*
X217235Y-87443D01*
X216504Y-88004D01*
X215943Y-88735D01*
X215590Y-89586D01*
X215470Y-90500D01*
X215590Y-91414D01*
X215943Y-92265D01*
X216504Y-92996D01*
X217235Y-93557D01*
X217471Y-93655D01*
Y-95500D01*
X217587Y-96085D01*
X217919Y-96581D01*
X219971Y-98633D01*
Y-123845D01*
X219735Y-123943D01*
X219004Y-124504D01*
X218443Y-125235D01*
X218090Y-126086D01*
X217970Y-127000D01*
X218090Y-127914D01*
X218443Y-128765D01*
X219004Y-129496D01*
X219735Y-130057D01*
X220586Y-130410D01*
X221500Y-130530D01*
X222414Y-130410D01*
X223265Y-130057D01*
X223996Y-129496D01*
X224557Y-128765D01*
X224910Y-127914D01*
X225030Y-127000D01*
X224910Y-126086D01*
X224557Y-125235D01*
X223996Y-124504D01*
X223265Y-123943D01*
X223029Y-123845D01*
Y-98000D01*
X222913Y-97415D01*
X222648Y-97018D01*
X223036Y-96699D01*
X251855Y-125518D01*
X251620Y-126086D01*
X251500Y-127000D01*
X251620Y-127914D01*
X251973Y-128765D01*
X252534Y-129496D01*
X253265Y-130057D01*
X254116Y-130410D01*
X255030Y-130530D01*
X255944Y-130410D01*
X256795Y-130057D01*
X257526Y-129496D01*
X258087Y-128765D01*
X258440Y-127914D01*
X258560Y-127000D01*
X258440Y-126086D01*
X258087Y-125235D01*
X257526Y-124504D01*
X256795Y-123943D01*
X255944Y-123590D01*
X255030Y-123470D01*
X254237Y-123574D01*
X222312Y-91649D01*
X222410Y-91414D01*
X222530Y-90500D01*
X222410Y-89586D01*
X222057Y-88735D01*
X221496Y-88004D01*
X220765Y-87443D01*
X219914Y-87090D01*
X219000Y-86970D01*
D02*
G37*
G36*
X19508Y-147955D02*
X17233Y-148134D01*
X15014Y-148667D01*
X12905Y-149540D01*
X10959Y-150733D01*
X9223Y-152215D01*
X7741Y-153951D01*
X6549Y-155897D01*
X5675Y-158005D01*
X5142Y-160225D01*
X4963Y-162500D01*
X5142Y-164775D01*
X5675Y-166995D01*
X6549Y-169103D01*
X7741Y-171049D01*
X9223Y-172785D01*
X10959Y-174267D01*
X12905Y-175460D01*
X15014Y-176333D01*
X17233Y-176866D01*
X19508Y-177045D01*
X21783Y-176866D01*
X24003Y-176333D01*
X26111Y-175460D01*
X28057Y-174267D01*
X29793Y-172785D01*
X31275Y-171049D01*
X32468Y-169103D01*
X33341Y-166995D01*
X33874Y-164775D01*
X34053Y-162500D01*
X33874Y-160225D01*
X33341Y-158005D01*
X32468Y-155897D01*
X31275Y-153951D01*
X29793Y-152215D01*
X28057Y-150733D01*
X26111Y-149540D01*
X24003Y-148667D01*
X21783Y-148134D01*
X19508Y-147955D01*
D02*
G37*
G36*
X308000Y-176466D02*
X306274Y-176602D01*
X304590Y-177006D01*
X302991Y-177669D01*
X301514Y-178573D01*
X300198Y-179698D01*
X299073Y-181014D01*
X298169Y-182491D01*
X297506Y-184090D01*
X297102Y-185774D01*
X296966Y-187500D01*
X297102Y-189226D01*
X297506Y-190910D01*
X298169Y-192509D01*
X299073Y-193986D01*
X300198Y-195302D01*
X301514Y-196427D01*
X302991Y-197331D01*
X304590Y-197994D01*
X306274Y-198398D01*
X308000Y-198534D01*
X309726Y-198398D01*
X311410Y-197994D01*
X313009Y-197331D01*
X314486Y-196427D01*
X315802Y-195302D01*
X316927Y-193986D01*
X317831Y-192509D01*
X318494Y-190910D01*
X318898Y-189226D01*
X319034Y-187500D01*
X318898Y-185774D01*
X318494Y-184090D01*
X317831Y-182491D01*
X316927Y-181014D01*
X315802Y-179698D01*
X314486Y-178573D01*
X313009Y-177669D01*
X311410Y-177006D01*
X309726Y-176602D01*
X308000Y-176466D01*
D02*
G37*
G36*
X85909Y-178466D02*
X84183Y-178602D01*
X82499Y-179006D01*
X80900Y-179669D01*
X79423Y-180573D01*
X78107Y-181698D01*
X76982Y-183014D01*
X76078Y-184491D01*
X75415Y-186090D01*
X75011Y-187774D01*
X74875Y-189500D01*
X75011Y-191226D01*
X75415Y-192910D01*
X76078Y-194509D01*
X76982Y-195986D01*
X78107Y-197302D01*
X79423Y-198427D01*
X80900Y-199331D01*
X82499Y-199994D01*
X84183Y-200398D01*
X85909Y-200534D01*
X87635Y-200398D01*
X89319Y-199994D01*
X90918Y-199331D01*
X92395Y-198427D01*
X93711Y-197302D01*
X94836Y-195986D01*
X95740Y-194509D01*
X96403Y-192910D01*
X96807Y-191226D01*
X96943Y-189500D01*
X96807Y-187774D01*
X96403Y-186090D01*
X95740Y-184491D01*
X94836Y-183014D01*
X93711Y-181698D01*
X92395Y-180573D01*
X90918Y-179669D01*
X89319Y-179006D01*
X87635Y-178602D01*
X85909Y-178466D01*
D02*
G37*
G36*
X308000Y-200466D02*
X306274Y-200602D01*
X304590Y-201006D01*
X302991Y-201669D01*
X301514Y-202573D01*
X300198Y-203698D01*
X299073Y-205014D01*
X298169Y-206491D01*
X297506Y-208090D01*
X297102Y-209774D01*
X296966Y-211500D01*
X297102Y-213226D01*
X297506Y-214910D01*
X298169Y-216509D01*
X299073Y-217986D01*
X300198Y-219302D01*
X301514Y-220427D01*
X302991Y-221331D01*
X304590Y-221994D01*
X306274Y-222398D01*
X308000Y-222534D01*
X309726Y-222398D01*
X311410Y-221994D01*
X313009Y-221331D01*
X314486Y-220427D01*
X315802Y-219302D01*
X316927Y-217986D01*
X317831Y-216509D01*
X318494Y-214910D01*
X318898Y-213226D01*
X319034Y-211500D01*
X318898Y-209774D01*
X318494Y-208090D01*
X317831Y-206491D01*
X316927Y-205014D01*
X315802Y-203698D01*
X314486Y-202573D01*
X313009Y-201669D01*
X311410Y-201006D01*
X309726Y-200602D01*
X308000Y-200466D01*
D02*
G37*
G36*
X85909Y-202466D02*
X84183Y-202602D01*
X82499Y-203006D01*
X80900Y-203669D01*
X79423Y-204573D01*
X78107Y-205698D01*
X76982Y-207014D01*
X76078Y-208491D01*
X75415Y-210090D01*
X75011Y-211774D01*
X74875Y-213500D01*
X75011Y-215226D01*
X75415Y-216910D01*
X76078Y-218509D01*
X76982Y-219986D01*
X78107Y-221302D01*
X79423Y-222427D01*
X80900Y-223331D01*
X82499Y-223994D01*
X84183Y-224398D01*
X85909Y-224534D01*
X87635Y-224398D01*
X89319Y-223994D01*
X90918Y-223331D01*
X92395Y-222427D01*
X93711Y-221302D01*
X94836Y-219986D01*
X95740Y-218509D01*
X96403Y-216910D01*
X96807Y-215226D01*
X96943Y-213500D01*
X96807Y-211774D01*
X96403Y-210090D01*
X95740Y-208491D01*
X94836Y-207014D01*
X93711Y-205698D01*
X92395Y-204573D01*
X90918Y-203669D01*
X89319Y-203006D01*
X87635Y-202602D01*
X85909Y-202466D01*
D02*
G37*
%LPD*%
D12*
X131000Y-119684D02*
Y-93000D01*
Y-119684D02*
X137716Y-126400D01*
X104200Y-127000D02*
Y-119800D01*
X131000Y-93000D01*
X221500Y-127000D02*
Y-98000D01*
X219000Y-95500D02*
Y-90500D01*
X255030Y-126530D01*
X219000Y-95500D02*
X221500Y-98000D01*
X255030Y-127000D02*
Y-126530D01*
D47*
X170000Y-52000D02*
D03*
X203483D02*
D03*
X337500Y-186750D02*
D03*
X337200Y-210500D02*
D03*
X308000Y-211500D02*
D03*
Y-187500D02*
D03*
X85909Y-189500D02*
D03*
X86000Y-52000D02*
D03*
X52500Y-213500D02*
D03*
Y-189500D02*
D03*
X52000Y-52000D02*
D03*
X85909Y-213500D02*
D03*
D48*
X131000Y-93000D02*
D03*
X221500Y-127000D02*
D03*
X219000Y-90500D02*
D03*
X255030Y-127000D02*
D03*
X104200D02*
D03*
X137716Y-126400D02*
D03*
D49*
X19508Y-162500D02*
D03*
X369500Y-31000D02*
D03*
X20000Y-32000D02*
D03*
X369500Y-162500D02*
D03*
M02*
