G04 Layer_Color=8388736*
%FSLAX25Y25*%
%MOIN*%
G70*
G01*
G75*
%ADD60R,0.02769X0.09461*%
%ADD61R,0.13005X0.10249*%
%ADD62R,0.07808X0.14816*%
%ADD63R,0.06706X0.10642*%
%ADD64R,0.04540X0.04737*%
%ADD65R,0.04737X0.04540*%
%ADD66R,0.16942X0.08674*%
%ADD67R,0.06115X0.02375*%
%ADD68R,0.08280X0.07887*%
%ADD69R,0.06115X0.09068*%
%ADD70R,0.06312X0.05524*%
%ADD71O,0.07690X0.01981*%
%ADD72O,0.01981X0.07690*%
%ADD73R,0.06922X0.05918*%
%ADD74R,0.04737X0.04934*%
%ADD75R,0.04934X0.04737*%
%ADD76R,0.04343X0.03556*%
%ADD77R,0.03950X0.03950*%
%ADD78R,0.03950X0.03950*%
%ADD79R,0.10249X0.04737*%
%ADD80R,0.10249X0.13398*%
%ADD81C,0.12611*%
%ADD82C,0.09461*%
%ADD83C,0.06800*%
%ADD84R,0.06800X0.06800*%
%ADD85R,0.06300X0.08300*%
%ADD86O,0.06300X0.08300*%
%ADD87O,0.08300X0.06300*%
%ADD88R,0.08300X0.06300*%
%ADD89C,0.03800*%
%ADD90C,0.20800*%
%ADD91C,0.03500*%
%ADD92C,0.02769*%
D60*
X69500Y151681D02*
D03*
X74500D02*
D03*
X79500D02*
D03*
X84500D02*
D03*
X69500Y174319D02*
D03*
X74500D02*
D03*
X79500D02*
D03*
X84500D02*
D03*
D61*
X77000Y163000D02*
D03*
D62*
X68504Y113500D02*
D03*
X31496D02*
D03*
D63*
X32980Y146000D02*
D03*
X45500D02*
D03*
X32500Y160500D02*
D03*
X45020D02*
D03*
X73020Y194500D02*
D03*
X60500D02*
D03*
D64*
X80500Y141650D02*
D03*
Y135350D02*
D03*
X198850Y94350D02*
D03*
Y100650D02*
D03*
X198350Y163850D02*
D03*
Y170150D02*
D03*
X10500Y194650D02*
D03*
Y188350D02*
D03*
Y173350D02*
D03*
Y179650D02*
D03*
D65*
X74150Y184000D02*
D03*
X67850D02*
D03*
X74650Y141500D02*
D03*
X68350D02*
D03*
X135201Y170000D02*
D03*
X141500D02*
D03*
X154150Y124000D02*
D03*
X147850D02*
D03*
X181201D02*
D03*
X187500D02*
D03*
X144850Y181000D02*
D03*
X151150D02*
D03*
X137500Y130000D02*
D03*
X131201D02*
D03*
D66*
X71126Y225000D02*
D03*
X36874D02*
D03*
D67*
X289600Y171091D02*
D03*
Y173650D02*
D03*
Y168531D02*
D03*
Y176209D02*
D03*
Y178768D02*
D03*
D68*
X300289Y188610D02*
D03*
Y158689D02*
D03*
D69*
X289800Y161445D02*
D03*
X289856Y185854D02*
D03*
D70*
X137350Y150331D02*
D03*
X127350D02*
D03*
Y141669D02*
D03*
X137350D02*
D03*
D71*
X185894Y155453D02*
D03*
Y157421D02*
D03*
Y163327D02*
D03*
Y161358D02*
D03*
Y159390D02*
D03*
Y153484D02*
D03*
Y151516D02*
D03*
Y149547D02*
D03*
Y147579D02*
D03*
Y145610D02*
D03*
Y143642D02*
D03*
Y141673D02*
D03*
X153807D02*
D03*
Y143642D02*
D03*
Y145610D02*
D03*
Y147579D02*
D03*
Y149547D02*
D03*
Y151516D02*
D03*
Y153484D02*
D03*
Y155453D02*
D03*
Y157421D02*
D03*
Y159390D02*
D03*
Y161358D02*
D03*
Y163327D02*
D03*
D72*
X159024Y168543D02*
D03*
X160992D02*
D03*
X162961D02*
D03*
X164929D02*
D03*
X166898D02*
D03*
X168866D02*
D03*
X170835D02*
D03*
X172803D02*
D03*
X174772D02*
D03*
X176740D02*
D03*
X178709D02*
D03*
X180677D02*
D03*
Y136457D02*
D03*
X178709D02*
D03*
X176740D02*
D03*
X174772D02*
D03*
X172803D02*
D03*
X170835D02*
D03*
X168866D02*
D03*
X166898D02*
D03*
X164929D02*
D03*
X162961D02*
D03*
X160992D02*
D03*
X159024D02*
D03*
D73*
X212701Y88642D02*
D03*
Y106358D02*
D03*
X244000Y88642D02*
D03*
Y106358D02*
D03*
D74*
X60000Y68150D02*
D03*
Y61850D02*
D03*
X95000Y67650D02*
D03*
Y61350D02*
D03*
X130000Y68150D02*
D03*
Y61850D02*
D03*
X165000Y68150D02*
D03*
Y61850D02*
D03*
X256000Y218701D02*
D03*
Y225000D02*
D03*
X220000Y218701D02*
D03*
Y225000D02*
D03*
X184000Y218701D02*
D03*
Y225000D02*
D03*
X148000Y218701D02*
D03*
Y225000D02*
D03*
X275500Y196299D02*
D03*
Y190000D02*
D03*
X270500Y175350D02*
D03*
Y181650D02*
D03*
X300500Y139500D02*
D03*
Y145799D02*
D03*
X163500Y190650D02*
D03*
Y184350D02*
D03*
D75*
X244000Y119000D02*
D03*
X237701D02*
D03*
Y135000D02*
D03*
X244000D02*
D03*
X237701Y152500D02*
D03*
X244000D02*
D03*
X215650Y58378D02*
D03*
X209350D02*
D03*
X215650Y39378D02*
D03*
X209350D02*
D03*
X215650Y21378D02*
D03*
X209350D02*
D03*
D76*
X72760Y67059D02*
D03*
Y61941D02*
D03*
X80240Y64500D02*
D03*
X107760Y67059D02*
D03*
Y61941D02*
D03*
X115240Y64500D02*
D03*
X142760Y67059D02*
D03*
Y61941D02*
D03*
X150240Y64500D02*
D03*
X177760Y67059D02*
D03*
Y61941D02*
D03*
X185240Y64500D02*
D03*
X227260Y56937D02*
D03*
Y51819D02*
D03*
X234740Y54378D02*
D03*
X227260Y38437D02*
D03*
Y33319D02*
D03*
X234740Y35878D02*
D03*
X227260Y19937D02*
D03*
Y14819D02*
D03*
X234740Y17378D02*
D03*
D77*
X222602Y135000D02*
D03*
X229098D02*
D03*
X222602Y152500D02*
D03*
X229098D02*
D03*
D78*
X280500Y145898D02*
D03*
Y139402D02*
D03*
D79*
X24083Y193555D02*
D03*
Y184500D02*
D03*
Y175445D02*
D03*
D80*
X46917Y184500D02*
D03*
D81*
X279000Y218500D02*
D03*
Y238500D02*
D03*
X299000D02*
D03*
Y218500D02*
D03*
D82*
X289000Y228500D02*
D03*
D83*
X178850Y92000D02*
D03*
X168850D02*
D03*
X158850D02*
D03*
X148850D02*
D03*
X138850D02*
D03*
D84*
X128850D02*
D03*
D85*
X256000Y252850D02*
D03*
X220000D02*
D03*
X184000D02*
D03*
X148000D02*
D03*
X66500Y34000D02*
D03*
X101500D02*
D03*
X136500D02*
D03*
X171500D02*
D03*
X104500Y214500D02*
D03*
X49000Y266500D02*
D03*
D86*
X248126Y252850D02*
D03*
X212126D02*
D03*
X176126D02*
D03*
X140126D02*
D03*
X74374Y34000D02*
D03*
X109374D02*
D03*
X144374D02*
D03*
X179374D02*
D03*
X120248Y214500D02*
D03*
X112374D02*
D03*
X56874Y266500D02*
D03*
D87*
X275500Y53626D02*
D03*
Y45752D02*
D03*
Y61500D02*
D03*
X33949Y18126D02*
D03*
Y54126D02*
D03*
D88*
X275500Y37878D02*
D03*
X33949Y26000D02*
D03*
Y62000D02*
D03*
D89*
X277000Y109500D02*
D03*
X137350Y135500D02*
D03*
X11500Y208000D02*
D03*
X296000Y176000D02*
D03*
X32000Y136500D02*
D03*
X122000Y109500D02*
D03*
X89500Y87500D02*
D03*
X139701Y118201D02*
D03*
X154299D02*
D03*
X181201D02*
D03*
X185000Y114500D02*
D03*
X190000Y116000D02*
D03*
X163500Y199000D02*
D03*
X151000Y186500D02*
D03*
X119500Y160000D02*
D03*
X198500Y177500D02*
D03*
X179500Y210500D02*
D03*
X95000Y163500D02*
D03*
X219500Y51819D02*
D03*
Y33319D02*
D03*
X219319Y14819D02*
D03*
X121000Y70500D02*
D03*
X201000Y127500D02*
D03*
X257000Y87500D02*
D03*
X220000Y178500D02*
D03*
X258000D02*
D03*
X252000Y185000D02*
D03*
X248000Y191500D02*
D03*
X243500Y195000D02*
D03*
X179500Y181500D02*
D03*
X231000Y188500D02*
D03*
X200500Y152000D02*
D03*
X195500Y150500D02*
D03*
X111500Y81000D02*
D03*
X72878Y47378D02*
D03*
X88500Y61500D02*
D03*
X81000Y106500D02*
D03*
X77250Y102750D02*
D03*
X95000Y173500D02*
D03*
Y168500D02*
D03*
X22500Y102000D02*
D03*
X12000Y113000D02*
D03*
Y105000D02*
D03*
X172000Y146000D02*
D03*
X202500Y225000D02*
D03*
X167500Y147000D02*
D03*
X192000Y225000D02*
D03*
X163000Y147000D02*
D03*
X156000Y225000D02*
D03*
X178000Y144500D02*
D03*
X209000Y70000D02*
D03*
X194500D02*
D03*
X152000Y103500D02*
D03*
X178110Y159390D02*
D03*
X180677Y176677D02*
D03*
X173000Y109000D02*
D03*
X169500Y105500D02*
D03*
X147000Y133000D02*
D03*
X152500D02*
D03*
X14350Y184500D02*
D03*
X100091Y47378D02*
D03*
X135091D02*
D03*
X170091D02*
D03*
X276500Y181500D02*
D03*
X148000Y206500D02*
D03*
X141500Y174000D02*
D03*
D90*
X290500Y124000D02*
D03*
Y264000D02*
D03*
X110500D02*
D03*
Y124000D02*
D03*
D91*
X85000Y145000D02*
D03*
D92*
X72669Y160835D02*
D03*
Y165165D02*
D03*
X77000Y160835D02*
D03*
Y165165D02*
D03*
X81331Y160835D02*
D03*
Y165165D02*
D03*
M02*
