G04 Layer_Color=32896*
%FSLAX25Y25*%
%MOIN*%
G70*
G01*
G75*
%ADD32C,0.01000*%
%ADD54C,0.00984*%
%ADD56C,0.02362*%
%ADD57C,0.00787*%
%ADD59C,0.00600*%
D32*
X238500Y197500D02*
G03*
X241000Y197500I1250J0D01*
G01*
X207500Y195500D02*
Y197500D01*
X272000Y195500D02*
Y197500D01*
Y82500D02*
Y84500D01*
X207500Y82500D02*
X272000D01*
X207500D02*
Y84500D01*
Y197500D02*
X238500D01*
X241000D02*
X272000D01*
D54*
X15543Y79154D02*
G03*
X15543Y79154I-492J0D01*
G01*
X236575Y21898D02*
G03*
X236575Y21898I-492J0D01*
G01*
Y40398D02*
G03*
X236575Y40398I-492J0D01*
G01*
X236075Y59398D02*
G03*
X236075Y59398I-492J0D01*
G01*
X164075Y12898D02*
G03*
X164075Y12898I-492J0D01*
G01*
X129075D02*
G03*
X129075Y12898I-492J0D01*
G01*
X94075D02*
G03*
X94075Y12898I-492J0D01*
G01*
X59075D02*
G03*
X59075Y12898I-492J0D01*
G01*
D56*
X21744Y84095D02*
G03*
X21744Y84095I-1181J0D01*
G01*
D57*
X16626Y99843D02*
X32374D01*
X16626Y80157D02*
X32374D01*
Y99843D01*
X16626Y80157D02*
Y99843D01*
D59*
X237100Y24500D02*
Y25940D01*
Y24500D02*
X258900D01*
Y35060D02*
Y36500D01*
X237100D02*
X258900D01*
X242000Y24500D02*
Y26000D01*
X237100Y35060D02*
Y36500D01*
X258900Y24500D02*
Y25940D01*
X242000Y35000D02*
Y36500D01*
X237100Y43000D02*
Y44440D01*
Y43000D02*
X258900D01*
Y53560D02*
Y55000D01*
X237100D02*
X258900D01*
X242000Y43000D02*
Y44500D01*
X237100Y53560D02*
Y55000D01*
X258900Y43000D02*
Y44440D01*
X242000Y53500D02*
Y55000D01*
X236600Y62000D02*
Y63440D01*
Y62000D02*
X258400D01*
Y72560D02*
Y74000D01*
X236600D02*
X258400D01*
X241500Y62000D02*
Y63500D01*
X236600Y72560D02*
Y74000D01*
X258400Y62000D02*
Y63440D01*
X241500Y72500D02*
Y74000D01*
X164600Y15500D02*
Y16940D01*
Y15500D02*
X186400D01*
Y26060D02*
Y27500D01*
X164600D02*
X186400D01*
X169500Y15500D02*
Y17000D01*
X164600Y26060D02*
Y27500D01*
X186400Y15500D02*
Y16940D01*
X169500Y26000D02*
Y27500D01*
X129600Y15500D02*
Y16940D01*
Y15500D02*
X151400D01*
Y26060D02*
Y27500D01*
X129600D02*
X151400D01*
X134500Y15500D02*
Y17000D01*
X129600Y26060D02*
Y27500D01*
X151400Y15500D02*
Y16940D01*
X134500Y26000D02*
Y27500D01*
X94600Y15500D02*
Y16940D01*
Y15500D02*
X116400D01*
Y26060D02*
Y27500D01*
X94600D02*
X116400D01*
X99500Y15500D02*
Y17000D01*
X94600Y26060D02*
Y27500D01*
X116400Y15500D02*
Y16940D01*
X99500Y26000D02*
Y27500D01*
X59600Y15500D02*
Y16940D01*
Y15500D02*
X81400D01*
Y26060D02*
Y27500D01*
X59600D02*
X81400D01*
X64500Y15500D02*
Y17000D01*
X59600Y26060D02*
Y27500D01*
X81400Y15500D02*
Y16940D01*
X64500Y26000D02*
Y27500D01*
X82600Y157200D02*
Y160199D01*
X81100D01*
X80601Y159699D01*
Y158700D01*
X81100Y158200D01*
X82600D01*
X81600D02*
X80601Y157200D01*
X77602Y160199D02*
X79601D01*
Y158700D01*
X78601Y159199D01*
X78101D01*
X77602Y158700D01*
Y157700D01*
X78101Y157200D01*
X79101D01*
X79601Y157700D01*
X78500Y129000D02*
X81499D01*
Y130499D01*
X80999Y130999D01*
X80000D01*
X79500Y130499D01*
Y129000D01*
Y130000D02*
X78500Y130999D01*
Y133499D02*
X81499D01*
X80000Y131999D01*
Y133998D01*
X69999Y137999D02*
X70499Y137499D01*
Y136500D01*
X69999Y136000D01*
X68000D01*
X67500Y136500D01*
Y137499D01*
X68000Y137999D01*
X67500Y140998D02*
Y138999D01*
X69499Y140998D01*
X69999D01*
X70499Y140499D01*
Y139499D01*
X69999Y138999D01*
X272650Y203949D02*
Y201450D01*
X272150Y200950D01*
X271150D01*
X270651Y201450D01*
Y203949D01*
X267652D02*
X268651Y203449D01*
X269651Y202449D01*
Y201450D01*
X269151Y200950D01*
X268151D01*
X267652Y201450D01*
Y201950D01*
X268151Y202449D01*
X269651D01*
X21000Y75999D02*
Y73500D01*
X20500Y73000D01*
X19500D01*
X19001Y73500D01*
Y75999D01*
X18001Y73000D02*
X17001D01*
X17501D01*
Y75999D01*
X18001Y75499D01*
X188501Y96999D02*
X189000Y97499D01*
X190000D01*
X190500Y96999D01*
Y95000D01*
X190000Y94500D01*
X189000D01*
X188501Y95000D01*
X187501Y94500D02*
X186501D01*
X187001D01*
Y97499D01*
X187501Y96999D01*
X185002D02*
X184502Y97499D01*
X183502D01*
X183002Y96999D01*
Y96499D01*
X183502Y95999D01*
X183002Y95500D01*
Y95000D01*
X183502Y94500D01*
X184502D01*
X185002Y95000D01*
Y95500D01*
X184502Y95999D01*
X185002Y96499D01*
Y96999D01*
X184502Y95999D02*
X183502D01*
X228500Y33001D02*
Y36000D01*
X229999D01*
X230499Y35500D01*
Y33501D01*
X229999Y33001D01*
X228500D01*
X231499Y36000D02*
X232499D01*
X231999D01*
Y33001D01*
X231499Y33501D01*
X227500Y51001D02*
Y54000D01*
X228999D01*
X229499Y53500D01*
Y51501D01*
X228999Y51001D01*
X227500D01*
X232498Y54000D02*
X230499D01*
X232498Y52001D01*
Y51501D01*
X231998Y51001D01*
X230999D01*
X230499Y51501D01*
X227000Y71001D02*
Y74000D01*
X228500D01*
X228999Y73500D01*
Y71501D01*
X228500Y71001D01*
X227000D01*
X229999Y71501D02*
X230499Y71001D01*
X231499D01*
X231998Y71501D01*
Y72001D01*
X231499Y72500D01*
X230999D01*
X231499D01*
X231998Y73000D01*
Y73500D01*
X231499Y74000D01*
X230499D01*
X229999Y73500D01*
X167500Y9001D02*
Y12000D01*
X169000D01*
X169499Y11500D01*
Y9501D01*
X169000Y9001D01*
X167500D01*
X171999Y12000D02*
Y9001D01*
X170499Y10501D01*
X172498D01*
X132000Y9001D02*
Y12000D01*
X133500D01*
X133999Y11500D01*
Y9501D01*
X133500Y9001D01*
X132000D01*
X136998D02*
X134999D01*
Y10501D01*
X135999Y10001D01*
X136499D01*
X136998Y10501D01*
Y11500D01*
X136499Y12000D01*
X135499D01*
X134999Y11500D01*
X97000Y9001D02*
Y12000D01*
X98500D01*
X98999Y11500D01*
Y9501D01*
X98500Y9001D01*
X97000D01*
X101998D02*
X100999Y9501D01*
X99999Y10501D01*
Y11500D01*
X100499Y12000D01*
X101499D01*
X101998Y11500D01*
Y11000D01*
X101499Y10501D01*
X99999D01*
X62000Y9001D02*
Y12000D01*
X63499D01*
X63999Y11500D01*
Y9501D01*
X63499Y9001D01*
X62000D01*
X64999D02*
X66998D01*
Y9501D01*
X64999Y11500D01*
Y12000D01*
X279500Y175000D02*
X282499D01*
Y176499D01*
X281999Y176999D01*
X280999D01*
X280500Y176499D01*
Y175000D01*
Y176000D02*
X279500Y176999D01*
Y179998D02*
Y177999D01*
X281499Y179998D01*
X281999D01*
X282499Y179499D01*
Y178499D01*
X281999Y177999D01*
X279500Y180998D02*
Y181998D01*
Y181498D01*
X282499D01*
X281999Y180998D01*
X288000Y175000D02*
X290999D01*
Y176499D01*
X290499Y176999D01*
X289499D01*
X289000Y176499D01*
Y175000D01*
Y176000D02*
X288000Y176999D01*
Y179998D02*
Y177999D01*
X289999Y179998D01*
X290499D01*
X290999Y179499D01*
Y178499D01*
X290499Y177999D01*
X288000Y182997D02*
Y180998D01*
X289999Y182997D01*
X290499D01*
X290999Y182498D01*
Y181498D01*
X290499Y180998D01*
X279500Y152000D02*
X282499D01*
Y153499D01*
X281999Y153999D01*
X280999D01*
X280500Y153499D01*
Y152000D01*
Y153000D02*
X279500Y153999D01*
Y156998D02*
Y154999D01*
X281499Y156998D01*
X281999D01*
X282499Y156499D01*
Y155499D01*
X281999Y154999D01*
Y157998D02*
X282499Y158498D01*
Y159498D01*
X281999Y159997D01*
X281499D01*
X280999Y159498D01*
Y158998D01*
Y159498D01*
X280500Y159997D01*
X280000D01*
X279500Y159498D01*
Y158498D01*
X280000Y157998D01*
X288000Y152000D02*
X290999D01*
Y153499D01*
X290499Y153999D01*
X289499D01*
X289000Y153499D01*
Y152000D01*
Y153000D02*
X288000Y153999D01*
Y156998D02*
Y154999D01*
X289999Y156998D01*
X290499D01*
X290999Y156499D01*
Y155499D01*
X290499Y154999D01*
X288000Y159498D02*
X290999D01*
X289499Y157998D01*
Y159997D01*
X298500Y152000D02*
X301499D01*
Y153499D01*
X300999Y153999D01*
X299999D01*
X299500Y153499D01*
Y152000D01*
Y153000D02*
X298500Y153999D01*
Y156998D02*
Y154999D01*
X300499Y156998D01*
X300999D01*
X301499Y156499D01*
Y155499D01*
X300999Y154999D01*
X301499Y159997D02*
Y157998D01*
X299999D01*
X300499Y158998D01*
Y159498D01*
X299999Y159997D01*
X299000D01*
X298500Y159498D01*
Y158498D01*
X299000Y157998D01*
X298500Y175000D02*
X301499D01*
Y176499D01*
X300999Y176999D01*
X299999D01*
X299500Y176499D01*
Y175000D01*
Y176000D02*
X298500Y176999D01*
Y179998D02*
Y177999D01*
X300499Y179998D01*
X300999D01*
X301499Y179499D01*
Y178499D01*
X300999Y177999D01*
X301499Y182997D02*
X300999Y181998D01*
X299999Y180998D01*
X299000D01*
X298500Y181498D01*
Y182498D01*
X299000Y182997D01*
X299500D01*
X299999Y182498D01*
Y180998D01*
X288000Y100500D02*
X290999D01*
Y101999D01*
X290499Y102499D01*
X289499D01*
X289000Y101999D01*
Y100500D01*
Y101500D02*
X288000Y102499D01*
Y105498D02*
Y103499D01*
X289999Y105498D01*
X290499D01*
X290999Y104999D01*
Y103999D01*
X290499Y103499D01*
X290999Y106498D02*
Y108497D01*
X290499D01*
X288500Y106498D01*
X288000D01*
M02*
