G04 Layer_Physical_Order=1*
G04 Layer_Color=255*
%FSLAX25Y25*%
%MOIN*%
G70*
G01*
G75*
%ADD10R,0.01969X0.08661*%
%ADD11R,0.12205X0.09449*%
%ADD12R,0.07008X0.14016*%
%ADD13R,0.05906X0.09843*%
%ADD14R,0.03740X0.03937*%
%ADD15R,0.03937X0.03740*%
%ADD16R,0.16142X0.07874*%
%ADD17R,0.05315X0.01575*%
%ADD18R,0.07480X0.07087*%
%ADD19R,0.05315X0.08268*%
%ADD20R,0.05512X0.04724*%
%ADD21O,0.06890X0.01181*%
%ADD22O,0.01181X0.06890*%
%ADD23R,0.06122X0.05118*%
%ADD24R,0.03937X0.04134*%
%ADD25R,0.04134X0.03937*%
%ADD26R,0.03543X0.02756*%
%ADD27R,0.03150X0.03150*%
%ADD28R,0.03150X0.03150*%
%ADD29R,0.09449X0.03937*%
%ADD30R,0.09449X0.12598*%
%ADD31C,0.02000*%
%ADD32C,0.01000*%
%ADD33C,0.00800*%
%ADD34C,0.05000*%
%ADD35C,0.04000*%
%ADD36C,0.02500*%
%ADD37C,0.01200*%
%ADD38C,0.11811*%
%ADD39C,0.08661*%
%ADD40C,0.06000*%
%ADD41R,0.06000X0.06000*%
%ADD42R,0.05500X0.07500*%
%ADD43O,0.05500X0.07500*%
%ADD44O,0.07500X0.05500*%
%ADD45R,0.07500X0.05500*%
%ADD46C,0.03000*%
%ADD47C,0.20000*%
%ADD48C,0.02700*%
%ADD49C,0.01969*%
G36*
X308500Y0D02*
X0D01*
Y287000D01*
X308500D01*
Y0D01*
D02*
G37*
%LPC*%
G36*
X56874Y271282D02*
X55895Y271153D01*
X54983Y270776D01*
X54800Y270635D01*
X56874Y268561D01*
X58948Y270635D01*
X58765Y270776D01*
X57853Y271153D01*
X56874Y271282D01*
D02*
G37*
G36*
X60009Y269574D02*
X57404Y266970D01*
X56874Y267500D01*
X56344Y266970D01*
X53739Y269574D01*
X53598Y269391D01*
X53220Y268479D01*
X53092Y267500D01*
Y265500D01*
X53220Y264521D01*
X53598Y263609D01*
X53739Y263426D01*
X56344Y266030D01*
X56874Y265500D01*
X57404Y266030D01*
X60009Y263426D01*
X60150Y263609D01*
X60527Y264521D01*
X60656Y265500D01*
Y267500D01*
X60527Y268479D01*
X60150Y269391D01*
X60009Y269574D01*
D02*
G37*
G36*
X56874Y264439D02*
X54800Y262365D01*
X54983Y262224D01*
X55895Y261846D01*
X56874Y261718D01*
X57853Y261846D01*
X58765Y262224D01*
X58948Y262365D01*
X56874Y264439D01*
D02*
G37*
G36*
X248126Y257633D02*
X247147Y257504D01*
X246235Y257126D01*
X246052Y256985D01*
X248126Y254911D01*
X250200Y256985D01*
X250017Y257126D01*
X249105Y257504D01*
X248126Y257633D01*
D02*
G37*
G36*
X212126D02*
X211147Y257504D01*
X210235Y257126D01*
X210052Y256985D01*
X212126Y254911D01*
X214200Y256985D01*
X214017Y257126D01*
X213105Y257504D01*
X212126Y257633D01*
D02*
G37*
G36*
X176126D02*
X175147Y257504D01*
X174235Y257126D01*
X174052Y256985D01*
X176126Y254911D01*
X178200Y256985D01*
X178017Y257126D01*
X177105Y257504D01*
X176126Y257633D01*
D02*
G37*
G36*
X140126D02*
X139147Y257504D01*
X138235Y257126D01*
X138052Y256985D01*
X140126Y254911D01*
X142200Y256985D01*
X142017Y257126D01*
X141105Y257504D01*
X140126Y257633D01*
D02*
G37*
G36*
X290500Y274733D02*
X288821Y274601D01*
X287183Y274208D01*
X285627Y273563D01*
X284191Y272683D01*
X282911Y271589D01*
X281817Y270309D01*
X280937Y268873D01*
X280292Y267317D01*
X279899Y265679D01*
X279767Y264000D01*
X279899Y262321D01*
X280292Y260683D01*
X280937Y259127D01*
X281817Y257691D01*
X282911Y256411D01*
X284191Y255317D01*
X285627Y254437D01*
X287183Y253792D01*
X288821Y253399D01*
X290500Y253267D01*
X292179Y253399D01*
X293817Y253792D01*
X295373Y254437D01*
X296809Y255317D01*
X298089Y256411D01*
X299183Y257691D01*
X300063Y259127D01*
X300708Y260683D01*
X301101Y262321D01*
X301233Y264000D01*
X301101Y265679D01*
X300708Y267317D01*
X300063Y268873D01*
X299183Y270309D01*
X298089Y271589D01*
X296809Y272683D01*
X295373Y273563D01*
X293817Y274208D01*
X292179Y274601D01*
X290500Y274733D01*
D02*
G37*
G36*
X110500D02*
X108821Y274601D01*
X107183Y274208D01*
X105627Y273563D01*
X104191Y272683D01*
X102911Y271589D01*
X101817Y270309D01*
X100937Y268873D01*
X100292Y267317D01*
X99899Y265679D01*
X99767Y264000D01*
X99899Y262321D01*
X100292Y260683D01*
X100937Y259127D01*
X101817Y257691D01*
X102911Y256411D01*
X104191Y255317D01*
X105627Y254437D01*
X107183Y253792D01*
X108821Y253399D01*
X110500Y253267D01*
X112179Y253399D01*
X113817Y253792D01*
X115373Y254437D01*
X116809Y255317D01*
X118089Y256411D01*
X119183Y257691D01*
X120063Y259127D01*
X120708Y260683D01*
X121101Y262321D01*
X121233Y264000D01*
X121101Y265679D01*
X120708Y267317D01*
X120063Y268873D01*
X119183Y270309D01*
X118089Y271589D01*
X116809Y272683D01*
X115373Y273563D01*
X113817Y274208D01*
X112179Y274601D01*
X110500Y274733D01*
D02*
G37*
G36*
X244991Y255925D02*
X244850Y255742D01*
X244473Y254829D01*
X244344Y253850D01*
Y251850D01*
X244473Y250871D01*
X244850Y249959D01*
X244991Y249776D01*
X247596Y252381D01*
X248126Y251850D01*
X248656Y252381D01*
X251261Y249776D01*
X251402Y249959D01*
X251780Y250871D01*
X251908Y251850D01*
Y253850D01*
X251780Y254829D01*
X251402Y255742D01*
X251261Y255925D01*
X248656Y253320D01*
X248126Y253850D01*
X247596Y253320D01*
X244991Y255925D01*
D02*
G37*
G36*
X208991D02*
X208850Y255742D01*
X208472Y254829D01*
X208344Y253850D01*
Y251850D01*
X208472Y250871D01*
X208850Y249959D01*
X208991Y249776D01*
X211596Y252381D01*
X212126Y251850D01*
X212656Y252381D01*
X215261Y249776D01*
X215402Y249959D01*
X215779Y250871D01*
X215908Y251850D01*
Y253850D01*
X215779Y254829D01*
X215402Y255742D01*
X215261Y255925D01*
X212656Y253320D01*
X212126Y253850D01*
X211596Y253320D01*
X208991Y255925D01*
D02*
G37*
G36*
X172991D02*
X172850Y255742D01*
X172473Y254829D01*
X172344Y253850D01*
Y251850D01*
X172473Y250871D01*
X172850Y249959D01*
X172991Y249776D01*
X175596Y252381D01*
X176126Y251850D01*
X176656Y252381D01*
X179261Y249776D01*
X179402Y249959D01*
X179780Y250871D01*
X179908Y251850D01*
Y253850D01*
X179780Y254829D01*
X179402Y255742D01*
X179261Y255925D01*
X176656Y253320D01*
X176126Y253850D01*
X175596Y253320D01*
X172991Y255925D01*
D02*
G37*
G36*
X136991D02*
X136850Y255742D01*
X136472Y254829D01*
X136344Y253850D01*
Y251850D01*
X136472Y250871D01*
X136850Y249959D01*
X136991Y249776D01*
X139596Y252381D01*
X140126Y251850D01*
X140656Y252381D01*
X143261Y249776D01*
X143402Y249959D01*
X143780Y250871D01*
X143908Y251850D01*
Y253850D01*
X143780Y254829D01*
X143402Y255742D01*
X143261Y255925D01*
X140656Y253320D01*
X140126Y253850D01*
X139596Y253320D01*
X136991Y255925D01*
D02*
G37*
G36*
X248126Y250790D02*
X246052Y248715D01*
X246235Y248575D01*
X247147Y248197D01*
X248126Y248068D01*
X249105Y248197D01*
X250017Y248575D01*
X250200Y248715D01*
X248126Y250790D01*
D02*
G37*
G36*
X212126D02*
X210052Y248715D01*
X210235Y248575D01*
X211147Y248197D01*
X212126Y248068D01*
X213105Y248197D01*
X214017Y248575D01*
X214200Y248715D01*
X212126Y250790D01*
D02*
G37*
G36*
X176126D02*
X174052Y248715D01*
X174235Y248575D01*
X175147Y248197D01*
X176126Y248068D01*
X177105Y248197D01*
X178017Y248575D01*
X178200Y248715D01*
X176126Y250790D01*
D02*
G37*
G36*
X140126D02*
X138052Y248715D01*
X138235Y248575D01*
X139147Y248197D01*
X140126Y248068D01*
X141105Y248197D01*
X142017Y248575D01*
X142200Y248715D01*
X140126Y250790D01*
D02*
G37*
G36*
X299000Y245439D02*
X297646Y245306D01*
X296345Y244911D01*
X295145Y244269D01*
X294676Y243885D01*
X299000Y239561D01*
X303324Y243885D01*
X302855Y244269D01*
X301655Y244911D01*
X300354Y245306D01*
X299000Y245439D01*
D02*
G37*
G36*
X279000D02*
X277646Y245306D01*
X276345Y244911D01*
X275145Y244269D01*
X274676Y243885D01*
X279000Y239561D01*
X283324Y243885D01*
X282855Y244269D01*
X281655Y244911D01*
X280354Y245306D01*
X279000Y245439D01*
D02*
G37*
G36*
X304385Y242824D02*
X300061Y238500D01*
X304385Y234176D01*
X304769Y234645D01*
X305411Y235845D01*
X305806Y237146D01*
X305939Y238500D01*
X305806Y239854D01*
X305411Y241155D01*
X304769Y242355D01*
X304385Y242824D01*
D02*
G37*
G36*
X284385D02*
X280061Y238500D01*
X284385Y234176D01*
X284770Y234645D01*
X285411Y235845D01*
X285806Y237146D01*
X285939Y238500D01*
X285806Y239854D01*
X285411Y241155D01*
X284770Y242355D01*
X284385Y242824D01*
D02*
G37*
G36*
X293615D02*
X293231Y242355D01*
X292589Y241155D01*
X292194Y239854D01*
X292061Y238500D01*
X292194Y237146D01*
X292589Y235845D01*
X293231Y234645D01*
X293615Y234176D01*
X297939Y238500D01*
X293615Y242824D01*
D02*
G37*
G36*
X273615D02*
X273231Y242355D01*
X272589Y241155D01*
X272194Y239854D01*
X272061Y238500D01*
X272194Y237146D01*
X272589Y235845D01*
X273231Y234645D01*
X273615Y234176D01*
X277939Y238500D01*
X273615Y242824D01*
D02*
G37*
G36*
X299000Y237439D02*
X294676Y233115D01*
X295145Y232731D01*
X296345Y232089D01*
X297646Y231694D01*
X299000Y231561D01*
X300354Y231694D01*
X301655Y232089D01*
X302855Y232731D01*
X303324Y233115D01*
X299000Y237439D01*
D02*
G37*
G36*
X279000D02*
X274676Y233115D01*
X275145Y232731D01*
X276345Y232089D01*
X277646Y231694D01*
X279000Y231561D01*
X280354Y231694D01*
X281655Y232089D01*
X282855Y232731D01*
X283324Y233115D01*
X279000Y237439D01*
D02*
G37*
G36*
X223450Y257300D02*
X216550D01*
Y248400D01*
X218267D01*
Y227767D01*
X217332D01*
Y226223D01*
X204328D01*
X204086Y226586D01*
X203358Y227072D01*
X202500Y227243D01*
X201642Y227072D01*
X200914Y226586D01*
X200428Y225858D01*
X200257Y225000D01*
X200428Y224142D01*
X200914Y223414D01*
X201642Y222928D01*
X202500Y222757D01*
X203358Y222928D01*
X204086Y223414D01*
X204328Y223777D01*
X217332D01*
Y222233D01*
X222669D01*
Y227767D01*
X221733D01*
Y248400D01*
X223450D01*
Y257300D01*
D02*
G37*
G36*
X289000Y233574D02*
X287687Y233401D01*
X286463Y232894D01*
X285412Y232088D01*
X284606Y231037D01*
X284099Y229813D01*
X283926Y228500D01*
X284099Y227187D01*
X284606Y225963D01*
X285412Y224912D01*
X286463Y224106D01*
X287687Y223599D01*
X289000Y223426D01*
X290313Y223599D01*
X291537Y224106D01*
X292588Y224912D01*
X293394Y225963D01*
X293901Y227187D01*
X294074Y228500D01*
X293901Y229813D01*
X293394Y231037D01*
X292588Y232088D01*
X291537Y232894D01*
X290313Y233401D01*
X289000Y233574D01*
D02*
G37*
G36*
X187450Y257300D02*
X180550D01*
Y248400D01*
X182267D01*
Y227767D01*
X181332D01*
Y222233D01*
X186669D01*
Y223777D01*
X190172D01*
X190414Y223414D01*
X191142Y222928D01*
X192000Y222757D01*
X192858Y222928D01*
X193586Y223414D01*
X194072Y224142D01*
X194243Y225000D01*
X194072Y225858D01*
X193586Y226586D01*
X192858Y227072D01*
X192000Y227243D01*
X191142Y227072D01*
X190414Y226586D01*
X190172Y226223D01*
X186669D01*
Y227767D01*
X185733D01*
Y248400D01*
X187450D01*
Y257300D01*
D02*
G37*
G36*
X151450D02*
X144550D01*
Y248400D01*
X146267D01*
Y227767D01*
X145332D01*
Y222233D01*
X150669D01*
Y223777D01*
X154172D01*
X154414Y223414D01*
X155142Y222928D01*
X156000Y222757D01*
X156858Y222928D01*
X157586Y223414D01*
X158072Y224142D01*
X158243Y225000D01*
X158072Y225858D01*
X157586Y226586D01*
X156858Y227072D01*
X156000Y227243D01*
X155142Y227072D01*
X154414Y226586D01*
X154172Y226223D01*
X150669D01*
Y227767D01*
X149733D01*
Y248400D01*
X151450D01*
Y257300D01*
D02*
G37*
G36*
X258668Y221468D02*
X253331D01*
Y220434D01*
X222669D01*
Y221468D01*
X217332D01*
Y220434D01*
X186669D01*
Y221468D01*
X181332D01*
Y220434D01*
X150669D01*
Y221468D01*
X145332D01*
Y215934D01*
X146267D01*
Y207866D01*
X145928Y207358D01*
X145757Y206500D01*
X145928Y205642D01*
X146414Y204914D01*
X147142Y204428D01*
X148000Y204257D01*
X148858Y204428D01*
X149586Y204914D01*
X150072Y205642D01*
X150243Y206500D01*
X150072Y207358D01*
X149733Y207866D01*
Y215934D01*
X150669D01*
Y216968D01*
X181332D01*
Y215934D01*
X186669D01*
Y216968D01*
X217332D01*
Y215934D01*
X222669D01*
Y216968D01*
X253331D01*
Y215934D01*
X258668D01*
Y221468D01*
D02*
G37*
G36*
X299000Y225439D02*
X297646Y225306D01*
X296345Y224911D01*
X295145Y224270D01*
X294676Y223885D01*
X299000Y219561D01*
X303324Y223885D01*
X302855Y224270D01*
X301655Y224911D01*
X300354Y225306D01*
X299000Y225439D01*
D02*
G37*
G36*
X279000D02*
X277646Y225306D01*
X276345Y224911D01*
X275145Y224270D01*
X274676Y223885D01*
X279000Y219561D01*
X283324Y223885D01*
X282855Y224270D01*
X281655Y224911D01*
X280354Y225306D01*
X279000Y225439D01*
D02*
G37*
G36*
X120248Y219282D02*
X119269Y219153D01*
X118357Y218776D01*
X118174Y218635D01*
X120248Y216561D01*
X122322Y218635D01*
X122139Y218776D01*
X121227Y219153D01*
X120248Y219282D01*
D02*
G37*
G36*
X123383Y217574D02*
X120778Y214970D01*
X120248Y215500D01*
X119718Y214970D01*
X117113Y217574D01*
X116972Y217391D01*
X116595Y216479D01*
X116466Y215500D01*
Y213500D01*
X116595Y212521D01*
X116972Y211609D01*
X117113Y211426D01*
X119718Y214030D01*
X120248Y213500D01*
X120778Y214030D01*
X123383Y211426D01*
X123524Y211609D01*
X123901Y212521D01*
X124030Y213500D01*
Y215500D01*
X123901Y216479D01*
X123524Y217391D01*
X123383Y217574D01*
D02*
G37*
G36*
X304385Y222824D02*
X300061Y218500D01*
X304385Y214176D01*
X304769Y214645D01*
X305411Y215845D01*
X305806Y217146D01*
X305939Y218500D01*
X305806Y219854D01*
X305411Y221155D01*
X304769Y222355D01*
X304385Y222824D01*
D02*
G37*
G36*
X284385D02*
X280061Y218500D01*
X284385Y214176D01*
X284770Y214645D01*
X285411Y215845D01*
X285806Y217146D01*
X285939Y218500D01*
X285806Y219854D01*
X285411Y221155D01*
X284770Y222355D01*
X284385Y222824D01*
D02*
G37*
G36*
X293615D02*
X293231Y222355D01*
X292589Y221155D01*
X292194Y219854D01*
X292061Y218500D01*
X292194Y217146D01*
X292589Y215845D01*
X293231Y214645D01*
X293615Y214176D01*
X297939Y218500D01*
X293615Y222824D01*
D02*
G37*
G36*
X273615D02*
X273231Y222355D01*
X272589Y221155D01*
X272194Y219854D01*
X272061Y218500D01*
X272194Y217146D01*
X272589Y215845D01*
X273231Y214645D01*
X273615Y214176D01*
X277939Y218500D01*
X273615Y222824D01*
D02*
G37*
G36*
X259450Y257300D02*
X252550D01*
Y248400D01*
X254267D01*
Y227767D01*
X253331D01*
Y222233D01*
X258668D01*
Y223777D01*
X259993D01*
X262277Y221493D01*
Y214507D01*
X259493Y211723D01*
X181328D01*
X181086Y212086D01*
X180358Y212572D01*
X179500Y212743D01*
X178642Y212572D01*
X177914Y212086D01*
X177428Y211358D01*
X177257Y210500D01*
X177428Y209642D01*
X177914Y208914D01*
X178642Y208428D01*
X179500Y208257D01*
X180358Y208428D01*
X181086Y208914D01*
X181328Y209277D01*
X260000D01*
X260468Y209370D01*
X260865Y209635D01*
X264365Y213135D01*
X264630Y213532D01*
X264723Y214000D01*
Y222000D01*
X264630Y222468D01*
X264365Y222865D01*
X261365Y225865D01*
X260968Y226130D01*
X260500Y226223D01*
X258668D01*
Y227767D01*
X257733D01*
Y248400D01*
X259450D01*
Y257300D01*
D02*
G37*
G36*
X299000Y217439D02*
X294676Y213115D01*
X295145Y212731D01*
X296345Y212089D01*
X297646Y211694D01*
X299000Y211561D01*
X300354Y211694D01*
X301655Y212089D01*
X302855Y212731D01*
X303324Y213115D01*
X299000Y217439D01*
D02*
G37*
G36*
X279000D02*
X274676Y213115D01*
X275145Y212731D01*
X276345Y212089D01*
X277646Y211694D01*
X279000Y211561D01*
X280354Y211694D01*
X281655Y212089D01*
X282855Y212731D01*
X283324Y213115D01*
X279000Y217439D01*
D02*
G37*
G36*
X107950Y218950D02*
X101050D01*
Y210050D01*
X107950D01*
Y218950D01*
D02*
G37*
G36*
X112374Y218980D02*
X111473Y218861D01*
X110634Y218514D01*
X109913Y217961D01*
X109360Y217240D01*
X109013Y216401D01*
X108894Y215500D01*
Y213500D01*
X109013Y212599D01*
X109360Y211760D01*
X109913Y211039D01*
X110634Y210486D01*
X111473Y210139D01*
X112374Y210020D01*
X113275Y210139D01*
X114114Y210486D01*
X114835Y211039D01*
X115388Y211760D01*
X115735Y212599D01*
X115854Y213500D01*
Y215500D01*
X115735Y216401D01*
X115388Y217240D01*
X114835Y217961D01*
X114114Y218514D01*
X113275Y218861D01*
X112374Y218980D01*
D02*
G37*
G36*
X120248Y212439D02*
X118174Y210365D01*
X118357Y210224D01*
X119269Y209846D01*
X120248Y209718D01*
X121227Y209846D01*
X122139Y210224D01*
X122322Y210365D01*
X120248Y212439D01*
D02*
G37*
G36*
X163500Y201549D02*
X162524Y201355D01*
X162333Y201227D01*
X163500Y200061D01*
X164667Y201227D01*
X164476Y201355D01*
X163500Y201549D01*
D02*
G37*
G36*
X165727Y200167D02*
X164561Y199000D01*
X165727Y197833D01*
X165855Y198024D01*
X166049Y199000D01*
X165855Y199976D01*
X165727Y200167D01*
D02*
G37*
G36*
X161273Y200167D02*
X161145Y199976D01*
X160951Y199000D01*
X161145Y198024D01*
X161273Y197833D01*
X162439Y199000D01*
X161273Y200167D01*
D02*
G37*
G36*
X277408Y199366D02*
X273592D01*
X275500Y197458D01*
X277408Y199366D01*
D02*
G37*
G36*
X163500Y197939D02*
X162333Y196773D01*
X162524Y196645D01*
X163500Y196451D01*
X164476Y196645D01*
X164667Y196773D01*
X163500Y197939D01*
D02*
G37*
G36*
X275500Y196398D02*
X275402Y196299D01*
X275500Y196201D01*
X275598Y196299D01*
X275500Y196398D01*
D02*
G37*
G36*
X272532Y198305D02*
Y194293D01*
X274538Y196299D01*
X272532Y198305D01*
D02*
G37*
G36*
X278468Y198305D02*
X276462Y196299D01*
X278468Y194293D01*
Y198305D01*
D02*
G37*
G36*
X275500Y195140D02*
X273592Y193232D01*
X277408D01*
X275500Y195140D01*
D02*
G37*
G36*
X165408Y193717D02*
X161592D01*
X163500Y191809D01*
X165408Y193717D01*
D02*
G37*
G36*
X163500Y190748D02*
X163402Y190650D01*
X163500Y190551D01*
X163598Y190650D01*
X163500Y190748D01*
D02*
G37*
G36*
X12309Y191319D02*
X8691D01*
X10500Y189509D01*
X12309Y191319D01*
D02*
G37*
G36*
X303969Y193154D02*
X296609D01*
X300289Y189474D01*
X303969Y193154D01*
D02*
G37*
G36*
X160531Y192656D02*
Y188643D01*
X162538Y190650D01*
X160531Y192656D01*
D02*
G37*
G36*
X166469Y192656D02*
X164462Y190650D01*
X166469Y188643D01*
Y192656D01*
D02*
G37*
G36*
X300289Y188807D02*
X300092Y188610D01*
X300289Y188413D01*
X300486Y188610D01*
X300289Y188807D01*
D02*
G37*
G36*
X292453Y190988D02*
X287259D01*
X289856Y188391D01*
X292453Y190988D01*
D02*
G37*
G36*
X163500Y189490D02*
X161592Y187583D01*
X165408D01*
X163500Y189490D01*
D02*
G37*
G36*
X151000Y189049D02*
X150024Y188855D01*
X149833Y188727D01*
X151000Y187561D01*
X152167Y188727D01*
X151976Y188855D01*
X151000Y189049D01*
D02*
G37*
G36*
X293513Y189928D02*
X290386Y186801D01*
X289856Y187331D01*
X289326Y186801D01*
X286198Y189928D01*
Y181781D01*
X289326Y184908D01*
X289856Y184378D01*
X290386Y184908D01*
X293513Y181781D01*
Y189928D01*
D02*
G37*
G36*
X7630Y190258D02*
Y186443D01*
X9538Y188350D01*
X7630Y190258D01*
D02*
G37*
G36*
X153227Y187667D02*
X152061Y186500D01*
X153227Y185333D01*
X153355Y185524D01*
X153549Y186500D01*
X153355Y187476D01*
X153227Y187667D01*
D02*
G37*
G36*
X148773Y187667D02*
X148645Y187476D01*
X148451Y186500D01*
X148645Y185524D01*
X148773Y185333D01*
X149939Y186500D01*
X148773Y187667D01*
D02*
G37*
G36*
X295549Y192093D02*
Y185128D01*
X299031Y188610D01*
X295549Y192093D01*
D02*
G37*
G36*
X305029Y192093D02*
X301547Y188610D01*
X305029Y185128D01*
Y192093D01*
D02*
G37*
G36*
X300289Y187746D02*
X296609Y184067D01*
X303969D01*
X300289Y187746D01*
D02*
G37*
G36*
X151000Y185439D02*
X149833Y184273D01*
X150024Y184145D01*
X151000Y183951D01*
X151976Y184145D01*
X152167Y184273D01*
X151000Y185439D01*
D02*
G37*
G36*
X16578Y185667D02*
X15411Y184500D01*
X16578Y183333D01*
X16705Y183525D01*
X16899Y184500D01*
X16705Y185476D01*
X16578Y185667D01*
D02*
G37*
G36*
X153057Y183870D02*
X149242D01*
X151150Y181962D01*
X153057Y183870D01*
D02*
G37*
G36*
X11500Y210243D02*
X10642Y210072D01*
X9914Y209586D01*
X9428Y208858D01*
X9257Y208000D01*
X9428Y207142D01*
X9914Y206414D01*
X10277Y206172D01*
Y197344D01*
X10084Y197318D01*
X7930D01*
Y195500D01*
X7869Y195354D01*
X7777Y194650D01*
X7869Y193945D01*
X7930Y193799D01*
Y191981D01*
X10084D01*
X10500Y191926D01*
X13222D01*
X13519Y191630D01*
X14083Y191197D01*
X14740Y190925D01*
X15445Y190832D01*
X17286D01*
Y187223D01*
X17341Y186950D01*
X17495Y186719D01*
X17727Y186564D01*
X18000Y186510D01*
X18358D01*
Y182490D01*
X18000D01*
X17727Y182436D01*
X17495Y182281D01*
X17341Y182050D01*
X17286Y181777D01*
Y178168D01*
X15445D01*
X14740Y178075D01*
X14083Y177803D01*
X13519Y177371D01*
X13370Y177221D01*
Y182148D01*
X13375Y182145D01*
X14350Y181951D01*
X15326Y182145D01*
X15517Y182273D01*
X13820Y183970D01*
X14350Y184500D01*
X13820Y185030D01*
X15517Y186727D01*
X15326Y186855D01*
X14350Y187049D01*
X13375Y186855D01*
X13370Y186852D01*
Y190258D01*
X11030Y187918D01*
X10500Y188449D01*
X10402Y188350D01*
X11030Y187722D01*
X8691Y185382D01*
X11977D01*
X11801Y184500D01*
X11995Y183525D01*
X12548Y182698D01*
X12667Y182618D01*
X8691D01*
X11030Y180278D01*
X10402Y179650D01*
X11030Y179021D01*
X8691Y176681D01*
X12830D01*
X12222Y176074D01*
X10500D01*
X10084Y176019D01*
X7930D01*
Y174201D01*
X7869Y174055D01*
X7777Y173350D01*
Y125000D01*
X7869Y124295D01*
X8141Y123638D01*
X8574Y123074D01*
X19777Y111872D01*
Y102000D01*
X19870Y101295D01*
X20142Y100638D01*
X20574Y100074D01*
X25074Y95574D01*
X25638Y95142D01*
X26295Y94870D01*
X27000Y94777D01*
X72000D01*
X72705Y94870D01*
X73362Y95142D01*
X73926Y95574D01*
X82926Y104574D01*
X83359Y105138D01*
X83631Y105795D01*
X83723Y106500D01*
X83631Y107205D01*
X83359Y107862D01*
X82926Y108426D01*
X82362Y108858D01*
X81705Y109131D01*
X81000Y109223D01*
X80295Y109131D01*
X79638Y108858D01*
X79074Y108426D01*
X70872Y100223D01*
X28128D01*
X25223Y103128D01*
Y103286D01*
X49786D01*
X50059Y103341D01*
X50143Y103397D01*
X50227Y103341D01*
X50500Y103286D01*
X72000D01*
X72273Y103341D01*
X72505Y103495D01*
X72659Y103727D01*
X72714Y104000D01*
Y138930D01*
X77318D01*
Y144070D01*
X75723D01*
Y146651D01*
X76184D01*
Y156712D01*
X72816D01*
Y146651D01*
X73277D01*
Y144070D01*
X72714D01*
Y157000D01*
X72659Y157273D01*
X72658Y157276D01*
X72505Y157505D01*
X72273Y157659D01*
X72000Y157714D01*
X67500D01*
X67227Y157659D01*
X66995Y157505D01*
X66841Y157273D01*
X66786Y157000D01*
Y146214D01*
X65500D01*
X65227Y146159D01*
X64995Y146005D01*
X64841Y145773D01*
X64786Y145500D01*
Y140296D01*
X63991Y139500D01*
X63704Y139214D01*
X50500D01*
X50227Y139159D01*
X50143Y139103D01*
X50059Y139159D01*
X49786Y139214D01*
X40214D01*
Y139500D01*
Y200500D01*
X40159Y200773D01*
X40005Y201005D01*
X39773Y201159D01*
X39500Y201214D01*
X18000D01*
X17727Y201159D01*
X17495Y201005D01*
X17341Y200773D01*
X17286Y200500D01*
Y196279D01*
X16573D01*
X16276Y196575D01*
X15712Y197008D01*
X15055Y197280D01*
X14350Y197373D01*
X12723D01*
Y206172D01*
X13086Y206414D01*
X13572Y207142D01*
X13743Y208000D01*
X13572Y208858D01*
X13086Y209586D01*
X12358Y210072D01*
X11500Y210243D01*
D02*
G37*
G36*
X151150Y181098D02*
X151051Y181000D01*
X151150Y180902D01*
X151248Y181000D01*
X151150Y181098D01*
D02*
G37*
G36*
X289856Y183317D02*
X287259Y180720D01*
X292453D01*
X289856Y183317D01*
D02*
G37*
G36*
X154118Y182809D02*
X152309Y181000D01*
X154118Y179191D01*
Y182809D01*
D02*
G37*
G36*
X148181Y182809D02*
Y179191D01*
X149990Y181000D01*
X148181Y182809D01*
D02*
G37*
G36*
X151150Y180038D02*
X149242Y178130D01*
X153057D01*
X151150Y180038D01*
D02*
G37*
G36*
X243500Y197243D02*
X242642Y197072D01*
X241914Y196586D01*
X241672Y196223D01*
X176500D01*
X176032Y196130D01*
X175635Y195865D01*
X168001Y188231D01*
X167736Y187834D01*
X167643Y187366D01*
Y178088D01*
X164724Y181007D01*
Y181583D01*
X166168D01*
Y187117D01*
X160831D01*
Y181583D01*
X162276D01*
Y180500D01*
X162370Y180032D01*
X162635Y179635D01*
X165627Y176643D01*
Y176603D01*
X160223Y182007D01*
Y190000D01*
X160130Y190468D01*
X159865Y190865D01*
X154865Y195865D01*
X154468Y196130D01*
X154000Y196223D01*
X139500D01*
X139032Y196130D01*
X138635Y195865D01*
X92135Y149365D01*
X91870Y148968D01*
X91777Y148500D01*
Y109007D01*
X74993Y92224D01*
X18507D01*
X16724Y94007D01*
Y109500D01*
X16630Y109968D01*
X16365Y110365D01*
X14158Y112572D01*
X14243Y113000D01*
X14072Y113858D01*
X13586Y114586D01*
X12858Y115072D01*
X12000Y115243D01*
X11142Y115072D01*
X10414Y114586D01*
X9928Y113858D01*
X9757Y113000D01*
X9928Y112142D01*
X10414Y111414D01*
X11142Y110928D01*
X12000Y110757D01*
X12428Y110842D01*
X14277Y108993D01*
Y93500D01*
X14370Y93032D01*
X14635Y92635D01*
X17135Y90135D01*
X17532Y89870D01*
X18000Y89776D01*
X75500D01*
X75968Y89870D01*
X76365Y90135D01*
X93865Y107635D01*
X94130Y108032D01*
X94223Y108500D01*
Y147993D01*
X140007Y193777D01*
X153493D01*
X157776Y189493D01*
Y181500D01*
X157870Y181032D01*
X158135Y180635D01*
X163706Y175064D01*
Y175025D01*
X157723Y181007D01*
Y188000D01*
X157630Y188468D01*
X157365Y188865D01*
X153365Y192865D01*
X152968Y193130D01*
X152500Y193224D01*
X141000D01*
X140532Y193130D01*
X140135Y192865D01*
X95135Y147865D01*
X94870Y147468D01*
X94776Y147000D01*
Y107007D01*
X77493Y89723D01*
X17007D01*
X13224Y93507D01*
Y103172D01*
X13586Y103414D01*
X14072Y104142D01*
X14243Y105000D01*
X14072Y105858D01*
X13586Y106586D01*
X12858Y107072D01*
X12000Y107243D01*
X11142Y107072D01*
X10414Y106586D01*
X9928Y105858D01*
X9757Y105000D01*
X9928Y104142D01*
X10414Y103414D01*
X10776Y103172D01*
Y93000D01*
X10870Y92532D01*
X11135Y92135D01*
X15635Y87635D01*
X16032Y87370D01*
X16500Y87277D01*
X78000D01*
X78468Y87370D01*
X78865Y87635D01*
X96865Y105635D01*
X97130Y106032D01*
X97224Y106500D01*
Y146493D01*
X141507Y190777D01*
X151993D01*
X155277Y187493D01*
Y180500D01*
X155370Y180032D01*
X155635Y179635D01*
X161737Y173533D01*
Y172813D01*
X161613Y172896D01*
X160992Y173019D01*
X160372Y172896D01*
X159845Y172545D01*
X159779Y172445D01*
X159527Y172613D01*
X159024Y172714D01*
X158520Y172613D01*
X158093Y172328D01*
X157808Y171901D01*
X157708Y171398D01*
Y169767D01*
X152963D01*
X146074Y176656D01*
Y178372D01*
X146132Y178430D01*
X147519D01*
Y180584D01*
X147574Y181000D01*
X147519Y181416D01*
Y183570D01*
X145701D01*
X145555Y183631D01*
X144850Y183723D01*
X144146Y183631D01*
X144000Y183570D01*
X142182D01*
Y182183D01*
X139574Y179575D01*
X139142Y179011D01*
X138870Y178354D01*
X138777Y177650D01*
Y174000D01*
Y170000D01*
Y167128D01*
X125425Y153776D01*
X125131Y153393D01*
X123895D01*
Y147269D01*
X124627D01*
Y144731D01*
X123895D01*
Y138607D01*
X124627D01*
Y133850D01*
X124720Y133146D01*
X124992Y132489D01*
X125425Y131925D01*
X127349Y130000D01*
X126925Y129575D01*
X126492Y129011D01*
X126220Y128354D01*
X126127Y127650D01*
Y115500D01*
Y95700D01*
X125150D01*
Y91112D01*
X119594Y85555D01*
X119163Y84911D01*
X119012Y84150D01*
Y71484D01*
X118928Y71358D01*
X118757Y70500D01*
X118928Y69642D01*
X119414Y68914D01*
X120142Y68428D01*
X121000Y68257D01*
X121858Y68428D01*
X122586Y68914D01*
X123072Y69642D01*
X123243Y70500D01*
X123072Y71358D01*
X122988Y71484D01*
Y83326D01*
X127962Y88300D01*
X132550D01*
Y95700D01*
X131574D01*
Y114372D01*
X138478Y121277D01*
X147850D01*
X148555Y121370D01*
X148701Y121430D01*
X150519D01*
Y123584D01*
X150574Y124000D01*
X150519Y124416D01*
Y126570D01*
X148701D01*
X148555Y126630D01*
X147850Y126723D01*
X146857D01*
X143723Y129857D01*
Y143493D01*
X146586Y146355D01*
X149898D01*
X149737Y146114D01*
X149637Y145610D01*
X149737Y145107D01*
X150022Y144680D01*
X150103Y144626D01*
X150022Y144572D01*
X149737Y144145D01*
X149637Y143642D01*
X149737Y143138D01*
X149898Y142897D01*
X149673D01*
X149205Y142804D01*
X149046Y142697D01*
X148808Y142538D01*
X146135Y139865D01*
X145870Y139468D01*
X145776Y139000D01*
Y134828D01*
X145414Y134586D01*
X144928Y133858D01*
X144757Y133000D01*
X144928Y132142D01*
X145414Y131414D01*
X146142Y130928D01*
X147000Y130757D01*
X147858Y130928D01*
X148586Y131414D01*
X149072Y132142D01*
X149243Y133000D01*
X149072Y133858D01*
X148586Y134586D01*
X148223Y134828D01*
Y138493D01*
X150180Y140450D01*
X150488D01*
X150953Y140357D01*
X156661D01*
X157165Y140457D01*
X157592Y140743D01*
X157877Y141170D01*
X157977Y141673D01*
X157877Y142177D01*
X157592Y142604D01*
X157511Y142657D01*
X157592Y142711D01*
X157877Y143138D01*
X157977Y143642D01*
X157877Y144145D01*
X157592Y144572D01*
X157511Y144626D01*
X157592Y144680D01*
X157877Y145107D01*
X157977Y145610D01*
X157877Y146114D01*
X157592Y146541D01*
X157511Y146595D01*
X157592Y146648D01*
X157877Y147075D01*
X157977Y147579D01*
X157877Y148082D01*
X157709Y148334D01*
X157808Y148400D01*
X158160Y148927D01*
X158283Y149547D01*
X158160Y150168D01*
X158076Y150292D01*
X170477D01*
X172657Y148112D01*
X172000Y148243D01*
X171142Y148072D01*
X170414Y147586D01*
X169928Y146858D01*
X169757Y146000D01*
X169928Y145142D01*
X170414Y144414D01*
X171142Y143928D01*
X171580Y143841D01*
Y143151D01*
X169178Y145552D01*
X169572Y146142D01*
X169743Y147000D01*
X169572Y147858D01*
X169086Y148586D01*
X168358Y149072D01*
X167500Y149243D01*
X166642Y149072D01*
X165914Y148586D01*
X165428Y147858D01*
X165257Y147000D01*
X165428Y146142D01*
X165914Y145414D01*
X166352Y145121D01*
X166370Y145032D01*
X166635Y144635D01*
X167058Y144212D01*
X167000Y144223D01*
X165007D01*
X164224Y145007D01*
Y145172D01*
X164586Y145414D01*
X165072Y146142D01*
X165243Y147000D01*
X165072Y147858D01*
X164586Y148586D01*
X163858Y149072D01*
X163000Y149243D01*
X162142Y149072D01*
X161414Y148586D01*
X160928Y147858D01*
X160757Y147000D01*
X160928Y146142D01*
X161414Y145414D01*
X161776Y145172D01*
Y144500D01*
X161870Y144032D01*
X162135Y143635D01*
X163635Y142135D01*
X164032Y141870D01*
X164500Y141777D01*
X166493D01*
X167643Y140627D01*
Y140365D01*
X167401Y140527D01*
X166898Y140627D01*
X166394Y140527D01*
X165967Y140242D01*
X165913Y140161D01*
X165860Y140242D01*
X165433Y140527D01*
X164929Y140627D01*
X164426Y140527D01*
X163999Y140242D01*
X163945Y140161D01*
X163891Y140242D01*
X163464Y140527D01*
X162961Y140627D01*
X162457Y140527D01*
X162030Y140242D01*
X161976Y140161D01*
X161923Y140242D01*
X161496Y140527D01*
X160992Y140627D01*
X160489Y140527D01*
X160062Y140242D01*
X160008Y140161D01*
X159954Y140242D01*
X159527Y140527D01*
X159024Y140627D01*
X158520Y140527D01*
X158093Y140242D01*
X157808Y139815D01*
X157708Y139311D01*
Y137680D01*
X155957D01*
X155489Y137587D01*
X155092Y137322D01*
X152928Y135158D01*
X152500Y135243D01*
X151642Y135072D01*
X150914Y134586D01*
X150428Y133858D01*
X150257Y133000D01*
X150428Y132142D01*
X150914Y131414D01*
X151642Y130928D01*
X152500Y130757D01*
X153358Y130928D01*
X154086Y131414D01*
X154572Y132142D01*
X154743Y133000D01*
X154658Y133428D01*
X156464Y135233D01*
X157708D01*
Y133602D01*
X157808Y133099D01*
X158093Y132672D01*
X158520Y132387D01*
X159024Y132287D01*
X159527Y132387D01*
X159769Y132548D01*
Y119499D01*
X154993Y114724D01*
X139000D01*
X138532Y114630D01*
X138135Y114365D01*
X133135Y109365D01*
X132870Y108968D01*
X132776Y108500D01*
Y81007D01*
X124135Y72365D01*
X123870Y71968D01*
X123776Y71500D01*
Y63000D01*
X123870Y62532D01*
X124135Y62135D01*
X125284Y60985D01*
X125681Y60720D01*
X126150Y60627D01*
X127331D01*
Y59083D01*
X132668D01*
Y64617D01*
X127331D01*
Y63074D01*
X126656D01*
X126224Y63507D01*
Y70993D01*
X134865Y79635D01*
X135130Y80032D01*
X135223Y80500D01*
Y91202D01*
X135246Y91034D01*
X135618Y90134D01*
X136212Y89361D01*
X136984Y88768D01*
X137884Y88395D01*
X138850Y88268D01*
X139816Y88395D01*
X140716Y88768D01*
X141489Y89361D01*
X142082Y90134D01*
X142455Y91034D01*
X142582Y92000D01*
X142455Y92966D01*
X142082Y93866D01*
X141489Y94639D01*
X140716Y95232D01*
X139816Y95605D01*
X138850Y95732D01*
X137884Y95605D01*
X136984Y95232D01*
X136212Y94639D01*
X135618Y93866D01*
X135246Y92966D01*
X135223Y92798D01*
Y107993D01*
X139507Y112276D01*
X155500D01*
X155968Y112370D01*
X156365Y112635D01*
X161737Y118007D01*
Y113039D01*
X161830Y112571D01*
X162095Y112174D01*
X162777Y111493D01*
Y78007D01*
X158635Y73865D01*
X158370Y73468D01*
X158276Y73000D01*
Y64000D01*
X158370Y63532D01*
X158635Y63135D01*
X160784Y60985D01*
X161181Y60720D01*
X161650Y60627D01*
X162331D01*
Y59083D01*
X167668D01*
Y64617D01*
X162331D01*
Y63074D01*
X162156D01*
X160723Y64507D01*
Y72493D01*
X164865Y76635D01*
X165130Y77032D01*
X165224Y77500D01*
Y91202D01*
X165246Y91034D01*
X165619Y90134D01*
X166211Y89361D01*
X166984Y88768D01*
X167885Y88395D01*
X168850Y88268D01*
X169816Y88395D01*
X170716Y88768D01*
X171489Y89361D01*
X172082Y90134D01*
X172455Y91034D01*
X172582Y92000D01*
X172455Y92966D01*
X172082Y93866D01*
X171489Y94639D01*
X170716Y95232D01*
X169816Y95605D01*
X168850Y95732D01*
X167885Y95605D01*
X166984Y95232D01*
X166211Y94639D01*
X165619Y93866D01*
X165246Y92966D01*
X165224Y92798D01*
Y112000D01*
X165130Y112468D01*
X164865Y112865D01*
X164184Y113546D01*
Y114086D01*
X168277Y109993D01*
Y107328D01*
X167914Y107086D01*
X167428Y106358D01*
X167257Y105500D01*
X167428Y104642D01*
X167914Y103914D01*
X168642Y103428D01*
X169500Y103257D01*
X170358Y103428D01*
X171086Y103914D01*
X171572Y104642D01*
X171743Y105500D01*
X171572Y106358D01*
X171086Y107086D01*
X170723Y107328D01*
Y110500D01*
X170630Y110968D01*
X170365Y111365D01*
X166153Y115578D01*
Y117117D01*
X171776Y111493D01*
Y110828D01*
X171414Y110586D01*
X170928Y109858D01*
X170757Y109000D01*
X170928Y108142D01*
X171414Y107414D01*
X172142Y106928D01*
X173000Y106757D01*
X173858Y106928D01*
X174586Y107414D01*
X175072Y108142D01*
X175243Y109000D01*
X175072Y109858D01*
X174586Y110586D01*
X174223Y110828D01*
Y112000D01*
X174130Y112468D01*
X173865Y112865D01*
X168121Y118609D01*
Y132548D01*
X168363Y132387D01*
X168866Y132287D01*
X169370Y132387D01*
X169797Y132672D01*
X169850Y132753D01*
X169904Y132672D01*
X170331Y132387D01*
X170835Y132287D01*
X171338Y132387D01*
X171765Y132672D01*
X171819Y132753D01*
X171873Y132672D01*
X172300Y132387D01*
X172803Y132287D01*
X173307Y132387D01*
X173548Y132548D01*
Y114728D01*
X173641Y114260D01*
X173906Y113863D01*
X189277Y98493D01*
Y74000D01*
X189370Y73532D01*
X189635Y73135D01*
X192342Y70428D01*
X192257Y70000D01*
X192428Y69142D01*
X192914Y68414D01*
X193642Y67928D01*
X194500Y67757D01*
X195358Y67928D01*
X196086Y68414D01*
X196572Y69142D01*
X196743Y70000D01*
X196572Y70858D01*
X196086Y71586D01*
X195358Y72072D01*
X194500Y72243D01*
X194072Y72158D01*
X191724Y74507D01*
Y99000D01*
X191712Y99058D01*
X191777Y98993D01*
Y78500D01*
X191870Y78032D01*
X192135Y77635D01*
X200777Y68993D01*
Y46728D01*
X200870Y46260D01*
X201135Y45863D01*
X206583Y40415D01*
Y36709D01*
X212117D01*
Y42046D01*
X208412D01*
X203223Y47235D01*
Y69500D01*
X203130Y69968D01*
X202865Y70365D01*
X194223Y79007D01*
Y99500D01*
X194130Y99968D01*
X193865Y100365D01*
X177964Y116267D01*
Y132187D01*
X178088Y132104D01*
X178709Y131981D01*
X179329Y132104D01*
X179478Y132203D01*
X179547Y131855D01*
X179812Y131458D01*
X184832Y126438D01*
Y121430D01*
X188340D01*
X188777Y120993D01*
Y117828D01*
X188414Y117586D01*
X187928Y116858D01*
X187757Y116000D01*
X187928Y115142D01*
X188414Y114414D01*
X189142Y113928D01*
X190000Y113757D01*
X190858Y113928D01*
X191586Y114414D01*
X192072Y115142D01*
X192243Y116000D01*
X192072Y116858D01*
X191586Y117586D01*
X191224Y117828D01*
Y118546D01*
X191635Y118135D01*
X192032Y117870D01*
X192500Y117777D01*
X234934D01*
Y116332D01*
X240468D01*
Y121669D01*
X234934D01*
Y120223D01*
X193007D01*
X190168Y123062D01*
Y124938D01*
X191507Y126277D01*
X199172D01*
X199414Y125914D01*
X200142Y125428D01*
X201000Y125257D01*
X201858Y125428D01*
X202586Y125914D01*
X203072Y126642D01*
X203243Y127500D01*
X203072Y128358D01*
X202586Y129086D01*
X201858Y129572D01*
X201000Y129743D01*
X200142Y129572D01*
X199414Y129086D01*
X199172Y128724D01*
X191000D01*
X190532Y128630D01*
X190135Y128365D01*
X188340Y126570D01*
X188160D01*
X181901Y132830D01*
Y133138D01*
X181993Y133602D01*
Y139311D01*
X181893Y139815D01*
X181608Y140242D01*
X181181Y140527D01*
X180677Y140627D01*
X180174Y140527D01*
X179922Y140358D01*
X179855Y140458D01*
X179329Y140809D01*
X178709Y140933D01*
X178088Y140809D01*
X177562Y140458D01*
X177496Y140359D01*
X177244Y140527D01*
X176740Y140627D01*
X176237Y140527D01*
X175810Y140242D01*
X175756Y140161D01*
X175702Y140242D01*
X175275Y140527D01*
X174772Y140627D01*
X174268Y140527D01*
X174027Y140366D01*
Y145073D01*
X174072Y145142D01*
X174243Y146000D01*
X174112Y146657D01*
X175842Y144928D01*
X175757Y144500D01*
X175928Y143642D01*
X176414Y142914D01*
X177142Y142428D01*
X178000Y142257D01*
X178858Y142428D01*
X179586Y142914D01*
X180072Y143642D01*
X180243Y144500D01*
X180072Y145358D01*
X179586Y146086D01*
X178858Y146572D01*
X178000Y146743D01*
X177572Y146658D01*
X171849Y152381D01*
X171452Y152646D01*
X170984Y152739D01*
X157716D01*
X157877Y152981D01*
X157977Y153484D01*
X157877Y153988D01*
X157592Y154415D01*
X157511Y154469D01*
X157592Y154522D01*
X157877Y154949D01*
X157977Y155453D01*
X157877Y155956D01*
X157592Y156383D01*
X157511Y156437D01*
X157592Y156491D01*
X157877Y156918D01*
X157977Y157421D01*
X157877Y157925D01*
X157592Y158352D01*
X157511Y158405D01*
X157592Y158459D01*
X157877Y158886D01*
X157977Y159390D01*
X157877Y159893D01*
X157592Y160320D01*
X157511Y160374D01*
X157592Y160428D01*
X157877Y160855D01*
X157977Y161358D01*
X157877Y161862D01*
X157592Y162289D01*
X157511Y162343D01*
X157592Y162396D01*
X157877Y162823D01*
X157977Y163327D01*
X157877Y163830D01*
X157592Y164257D01*
X157165Y164542D01*
X156661Y164643D01*
X151088D01*
X144865Y170865D01*
X144468Y171130D01*
X144223Y171179D01*
Y174000D01*
Y175046D01*
X151592Y167678D01*
X151988Y167413D01*
X152457Y167320D01*
X157708D01*
Y165689D01*
X157808Y165185D01*
X158093Y164759D01*
X158520Y164473D01*
X159024Y164373D01*
X159527Y164473D01*
X159779Y164642D01*
X159845Y164542D01*
X160372Y164191D01*
X160992Y164067D01*
X161613Y164191D01*
X162139Y164542D01*
X162205Y164642D01*
X162457Y164473D01*
X162961Y164373D01*
X163464Y164473D01*
X163891Y164759D01*
X163945Y164839D01*
X163999Y164759D01*
X164426Y164473D01*
X164929Y164373D01*
X165433Y164473D01*
X165860Y164759D01*
X165913Y164839D01*
X165967Y164759D01*
X166394Y164473D01*
X166898Y164373D01*
X167401Y164473D01*
X167828Y164759D01*
X167882Y164839D01*
X167936Y164759D01*
X168363Y164473D01*
X168866Y164373D01*
X169370Y164473D01*
X169797Y164759D01*
X169850Y164839D01*
X169904Y164759D01*
X170331Y164473D01*
X170835Y164373D01*
X171338Y164473D01*
X171765Y164759D01*
X171819Y164839D01*
X171873Y164759D01*
X172300Y164473D01*
X172803Y164373D01*
X173307Y164473D01*
X173734Y164759D01*
X173787Y164839D01*
X173841Y164759D01*
X174268Y164473D01*
X174772Y164373D01*
X175275Y164473D01*
X175702Y164759D01*
X175756Y164839D01*
X175810Y164759D01*
X176237Y164473D01*
X176740Y164373D01*
X177244Y164473D01*
X177671Y164759D01*
X177724Y164839D01*
X177778Y164759D01*
X178205Y164473D01*
X178709Y164373D01*
X179212Y164473D01*
X179639Y164759D01*
X179693Y164839D01*
X179747Y164759D01*
X180174Y164473D01*
X180677Y164373D01*
X181181Y164473D01*
X181608Y164759D01*
X181893Y165185D01*
X181993Y165689D01*
Y171398D01*
X181901Y171862D01*
Y174849D01*
X182263Y175091D01*
X182749Y175819D01*
X182920Y176677D01*
X182749Y177536D01*
X182263Y178263D01*
X181536Y178750D01*
X180677Y178920D01*
X179819Y178750D01*
X179091Y178263D01*
X178605Y177536D01*
X178434Y176677D01*
X178605Y175819D01*
X179091Y175091D01*
X179454Y174849D01*
Y172452D01*
X179212Y172613D01*
X178709Y172714D01*
X178205Y172613D01*
X177964Y172452D01*
Y178233D01*
X179072Y179342D01*
X179500Y179257D01*
X180358Y179428D01*
X181086Y179914D01*
X181572Y180642D01*
X181743Y181500D01*
X181572Y182358D01*
X181086Y183086D01*
X180358Y183572D01*
X179500Y183743D01*
X178642Y183572D01*
X177914Y183086D01*
X177428Y182358D01*
X177257Y181500D01*
X177342Y181072D01*
X175995Y179725D01*
Y181765D01*
X178007Y183776D01*
X250172D01*
X250414Y183414D01*
X250699Y183223D01*
X203000D01*
X202532Y183130D01*
X202135Y182865D01*
X198928Y179658D01*
X198500Y179743D01*
X197642Y179572D01*
X196914Y179086D01*
X196428Y178358D01*
X196257Y177500D01*
X196428Y176642D01*
X196767Y176134D01*
Y172818D01*
X195780D01*
Y171373D01*
X195150D01*
X194681Y171280D01*
X194284Y171015D01*
X187912Y164643D01*
X183039D01*
X182536Y164542D01*
X182109Y164257D01*
X181824Y163830D01*
X181724Y163327D01*
X181824Y162823D01*
X181992Y162571D01*
X181893Y162505D01*
X181541Y161979D01*
X181418Y161358D01*
X181541Y160738D01*
X181624Y160613D01*
X179939D01*
X179696Y160976D01*
X178969Y161462D01*
X178110Y161633D01*
X177252Y161462D01*
X176524Y160976D01*
X176038Y160248D01*
X175867Y159390D01*
X176038Y158531D01*
X176524Y157804D01*
X177252Y157317D01*
X178110Y157147D01*
X178969Y157317D01*
X179696Y157804D01*
X179939Y158166D01*
X181985D01*
X181824Y157925D01*
X181724Y157421D01*
X181824Y156918D01*
X182109Y156491D01*
X182190Y156437D01*
X182109Y156383D01*
X181824Y155956D01*
X181724Y155453D01*
X181824Y154949D01*
X182109Y154522D01*
X182190Y154469D01*
X182109Y154415D01*
X181824Y153988D01*
X181724Y153484D01*
X181824Y152981D01*
X182109Y152554D01*
X182190Y152500D01*
X182109Y152446D01*
X181824Y152019D01*
X181724Y151516D01*
X181824Y151012D01*
X182109Y150585D01*
X182190Y150531D01*
X182109Y150478D01*
X181824Y150051D01*
X181724Y149547D01*
X181824Y149044D01*
X182109Y148617D01*
X182190Y148563D01*
X182109Y148509D01*
X181824Y148082D01*
X181724Y147579D01*
X181824Y147075D01*
X182109Y146648D01*
X182190Y146595D01*
X182109Y146541D01*
X181824Y146114D01*
X181724Y145610D01*
X181824Y145107D01*
X182109Y144680D01*
X182190Y144626D01*
X182109Y144572D01*
X181824Y144145D01*
X181724Y143642D01*
X181824Y143138D01*
X182109Y142711D01*
X182190Y142657D01*
X182109Y142604D01*
X181824Y142177D01*
X181724Y141673D01*
X181824Y141170D01*
X182109Y140743D01*
X182536Y140457D01*
X183039Y140357D01*
X188748D01*
X189212Y140450D01*
X200820D01*
X214135Y127135D01*
X214532Y126870D01*
X215000Y126777D01*
X245993D01*
X252276Y120493D01*
Y100000D01*
X252370Y99532D01*
X252635Y99135D01*
X284277Y67493D01*
Y36007D01*
X257993Y9724D01*
X217007D01*
X210574Y16156D01*
Y18710D01*
X212117D01*
Y24047D01*
X206583D01*
Y18710D01*
X208127D01*
Y15650D01*
X208220Y15181D01*
X208485Y14785D01*
X215635Y7635D01*
X216032Y7370D01*
X216500Y7277D01*
X258500D01*
X258968Y7370D01*
X259365Y7635D01*
X286365Y34635D01*
X286630Y35032D01*
X286723Y35500D01*
Y68000D01*
X286630Y68468D01*
X286365Y68865D01*
X254724Y100507D01*
Y121000D01*
X254630Y121468D01*
X254365Y121865D01*
X247365Y128865D01*
X246968Y129130D01*
X246500Y129224D01*
X215507D01*
X202192Y142538D01*
X201795Y142804D01*
X201327Y142897D01*
X189802D01*
X189964Y143138D01*
X190064Y143642D01*
X189964Y144145D01*
X189803Y144387D01*
X211485D01*
X220328Y135545D01*
Y132725D01*
X224877D01*
Y137275D01*
X222058D01*
X212977Y146355D01*
X217681D01*
X218149Y146448D01*
X218546Y146714D01*
X222058Y150225D01*
X224877D01*
Y154775D01*
X220328D01*
Y151955D01*
X217174Y148802D01*
X196919D01*
X197086Y148914D01*
X197572Y149642D01*
X197743Y150500D01*
X197572Y151358D01*
X197086Y152086D01*
X196825Y152261D01*
X198309D01*
X198257Y152000D01*
X198428Y151142D01*
X198914Y150414D01*
X199642Y149928D01*
X200500Y149757D01*
X201358Y149928D01*
X202086Y150414D01*
X202572Y151142D01*
X202743Y152000D01*
X202572Y152858D01*
X202086Y153586D01*
X201358Y154072D01*
X200649Y154214D01*
X209437D01*
X209905Y154307D01*
X210302Y154572D01*
X225877Y170147D01*
X285696D01*
X285782Y170089D01*
X285974Y169960D01*
X285975Y169960D01*
X285975Y169960D01*
X286200Y169915D01*
X286243Y169907D01*
Y169755D01*
X285531D01*
X285063Y169662D01*
X284666Y169397D01*
X279635Y164365D01*
X279370Y163968D01*
X279276Y163500D01*
Y148172D01*
X278225D01*
Y143623D01*
X282775D01*
Y148172D01*
X281723D01*
Y162993D01*
X286038Y167308D01*
X286243D01*
Y167044D01*
X292957D01*
Y167308D01*
X294031D01*
X294500Y167401D01*
X294897Y167666D01*
X296865Y169635D01*
X297130Y170032D01*
X297223Y170500D01*
Y174172D01*
X297586Y174414D01*
X298072Y175142D01*
X298243Y176000D01*
X298072Y176858D01*
X297586Y177586D01*
X296858Y178072D01*
X296000Y178243D01*
X295142Y178072D01*
X294414Y177586D01*
X293928Y176858D01*
X293757Y176000D01*
X293928Y175142D01*
X294414Y174414D01*
X294777Y174172D01*
Y171007D01*
X293525Y169755D01*
X292957D01*
Y172162D01*
Y174721D01*
Y176980D01*
X293257D01*
Y179495D01*
X292000Y178237D01*
X290940Y179298D01*
X292197Y180555D01*
X287003D01*
X288260Y179298D01*
X287200Y178237D01*
X285943Y179495D01*
Y177432D01*
X284798D01*
X282723Y179507D01*
Y184000D01*
X282630Y184468D01*
X282365Y184865D01*
X278169Y189062D01*
Y192767D01*
X272832D01*
Y187233D01*
X276537D01*
X280276Y183493D01*
Y179000D01*
X280370Y178532D01*
X280635Y178135D01*
X283426Y175343D01*
X283664Y175184D01*
X283823Y175078D01*
X284291Y174985D01*
X286243D01*
Y174833D01*
X285974Y174780D01*
X285695Y174593D01*
X273168D01*
Y178117D01*
X267831D01*
Y174593D01*
X224542D01*
X224073Y174500D01*
X223676Y174235D01*
X208102Y158660D01*
X189854D01*
X189807Y158651D01*
X189964Y158886D01*
X190064Y159390D01*
X189964Y159893D01*
X189796Y160145D01*
X189895Y160212D01*
X190246Y160738D01*
X190370Y161358D01*
X190246Y161979D01*
X189895Y162505D01*
X189795Y162571D01*
X189964Y162823D01*
X190064Y163327D01*
X190063Y163332D01*
X195656Y168926D01*
X195780D01*
Y167481D01*
X200921D01*
Y172818D01*
X200233D01*
Y176134D01*
X200572Y176642D01*
X200743Y177500D01*
X200658Y177928D01*
X203507Y180777D01*
X218907D01*
X218833Y180727D01*
X220000Y179561D01*
X221167Y180727D01*
X221093Y180777D01*
X256907D01*
X256833Y180727D01*
X258000Y179561D01*
X259167Y180727D01*
X259093Y180777D01*
X267831D01*
Y178883D01*
X273168D01*
Y180277D01*
X274672D01*
X274914Y179914D01*
X275642Y179428D01*
X276500Y179257D01*
X277358Y179428D01*
X278086Y179914D01*
X278572Y180642D01*
X278743Y181500D01*
X278572Y182358D01*
X278086Y183086D01*
X277358Y183572D01*
X276500Y183743D01*
X275642Y183572D01*
X274914Y183086D01*
X274672Y182723D01*
X273168D01*
Y184416D01*
X267831D01*
Y183223D01*
X253301D01*
X253586Y183414D01*
X254072Y184142D01*
X254243Y185000D01*
X254072Y185858D01*
X253586Y186586D01*
X252858Y187072D01*
X252000Y187243D01*
X251142Y187072D01*
X250414Y186586D01*
X250172Y186223D01*
X177500D01*
X177032Y186130D01*
X176635Y185865D01*
X174027Y183257D01*
Y183296D01*
X178007Y187276D01*
X229172D01*
X229414Y186914D01*
X230142Y186428D01*
X231000Y186257D01*
X231858Y186428D01*
X232586Y186914D01*
X233072Y187642D01*
X233243Y188500D01*
X233072Y189358D01*
X232586Y190086D01*
X232301Y190277D01*
X246172D01*
X246414Y189914D01*
X247142Y189428D01*
X248000Y189257D01*
X248858Y189428D01*
X249586Y189914D01*
X250072Y190642D01*
X250243Y191500D01*
X250072Y192358D01*
X249586Y193086D01*
X248858Y193572D01*
X248000Y193743D01*
X247142Y193572D01*
X246414Y193086D01*
X246172Y192724D01*
X177000D01*
X176532Y192630D01*
X176135Y192365D01*
X170090Y186320D01*
Y186859D01*
X177007Y193777D01*
X241672D01*
X241914Y193414D01*
X242642Y192928D01*
X243500Y192757D01*
X244358Y192928D01*
X245086Y193414D01*
X245572Y194142D01*
X245743Y195000D01*
X245572Y195858D01*
X245086Y196586D01*
X244358Y197072D01*
X243500Y197243D01*
D02*
G37*
G36*
X7630Y181557D02*
Y177742D01*
X9538Y179650D01*
X7630Y181557D01*
D02*
G37*
G36*
X260227Y179667D02*
X259061Y178500D01*
X260227Y177333D01*
X260355Y177524D01*
X260549Y178500D01*
X260355Y179475D01*
X260227Y179667D01*
D02*
G37*
G36*
X222227D02*
X221061Y178500D01*
X222227Y177333D01*
X222355Y177524D01*
X222549Y178500D01*
X222355Y179475D01*
X222227Y179667D01*
D02*
G37*
G36*
X255773Y179667D02*
X255645Y179475D01*
X255451Y178500D01*
X255645Y177524D01*
X255773Y177333D01*
X256939Y178500D01*
X255773Y179667D01*
D02*
G37*
G36*
X217773D02*
X217645Y179475D01*
X217451Y178500D01*
X217645Y177524D01*
X217773Y177333D01*
X218939Y178500D01*
X217773Y179667D01*
D02*
G37*
G36*
X258000Y177439D02*
X256833Y176273D01*
X257025Y176145D01*
X258000Y175951D01*
X258976Y176145D01*
X259167Y176273D01*
X258000Y177439D01*
D02*
G37*
G36*
X220000D02*
X218833Y176273D01*
X219024Y176145D01*
X220000Y175951D01*
X220975Y176145D01*
X221167Y176273D01*
X220000Y177439D01*
D02*
G37*
G36*
X137109Y172870D02*
X133293D01*
X135201Y170962D01*
X137109Y172870D01*
D02*
G37*
G36*
X81484Y178589D02*
X81000Y178105D01*
Y170533D01*
X81484Y170049D01*
Y178589D01*
D02*
G37*
G36*
X135201Y170098D02*
X135102Y170000D01*
X135201Y169902D01*
X135299Y170000D01*
X135201Y170098D01*
D02*
G37*
G36*
X138169Y171809D02*
X136360Y170000D01*
X138169Y168191D01*
Y171809D01*
D02*
G37*
G36*
X132232Y171809D02*
Y168191D01*
X134042Y170000D01*
X132232Y171809D01*
D02*
G37*
G36*
X135201Y169038D02*
X133293Y167130D01*
X137109D01*
X135201Y169038D01*
D02*
G37*
G36*
X200160Y166819D02*
X196541D01*
X198350Y165009D01*
X200160Y166819D01*
D02*
G37*
G36*
X292397Y166579D02*
X287203D01*
X289800Y163982D01*
X292397Y166579D01*
D02*
G37*
G36*
X198350Y163949D02*
X198252Y163850D01*
X198350Y163752D01*
X198449Y163850D01*
X198350Y163949D01*
D02*
G37*
G36*
X293458Y165518D02*
X290330Y162391D01*
X289800Y162921D01*
X289270Y162391D01*
X286142Y165518D01*
Y157372D01*
X289270Y160499D01*
X289800Y159969D01*
X290330Y160499D01*
X293458Y157372D01*
Y165518D01*
D02*
G37*
G36*
X201220Y165758D02*
X199313Y163850D01*
X201220Y161943D01*
Y165758D01*
D02*
G37*
G36*
X195480Y165758D02*
Y161943D01*
X197388Y163850D01*
X195480Y165758D01*
D02*
G37*
G36*
X119500Y162549D02*
X118525Y162355D01*
X118333Y162227D01*
X119500Y161061D01*
X120667Y162227D01*
X120475Y162355D01*
X119500Y162549D01*
D02*
G37*
G36*
X198350Y162691D02*
X196541Y160882D01*
X200160D01*
X198350Y162691D01*
D02*
G37*
G36*
X52450Y270950D02*
X45550D01*
Y262050D01*
X45772D01*
Y259000D01*
X45882Y258165D01*
X46205Y257386D01*
X46718Y256718D01*
X55222Y248214D01*
X53000D01*
X52727Y248159D01*
X52495Y248005D01*
X52341Y247773D01*
X52286Y247500D01*
Y205500D01*
X52341Y205227D01*
X52495Y204995D01*
X52727Y204841D01*
X53000Y204786D01*
X66286D01*
Y189500D01*
X66341Y189227D01*
X66495Y188995D01*
X68621Y186870D01*
X69425Y186065D01*
X69657Y185911D01*
X69930Y185856D01*
X70222D01*
X70246Y185841D01*
X70286Y185833D01*
Y181130D01*
Y181000D01*
X70341Y180727D01*
X70495Y180495D01*
X71286Y179704D01*
Y179650D01*
X71000D01*
Y170000D01*
X71286D01*
X71341Y169727D01*
X71495Y169495D01*
X71727Y169341D01*
X72000Y169286D01*
X77000D01*
X77273Y169341D01*
X77505Y169495D01*
X77516Y169512D01*
X77659Y169727D01*
X77714Y170000D01*
Y179650D01*
Y179786D01*
X81000D01*
X81273Y179841D01*
X81505Y179995D01*
X81659Y180227D01*
X81714Y180500D01*
Y181556D01*
X83276Y179993D01*
Y179350D01*
X82816D01*
Y170000D01*
Y169288D01*
X86184D01*
Y170000D01*
Y179350D01*
X85724D01*
Y180500D01*
X85630Y180968D01*
X85365Y181365D01*
X81865Y184865D01*
X81714Y184966D01*
Y187222D01*
X91772Y177163D01*
Y168500D01*
Y163500D01*
X91882Y162665D01*
X92205Y161886D01*
X92718Y161218D01*
X93386Y160705D01*
X94165Y160382D01*
X95000Y160272D01*
X95835Y160382D01*
X96614Y160705D01*
X97282Y161218D01*
X97795Y161886D01*
X98118Y162665D01*
X98228Y163500D01*
Y178500D01*
X98118Y179335D01*
X97795Y180114D01*
X97282Y180782D01*
X81714Y196351D01*
Y247500D01*
X81659Y247773D01*
X81505Y248005D01*
X81273Y248159D01*
X81000Y248214D01*
X64351D01*
X52228Y260337D01*
Y262050D01*
X52450D01*
Y270950D01*
D02*
G37*
G36*
X303969Y163232D02*
X296609D01*
X300289Y159553D01*
X303969Y163232D01*
D02*
G37*
G36*
X121727Y161167D02*
X120561Y160000D01*
X121727Y158833D01*
X121855Y159025D01*
X122049Y160000D01*
X121855Y160976D01*
X121727Y161167D01*
D02*
G37*
G36*
X117273Y161167D02*
X117145Y160976D01*
X116951Y160000D01*
X117145Y159025D01*
X117273Y158833D01*
X118439Y160000D01*
X117273Y161167D01*
D02*
G37*
G36*
X300289Y158886D02*
X300092Y158689D01*
X300289Y158492D01*
X300486Y158689D01*
X300289Y158886D01*
D02*
G37*
G36*
X119500Y158939D02*
X118333Y157773D01*
X118525Y157645D01*
X119500Y157451D01*
X120475Y157645D01*
X120667Y157773D01*
X119500Y158939D01*
D02*
G37*
G36*
X289800Y158908D02*
X287203Y156311D01*
X292397D01*
X289800Y158908D01*
D02*
G37*
G36*
X295549Y162172D02*
Y155206D01*
X299031Y158689D01*
X295549Y162172D01*
D02*
G37*
G36*
X305029Y162172D02*
X301547Y158689D01*
X305029Y155206D01*
Y162172D01*
D02*
G37*
G36*
X300289Y157825D02*
X296609Y154146D01*
X303969D01*
X300289Y157825D01*
D02*
G37*
G36*
X240468Y155168D02*
X234934D01*
Y153724D01*
X231373D01*
Y154775D01*
X226824D01*
Y150225D01*
X231373D01*
Y151277D01*
X234934D01*
Y149831D01*
X240468D01*
Y155168D01*
D02*
G37*
G36*
X246006Y155468D02*
X241994D01*
X244000Y153462D01*
X246006Y155468D01*
D02*
G37*
G36*
X244000Y152598D02*
X243902Y152500D01*
X244000Y152402D01*
X244098Y152500D01*
X244000Y152598D01*
D02*
G37*
G36*
X247067Y154408D02*
X245159Y152500D01*
X247067Y150592D01*
Y154408D01*
D02*
G37*
G36*
X240933Y154408D02*
Y150592D01*
X242841Y152500D01*
X240933Y154408D01*
D02*
G37*
G36*
X244000Y151538D02*
X241994Y149531D01*
X246006D01*
X244000Y151538D01*
D02*
G37*
G36*
X302408Y148866D02*
X298592D01*
X300500Y146958D01*
X302408Y148866D01*
D02*
G37*
G36*
X300500Y145898D02*
X300402Y145799D01*
X300500Y145701D01*
X300598Y145799D01*
X300500Y145898D01*
D02*
G37*
G36*
X86184Y156712D02*
X82816D01*
Y146651D01*
X83276D01*
Y146110D01*
X83069Y145800D01*
X82910Y145000D01*
X83046Y144318D01*
X80724D01*
Y146651D01*
X81184D01*
Y156712D01*
X77816D01*
Y146651D01*
X78276D01*
Y144318D01*
X77930D01*
Y138981D01*
X83070D01*
Y144198D01*
X83522Y143522D01*
X84200Y143069D01*
X85000Y142910D01*
X85800Y143069D01*
X86478Y143522D01*
X86931Y144200D01*
X87090Y145000D01*
X86931Y145800D01*
X86478Y146478D01*
X86184Y146674D01*
Y156712D01*
D02*
G37*
G36*
X303468Y147806D02*
X301462Y145799D01*
X303468Y143793D01*
Y147806D01*
D02*
G37*
G36*
X297532Y147806D02*
Y143793D01*
X299538Y145799D01*
X297532Y147806D01*
D02*
G37*
G36*
X300500Y144640D02*
X298592Y142732D01*
X302408D01*
X300500Y144640D01*
D02*
G37*
G36*
X303169Y142267D02*
X297832D01*
Y140625D01*
X282775D01*
Y141676D01*
X278225D01*
Y137127D01*
X282775D01*
Y138178D01*
X297832D01*
Y136733D01*
X303169D01*
Y142267D01*
D02*
G37*
G36*
X82309Y138319D02*
X78691D01*
X80500Y136510D01*
X82309Y138319D01*
D02*
G37*
G36*
X240468Y137669D02*
X234934D01*
Y136223D01*
X231373D01*
Y137275D01*
X226824D01*
Y132725D01*
X231373D01*
Y133776D01*
X234934D01*
Y132332D01*
X240468D01*
Y137669D01*
D02*
G37*
G36*
X246006Y137969D02*
X241994D01*
X244000Y135962D01*
X246006Y137969D01*
D02*
G37*
G36*
X80500Y135449D02*
X80402Y135350D01*
X80500Y135252D01*
X80598Y135350D01*
X80500Y135449D01*
D02*
G37*
G36*
X244000Y135098D02*
X243902Y135000D01*
X244000Y134902D01*
X244098Y135000D01*
X244000Y135098D01*
D02*
G37*
G36*
X83370Y137258D02*
X81462Y135350D01*
X83370Y133443D01*
Y137258D01*
D02*
G37*
G36*
X77630Y137258D02*
Y133443D01*
X79538Y135350D01*
X77630Y137258D01*
D02*
G37*
G36*
X247067Y136908D02*
X245159Y135000D01*
X247067Y133092D01*
Y136908D01*
D02*
G37*
G36*
X240933Y136908D02*
Y133092D01*
X242841Y135000D01*
X240933Y136908D01*
D02*
G37*
G36*
X80500Y134191D02*
X78691Y132382D01*
X82309D01*
X80500Y134191D01*
D02*
G37*
G36*
X244000Y134038D02*
X241994Y132032D01*
X246006D01*
X244000Y134038D01*
D02*
G37*
G36*
X156057Y126870D02*
X152242D01*
X154150Y124962D01*
X156057Y126870D01*
D02*
G37*
G36*
X183109D02*
X179293D01*
X181201Y124962D01*
X183109Y126870D01*
D02*
G37*
G36*
X181201Y124098D02*
X181102Y124000D01*
X181201Y123902D01*
X181299Y124000D01*
X181201Y124098D01*
D02*
G37*
G36*
X154150D02*
X154051Y124000D01*
X154150Y123902D01*
X154248Y124000D01*
X154150Y124098D01*
D02*
G37*
G36*
X151181Y125809D02*
Y122191D01*
X152990Y124000D01*
X151181Y125809D01*
D02*
G37*
G36*
X157118Y125809D02*
X155309Y124000D01*
X157118Y122191D01*
Y125809D01*
D02*
G37*
G36*
X184169Y125809D02*
X182360Y124000D01*
X184169Y122191D01*
Y125809D01*
D02*
G37*
G36*
X178232Y125809D02*
Y122191D01*
X180042Y124000D01*
X178232Y125809D01*
D02*
G37*
G36*
X181201Y123038D02*
X179293Y121130D01*
X183109D01*
X181201Y123038D01*
D02*
G37*
G36*
X154150D02*
X152242Y121130D01*
X156057D01*
X154150Y123038D01*
D02*
G37*
G36*
X139701Y120750D02*
X138725Y120556D01*
X138534Y120428D01*
X139701Y119262D01*
X140867Y120428D01*
X140676Y120556D01*
X139701Y120750D01*
D02*
G37*
G36*
X181201D02*
X180225Y120556D01*
X180034Y120428D01*
X181201Y119262D01*
X182367Y120428D01*
X182176Y120556D01*
X181201Y120750D01*
D02*
G37*
G36*
X154299D02*
X153324Y120556D01*
X153133Y120428D01*
X154299Y119262D01*
X155466Y120428D01*
X155275Y120556D01*
X154299Y120750D01*
D02*
G37*
G36*
X156526Y119367D02*
X155360Y118201D01*
X156526Y117034D01*
X156654Y117225D01*
X156848Y118201D01*
X156654Y119176D01*
X156526Y119367D01*
D02*
G37*
G36*
X183428D02*
X182262Y118201D01*
X183428Y117034D01*
X183556Y117225D01*
X183750Y118201D01*
X183556Y119176D01*
X183428Y119367D01*
D02*
G37*
G36*
X141928D02*
X140761Y118201D01*
X141928Y117034D01*
X142056Y117225D01*
X142250Y118201D01*
X142056Y119176D01*
X141928Y119367D01*
D02*
G37*
G36*
X178974Y119367D02*
X178846Y119176D01*
X178652Y118201D01*
X178846Y117225D01*
X178974Y117034D01*
X180140Y118201D01*
X178974Y119367D01*
D02*
G37*
G36*
X152072D02*
X151944Y119176D01*
X151750Y118201D01*
X151944Y117225D01*
X152072Y117034D01*
X153238Y118201D01*
X152072Y119367D01*
D02*
G37*
G36*
X137474D02*
X137346Y119176D01*
X137152Y118201D01*
X137346Y117225D01*
X137474Y117034D01*
X138640Y118201D01*
X137474Y119367D01*
D02*
G37*
G36*
X181201Y117140D02*
X180034Y115974D01*
X180225Y115846D01*
X181201Y115652D01*
X182176Y115846D01*
X182367Y115974D01*
X181201Y117140D01*
D02*
G37*
G36*
X154299D02*
X153133Y115974D01*
X153324Y115846D01*
X154299Y115652D01*
X155275Y115846D01*
X155466Y115974D01*
X154299Y117140D01*
D02*
G37*
G36*
X139701D02*
X138534Y115974D01*
X138725Y115846D01*
X139701Y115652D01*
X140676Y115846D01*
X140867Y115974D01*
X139701Y117140D01*
D02*
G37*
G36*
X290500Y134733D02*
X288821Y134601D01*
X287183Y134208D01*
X285627Y133563D01*
X284191Y132683D01*
X282911Y131589D01*
X281817Y130309D01*
X280937Y128873D01*
X280292Y127317D01*
X279899Y125679D01*
X279767Y124000D01*
X279899Y122321D01*
X280292Y120683D01*
X280937Y119127D01*
X281817Y117691D01*
X282911Y116411D01*
X284191Y115317D01*
X285627Y114437D01*
X287183Y113792D01*
X288821Y113399D01*
X290500Y113267D01*
X292179Y113399D01*
X293817Y113792D01*
X295373Y114437D01*
X296809Y115317D01*
X298089Y116411D01*
X299183Y117691D01*
X300063Y119127D01*
X300708Y120683D01*
X301101Y122321D01*
X301233Y124000D01*
X301101Y125679D01*
X300708Y127317D01*
X300063Y128873D01*
X299183Y130309D01*
X298089Y131589D01*
X296809Y132683D01*
X295373Y133563D01*
X293817Y134208D01*
X292179Y134601D01*
X290500Y134733D01*
D02*
G37*
G36*
X110500D02*
X108821Y134601D01*
X107183Y134208D01*
X105627Y133563D01*
X104191Y132683D01*
X102911Y131589D01*
X101817Y130309D01*
X100937Y128873D01*
X100292Y127317D01*
X99899Y125679D01*
X99767Y124000D01*
X99899Y122321D01*
X100292Y120683D01*
X100937Y119127D01*
X101817Y117691D01*
X102911Y116411D01*
X104191Y115317D01*
X105627Y114437D01*
X107183Y113792D01*
X108821Y113399D01*
X110500Y113267D01*
X112179Y113399D01*
X113817Y113792D01*
X115373Y114437D01*
X116809Y115317D01*
X118089Y116411D01*
X119183Y117691D01*
X120063Y119127D01*
X120708Y120683D01*
X121101Y122321D01*
X121233Y124000D01*
X121101Y125679D01*
X120708Y127317D01*
X120063Y128873D01*
X119183Y130309D01*
X118089Y131589D01*
X116809Y132683D01*
X115373Y133563D01*
X113817Y134208D01*
X112179Y134601D01*
X110500Y134733D01*
D02*
G37*
G36*
X277000Y112049D02*
X276025Y111855D01*
X275833Y111727D01*
X277000Y110561D01*
X278167Y111727D01*
X277976Y111855D01*
X277000Y112049D01*
D02*
G37*
G36*
X122000D02*
X121025Y111855D01*
X120833Y111727D01*
X122000Y110561D01*
X123167Y111727D01*
X122976Y111855D01*
X122000Y112049D01*
D02*
G37*
G36*
X279227Y110667D02*
X278061Y109500D01*
X279227Y108333D01*
X279355Y108525D01*
X279549Y109500D01*
X279355Y110476D01*
X279227Y110667D01*
D02*
G37*
G36*
X124227D02*
X123061Y109500D01*
X124227Y108333D01*
X124355Y108525D01*
X124549Y109500D01*
X124355Y110476D01*
X124227Y110667D01*
D02*
G37*
G36*
X274773Y110667D02*
X274645Y110476D01*
X274451Y109500D01*
X274645Y108525D01*
X274773Y108333D01*
X275939Y109500D01*
X274773Y110667D01*
D02*
G37*
G36*
X119773D02*
X119645Y110476D01*
X119451Y109500D01*
X119645Y108525D01*
X119773Y108333D01*
X120939Y109500D01*
X119773Y110667D01*
D02*
G37*
G36*
X246767Y121669D02*
X241233D01*
Y116332D01*
X242776D01*
Y109617D01*
X240239D01*
Y107582D01*
X216462D01*
Y109617D01*
X208940D01*
Y107582D01*
X204559D01*
X204091Y107489D01*
X203694Y107223D01*
X199789Y103318D01*
X197912D01*
X187158Y114072D01*
X187243Y114500D01*
X187072Y115358D01*
X186586Y116086D01*
X185858Y116572D01*
X185000Y116743D01*
X184142Y116572D01*
X183414Y116086D01*
X182928Y115358D01*
X182757Y114500D01*
X182928Y113642D01*
X183414Y112914D01*
X184142Y112428D01*
X185000Y112257D01*
X185428Y112342D01*
X196280Y101489D01*
Y97981D01*
X201420D01*
Y101489D01*
X205066Y105135D01*
X208940D01*
Y103099D01*
X216462D01*
Y105135D01*
X240239D01*
Y103099D01*
X247761D01*
Y109617D01*
X245223D01*
Y116332D01*
X246767D01*
Y121669D01*
D02*
G37*
G36*
X277000Y108439D02*
X275833Y107273D01*
X276025Y107145D01*
X277000Y106951D01*
X277976Y107145D01*
X278167Y107273D01*
X277000Y108439D01*
D02*
G37*
G36*
X122000D02*
X120833Y107273D01*
X121025Y107145D01*
X122000Y106951D01*
X122976Y107145D01*
X123167Y107273D01*
X122000Y108439D01*
D02*
G37*
G36*
X200660Y97319D02*
X197041D01*
X198850Y95509D01*
X200660Y97319D01*
D02*
G37*
G36*
X198850Y94449D02*
X198752Y94350D01*
X198850Y94252D01*
X198949Y94350D01*
X198850Y94449D01*
D02*
G37*
G36*
X148850Y96034D02*
X147806Y95897D01*
X146833Y95494D01*
X146598Y95313D01*
X148850Y93061D01*
X151103Y95313D01*
X150868Y95494D01*
X149895Y95897D01*
X148850Y96034D01*
D02*
G37*
G36*
X201720Y96258D02*
X199813Y94350D01*
X201720Y92443D01*
Y96258D01*
D02*
G37*
G36*
X195980Y96258D02*
Y92443D01*
X197888Y94350D01*
X195980Y96258D01*
D02*
G37*
G36*
X198850Y93191D02*
X197041Y91382D01*
X200660D01*
X198850Y93191D01*
D02*
G37*
G36*
X145537Y94253D02*
X145356Y94017D01*
X144953Y93044D01*
X144816Y92000D01*
X144953Y90956D01*
X145356Y89983D01*
X145537Y89747D01*
X147790Y92000D01*
X145537Y94253D01*
D02*
G37*
G36*
X152164D02*
X149911Y92000D01*
X152164Y89747D01*
X152344Y89983D01*
X152747Y90956D01*
X152885Y92000D01*
X152747Y93044D01*
X152344Y94017D01*
X152164Y94253D01*
D02*
G37*
G36*
X215701Y92201D02*
X209700D01*
X212701Y89201D01*
X215701Y92201D01*
D02*
G37*
G36*
X247000D02*
X241000D01*
X244000Y89201D01*
X247000Y92201D01*
D02*
G37*
G36*
X257000Y90049D02*
X256025Y89855D01*
X255833Y89727D01*
X257000Y88561D01*
X258167Y89727D01*
X257976Y89855D01*
X257000Y90049D01*
D02*
G37*
G36*
X89500D02*
X88525Y89855D01*
X88333Y89727D01*
X89500Y88561D01*
X90667Y89727D01*
X90475Y89855D01*
X89500Y90049D01*
D02*
G37*
G36*
X178850Y95732D02*
X177884Y95605D01*
X176984Y95232D01*
X176212Y94639D01*
X175619Y93866D01*
X175246Y92966D01*
X175119Y92000D01*
X175246Y91034D01*
X175619Y90134D01*
X176212Y89361D01*
X176984Y88768D01*
X177884Y88395D01*
X178850Y88268D01*
X179816Y88395D01*
X180716Y88768D01*
X181489Y89361D01*
X182082Y90134D01*
X182455Y91034D01*
X182582Y92000D01*
X182455Y92966D01*
X182082Y93866D01*
X181489Y94639D01*
X180716Y95232D01*
X179816Y95605D01*
X178850Y95732D01*
D02*
G37*
G36*
X152000Y105743D02*
X151142Y105572D01*
X150414Y105086D01*
X149928Y104358D01*
X149757Y103500D01*
X149928Y102642D01*
X150414Y101914D01*
X151142Y101428D01*
X152000Y101257D01*
X152428Y101342D01*
X157627Y96143D01*
Y95498D01*
X156984Y95232D01*
X156211Y94639D01*
X155619Y93866D01*
X155246Y92966D01*
X155119Y92000D01*
X155246Y91034D01*
X155619Y90134D01*
X156211Y89361D01*
X156984Y88768D01*
X157885Y88395D01*
X158850Y88268D01*
X159816Y88395D01*
X160716Y88768D01*
X161489Y89361D01*
X162082Y90134D01*
X162455Y91034D01*
X162582Y92000D01*
X162455Y92966D01*
X162082Y93866D01*
X161489Y94639D01*
X160716Y95232D01*
X160074Y95498D01*
Y96650D01*
X159981Y97118D01*
X159716Y97515D01*
X154158Y103072D01*
X154243Y103500D01*
X154072Y104358D01*
X153586Y105086D01*
X152858Y105572D01*
X152000Y105743D01*
D02*
G37*
G36*
X244000Y89144D02*
X243498Y88642D01*
X244000Y88140D01*
X244502Y88642D01*
X244000Y89144D01*
D02*
G37*
G36*
X212701D02*
X212199Y88642D01*
X212701Y88140D01*
X213203Y88642D01*
X212701Y89144D01*
D02*
G37*
G36*
X148850Y90939D02*
X146598Y88687D01*
X146833Y88506D01*
X147806Y88103D01*
X148850Y87966D01*
X149895Y88103D01*
X150868Y88506D01*
X151103Y88687D01*
X148850Y90939D01*
D02*
G37*
G36*
X259227Y88667D02*
X258061Y87500D01*
X259227Y86333D01*
X259355Y86524D01*
X259549Y87500D01*
X259355Y88476D01*
X259227Y88667D01*
D02*
G37*
G36*
X91727D02*
X90561Y87500D01*
X91727Y86333D01*
X91855Y86524D01*
X92049Y87500D01*
X91855Y88476D01*
X91727Y88667D01*
D02*
G37*
G36*
X254773Y88667D02*
X254645Y88476D01*
X254451Y87500D01*
X254645Y86524D01*
X254773Y86333D01*
X255939Y87500D01*
X254773Y88667D01*
D02*
G37*
G36*
X87273D02*
X87145Y88476D01*
X86951Y87500D01*
X87145Y86524D01*
X87273Y86333D01*
X88439Y87500D01*
X87273Y88667D01*
D02*
G37*
G36*
X239939Y91140D02*
Y86143D01*
X242437Y88642D01*
X239939Y91140D01*
D02*
G37*
G36*
X208640D02*
Y86143D01*
X211138Y88642D01*
X208640Y91140D01*
D02*
G37*
G36*
X248061Y91140D02*
X245563Y88642D01*
X248061Y86143D01*
Y91140D01*
D02*
G37*
G36*
X216762D02*
X214263Y88642D01*
X216762Y86143D01*
Y91140D01*
D02*
G37*
G36*
X244000Y88083D02*
X241000Y85083D01*
X247000D01*
X244000Y88083D01*
D02*
G37*
G36*
X212701D02*
X209700Y85083D01*
X215701D01*
X212701Y88083D01*
D02*
G37*
G36*
X257000Y86439D02*
X255833Y85273D01*
X256025Y85145D01*
X257000Y84951D01*
X257976Y85145D01*
X258167Y85273D01*
X257000Y86439D01*
D02*
G37*
G36*
X89500D02*
X88333Y85273D01*
X88525Y85145D01*
X89500Y84951D01*
X90475Y85145D01*
X90667Y85273D01*
X89500Y86439D01*
D02*
G37*
G36*
X111500Y83243D02*
X110642Y83072D01*
X109914Y82586D01*
X109672Y82223D01*
X60500D01*
X60032Y82130D01*
X59635Y81865D01*
X53135Y75365D01*
X52870Y74968D01*
X52776Y74500D01*
Y63500D01*
X52870Y63032D01*
X53135Y62635D01*
X54785Y60985D01*
X55181Y60720D01*
X55650Y60627D01*
X57332D01*
Y59083D01*
X62669D01*
Y64617D01*
X57332D01*
Y63074D01*
X56156D01*
X55224Y64007D01*
Y73993D01*
X61007Y79777D01*
X109672D01*
X109914Y79414D01*
X110642Y78928D01*
X111500Y78757D01*
X112358Y78928D01*
X113086Y79414D01*
X113572Y80142D01*
X113743Y81000D01*
X113572Y81858D01*
X113086Y82586D01*
X112358Y83072D01*
X111500Y83243D01*
D02*
G37*
G36*
X167668Y70916D02*
X162331D01*
Y65383D01*
X167668D01*
Y66517D01*
X175288D01*
Y64981D01*
X180231D01*
Y69137D01*
X175288D01*
Y68964D01*
X167668D01*
Y70916D01*
D02*
G37*
G36*
X132668D02*
X127331D01*
Y65383D01*
X132668D01*
Y66426D01*
X140288D01*
Y64981D01*
X145231D01*
Y69137D01*
X140288D01*
Y68873D01*
X132668D01*
Y70916D01*
D02*
G37*
G36*
X97668Y70416D02*
X92331D01*
Y64883D01*
X97668D01*
Y66426D01*
X105288D01*
Y64981D01*
X110231D01*
Y69137D01*
X105288D01*
Y68873D01*
X97668D01*
Y70416D01*
D02*
G37*
G36*
X62669Y70916D02*
X57332D01*
Y65383D01*
X62669D01*
Y66517D01*
X70288D01*
Y64981D01*
X75231D01*
Y69137D01*
X70288D01*
Y68964D01*
X62669D01*
Y70916D01*
D02*
G37*
G36*
X97668Y64117D02*
X92331D01*
Y62723D01*
X90328D01*
X90086Y63086D01*
X89358Y63572D01*
X88500Y63743D01*
X87642Y63572D01*
X86914Y63086D01*
X86428Y62358D01*
X86257Y61500D01*
X86428Y60642D01*
X86914Y59914D01*
X87642Y59428D01*
X88500Y59257D01*
X89358Y59428D01*
X90086Y59914D01*
X90328Y60277D01*
X92331D01*
Y58583D01*
X97668D01*
Y64117D01*
D02*
G37*
G36*
X179471Y64319D02*
X176049D01*
X177760Y62608D01*
X179471Y64319D01*
D02*
G37*
G36*
X144471D02*
X141049D01*
X142760Y62608D01*
X144471Y64319D01*
D02*
G37*
G36*
X109471D02*
X106049D01*
X107760Y62608D01*
X109471Y64319D01*
D02*
G37*
G36*
X74471D02*
X71049D01*
X72760Y62608D01*
X74471Y64319D01*
D02*
G37*
G36*
X177760Y62335D02*
X177366Y61941D01*
X177760Y61547D01*
X178154Y61941D01*
X177760Y62335D01*
D02*
G37*
G36*
X142760D02*
X142366Y61941D01*
X142760Y61547D01*
X143154Y61941D01*
X142760Y62335D01*
D02*
G37*
G36*
X107760D02*
X107366Y61941D01*
X107760Y61547D01*
X108153Y61941D01*
X107760Y62335D01*
D02*
G37*
G36*
X72760D02*
X72366Y61941D01*
X72760Y61547D01*
X73154Y61941D01*
X72760Y62335D01*
D02*
G37*
G36*
X69988Y63258D02*
Y60624D01*
X71305Y61941D01*
X69988Y63258D01*
D02*
G37*
G36*
X139988D02*
Y60624D01*
X141305Y61941D01*
X139988Y63258D01*
D02*
G37*
G36*
X104988D02*
Y60624D01*
X106305Y61941D01*
X104988Y63258D01*
D02*
G37*
G36*
X174988D02*
Y60624D01*
X176305Y61941D01*
X174988Y63258D01*
D02*
G37*
G36*
X145531Y63258D02*
X144214Y61941D01*
X145531Y60624D01*
Y63258D01*
D02*
G37*
G36*
X180531D02*
X179214Y61941D01*
X180531Y60624D01*
Y63258D01*
D02*
G37*
G36*
X75531D02*
X74214Y61941D01*
X75531Y60624D01*
Y63258D01*
D02*
G37*
G36*
X110531D02*
X109214Y61941D01*
X110531Y60624D01*
Y63258D01*
D02*
G37*
G36*
X177760Y61274D02*
X176049Y59563D01*
X179471D01*
X177760Y61274D01*
D02*
G37*
G36*
X142760D02*
X141049Y59563D01*
X144471D01*
X142760Y61274D01*
D02*
G37*
G36*
X107760D02*
X106049Y59563D01*
X109471D01*
X107760Y61274D01*
D02*
G37*
G36*
X72760D02*
X71049Y59563D01*
X74471D01*
X72760Y61274D01*
D02*
G37*
G36*
X276500Y64980D02*
X274500D01*
X273599Y64861D01*
X272760Y64514D01*
X272039Y63961D01*
X271677Y63488D01*
X264000D01*
X263239Y63337D01*
X262594Y62906D01*
X256054Y56366D01*
X237212D01*
Y56456D01*
X232269D01*
Y52300D01*
X237212D01*
Y52390D01*
X256878D01*
X257639Y52541D01*
X258284Y52972D01*
X264824Y59512D01*
X271677D01*
X272039Y59039D01*
X272760Y58486D01*
X273599Y58139D01*
X274500Y58020D01*
X276500D01*
X277401Y58139D01*
X278240Y58486D01*
X278961Y59039D01*
X279514Y59760D01*
X279861Y60599D01*
X279980Y61500D01*
X279861Y62401D01*
X279514Y63240D01*
X278961Y63961D01*
X278240Y64514D01*
X277401Y64861D01*
X276500Y64980D01*
D02*
G37*
G36*
X209000Y72243D02*
X208142Y72072D01*
X207414Y71586D01*
X206928Y70858D01*
X206757Y70000D01*
X206928Y69142D01*
X207414Y68414D01*
X208127Y67937D01*
Y61046D01*
X206583D01*
Y55709D01*
X212117D01*
Y61046D01*
X210574D01*
Y68406D01*
X210586Y68414D01*
X211072Y69142D01*
X211243Y70000D01*
X211072Y70858D01*
X210586Y71586D01*
X209858Y72072D01*
X209000Y72243D01*
D02*
G37*
G36*
X218417Y61046D02*
X212883D01*
Y55709D01*
X218417D01*
Y56390D01*
X220299D01*
X221157Y55531D01*
X221802Y55100D01*
X222563Y54949D01*
X224788D01*
Y54859D01*
X229731D01*
Y59015D01*
X224788D01*
Y58925D01*
X223387D01*
X222528Y59784D01*
X221883Y60215D01*
X221122Y60366D01*
X218417D01*
Y61046D01*
D02*
G37*
G36*
X219500Y54368D02*
X218525Y54174D01*
X218333Y54046D01*
X219500Y52880D01*
X220667Y54046D01*
X220476Y54174D01*
X219500Y54368D01*
D02*
G37*
G36*
X228971Y54197D02*
X225549D01*
X227260Y52486D01*
X228971Y54197D01*
D02*
G37*
G36*
X227260Y52213D02*
X226866Y51819D01*
X227260Y51425D01*
X227654Y51819D01*
X227260Y52213D01*
D02*
G37*
G36*
X221727Y52986D02*
X220561Y51819D01*
X221727Y50652D01*
X221855Y50844D01*
X222049Y51819D01*
X221855Y52794D01*
X221727Y52986D01*
D02*
G37*
G36*
X217273Y52986D02*
X217145Y52794D01*
X216951Y51819D01*
X217145Y50844D01*
X217273Y50652D01*
X218439Y51819D01*
X217273Y52986D01*
D02*
G37*
G36*
X34949Y57606D02*
X32949D01*
X32048Y57487D01*
X31209Y57140D01*
X30488Y56587D01*
X29935Y55866D01*
X29588Y55027D01*
X29469Y54126D01*
X29588Y53225D01*
X29935Y52386D01*
X30488Y51665D01*
X31209Y51112D01*
X32048Y50765D01*
X32949Y50646D01*
X34949D01*
X35849Y50765D01*
X36689Y51112D01*
X37409Y51665D01*
X37962Y52386D01*
X38310Y53225D01*
X38429Y54126D01*
X38310Y55027D01*
X37962Y55866D01*
X37409Y56587D01*
X36689Y57140D01*
X35849Y57487D01*
X34949Y57606D01*
D02*
G37*
G36*
X224488Y53136D02*
Y50502D01*
X225805Y51819D01*
X224488Y53136D01*
D02*
G37*
G36*
X230031Y53136D02*
X228714Y51819D01*
X230031Y50502D01*
Y53136D01*
D02*
G37*
G36*
X276500Y57106D02*
X274500D01*
X273599Y56987D01*
X272760Y56640D01*
X272039Y56087D01*
X271677Y55614D01*
X266126D01*
X265365Y55463D01*
X264720Y55032D01*
X247554Y37866D01*
X237212D01*
Y37956D01*
X232269D01*
Y33800D01*
X237212D01*
Y33890D01*
X248378D01*
X249139Y34041D01*
X249784Y34472D01*
X266950Y51638D01*
X271677D01*
X272039Y51165D01*
X272760Y50612D01*
X273599Y50265D01*
X274500Y50146D01*
X276500D01*
X277401Y50265D01*
X278240Y50612D01*
X278961Y51165D01*
X279514Y51886D01*
X279861Y52725D01*
X279980Y53626D01*
X279861Y54527D01*
X279514Y55366D01*
X278961Y56087D01*
X278240Y56640D01*
X277401Y56987D01*
X276500Y57106D01*
D02*
G37*
G36*
X227260Y51152D02*
X225549Y49441D01*
X228971D01*
X227260Y51152D01*
D02*
G37*
G36*
X219500Y50758D02*
X218333Y49592D01*
X218525Y49464D01*
X219500Y49270D01*
X220476Y49464D01*
X220667Y49592D01*
X219500Y50758D01*
D02*
G37*
G36*
X170091Y49927D02*
X169115Y49733D01*
X168924Y49605D01*
X170091Y48439D01*
X171257Y49605D01*
X171066Y49733D01*
X170091Y49927D01*
D02*
G37*
G36*
X135091D02*
X134115Y49733D01*
X133924Y49605D01*
X135091Y48439D01*
X136257Y49605D01*
X136066Y49733D01*
X135091Y49927D01*
D02*
G37*
G36*
X100091D02*
X99115Y49733D01*
X98924Y49605D01*
X100091Y48439D01*
X101257Y49605D01*
X101066Y49733D01*
X100091Y49927D01*
D02*
G37*
G36*
X72878D02*
X71903Y49733D01*
X71711Y49605D01*
X72878Y48439D01*
X74045Y49605D01*
X73853Y49733D01*
X72878Y49927D01*
D02*
G37*
G36*
X75105Y48545D02*
X73939Y47378D01*
X75105Y46211D01*
X75233Y46403D01*
X75427Y47378D01*
X75233Y48353D01*
X75105Y48545D01*
D02*
G37*
G36*
X172318D02*
X171151Y47378D01*
X172318Y46211D01*
X172446Y46403D01*
X172640Y47378D01*
X172446Y48353D01*
X172318Y48545D01*
D02*
G37*
G36*
X137318D02*
X136151Y47378D01*
X137318Y46211D01*
X137446Y46403D01*
X137640Y47378D01*
X137446Y48353D01*
X137318Y48545D01*
D02*
G37*
G36*
X102318D02*
X101151Y47378D01*
X102318Y46211D01*
X102446Y46403D01*
X102640Y47378D01*
X102446Y48353D01*
X102318Y48545D01*
D02*
G37*
G36*
X167863Y48545D02*
X167736Y48353D01*
X167542Y47378D01*
X167736Y46403D01*
X167863Y46211D01*
X169030Y47378D01*
X167863Y48545D01*
D02*
G37*
G36*
X132863D02*
X132736Y48353D01*
X132542Y47378D01*
X132736Y46403D01*
X132863Y46211D01*
X134030Y47378D01*
X132863Y48545D01*
D02*
G37*
G36*
X97863D02*
X97736Y48353D01*
X97542Y47378D01*
X97736Y46403D01*
X97863Y46211D01*
X99030Y47378D01*
X97863Y48545D01*
D02*
G37*
G36*
X70651D02*
X70523Y48353D01*
X70329Y47378D01*
X70523Y46403D01*
X70651Y46211D01*
X71817Y47378D01*
X70651Y48545D01*
D02*
G37*
G36*
X170091Y46317D02*
X168924Y45151D01*
X169115Y45023D01*
X170091Y44829D01*
X171066Y45023D01*
X171257Y45151D01*
X170091Y46317D01*
D02*
G37*
G36*
X135091D02*
X133924Y45151D01*
X134115Y45023D01*
X135091Y44829D01*
X136066Y45023D01*
X136257Y45151D01*
X135091Y46317D01*
D02*
G37*
G36*
X100091D02*
X98924Y45151D01*
X99115Y45023D01*
X100091Y44829D01*
X101066Y45023D01*
X101257Y45151D01*
X100091Y46317D01*
D02*
G37*
G36*
X72878D02*
X71711Y45151D01*
X71903Y45023D01*
X72878Y44829D01*
X73853Y45023D01*
X74045Y45151D01*
X72878Y46317D01*
D02*
G37*
G36*
X276500Y49232D02*
X274500D01*
X273599Y49113D01*
X272760Y48766D01*
X272039Y48213D01*
X271677Y47740D01*
X268252D01*
X267491Y47589D01*
X266846Y47158D01*
X239054Y19366D01*
X237212D01*
Y19456D01*
X232269D01*
Y15300D01*
X237212D01*
Y15390D01*
X239878D01*
X240639Y15541D01*
X241284Y15972D01*
X269075Y43764D01*
X271677D01*
X272039Y43291D01*
X272760Y42738D01*
X273599Y42391D01*
X274500Y42272D01*
X276500D01*
X277401Y42391D01*
X278240Y42738D01*
X278961Y43291D01*
X279514Y44012D01*
X279861Y44851D01*
X279980Y45752D01*
X279861Y46653D01*
X279514Y47492D01*
X278961Y48213D01*
X278240Y48766D01*
X277401Y49113D01*
X276500Y49232D01*
D02*
G37*
G36*
X185240Y67223D02*
X184535Y67131D01*
X183879Y66859D01*
X183513Y66578D01*
X182769D01*
Y65588D01*
X182610Y65205D01*
X182517Y64500D01*
X182610Y63795D01*
X182769Y63412D01*
Y62422D01*
X183304D01*
Y41782D01*
X179929Y38407D01*
X179374Y38480D01*
X178473Y38361D01*
X177634Y38014D01*
X176913Y37461D01*
X176360Y36740D01*
X176013Y35901D01*
X175894Y35000D01*
Y33000D01*
X176013Y32099D01*
X176360Y31260D01*
X176913Y30539D01*
X177634Y29986D01*
X178473Y29639D01*
X179374Y29520D01*
X180275Y29639D01*
X181114Y29986D01*
X181835Y30539D01*
X182388Y31260D01*
X182735Y32099D01*
X182854Y33000D01*
Y33628D01*
X187953Y38728D01*
X188386Y39292D01*
X188658Y39949D01*
X188669Y40031D01*
X188751Y40654D01*
Y63713D01*
X188669Y64336D01*
X188658Y64417D01*
X188386Y65074D01*
X187953Y65638D01*
X187712Y65880D01*
Y66578D01*
X186967D01*
X186602Y66859D01*
X185945Y67131D01*
X185240Y67223D01*
D02*
G37*
G36*
X150240D02*
X149535Y67131D01*
X148879Y66859D01*
X148513Y66578D01*
X147769D01*
Y65588D01*
X147610Y65205D01*
X147517Y64500D01*
X147610Y63795D01*
X147769Y63412D01*
Y62422D01*
X148304D01*
Y41782D01*
X144929Y38407D01*
X144374Y38480D01*
X143473Y38361D01*
X142634Y38014D01*
X141913Y37461D01*
X141360Y36740D01*
X141013Y35901D01*
X140894Y35000D01*
Y33000D01*
X141013Y32099D01*
X141360Y31260D01*
X141913Y30539D01*
X142634Y29986D01*
X143473Y29639D01*
X144374Y29520D01*
X145275Y29639D01*
X146114Y29986D01*
X146835Y30539D01*
X147388Y31260D01*
X147735Y32099D01*
X147854Y33000D01*
Y33628D01*
X152953Y38728D01*
X153386Y39292D01*
X153658Y39949D01*
X153669Y40031D01*
X153751Y40654D01*
Y63713D01*
X153669Y64336D01*
X153658Y64417D01*
X153386Y65074D01*
X152953Y65638D01*
X152712Y65880D01*
Y66578D01*
X151967D01*
X151602Y66859D01*
X150945Y67131D01*
X150240Y67223D01*
D02*
G37*
G36*
X115240D02*
X114535Y67131D01*
X113879Y66859D01*
X113513Y66578D01*
X112769D01*
Y65588D01*
X112610Y65205D01*
X112517Y64500D01*
X112610Y63795D01*
X112769Y63412D01*
Y62422D01*
X113304D01*
Y41782D01*
X109929Y38407D01*
X109374Y38480D01*
X108473Y38361D01*
X107634Y38014D01*
X106913Y37461D01*
X106360Y36740D01*
X106013Y35901D01*
X105894Y35000D01*
Y33000D01*
X106013Y32099D01*
X106360Y31260D01*
X106913Y30539D01*
X107634Y29986D01*
X108473Y29639D01*
X109374Y29520D01*
X110275Y29639D01*
X111114Y29986D01*
X111835Y30539D01*
X112388Y31260D01*
X112735Y32099D01*
X112854Y33000D01*
Y33628D01*
X117953Y38728D01*
X118386Y39292D01*
X118658Y39949D01*
X118669Y40031D01*
X118751Y40654D01*
Y63713D01*
X118669Y64336D01*
X118658Y64417D01*
X118386Y65074D01*
X117953Y65638D01*
X117712Y65880D01*
Y66578D01*
X116967D01*
X116602Y66859D01*
X115945Y67131D01*
X115240Y67223D01*
D02*
G37*
G36*
X80240D02*
X79535Y67131D01*
X78878Y66859D01*
X78513Y66578D01*
X77769D01*
Y65588D01*
X77610Y65205D01*
X77517Y64500D01*
X77610Y63795D01*
X77769Y63412D01*
Y62422D01*
X78304D01*
Y41782D01*
X74929Y38407D01*
X74374Y38480D01*
X73473Y38361D01*
X72634Y38014D01*
X71913Y37461D01*
X71360Y36740D01*
X71013Y35901D01*
X70894Y35000D01*
Y33000D01*
X71013Y32099D01*
X71360Y31260D01*
X71913Y30539D01*
X72634Y29986D01*
X73473Y29639D01*
X74374Y29520D01*
X75275Y29639D01*
X76114Y29986D01*
X76835Y30539D01*
X77388Y31260D01*
X77735Y32099D01*
X77854Y33000D01*
Y33628D01*
X82953Y38728D01*
X83386Y39292D01*
X83658Y39949D01*
X83669Y40031D01*
X83751Y40654D01*
Y63713D01*
X83669Y64336D01*
X83658Y64417D01*
X83386Y65074D01*
X82953Y65638D01*
X82712Y65880D01*
Y66578D01*
X81967D01*
X81602Y66859D01*
X80945Y67131D01*
X80240Y67223D01*
D02*
G37*
G36*
X218417Y42046D02*
X212883D01*
Y36709D01*
X218417D01*
Y37390D01*
X219798D01*
X220157Y37031D01*
X220802Y36600D01*
X221563Y36449D01*
X224788D01*
Y36359D01*
X229731D01*
Y40515D01*
X224788D01*
Y40425D01*
X222387D01*
X222028Y40784D01*
X221383Y41215D01*
X220622Y41366D01*
X218417D01*
Y42046D01*
D02*
G37*
G36*
X279950Y41328D02*
X271050D01*
Y34428D01*
X279950D01*
Y41328D01*
D02*
G37*
G36*
X219500Y35868D02*
X218525Y35674D01*
X218333Y35546D01*
X219500Y34380D01*
X220667Y35546D01*
X220476Y35674D01*
X219500Y35868D01*
D02*
G37*
G36*
X228971Y35697D02*
X225549D01*
X227260Y33986D01*
X228971Y35697D01*
D02*
G37*
G36*
X227260Y33713D02*
X226866Y33319D01*
X227260Y32925D01*
X227654Y33319D01*
X227260Y33713D01*
D02*
G37*
G36*
X221727Y34486D02*
X220561Y33319D01*
X221727Y32152D01*
X221855Y32344D01*
X222049Y33319D01*
X221855Y34295D01*
X221727Y34486D01*
D02*
G37*
G36*
X217273Y34486D02*
X217145Y34295D01*
X216951Y33319D01*
X217145Y32344D01*
X217273Y32152D01*
X218439Y33319D01*
X217273Y34486D01*
D02*
G37*
G36*
X224488Y34636D02*
Y32002D01*
X225805Y33319D01*
X224488Y34636D01*
D02*
G37*
G36*
X230031Y34636D02*
X228714Y33319D01*
X230031Y32002D01*
Y34636D01*
D02*
G37*
G36*
X227260Y32652D02*
X225549Y30941D01*
X228971D01*
X227260Y32652D01*
D02*
G37*
G36*
X219500Y32258D02*
X218333Y31092D01*
X218525Y30964D01*
X219500Y30770D01*
X220476Y30964D01*
X220667Y31092D01*
X219500Y32258D01*
D02*
G37*
G36*
X174950Y38450D02*
X168050D01*
Y29550D01*
X174950D01*
Y38450D01*
D02*
G37*
G36*
X139950D02*
X133050D01*
Y29550D01*
X139950D01*
Y38450D01*
D02*
G37*
G36*
X104950D02*
X98050D01*
Y29550D01*
X104950D01*
Y38450D01*
D02*
G37*
G36*
X69950D02*
X63050D01*
Y29550D01*
X69950D01*
Y38450D01*
D02*
G37*
G36*
X38399Y65450D02*
X29499D01*
Y59425D01*
X25512Y55437D01*
X25224Y55007D01*
X25123Y54500D01*
Y31374D01*
X25224Y30867D01*
X25512Y30437D01*
X29499Y26449D01*
Y22550D01*
X38399D01*
Y29450D01*
X30247D01*
X27774Y31923D01*
Y53951D01*
X32373Y58550D01*
X38399D01*
Y65450D01*
D02*
G37*
G36*
X218417Y24047D02*
X212883D01*
Y18710D01*
X218417D01*
Y19390D01*
X220299D01*
X221157Y18531D01*
X221802Y18100D01*
X222563Y17949D01*
X224788D01*
Y17859D01*
X229731D01*
Y22015D01*
X224788D01*
Y21925D01*
X223387D01*
X222528Y22784D01*
X221883Y23215D01*
X221122Y23366D01*
X218417D01*
Y24047D01*
D02*
G37*
G36*
X219319Y17368D02*
X218344Y17174D01*
X218152Y17046D01*
X219319Y15880D01*
X220486Y17046D01*
X220294Y17174D01*
X219319Y17368D01*
D02*
G37*
G36*
X228971Y17197D02*
X225549D01*
X227260Y15486D01*
X228971Y17197D01*
D02*
G37*
G36*
X34949Y21606D02*
X32949D01*
X32048Y21487D01*
X31209Y21140D01*
X30488Y20587D01*
X29935Y19866D01*
X29588Y19027D01*
X29469Y18126D01*
X29588Y17225D01*
X29935Y16386D01*
X30488Y15665D01*
X31209Y15112D01*
X32048Y14765D01*
X32949Y14646D01*
X34949D01*
X35849Y14765D01*
X36689Y15112D01*
X37409Y15665D01*
X37962Y16386D01*
X38310Y17225D01*
X38429Y18126D01*
X38310Y19027D01*
X37962Y19866D01*
X37409Y20587D01*
X36689Y21140D01*
X35849Y21487D01*
X34949Y21606D01*
D02*
G37*
G36*
X227260Y15213D02*
X226866Y14819D01*
X227260Y14425D01*
X227654Y14819D01*
X227260Y15213D01*
D02*
G37*
G36*
X221546Y15986D02*
X220380Y14819D01*
X221546Y13652D01*
X221674Y13844D01*
X221868Y14819D01*
X221674Y15795D01*
X221546Y15986D01*
D02*
G37*
G36*
X217092Y15986D02*
X216964Y15795D01*
X216770Y14819D01*
X216964Y13844D01*
X217092Y13652D01*
X218258Y14819D01*
X217092Y15986D01*
D02*
G37*
G36*
X224488Y16136D02*
Y13502D01*
X225805Y14819D01*
X224488Y16136D01*
D02*
G37*
G36*
X230031Y16136D02*
X228714Y14819D01*
X230031Y13502D01*
Y16136D01*
D02*
G37*
G36*
X227260Y14152D02*
X225549Y12441D01*
X228971D01*
X227260Y14152D01*
D02*
G37*
G36*
X219319Y13758D02*
X218152Y12592D01*
X218344Y12464D01*
X219319Y12270D01*
X220294Y12464D01*
X220486Y12592D01*
X219319Y13758D01*
D02*
G37*
%LPD*%
G36*
X17286Y122065D02*
X13223Y126128D01*
Y170627D01*
X13350D01*
X14055Y170720D01*
X14712Y170992D01*
X15276Y171425D01*
X16573Y172722D01*
X17286D01*
Y122065D01*
D02*
G37*
G36*
X72000Y144070D02*
X71981D01*
Y138930D01*
X72000D01*
Y104000D01*
X50500D01*
Y138500D01*
X64000D01*
X65500Y140000D01*
Y145500D01*
X67500D01*
Y157000D01*
X72000D01*
Y144070D01*
D02*
G37*
G36*
X39500Y138500D02*
X49786D01*
Y104000D01*
X25223D01*
Y113000D01*
X25141Y113623D01*
X25131Y113705D01*
X24858Y114362D01*
X24426Y114926D01*
X18000Y121351D01*
Y172722D01*
X24083D01*
X24499Y172776D01*
X29507D01*
Y178113D01*
X24499D01*
X24083Y178168D01*
X18000D01*
Y181777D01*
X24083D01*
X24499Y181832D01*
X29507D01*
Y187169D01*
X24499D01*
X24083Y187223D01*
X18000D01*
Y200500D01*
X39500D01*
Y138500D01*
D02*
G37*
G36*
X229414Y190086D02*
X229172Y189724D01*
X177500D01*
X177032Y189630D01*
X176635Y189365D01*
X172058Y184788D01*
Y184828D01*
X177507Y190277D01*
X229699D01*
X229414Y190086D01*
D02*
G37*
G36*
X149808Y162462D02*
X150045Y162304D01*
X150022Y162289D01*
X149737Y161862D01*
X149637Y161358D01*
X149737Y160855D01*
X150022Y160428D01*
X150103Y160374D01*
X150022Y160320D01*
X149737Y159893D01*
X149637Y159390D01*
X149737Y158886D01*
X150022Y158459D01*
X150103Y158405D01*
X150022Y158352D01*
X149737Y157925D01*
X149637Y157421D01*
X149737Y156918D01*
X149898Y156676D01*
X142472D01*
X142004Y156583D01*
X141607Y156318D01*
X138682Y153393D01*
X133895D01*
Y147269D01*
X140806D01*
Y152056D01*
X142979Y154229D01*
X149898D01*
X149737Y153988D01*
X149637Y153484D01*
X149737Y152981D01*
X150022Y152554D01*
X150103Y152500D01*
X150022Y152446D01*
X149737Y152019D01*
X149637Y151516D01*
X149737Y151012D01*
X149905Y150760D01*
X149806Y150694D01*
X149454Y150168D01*
X149331Y149547D01*
X149454Y148927D01*
X149538Y148802D01*
X146079D01*
X145611Y148709D01*
X145214Y148444D01*
X141635Y144865D01*
X141370Y144468D01*
X141277Y144000D01*
Y129350D01*
X141370Y128882D01*
X141635Y128485D01*
X143397Y126723D01*
X137350D01*
X136646Y126630D01*
X135989Y126358D01*
X135425Y125926D01*
X131574Y122075D01*
Y126522D01*
X132482Y127430D01*
X133869D01*
Y129584D01*
X133924Y130000D01*
X133869Y130416D01*
Y132570D01*
X132482D01*
X130074Y134978D01*
Y138607D01*
X130806D01*
Y144731D01*
X130074D01*
Y147269D01*
X130806D01*
Y151455D01*
X143426Y164074D01*
X143858Y164638D01*
X144131Y165295D01*
X144223Y166000D01*
Y168046D01*
X149808Y162462D01*
D02*
G37*
%LPC*%
G36*
X140046Y145031D02*
X134655D01*
X137350Y142336D01*
X140046Y145031D01*
D02*
G37*
G36*
X137350Y142063D02*
X136957Y141669D01*
X137350Y141276D01*
X137744Y141669D01*
X137350Y142063D01*
D02*
G37*
G36*
X141106Y143971D02*
X138805Y141669D01*
X141106Y139368D01*
Y143971D01*
D02*
G37*
G36*
X133595Y143971D02*
Y139368D01*
X135896Y141669D01*
X133595Y143971D01*
D02*
G37*
G36*
X137350Y141002D02*
X134655Y138307D01*
X140046D01*
X137350Y141002D01*
D02*
G37*
G36*
Y138049D02*
X136375Y137855D01*
X136184Y137727D01*
X137350Y136561D01*
X138517Y137727D01*
X138326Y137855D01*
X137350Y138049D01*
D02*
G37*
G36*
X139578Y136667D02*
X138411Y135500D01*
X139578Y134333D01*
X139705Y134525D01*
X139899Y135500D01*
X139705Y136476D01*
X139578Y136667D01*
D02*
G37*
G36*
X135123Y136667D02*
X134995Y136476D01*
X134801Y135500D01*
X134995Y134525D01*
X135123Y134333D01*
X136290Y135500D01*
X135123Y136667D01*
D02*
G37*
G36*
X137350Y134439D02*
X136184Y133273D01*
X136375Y133145D01*
X137350Y132951D01*
X138326Y133145D01*
X138517Y133273D01*
X137350Y134439D01*
D02*
G37*
G36*
X139408Y132870D02*
X135592D01*
X137500Y130962D01*
X139408Y132870D01*
D02*
G37*
G36*
X137500Y130098D02*
X137402Y130000D01*
X137500Y129902D01*
X137598Y130000D01*
X137500Y130098D01*
D02*
G37*
G36*
X134531Y131809D02*
Y128191D01*
X136341Y130000D01*
X134531Y131809D01*
D02*
G37*
G36*
X140469Y131809D02*
X138659Y130000D01*
X140469Y128191D01*
Y131809D01*
D02*
G37*
G36*
X137500Y129038D02*
X135592Y127130D01*
X139408D01*
X137500Y129038D01*
D02*
G37*
%LPD*%
G36*
X81000Y180500D02*
X77000D01*
Y170000D01*
X72000D01*
Y180000D01*
X71000Y181000D01*
Y186500D01*
X70519D01*
Y186570D01*
X69930D01*
X67000Y189500D01*
Y205500D01*
X53000D01*
Y247500D01*
X81000D01*
Y180500D01*
D02*
G37*
D10*
X69500Y151681D02*
D03*
X74500D02*
D03*
X79500D02*
D03*
X84500D02*
D03*
X69500Y174319D02*
D03*
X74500D02*
D03*
X79500D02*
D03*
X84500D02*
D03*
D11*
X77000Y163000D02*
D03*
D12*
X68504Y113500D02*
D03*
X31496D02*
D03*
D13*
X32980Y146000D02*
D03*
X45500D02*
D03*
X32500Y160500D02*
D03*
X45020D02*
D03*
X73020Y194500D02*
D03*
X60500D02*
D03*
D14*
X80500Y141650D02*
D03*
Y135350D02*
D03*
X198850Y94350D02*
D03*
Y100650D02*
D03*
X198350Y163850D02*
D03*
Y170150D02*
D03*
X10500Y194650D02*
D03*
Y188350D02*
D03*
Y173350D02*
D03*
Y179650D02*
D03*
D15*
X74150Y184000D02*
D03*
X67850D02*
D03*
X74650Y141500D02*
D03*
X68350D02*
D03*
X135201Y170000D02*
D03*
X141500D02*
D03*
X154150Y124000D02*
D03*
X147850D02*
D03*
X181201D02*
D03*
X187500D02*
D03*
X144850Y181000D02*
D03*
X151150D02*
D03*
X137500Y130000D02*
D03*
X131201D02*
D03*
D16*
X71126Y225000D02*
D03*
X36874D02*
D03*
D17*
X289600Y171091D02*
D03*
Y173650D02*
D03*
Y168531D02*
D03*
Y176209D02*
D03*
Y178768D02*
D03*
D18*
X300289Y188610D02*
D03*
Y158689D02*
D03*
D19*
X289800Y161445D02*
D03*
X289856Y185854D02*
D03*
D20*
X137350Y150331D02*
D03*
X127350D02*
D03*
Y141669D02*
D03*
X137350D02*
D03*
D21*
X185894Y155453D02*
D03*
Y157421D02*
D03*
Y163327D02*
D03*
Y161358D02*
D03*
Y159390D02*
D03*
Y153484D02*
D03*
Y151516D02*
D03*
Y149547D02*
D03*
Y147579D02*
D03*
Y145610D02*
D03*
Y143642D02*
D03*
Y141673D02*
D03*
X153807D02*
D03*
Y143642D02*
D03*
Y145610D02*
D03*
Y147579D02*
D03*
Y149547D02*
D03*
Y151516D02*
D03*
Y153484D02*
D03*
Y155453D02*
D03*
Y157421D02*
D03*
Y159390D02*
D03*
Y161358D02*
D03*
Y163327D02*
D03*
D22*
X159024Y168543D02*
D03*
X160992D02*
D03*
X162961D02*
D03*
X164929D02*
D03*
X166898D02*
D03*
X168866D02*
D03*
X170835D02*
D03*
X172803D02*
D03*
X174772D02*
D03*
X176740D02*
D03*
X178709D02*
D03*
X180677D02*
D03*
Y136457D02*
D03*
X178709D02*
D03*
X176740D02*
D03*
X174772D02*
D03*
X172803D02*
D03*
X170835D02*
D03*
X168866D02*
D03*
X166898D02*
D03*
X164929D02*
D03*
X162961D02*
D03*
X160992D02*
D03*
X159024D02*
D03*
D23*
X212701Y88642D02*
D03*
Y106358D02*
D03*
X244000Y88642D02*
D03*
Y106358D02*
D03*
D24*
X60000Y68150D02*
D03*
Y61850D02*
D03*
X95000Y67650D02*
D03*
Y61350D02*
D03*
X130000Y68150D02*
D03*
Y61850D02*
D03*
X165000Y68150D02*
D03*
Y61850D02*
D03*
X256000Y218701D02*
D03*
Y225000D02*
D03*
X220000Y218701D02*
D03*
Y225000D02*
D03*
X184000Y218701D02*
D03*
Y225000D02*
D03*
X148000Y218701D02*
D03*
Y225000D02*
D03*
X275500Y196299D02*
D03*
Y190000D02*
D03*
X270500Y175350D02*
D03*
Y181650D02*
D03*
X300500Y139500D02*
D03*
Y145799D02*
D03*
X163500Y190650D02*
D03*
Y184350D02*
D03*
D25*
X244000Y119000D02*
D03*
X237701D02*
D03*
Y135000D02*
D03*
X244000D02*
D03*
X237701Y152500D02*
D03*
X244000D02*
D03*
X215650Y58378D02*
D03*
X209350D02*
D03*
X215650Y39378D02*
D03*
X209350D02*
D03*
X215650Y21378D02*
D03*
X209350D02*
D03*
D26*
X72760Y67059D02*
D03*
Y61941D02*
D03*
X80240Y64500D02*
D03*
X107760Y67059D02*
D03*
Y61941D02*
D03*
X115240Y64500D02*
D03*
X142760Y67059D02*
D03*
Y61941D02*
D03*
X150240Y64500D02*
D03*
X177760Y67059D02*
D03*
Y61941D02*
D03*
X185240Y64500D02*
D03*
X227260Y56937D02*
D03*
Y51819D02*
D03*
X234740Y54378D02*
D03*
X227260Y38437D02*
D03*
Y33319D02*
D03*
X234740Y35878D02*
D03*
X227260Y19937D02*
D03*
Y14819D02*
D03*
X234740Y17378D02*
D03*
D27*
X222602Y135000D02*
D03*
X229098D02*
D03*
X222602Y152500D02*
D03*
X229098D02*
D03*
D28*
X280500Y145898D02*
D03*
Y139402D02*
D03*
D29*
X24083Y193555D02*
D03*
Y184500D02*
D03*
Y175445D02*
D03*
D30*
X46917Y184500D02*
D03*
D31*
X305500Y114500D02*
Y144000D01*
X300500Y109500D02*
X305500Y114500D01*
X277000Y109500D02*
X300500D01*
X139701Y118201D02*
X154299D01*
X151000Y181150D02*
Y186500D01*
X163500Y190650D02*
Y199000D01*
X141500Y186500D02*
X151000D01*
X135201Y180201D02*
X141500Y186500D01*
X135201Y170000D02*
Y180201D01*
X129500Y170000D02*
X135201D01*
X119500Y160000D02*
X129500Y170000D01*
X198500Y170299D02*
Y177500D01*
X251500Y262000D02*
X267000D01*
X215500D02*
X251500D01*
X248126Y258626D02*
X251500Y262000D01*
X248126Y252850D02*
Y258626D01*
X179500Y262000D02*
X215500D01*
X212126Y258626D02*
X215500Y262000D01*
X212126Y252850D02*
Y258626D01*
X143000Y262000D02*
X179500D01*
X176126Y258626D02*
X179500Y262000D01*
X176126Y252850D02*
Y258626D01*
X120248Y214500D02*
X140126Y234378D01*
Y252850D01*
Y259126D01*
X143000Y262000D01*
X267000D02*
X279000Y250000D01*
Y238500D02*
Y250000D01*
X299000Y218500D02*
Y238500D01*
Y202500D02*
Y218500D01*
X279000D02*
Y238500D01*
X299000D01*
Y202500D02*
X300289Y201211D01*
Y188610D02*
Y201211D01*
X303701Y145799D02*
X305500Y144000D01*
X300500Y145799D02*
X303701D01*
X220000Y218701D02*
X256000D01*
X184000D02*
X220000D01*
X148000D02*
X184000D01*
X244000Y135000D02*
Y152500D01*
X300289Y158689D02*
Y188610D01*
X289856Y185854D02*
X297533D01*
X300289Y188610D01*
Y158689D02*
X300500Y158478D01*
X297533Y161445D02*
X300289Y158689D01*
X289800Y161445D02*
X297533D01*
X300500Y145799D02*
Y158478D01*
X256000Y225000D02*
Y252850D01*
X220000Y225000D02*
Y252850D01*
X184000Y225000D02*
Y252850D01*
X148000Y225000D02*
Y252850D01*
X244000Y135000D02*
X251500D01*
X277000Y109500D01*
X148000Y206500D02*
Y218701D01*
D32*
X137350Y130150D02*
Y141669D01*
X84500Y145500D02*
Y151681D01*
X79500Y142650D02*
Y151681D01*
X74500Y141650D02*
Y151681D01*
X84500Y174469D02*
Y180500D01*
X81000Y184000D02*
X84500Y180500D01*
X74150Y184000D02*
X81000D01*
X224542Y173370D02*
X286163D01*
X130000Y67650D02*
X141882D01*
X187500Y124000D02*
X192500Y119000D01*
X130000Y67650D02*
X141882D01*
X224542Y173370D02*
X286163D01*
X11500Y195650D02*
Y208000D01*
X296000Y170500D02*
Y176000D01*
X294031Y168531D02*
X296000Y170500D01*
X289600Y168531D02*
X294031D01*
X93000Y148500D02*
X139500Y195000D01*
X93000Y108500D02*
Y148500D01*
X139500Y195000D02*
X154000D01*
X96000Y147000D02*
X141000Y192000D01*
X96000Y106500D02*
Y147000D01*
X141000Y192000D02*
X152500D01*
X154150Y118350D02*
Y124000D01*
Y118350D02*
X154299Y118201D01*
X160992Y118992D02*
Y136457D01*
X155500Y113500D02*
X160992Y118992D01*
X139000Y113500D02*
X155500D01*
X134000Y108500D02*
X139000Y113500D01*
X134000Y80500D02*
Y108500D01*
X181201Y118201D02*
Y124000D01*
X185000Y114500D02*
X198850Y100650D01*
X190000Y116000D02*
Y121500D01*
X193000Y78500D02*
Y99500D01*
X176740Y115760D02*
X193000Y99500D01*
X176740Y115760D02*
Y136457D01*
X190500Y74000D02*
Y99000D01*
X174772Y114728D02*
X190500Y99000D01*
X174772Y114728D02*
Y136457D01*
X198500Y177500D02*
X203000Y182000D01*
X148850Y84150D02*
Y92000D01*
Y84150D02*
X156500Y76500D01*
Y54500D02*
Y76500D01*
Y54500D02*
X163622Y47378D01*
X170091D01*
X187500Y124000D02*
X191000Y127500D01*
X201000D01*
X253500Y100000D02*
X285500Y68000D01*
X253500Y100000D02*
Y121000D01*
X198350Y163850D02*
X205350D01*
X220000Y178500D01*
X177500Y185000D02*
X252000D01*
X174772Y182272D02*
X177500Y185000D01*
X177000Y191500D02*
X248000D01*
X170835Y185335D02*
X177000Y191500D01*
X176500Y195000D02*
X243500D01*
X168866Y187366D02*
X176500Y195000D01*
X168866Y168543D02*
Y187366D01*
X170835Y168543D02*
Y185335D01*
X177500Y188500D02*
X231000D01*
X172803Y183803D02*
X177500Y188500D01*
X172803Y168543D02*
Y183803D01*
X174772Y168543D02*
Y182272D01*
X179500Y210500D02*
X260000D01*
X176740Y178740D02*
X179500Y181500D01*
X176740Y168543D02*
Y178740D01*
X166850Y168591D02*
Y177150D01*
X163500Y180500D02*
X166850Y177150D01*
X163500Y180500D02*
Y184350D01*
X199016Y153484D02*
X200500Y152000D01*
X185894Y153484D02*
X199016D01*
X195000Y150500D02*
X195500D01*
X193984Y151516D02*
X195000Y150500D01*
X185894Y151516D02*
X193984D01*
X60500Y81000D02*
X111500D01*
X54000Y74500D02*
X60500Y81000D01*
X54000Y63500D02*
Y74500D01*
X159500Y73000D02*
X164000Y77500D01*
Y112000D01*
X54000Y63500D02*
X55650Y61850D01*
X60000D01*
X88500Y61500D02*
X94850D01*
X126150Y61850D02*
X130000D01*
X125000Y63000D02*
X126150Y61850D01*
X125000Y63000D02*
Y71500D01*
X134000Y80500D01*
X161650Y61850D02*
X165000D01*
X159500Y64000D02*
X161650Y61850D01*
X159500Y64000D02*
Y73000D01*
X280500Y145898D02*
Y163500D01*
X285531Y168531D01*
X289600D01*
X75500Y91000D02*
X93000Y108500D01*
X18000Y91000D02*
X75500D01*
X78000Y88500D02*
X96000Y106500D01*
X16500Y88500D02*
X78000D01*
X77000Y163000D02*
X85500D01*
X89000Y159500D01*
Y140000D02*
Y159500D01*
X84350Y135350D02*
X89000Y140000D01*
X80500Y135350D02*
X84350D01*
X12000Y113000D02*
X15500Y109500D01*
Y93500D02*
Y109500D01*
Y93500D02*
X18000Y91000D01*
X154000Y195000D02*
X159000Y190000D01*
Y181500D02*
Y190000D01*
Y181500D02*
X164929Y175571D01*
Y168543D02*
Y175571D01*
X12000Y93000D02*
Y105000D01*
Y93000D02*
X16500Y88500D01*
X152500Y192000D02*
X156500Y188000D01*
Y180500D02*
Y188000D01*
Y180500D02*
X162961Y174039D01*
Y168543D02*
Y174039D01*
X151150Y177850D02*
Y181000D01*
Y177850D02*
X153500Y175500D01*
X158500D01*
X160992Y173008D01*
Y168543D02*
Y173008D01*
X152457Y168543D02*
X159024D01*
X144850Y176150D02*
X152457Y168543D01*
X144850Y176150D02*
Y181000D01*
X256000Y225000D02*
X260500D01*
X263500Y222000D01*
Y214000D02*
Y222000D01*
X260000Y210500D02*
X263500Y214000D01*
X172803Y136457D02*
Y145197D01*
X172000Y146000D02*
X172803Y145197D01*
X202500Y225000D02*
X220000D01*
X170835Y136457D02*
Y142165D01*
X167500Y145500D02*
X170835Y142165D01*
X167500Y145500D02*
Y147000D01*
X184000Y225000D02*
X192000D01*
X168866Y136457D02*
Y141134D01*
X167000Y143000D02*
X168866Y141134D01*
X164500Y143000D02*
X167000D01*
X163000Y144500D02*
X164500Y143000D01*
X163000Y144500D02*
Y147000D01*
X148000Y225000D02*
X156000D01*
X153807Y151516D02*
X170984D01*
X178000Y144500D01*
X279411Y196299D02*
X289856Y185854D01*
X275500Y196299D02*
X279411D01*
X275500Y190000D02*
X281500Y184000D01*
Y179000D02*
Y184000D01*
Y179000D02*
X284291Y176209D01*
X289600D01*
Y178768D02*
Y185598D01*
X280500Y139402D02*
X300402D01*
X209350Y15650D02*
Y21378D01*
Y15650D02*
X216500Y8500D01*
X258500D01*
X285500Y35500D01*
Y68000D01*
X246500Y128000D02*
X253500Y121000D01*
X215000Y128000D02*
X246500D01*
X201327Y141673D02*
X215000Y128000D01*
X185894Y141673D02*
X201327D01*
X192500Y119000D02*
X237701D01*
X244000Y106358D02*
Y119000D01*
X212701Y106358D02*
X244000D01*
X204559Y88642D02*
X212701D01*
X198850Y94350D02*
X204559Y88642D01*
Y106358D02*
X212701D01*
X198850Y100650D02*
X204559Y106358D01*
X209350Y58378D02*
Y69650D01*
X209000Y70000D02*
X209350Y69650D01*
X190500Y74000D02*
X194500Y70000D01*
X202000Y46728D02*
X209350Y39378D01*
X202000Y46728D02*
Y69500D01*
X193000Y78500D02*
X202000Y69500D01*
X211992Y145610D02*
X222602Y135000D01*
X185894Y145610D02*
X211992D01*
X217681Y147579D02*
X222602Y152500D01*
X185894Y147579D02*
X217681D01*
X158850Y92000D02*
Y96650D01*
X152000Y103500D02*
X158850Y96650D01*
X178110Y159390D02*
X185894D01*
X180677Y168543D02*
Y176677D01*
X209437Y155437D02*
X225370Y171370D01*
X208609Y157437D02*
X224542Y173370D01*
X286163Y171370D02*
X286443Y171091D01*
X225370Y171370D02*
X286163D01*
X286443Y171091D02*
X289600D01*
X286163Y173370D02*
X286443Y173650D01*
X289600D01*
X189854Y157437D02*
X208609D01*
X189839Y157421D02*
X189854Y157437D01*
X185894Y157421D02*
X189839D01*
X189854Y155437D02*
X209437D01*
X189839Y155453D02*
X189854Y155437D01*
X185894Y155453D02*
X189839D01*
X173000Y109000D02*
Y112000D01*
X166898Y118102D02*
X173000Y112000D01*
X166898Y118102D02*
Y136457D01*
X169500Y105500D02*
Y110500D01*
X164929Y115071D02*
X169500Y110500D01*
X164929Y115071D02*
Y136457D01*
X162961Y113039D02*
X164000Y112000D01*
X162961Y113039D02*
Y136457D01*
X147000Y133000D02*
Y139000D01*
X149673Y141673D01*
X153807D01*
X152500Y133000D02*
X155957Y136457D01*
X159024D01*
X180677Y132323D02*
X187500Y125500D01*
X180677Y132323D02*
Y136457D01*
X178709Y129791D02*
Y136457D01*
Y129791D02*
X181201Y127299D01*
Y124000D02*
Y127299D01*
X146079Y147579D02*
X153807D01*
X142500Y144000D02*
X146079Y147579D01*
X142500Y129350D02*
Y144000D01*
Y129350D02*
X147850Y124000D01*
X137350Y141669D02*
X145228Y149547D01*
X153807D01*
X137350Y150331D02*
X142472Y155453D01*
X153807D01*
X141500Y170000D02*
X144000D01*
X150673Y163327D01*
X153807D01*
X193350Y163850D02*
X198350D01*
X190858Y161358D02*
X193350Y163850D01*
X185894Y161358D02*
X190858D01*
X195150Y170150D02*
X198350D01*
X188327Y163327D02*
X195150Y170150D01*
X185894Y163327D02*
X188327D01*
X229098Y135000D02*
X237701D01*
X229098Y152500D02*
X237701D01*
X165091Y67740D02*
X176972D01*
X95000Y67650D02*
X106882D01*
X60091Y67740D02*
X71972D01*
X270650Y181500D02*
X276500D01*
X203000Y182000D02*
X270500D01*
D33*
X84500Y151681D02*
Y151831D01*
X79500Y151681D02*
Y151831D01*
X74500Y151681D02*
Y151831D01*
D34*
X100000Y87500D02*
X122000Y109500D01*
X95000Y163500D02*
Y178500D01*
Y163500D02*
Y168500D01*
X79000Y194500D02*
X95000Y178500D01*
X73020Y194500D02*
X79000D01*
X71126Y225000D02*
Y236874D01*
X49000Y259000D02*
X71126Y236874D01*
X49000Y259000D02*
Y266500D01*
X89500Y87500D02*
X100000D01*
D35*
X14350Y184500D02*
X24083D01*
X72000Y97500D02*
X81000Y106500D01*
X10500Y179650D02*
X15350Y184500D01*
X10500Y194650D02*
X14350D01*
X80240Y64500D02*
X81028Y63713D01*
Y40654D02*
Y63713D01*
X115240Y64500D02*
X116028Y63713D01*
Y40654D02*
Y63713D01*
X185240Y64500D02*
X186028Y63713D01*
Y40654D02*
Y63713D01*
X150240Y64500D02*
X151028Y63713D01*
Y40654D02*
Y63713D01*
X177760Y55047D02*
Y61941D01*
X170091Y47378D02*
X177760Y55047D01*
X142760D02*
Y61941D01*
X135091Y47378D02*
X142760Y55047D01*
X107760D02*
Y61941D01*
X100091Y47378D02*
X107760Y55047D01*
X72760Y47496D02*
Y61941D01*
X128850Y115500D02*
Y127650D01*
Y92000D02*
Y115500D01*
X137350Y124000D02*
X147850D01*
X128850Y115500D02*
X137350Y124000D01*
X141500Y166000D02*
Y170000D01*
X127350Y141669D02*
Y150331D01*
Y133850D02*
Y141669D01*
X141500Y177650D02*
X144850Y181000D01*
X127350Y151850D02*
X141500Y166000D01*
X127350Y150331D02*
Y151850D01*
Y133850D02*
X131201Y130000D01*
X128850Y127650D02*
X131201Y130000D01*
X27000Y97500D02*
X72000D01*
X22500Y102000D02*
X27000Y97500D01*
X22500Y102000D02*
Y113000D01*
X10500Y125000D02*
X22500Y113000D01*
X10500Y125000D02*
Y173350D01*
Y188350D02*
X14350Y184500D01*
X10500Y173350D02*
X13350D01*
X15445Y175445D01*
X24083D01*
X15445Y193555D02*
X24083D01*
X14350Y194650D02*
X15445Y193555D01*
X74374Y34000D02*
X81028Y40654D01*
X109374Y34000D02*
X116028Y40654D01*
X144374Y34000D02*
X151028Y40654D01*
X179374Y34000D02*
X186028Y40654D01*
X141500Y170000D02*
Y174000D01*
Y177650D01*
D36*
X219500Y51819D02*
X227260D01*
X219500Y33319D02*
X227260D01*
X219319Y14819D02*
X227260D01*
X121000Y84150D02*
X128850Y92000D01*
X121000Y70500D02*
Y84150D01*
X244000Y88642D02*
X255858D01*
X212701D02*
X244000D01*
X255858D02*
X257000Y87500D01*
X220000Y178500D02*
X258000D01*
X215650Y21378D02*
X221122D01*
X222563Y19937D01*
X227260D01*
X215650Y58378D02*
X221122D01*
X222563Y56937D01*
X227260D01*
X215650Y39378D02*
X220622D01*
X221563Y38437D01*
X227260D01*
X268252Y45752D02*
X275500D01*
X239878Y17378D02*
X268252Y45752D01*
X234740Y17378D02*
X239878D01*
X266126Y53626D02*
X275500D01*
X248378Y35878D02*
X266126Y53626D01*
X234740Y35878D02*
X248378D01*
X264000Y61500D02*
X275500D01*
X256878Y54378D02*
X264000Y61500D01*
X234740Y54378D02*
X256878D01*
D37*
X26449Y54500D02*
X33949Y62000D01*
X26449Y31374D02*
Y54500D01*
Y31374D02*
X31823Y26000D01*
X33949D01*
D38*
X279000Y218500D02*
D03*
Y238500D02*
D03*
X299000D02*
D03*
Y218500D02*
D03*
D39*
X289000Y228500D02*
D03*
D40*
X178850Y92000D02*
D03*
X168850D02*
D03*
X158850D02*
D03*
X148850D02*
D03*
X138850D02*
D03*
D41*
X128850D02*
D03*
D42*
X256000Y252850D02*
D03*
X220000D02*
D03*
X184000D02*
D03*
X148000D02*
D03*
X66500Y34000D02*
D03*
X101500D02*
D03*
X136500D02*
D03*
X171500D02*
D03*
X104500Y214500D02*
D03*
X49000Y266500D02*
D03*
D43*
X248126Y252850D02*
D03*
X212126D02*
D03*
X176126D02*
D03*
X140126D02*
D03*
X74374Y34000D02*
D03*
X109374D02*
D03*
X144374D02*
D03*
X179374D02*
D03*
X120248Y214500D02*
D03*
X112374D02*
D03*
X56874Y266500D02*
D03*
D44*
X275500Y53626D02*
D03*
Y45752D02*
D03*
Y61500D02*
D03*
X33949Y18126D02*
D03*
Y54126D02*
D03*
D45*
X275500Y37878D02*
D03*
X33949Y26000D02*
D03*
Y62000D02*
D03*
D46*
X277000Y109500D02*
D03*
X137350Y135500D02*
D03*
X11500Y208000D02*
D03*
X296000Y176000D02*
D03*
X32000Y136500D02*
D03*
X122000Y109500D02*
D03*
X89500Y87500D02*
D03*
X139701Y118201D02*
D03*
X154299D02*
D03*
X181201D02*
D03*
X185000Y114500D02*
D03*
X190000Y116000D02*
D03*
X163500Y199000D02*
D03*
X151000Y186500D02*
D03*
X119500Y160000D02*
D03*
X198500Y177500D02*
D03*
X179500Y210500D02*
D03*
X95000Y163500D02*
D03*
X219500Y51819D02*
D03*
Y33319D02*
D03*
X219319Y14819D02*
D03*
X121000Y70500D02*
D03*
X201000Y127500D02*
D03*
X257000Y87500D02*
D03*
X220000Y178500D02*
D03*
X258000D02*
D03*
X252000Y185000D02*
D03*
X248000Y191500D02*
D03*
X243500Y195000D02*
D03*
X179500Y181500D02*
D03*
X231000Y188500D02*
D03*
X200500Y152000D02*
D03*
X195500Y150500D02*
D03*
X111500Y81000D02*
D03*
X72878Y47378D02*
D03*
X88500Y61500D02*
D03*
X81000Y106500D02*
D03*
X77250Y102750D02*
D03*
X95000Y173500D02*
D03*
Y168500D02*
D03*
X22500Y102000D02*
D03*
X12000Y113000D02*
D03*
Y105000D02*
D03*
X172000Y146000D02*
D03*
X202500Y225000D02*
D03*
X167500Y147000D02*
D03*
X192000Y225000D02*
D03*
X163000Y147000D02*
D03*
X156000Y225000D02*
D03*
X178000Y144500D02*
D03*
X209000Y70000D02*
D03*
X194500D02*
D03*
X152000Y103500D02*
D03*
X178110Y159390D02*
D03*
X180677Y176677D02*
D03*
X173000Y109000D02*
D03*
X169500Y105500D02*
D03*
X147000Y133000D02*
D03*
X152500D02*
D03*
X14350Y184500D02*
D03*
X100091Y47378D02*
D03*
X135091D02*
D03*
X170091D02*
D03*
X276500Y181500D02*
D03*
X148000Y206500D02*
D03*
X141500Y174000D02*
D03*
D47*
X290500Y124000D02*
D03*
Y264000D02*
D03*
X110500D02*
D03*
Y124000D02*
D03*
D48*
X85000Y145000D02*
D03*
D49*
X72669Y160835D02*
D03*
Y165165D02*
D03*
X77000Y160835D02*
D03*
Y165165D02*
D03*
X81331Y160835D02*
D03*
Y165165D02*
D03*
M02*
