G04 Layer_Color=65535*
%FSLAX25Y25*%
%MOIN*%
G70*
G01*
G75*
%ADD32C,0.01000*%
%ADD54C,0.00984*%
%ADD55C,0.01181*%
%ADD56C,0.02362*%
%ADD57C,0.00787*%
%ADD58C,0.00500*%
%ADD59C,0.00600*%
D32*
X66501Y123001D02*
G03*
X33174Y122834I-16615J-9646D01*
G01*
X29807Y99181D02*
G03*
X35713Y93276I5906J0D01*
G01*
X33292Y103671D02*
G03*
X66627Y103928I16593J9684D01*
G01*
X69965Y123035D02*
Y127528D01*
X29807Y99181D02*
Y103500D01*
X49886Y103512D02*
Y113355D01*
X40043D02*
X49886D01*
Y123197D01*
Y113355D02*
X59728D01*
X64059Y133433D02*
X69965Y127528D01*
X40634Y133433D02*
X64059D01*
X29807Y122607D02*
X40634Y133433D01*
X35713Y93276D02*
X59138D01*
X69965Y104103D01*
X38925Y141630D02*
Y150449D01*
X49437Y140173D02*
Y151827D01*
X29083D02*
X49437D01*
X29083Y140173D02*
Y151827D01*
Y140173D02*
X49437D01*
X38445Y156130D02*
Y164949D01*
X48957Y154673D02*
Y166327D01*
X28602D02*
X48957D01*
X28602Y154673D02*
Y166327D01*
Y154673D02*
X48957D01*
X67075Y190051D02*
Y198870D01*
X56563Y188673D02*
Y200327D01*
Y188673D02*
X76917D01*
Y200327D01*
X56563D02*
X76917D01*
X33724Y232776D02*
Y245276D01*
Y204724D02*
Y217224D01*
Y204724D02*
X65724D01*
X74276Y213276D02*
Y218276D01*
X65724Y204724D02*
X74276Y213276D01*
X65724Y245276D02*
X74276Y236724D01*
Y232500D02*
Y236724D01*
X33724Y245276D02*
X65724D01*
X308465Y158591D02*
Y188709D01*
X305217D02*
X308465D01*
X305217Y158591D02*
X308465D01*
X293996Y188709D02*
X295079D01*
X293898Y158591D02*
X294980D01*
X141406Y140882D02*
Y151118D01*
X123295Y140882D02*
Y151118D01*
X131169Y140882D02*
X133532D01*
X131169Y151118D02*
X133532D01*
X123850Y87000D02*
X183850D01*
Y97000D01*
X123850D02*
X183850D01*
X123850Y87000D02*
Y97000D01*
X238193Y87657D02*
Y107343D01*
X218508D02*
X238193D01*
X218508Y87657D02*
Y107343D01*
Y87657D02*
X238193D01*
X98500Y197596D02*
Y192597D01*
X99500Y191598D01*
X101499D01*
X102499Y192597D01*
Y197596D01*
X108497Y196596D02*
X107497Y197596D01*
X105498D01*
X104498Y196596D01*
Y195596D01*
X105498Y194597D01*
X107497D01*
X108497Y193597D01*
Y192597D01*
X107497Y191598D01*
X105498D01*
X104498Y192597D01*
X110496Y191598D02*
Y195596D01*
X112496Y197596D01*
X114495Y195596D01*
Y191598D01*
Y194597D01*
X110496D01*
X116494Y191598D02*
Y197596D01*
X119493D01*
X120493Y196596D01*
Y194597D01*
X119493Y193597D01*
X116494D01*
X118493D02*
X120493Y191598D01*
X122492Y197596D02*
X126491D01*
X124492D01*
Y191598D01*
X101499Y182000D02*
Y187998D01*
X103498Y185999D01*
X105498Y187998D01*
Y182000D01*
X108497D02*
X110496D01*
X111496Y183000D01*
Y184999D01*
X110496Y185999D01*
X108497D01*
X107497Y184999D01*
Y183000D01*
X108497Y182000D01*
X113495Y187998D02*
Y182000D01*
X116494D01*
X117494Y183000D01*
Y183999D01*
Y184999D01*
X116494Y185999D01*
X113495D01*
X120493Y182000D02*
X122492D01*
X123492Y183000D01*
Y184999D01*
X122492Y185999D01*
X120493D01*
X119493Y184999D01*
Y183000D01*
X120493Y182000D01*
X220500Y164498D02*
Y158500D01*
Y160499D01*
X224499Y164498D01*
X221500Y161499D01*
X224499Y158500D01*
X226498D02*
X228497D01*
X227498D01*
Y162499D01*
X226498D01*
X231496Y158500D02*
X233496D01*
X232496D01*
Y164498D01*
X231496D01*
X236495Y158500D02*
X238494D01*
X237494D01*
Y164498D01*
X236495D01*
X244492Y158500D02*
X242493D01*
X241493Y159500D01*
Y161499D01*
X242493Y162499D01*
X244492D01*
X245492Y161499D01*
Y160499D01*
X241493D01*
X251490Y164498D02*
Y158500D01*
X248491D01*
X247491Y159500D01*
Y161499D01*
X248491Y162499D01*
X251490D01*
X106500Y48000D02*
Y53998D01*
X109499D01*
X110499Y52998D01*
Y50999D01*
X109499Y49999D01*
X106500D01*
X108499D02*
X110499Y48000D01*
X115497D02*
X113498D01*
X112498Y49000D01*
Y50999D01*
X113498Y51999D01*
X115497D01*
X116497Y50999D01*
Y49999D01*
X112498D01*
X118496Y48000D02*
X120495D01*
X119496D01*
Y53998D01*
X118496D01*
X124494Y51999D02*
X126494D01*
X127493Y50999D01*
Y48000D01*
X124494D01*
X123495Y49000D01*
X124494Y49999D01*
X127493D01*
X129493Y51999D02*
Y49000D01*
X130492Y48000D01*
X133491D01*
Y47000D01*
X132492Y46001D01*
X131492D01*
X133491Y48000D02*
Y51999D01*
X135491Y48000D02*
X138490D01*
X139489Y49000D01*
X138490Y49999D01*
X136490D01*
X135491Y50999D01*
X136490Y51999D01*
X139489D01*
X78000Y278000D02*
X83998D01*
Y275001D01*
X82998Y274001D01*
X80999D01*
X79999Y275001D01*
Y278000D01*
X78000Y271002D02*
Y269003D01*
X79000Y268003D01*
X80999D01*
X81999Y269003D01*
Y271002D01*
X80999Y272002D01*
X79000D01*
X78000Y271002D01*
X81999Y266004D02*
X79000D01*
X78000Y265004D01*
X79000Y264004D01*
X78000Y263005D01*
X79000Y262005D01*
X81999D01*
X78000Y257007D02*
Y259006D01*
X79000Y260006D01*
X80999D01*
X81999Y259006D01*
Y257007D01*
X80999Y256007D01*
X79999D01*
Y260006D01*
X81999Y254008D02*
X78000D01*
X79999D01*
X80999Y253008D01*
X81999Y252008D01*
Y251009D01*
X250999Y238349D02*
X249999Y239349D01*
X248000D01*
X247000Y238349D01*
Y237349D01*
X248000Y236349D01*
X249999D01*
X250999Y235350D01*
Y234350D01*
X249999Y233350D01*
X248000D01*
X247000Y234350D01*
X252998Y233350D02*
Y237349D01*
X254997Y239349D01*
X256997Y237349D01*
Y233350D01*
Y236349D01*
X252998D01*
X214999Y238349D02*
X213999Y239349D01*
X212000D01*
X211000Y238349D01*
Y237349D01*
X212000Y236349D01*
X213999D01*
X214999Y235350D01*
Y234350D01*
X213999Y233350D01*
X212000D01*
X211000Y234350D01*
X220997Y239349D02*
X216998D01*
Y236349D01*
X218997D01*
X216998D01*
Y233350D01*
X175000D02*
Y239349D01*
X177999D01*
X178999Y238349D01*
Y236349D01*
X177999Y235350D01*
X175000D01*
X180998Y233350D02*
Y237349D01*
X182997Y239349D01*
X184997Y237349D01*
Y233350D01*
Y236349D01*
X180998D01*
X139000Y233350D02*
Y239349D01*
X141999D01*
X142999Y238349D01*
Y236349D01*
X141999Y235350D01*
X139000D01*
X148997Y239349D02*
X144998D01*
Y236349D01*
X146997D01*
X144998D01*
Y233350D01*
X46949Y25999D02*
X50947D01*
X48948Y27998D02*
Y24000D01*
X46949Y17999D02*
X50947D01*
X46949Y53999D02*
X50947D01*
X46949Y61999D02*
X50947D01*
X48948Y63998D02*
Y60000D01*
X19948Y83498D02*
X18948Y84498D01*
X16949D01*
X15949Y83498D01*
Y79500D01*
X16949Y78500D01*
X18948D01*
X19948Y79500D01*
X21947Y78500D02*
Y82499D01*
X23946Y84498D01*
X25946Y82499D01*
Y78500D01*
Y81499D01*
X21947D01*
X27945Y78500D02*
Y84498D01*
X31944Y78500D01*
Y84498D01*
X250002Y33878D02*
X256000D01*
Y37877D01*
Y39876D02*
Y41875D01*
Y40876D01*
X252001D01*
Y39876D01*
X257999Y46874D02*
Y47873D01*
X257000Y48873D01*
X252001D01*
Y45874D01*
X253001Y44874D01*
X255000D01*
X256000Y45874D01*
Y48873D01*
X250002Y50872D02*
X256000D01*
X253001D01*
X252001Y51872D01*
Y53872D01*
X253001Y54871D01*
X256000D01*
X251002Y57870D02*
X252001D01*
Y56871D01*
Y58870D01*
Y57870D01*
X255000D01*
X256000Y58870D01*
Y61869D02*
Y64868D01*
X255000Y65868D01*
X254001Y64868D01*
Y62869D01*
X253001Y61869D01*
X252001Y62869D01*
Y65868D01*
D54*
X66843Y151681D02*
G03*
X66843Y151681I-492J0D01*
G01*
X154299Y166083D02*
G03*
X154299Y166083I-492J0D01*
G01*
X73252Y70602D02*
G03*
X73252Y70602I-492J0D01*
G01*
X108252D02*
G03*
X108252Y70602I-492J0D01*
G01*
X143252D02*
G03*
X143252Y70602I-492J0D01*
G01*
X178252D02*
G03*
X178252Y70602I-492J0D01*
G01*
X227752Y60480D02*
G03*
X227752Y60480I-492J0D01*
G01*
Y41980D02*
G03*
X227752Y41980I-492J0D01*
G01*
Y23480D02*
G03*
X227752Y23480I-492J0D01*
G01*
X24575Y197689D02*
G03*
X24575Y197689I-492J0D01*
G01*
D55*
X128020Y136158D02*
G03*
X128020Y136158I-591J0D01*
G01*
D56*
X163945Y159587D02*
G03*
X163945Y159587I-1181J0D01*
G01*
X129850Y82000D02*
G03*
X129850Y82000I-1000J0D01*
G01*
D57*
X277189Y225587D02*
Y231413D01*
X300811Y225587D02*
Y231413D01*
X286087Y240311D02*
X291913D01*
X286087Y216689D02*
X291913D01*
X67157Y156701D02*
X86843D01*
X67157Y169299D02*
X86843D01*
X67157Y156701D02*
Y169299D01*
X86843Y156701D02*
Y169299D01*
X158827Y141476D02*
X180874D01*
X158827Y163524D02*
X180874D01*
Y141476D02*
Y163524D01*
X158827Y141476D02*
Y163524D01*
X75220Y68831D02*
X79157D01*
Y67453D02*
Y68831D01*
X75220Y60169D02*
X79157D01*
Y61547D01*
X110220Y68831D02*
X114157D01*
Y67453D02*
Y68831D01*
X110220Y60169D02*
X114157D01*
Y61547D01*
X145220Y68831D02*
X149157D01*
Y67453D02*
Y68831D01*
X145220Y60169D02*
X149157D01*
Y61547D01*
X180220Y68831D02*
X184157D01*
Y67453D02*
Y68831D01*
X180220Y60169D02*
X184157D01*
Y61547D01*
X229720Y58709D02*
X233657D01*
Y57331D02*
Y58709D01*
X229720Y50047D02*
X233657D01*
Y51425D01*
X229720Y40209D02*
X233657D01*
Y38831D02*
Y40209D01*
X229720Y31547D02*
X233657D01*
Y32925D01*
X229720Y21709D02*
X233657D01*
Y20331D02*
Y21709D01*
X229720Y13047D02*
X233657D01*
Y14425D01*
X29988Y171311D02*
Y197689D01*
X41012Y171311D02*
Y197689D01*
X29988D02*
X41012D01*
X29988Y171311D02*
X41012D01*
D58*
X225358Y134016D02*
X226343Y135000D01*
X225358Y134016D02*
Y135984D01*
X226343Y135000D01*
X237000Y245350D02*
Y253142D01*
Y245350D02*
X244500D01*
Y247142D01*
X249799D01*
X254327D01*
X259500D01*
Y245350D02*
Y247142D01*
Y245350D02*
X267500D01*
X237000Y280350D02*
X267500D01*
X237000Y253142D02*
Y280350D01*
X267500Y245350D02*
Y252768D01*
Y280350D01*
X201000Y245350D02*
Y253142D01*
Y245350D02*
X208500D01*
Y247142D01*
X213799D01*
X218327D01*
X223500D01*
Y245350D02*
Y247142D01*
Y245350D02*
X231500D01*
X201000Y280350D02*
X231500D01*
X201000Y253142D02*
Y280350D01*
X231500Y245350D02*
Y252768D01*
Y280350D01*
X165000Y245350D02*
Y253142D01*
Y245350D02*
X172500D01*
Y247142D01*
X177799D01*
X182327D01*
X187500D01*
Y245350D02*
Y247142D01*
Y245350D02*
X195500D01*
X165000Y280350D02*
X195500D01*
X165000Y253142D02*
Y280350D01*
X195500Y245350D02*
Y252768D01*
Y280350D01*
X129000Y245350D02*
Y253142D01*
Y245350D02*
X136500D01*
Y247142D01*
X141799D01*
X146327D01*
X151500D01*
Y245350D02*
Y247142D01*
Y245350D02*
X159500D01*
X129000Y280350D02*
X159500D01*
X129000Y253142D02*
Y280350D01*
X159500Y245350D02*
Y252768D01*
Y280350D01*
X85500Y33709D02*
Y41500D01*
X78000D02*
X85500D01*
X78000Y39709D02*
Y41500D01*
X72701Y39709D02*
X78000D01*
X68173D02*
X72701D01*
X63000D02*
X68173D01*
X63000D02*
Y41500D01*
X55000D02*
X63000D01*
X55000Y6500D02*
X85500D01*
Y33709D01*
X55000Y34083D02*
Y41500D01*
Y6500D02*
Y34083D01*
X120500Y33709D02*
Y41500D01*
X113000D02*
X120500D01*
X113000Y39709D02*
Y41500D01*
X107701Y39709D02*
X113000D01*
X103173D02*
X107701D01*
X98000D02*
X103173D01*
X98000D02*
Y41500D01*
X90000D02*
X98000D01*
X90000Y6500D02*
X120500D01*
Y33709D01*
X90000Y34083D02*
Y41500D01*
Y6500D02*
Y34083D01*
X155500Y33709D02*
Y41500D01*
X148000D02*
X155500D01*
X148000Y39709D02*
Y41500D01*
X142701Y39709D02*
X148000D01*
X138173D02*
X142701D01*
X133000D02*
X138173D01*
X133000D02*
Y41500D01*
X125000D02*
X133000D01*
X125000Y6500D02*
X155500D01*
Y33709D01*
X125000Y34083D02*
Y41500D01*
Y6500D02*
Y34083D01*
X190500Y33709D02*
Y41500D01*
X183000D02*
X190500D01*
X183000Y39709D02*
Y41500D01*
X177701Y39709D02*
X183000D01*
X173173D02*
X177701D01*
X168000D02*
X173173D01*
X168000D02*
Y41500D01*
X160000D02*
X168000D01*
X160000Y6500D02*
X190500D01*
Y33709D01*
X160000Y34083D02*
Y41500D01*
Y6500D02*
Y34083D01*
X99972Y220209D02*
X110110D01*
Y221665D01*
X114638D01*
Y220209D02*
Y221665D01*
Y220209D02*
X124776D01*
X95642Y202886D02*
Y211941D01*
X93280Y214303D02*
X95642Y211941D01*
X93280Y214303D02*
Y224539D01*
X129106Y202886D02*
Y211941D01*
X131469Y214303D01*
X95642Y202886D02*
X129106D01*
X93280Y224539D02*
X99972D01*
Y220209D02*
Y224539D01*
X124776Y220209D02*
Y224539D01*
X131469D01*
Y214303D02*
Y224539D01*
X265461Y69965D02*
X287114D01*
X265461Y29413D02*
X287114D01*
X265461D02*
Y36500D01*
X266839D01*
Y41224D01*
X265461Y62878D02*
Y69965D01*
Y62878D02*
X266839D01*
Y58154D02*
Y62878D01*
Y58154D02*
X269004D01*
Y41224D02*
Y58154D01*
X266839Y41224D02*
X269004D01*
X287114Y69965D02*
X308787D01*
X308800Y69951D01*
X287114Y29413D02*
X308765D01*
X308800Y29449D01*
Y69951D01*
X33657Y7000D02*
X41449D01*
Y14500D01*
X39657D02*
X41449D01*
X39657D02*
Y19799D01*
Y24327D01*
Y29500D01*
X41449D01*
Y37500D01*
X6449Y7000D02*
Y37500D01*
Y7000D02*
X33657D01*
X34031Y37500D02*
X41449D01*
X6449D02*
X34031D01*
X33657Y43000D02*
X41449D01*
Y50500D01*
X39657D02*
X41449D01*
X39657D02*
Y55799D01*
Y60327D01*
Y65500D01*
X41449D01*
Y73500D01*
X6449Y43000D02*
Y73500D01*
Y43000D02*
X33657D01*
X34031Y73500D02*
X41449D01*
X6449D02*
X34031D01*
X225358Y151516D02*
X226343Y152500D01*
X225358Y151516D02*
Y153484D01*
X226343Y152500D01*
X279516Y143142D02*
X280500Y142157D01*
X279516Y143142D02*
X281484D01*
X280500Y142157D02*
X281484Y143142D01*
X68094Y266303D02*
Y276539D01*
X61402D02*
X68094D01*
X61402Y272209D02*
Y276539D01*
X55201Y272209D02*
X61402D01*
X55201D02*
Y274335D01*
X50673D02*
X55201D01*
X50673Y272209D02*
Y274335D01*
X44472Y272209D02*
X50673D01*
X44472D02*
Y276539D01*
X37780D02*
X44472D01*
X40142Y254886D02*
X65732D01*
Y263941D02*
X68094Y266303D01*
X65732Y254886D02*
Y263941D01*
X37780Y266303D02*
Y276539D01*
Y266303D02*
X40142Y263941D01*
Y254886D02*
Y263941D01*
D59*
X288999Y208999D02*
X288000D01*
X288499D01*
Y206500D01*
X288000Y206000D01*
X287500D01*
X287000Y206500D01*
X289999Y206000D02*
X290999D01*
X290499D01*
Y208999D01*
X289999Y208499D01*
X63499Y169000D02*
X61000D01*
X60500Y168500D01*
Y167500D01*
X61000Y167001D01*
X63499D01*
X60500Y164002D02*
Y166001D01*
X62499Y164002D01*
X62999D01*
X63499Y164501D01*
Y165501D01*
X62999Y166001D01*
X76499Y99500D02*
X73500D01*
Y97501D01*
Y96501D02*
Y95501D01*
Y96001D01*
X76499D01*
X75999Y96501D01*
X22999Y151999D02*
X22500Y152499D01*
X21500D01*
X21000Y151999D01*
Y150000D01*
X21500Y149500D01*
X22500D01*
X22999Y150000D01*
X23999Y151999D02*
X24499Y152499D01*
X25499D01*
X25998Y151999D01*
Y151499D01*
X25499Y150999D01*
X25998Y150500D01*
Y150000D01*
X25499Y149500D01*
X24499D01*
X23999Y150000D01*
Y150500D01*
X24499Y150999D01*
X23999Y151499D01*
Y151999D01*
X24499Y150999D02*
X25499D01*
X22499Y165499D02*
X22000Y165999D01*
X21000D01*
X20500Y165499D01*
Y163500D01*
X21000Y163000D01*
X22000D01*
X22499Y163500D01*
X23499Y165999D02*
X25498D01*
Y165499D01*
X23499Y163500D01*
Y163000D01*
X87499Y136501D02*
X87999Y137001D01*
Y138000D01*
X87499Y138500D01*
X85500D01*
X85000Y138000D01*
Y137001D01*
X85500Y136501D01*
X87999Y133502D02*
X87499Y134501D01*
X86500Y135501D01*
X85500D01*
X85000Y135001D01*
Y134001D01*
X85500Y133502D01*
X86000D01*
X86500Y134001D01*
Y135501D01*
X59499Y185499D02*
X59000Y185999D01*
X58000D01*
X57500Y185499D01*
Y183500D01*
X58000Y183000D01*
X59000D01*
X59499Y183500D01*
X62498Y185999D02*
X60499D01*
Y184500D01*
X61499Y184999D01*
X61999D01*
X62498Y184500D01*
Y183500D01*
X61999Y183000D01*
X60999D01*
X60499Y183500D01*
X82999Y199999D02*
X82499Y200499D01*
X81500D01*
X81000Y199999D01*
Y198000D01*
X81500Y197500D01*
X82499D01*
X82999Y198000D01*
X85499Y197500D02*
Y200499D01*
X83999Y199000D01*
X85998D01*
X29099Y253099D02*
X28600Y253599D01*
X27600D01*
X27100Y253099D01*
Y251100D01*
X27600Y250600D01*
X28600D01*
X29099Y251100D01*
X30099Y253099D02*
X30599Y253599D01*
X31599D01*
X32098Y253099D01*
Y252599D01*
X31599Y252099D01*
X31099D01*
X31599D01*
X32098Y251600D01*
Y251100D01*
X31599Y250600D01*
X30599D01*
X30099Y251100D01*
X63999Y141501D02*
X64499Y142000D01*
Y143000D01*
X63999Y143500D01*
X62000D01*
X61500Y143000D01*
Y142000D01*
X62000Y141501D01*
X61500Y140501D02*
Y139501D01*
Y140001D01*
X64499D01*
X63999Y140501D01*
X285500Y195999D02*
Y193500D01*
X286000Y193000D01*
X287000D01*
X287499Y193500D01*
Y195999D01*
X290498Y195499D02*
X289999Y195999D01*
X288999D01*
X288499Y195499D01*
Y194999D01*
X288999Y194500D01*
X289999D01*
X290498Y194000D01*
Y193500D01*
X289999Y193000D01*
X288999D01*
X288499Y193500D01*
X291498Y195999D02*
Y193000D01*
X292998D01*
X293497Y193500D01*
Y194000D01*
X292998Y194500D01*
X291498D01*
X292998D01*
X293497Y194999D01*
Y195499D01*
X292998Y195999D01*
X291498D01*
X112850Y141999D02*
Y139500D01*
X113350Y139000D01*
X114350D01*
X114850Y139500D01*
Y141999D01*
X117849D02*
X115849D01*
Y140499D01*
X116849Y140999D01*
X117349D01*
X117849Y140499D01*
Y139500D01*
X117349Y139000D01*
X116349D01*
X115849Y139500D01*
X185350Y178499D02*
Y176000D01*
X185850Y175500D01*
X186850D01*
X187350Y176000D01*
Y178499D01*
X189849Y175500D02*
Y178499D01*
X188349Y176999D01*
X190349D01*
X113499Y92999D02*
X112999Y93499D01*
X112000D01*
X111500Y92999D01*
Y92499D01*
X112000Y92000D01*
X112999D01*
X113499Y91500D01*
Y91000D01*
X112999Y90500D01*
X112000D01*
X111500Y91000D01*
X114499Y93499D02*
Y90500D01*
X115499Y91500D01*
X116498Y90500D01*
Y93499D01*
X117498D02*
Y90500D01*
X118998D01*
X119497Y91000D01*
Y92999D01*
X118998Y93499D01*
X117498D01*
X208350Y113500D02*
Y116499D01*
X209850D01*
X210350Y115999D01*
Y114999D01*
X209850Y114500D01*
X208350D01*
X209350D02*
X210350Y113500D01*
X212849D02*
X211849D01*
X211349Y114000D01*
Y114999D01*
X211849Y115499D01*
X212849D01*
X213349Y114999D01*
Y114500D01*
X211349D01*
X214349Y113500D02*
X215848D01*
X216348Y114000D01*
X215848Y114500D01*
X214848D01*
X214349Y114999D01*
X214848Y115499D01*
X216348D01*
X218847Y113500D02*
X217847D01*
X217348Y114000D01*
Y114999D01*
X217847Y115499D01*
X218847D01*
X219347Y114999D01*
Y114500D01*
X217348D01*
X220846Y115999D02*
Y115499D01*
X220346D01*
X221346D01*
X220846D01*
Y114000D01*
X221346Y113500D01*
X57950Y74250D02*
Y77249D01*
X59449D01*
X59949Y76749D01*
Y75749D01*
X59449Y75250D01*
X57950D01*
X58950D02*
X59949Y74250D01*
X62948D02*
X60949D01*
X62948Y76249D01*
Y76749D01*
X62449Y77249D01*
X61449D01*
X60949Y76749D01*
X63948D02*
X64448Y77249D01*
X65448D01*
X65947Y76749D01*
Y74750D01*
X65448Y74250D01*
X64448D01*
X63948Y74750D01*
Y76749D01*
X92950Y73750D02*
Y76749D01*
X94450D01*
X94949Y76249D01*
Y75249D01*
X94450Y74750D01*
X92950D01*
X93950D02*
X94949Y73750D01*
X95949D02*
X96949D01*
X96449D01*
Y76749D01*
X95949Y76249D01*
X98448Y74250D02*
X98948Y73750D01*
X99948D01*
X100448Y74250D01*
Y76249D01*
X99948Y76749D01*
X98948D01*
X98448Y76249D01*
Y75749D01*
X98948Y75249D01*
X100448D01*
X127950Y74250D02*
Y77249D01*
X129449D01*
X129949Y76749D01*
Y75749D01*
X129449Y75250D01*
X127950D01*
X128950D02*
X129949Y74250D01*
X130949D02*
X131949D01*
X131449D01*
Y77249D01*
X130949Y76749D01*
X133448D02*
X133948Y77249D01*
X134948D01*
X135448Y76749D01*
Y76249D01*
X134948Y75749D01*
X135448Y75250D01*
Y74750D01*
X134948Y74250D01*
X133948D01*
X133448Y74750D01*
Y75250D01*
X133948Y75749D01*
X133448Y76249D01*
Y76749D01*
X133948Y75749D02*
X134948D01*
X162950Y74250D02*
Y77249D01*
X164450D01*
X164949Y76749D01*
Y75749D01*
X164450Y75250D01*
X162950D01*
X163950D02*
X164949Y74250D01*
X165949D02*
X166949D01*
X166449D01*
Y77249D01*
X165949Y76749D01*
X168448Y77249D02*
X170448D01*
Y76749D01*
X168448Y74750D01*
Y74250D01*
X242500Y217500D02*
Y220499D01*
X244000D01*
X244499Y219999D01*
Y219000D01*
X244000Y218500D01*
X242500D01*
X243500D02*
X244499Y217500D01*
X245499D02*
X246499D01*
X245999D01*
Y220499D01*
X245499Y219999D01*
X249998Y220499D02*
X248998Y219999D01*
X247998Y219000D01*
Y218000D01*
X248498Y217500D01*
X249498D01*
X249998Y218000D01*
Y218500D01*
X249498Y219000D01*
X247998D01*
X226000Y217350D02*
Y220349D01*
X227500D01*
X227999Y219850D01*
Y218850D01*
X227500Y218350D01*
X226000D01*
X227000D02*
X227999Y217350D01*
X228999D02*
X229999D01*
X229499D01*
Y220349D01*
X228999Y219850D01*
X233498Y220349D02*
X231498D01*
Y218850D01*
X232498Y219350D01*
X232998D01*
X233498Y218850D01*
Y217850D01*
X232998Y217350D01*
X231998D01*
X231498Y217850D01*
X189500Y217350D02*
Y220349D01*
X190999D01*
X191499Y219850D01*
Y218850D01*
X190999Y218350D01*
X189500D01*
X190500D02*
X191499Y217350D01*
X192499D02*
X193499D01*
X192999D01*
Y220349D01*
X192499Y219850D01*
X196498Y217350D02*
Y220349D01*
X194998Y218850D01*
X196998D01*
X153500Y216850D02*
Y219849D01*
X154999D01*
X155499Y219350D01*
Y218350D01*
X154999Y217850D01*
X153500D01*
X154500D02*
X155499Y216850D01*
X156499D02*
X157499D01*
X156999D01*
Y219849D01*
X156499Y219350D01*
X158998D02*
X159498Y219849D01*
X160498D01*
X160998Y219350D01*
Y218850D01*
X160498Y218350D01*
X159998D01*
X160498D01*
X160998Y217850D01*
Y217350D01*
X160498Y216850D01*
X159498D01*
X158998Y217350D01*
X266500Y197500D02*
X269499D01*
Y196001D01*
X268999Y195501D01*
X268000D01*
X267500Y196001D01*
Y197500D01*
Y196500D02*
X266500Y195501D01*
Y194501D02*
Y193501D01*
Y194001D01*
X269499D01*
X268999Y194501D01*
X266500Y190002D02*
Y192002D01*
X268499Y190002D01*
X268999D01*
X269499Y190502D01*
Y191502D01*
X268999Y192002D01*
X261500Y183500D02*
X264499D01*
Y182001D01*
X263999Y181501D01*
X263000D01*
X262500Y182001D01*
Y183500D01*
Y182500D02*
X261500Y181501D01*
Y180501D02*
Y179501D01*
Y180001D01*
X264499D01*
X263999Y180501D01*
X261500Y178002D02*
Y177002D01*
Y177502D01*
X264499D01*
X263999Y178002D01*
X292000Y148150D02*
X294999D01*
Y146650D01*
X294499Y146150D01*
X293499D01*
X293000Y146650D01*
Y148150D01*
Y147150D02*
X292000Y146150D01*
Y145151D02*
Y144151D01*
Y144651D01*
X294999D01*
X294499Y145151D01*
Y142651D02*
X294999Y142151D01*
Y141152D01*
X294499Y140652D01*
X292500D01*
X292000Y141152D01*
Y142151D01*
X292500Y142651D01*
X294499D01*
X227350Y117500D02*
Y120499D01*
X228850D01*
X229350Y119999D01*
Y119000D01*
X228850Y118500D01*
X227350D01*
X228350D02*
X229350Y117500D01*
X230349Y118000D02*
X230849Y117500D01*
X231849D01*
X232349Y118000D01*
Y119999D01*
X231849Y120499D01*
X230849D01*
X230349Y119999D01*
Y119499D01*
X230849Y119000D01*
X232349D01*
X169500Y189500D02*
Y192499D01*
X171000D01*
X171499Y191999D01*
Y190999D01*
X171000Y190500D01*
X169500D01*
X170500D02*
X171499Y189500D01*
X172499Y191999D02*
X172999Y192499D01*
X173999D01*
X174498Y191999D01*
Y191499D01*
X173999Y190999D01*
X174498Y190500D01*
Y190000D01*
X173999Y189500D01*
X172999D01*
X172499Y190000D01*
Y190500D01*
X172999Y190999D01*
X172499Y191499D01*
Y191999D01*
X172999Y190999D02*
X173999D01*
X250000Y133500D02*
Y136499D01*
X251500D01*
X251999Y135999D01*
Y135000D01*
X251500Y134500D01*
X250000D01*
X251000D02*
X251999Y133500D01*
X252999Y136499D02*
X254998D01*
Y135999D01*
X252999Y134000D01*
Y133500D01*
X249850Y151000D02*
Y153999D01*
X251350D01*
X251850Y153499D01*
Y152499D01*
X251350Y152000D01*
X249850D01*
X250850D02*
X251850Y151000D01*
X254849Y153999D02*
X253849Y153499D01*
X252849Y152499D01*
Y151500D01*
X253349Y151000D01*
X254349D01*
X254849Y151500D01*
Y152000D01*
X254349Y152499D01*
X252849D01*
X207250Y64428D02*
Y67427D01*
X208750D01*
X209249Y66927D01*
Y65927D01*
X208750Y65428D01*
X207250D01*
X208250D02*
X209249Y64428D01*
X210249Y66927D02*
X210749Y67427D01*
X211749D01*
X212248Y66927D01*
Y66427D01*
X211749Y65927D01*
X211249D01*
X211749D01*
X212248Y65428D01*
Y64928D01*
X211749Y64428D01*
X210749D01*
X210249Y64928D01*
X207250Y45428D02*
Y48427D01*
X208750D01*
X209249Y47927D01*
Y46927D01*
X208750Y46428D01*
X207250D01*
X208250D02*
X209249Y45428D01*
X212248D02*
X210249D01*
X212248Y47427D01*
Y47927D01*
X211749Y48427D01*
X210749D01*
X210249Y47927D01*
X207500Y27378D02*
Y30377D01*
X208999D01*
X209499Y29877D01*
Y28877D01*
X208999Y28378D01*
X207500D01*
X208500D02*
X209499Y27378D01*
X210499D02*
X211499D01*
X210999D01*
Y30377D01*
X210499Y29877D01*
X76999Y75000D02*
Y76999D01*
X76499Y77499D01*
X75500D01*
X75000Y76999D01*
Y75000D01*
X75500Y74500D01*
X76499D01*
X76000Y75500D02*
X76999Y74500D01*
X76499D02*
X76999Y75000D01*
X77999Y77499D02*
X79998D01*
Y76999D01*
X77999Y75000D01*
Y74500D01*
X111499Y74500D02*
Y76499D01*
X111000Y76999D01*
X110000D01*
X109500Y76499D01*
Y74500D01*
X110000Y74000D01*
X111000D01*
X110500Y75000D02*
X111499Y74000D01*
X111000D02*
X111499Y74500D01*
X114498Y76999D02*
X113499Y76499D01*
X112499Y75499D01*
Y74500D01*
X112999Y74000D01*
X113999D01*
X114498Y74500D01*
Y75000D01*
X113999Y75499D01*
X112499D01*
X146499Y75000D02*
Y76999D01*
X146000Y77499D01*
X145000D01*
X144500Y76999D01*
Y75000D01*
X145000Y74500D01*
X146000D01*
X145500Y75500D02*
X146499Y74500D01*
X146000D02*
X146499Y75000D01*
X149498Y77499D02*
X147499D01*
Y75999D01*
X148499Y76499D01*
X148999D01*
X149498Y75999D01*
Y75000D01*
X148999Y74500D01*
X147999D01*
X147499Y75000D01*
X181499D02*
Y76999D01*
X181000Y77499D01*
X180000D01*
X179500Y76999D01*
Y75000D01*
X180000Y74500D01*
X181000D01*
X180500Y75500D02*
X181499Y74500D01*
X181000D02*
X181499Y75000D01*
X183999Y74500D02*
Y77499D01*
X182499Y75999D01*
X184498D01*
X238499Y48000D02*
Y49999D01*
X238000Y50499D01*
X237000D01*
X236500Y49999D01*
Y48000D01*
X237000Y47500D01*
X238000D01*
X237500Y48500D02*
X238499Y47500D01*
X238000D02*
X238499Y48000D01*
X239499Y49999D02*
X239999Y50499D01*
X240999D01*
X241498Y49999D01*
Y49499D01*
X240999Y49000D01*
X240499D01*
X240999D01*
X241498Y48500D01*
Y48000D01*
X240999Y47500D01*
X239999D01*
X239499Y48000D01*
X238999Y29500D02*
Y31499D01*
X238499Y31999D01*
X237500D01*
X237000Y31499D01*
Y29500D01*
X237500Y29000D01*
X238499D01*
X238000Y30000D02*
X238999Y29000D01*
X238499D02*
X238999Y29500D01*
X241998Y29000D02*
X239999D01*
X241998Y30999D01*
Y31499D01*
X241498Y31999D01*
X240499D01*
X239999Y31499D01*
X238999Y11000D02*
Y12999D01*
X238499Y13499D01*
X237500D01*
X237000Y12999D01*
Y11000D01*
X237500Y10500D01*
X238499D01*
X238000Y11500D02*
X238999Y10500D01*
X238499D02*
X238999Y11000D01*
X239999Y10500D02*
X240999D01*
X240499D01*
Y13499D01*
X239999Y12999D01*
X220350Y126500D02*
Y129499D01*
X221850D01*
X222350Y128999D01*
Y127999D01*
X221850Y127500D01*
X220350D01*
X223349Y129499D02*
Y126500D01*
X224849D01*
X225349Y127000D01*
Y127500D01*
X224849Y127999D01*
X223349D01*
X224849D01*
X225349Y128499D01*
Y128999D01*
X224849Y129499D01*
X223349D01*
X226348Y126500D02*
X227348D01*
X226848D01*
Y129499D01*
X226348Y128999D01*
X230347Y126500D02*
Y129499D01*
X228848Y127999D01*
X230847D01*
X235500Y239350D02*
Y242349D01*
X237000D01*
X237499Y241850D01*
Y240850D01*
X237000Y240350D01*
X235500D01*
X238499Y239350D02*
X239499D01*
X238999D01*
Y242349D01*
X238499Y241850D01*
X240998D02*
X241498Y242349D01*
X242498D01*
X242998Y241850D01*
Y241350D01*
X242498Y240850D01*
X241998D01*
X242498D01*
X242998Y240350D01*
Y239850D01*
X242498Y239350D01*
X241498D01*
X240998Y239850D01*
X200500Y239350D02*
Y242349D01*
X201999D01*
X202499Y241850D01*
Y240850D01*
X201999Y240350D01*
X200500D01*
X203499Y239350D02*
X204499D01*
X203999D01*
Y242349D01*
X203499Y241850D01*
X207998Y239350D02*
X205998D01*
X207998Y241350D01*
Y241850D01*
X207498Y242349D01*
X206498D01*
X205998Y241850D01*
X164000Y239350D02*
Y242349D01*
X165499D01*
X165999Y241850D01*
Y240850D01*
X165499Y240350D01*
X164000D01*
X166999Y239350D02*
X167999D01*
X167499D01*
Y242349D01*
X166999Y241850D01*
X169498Y239350D02*
X170498D01*
X169998D01*
Y242349D01*
X169498Y241850D01*
X127500Y239350D02*
Y242349D01*
X128999D01*
X129499Y241850D01*
Y240850D01*
X128999Y240350D01*
X127500D01*
X130499Y239350D02*
X131499D01*
X130999D01*
Y242349D01*
X130499Y241850D01*
X132998D02*
X133498Y242349D01*
X134498D01*
X134998Y241850D01*
Y239850D01*
X134498Y239350D01*
X133498D01*
X132998Y239850D01*
Y241850D01*
X55500Y44000D02*
Y46999D01*
X56999D01*
X57499Y46499D01*
Y45500D01*
X56999Y45000D01*
X55500D01*
X58499Y44500D02*
X58999Y44000D01*
X59999D01*
X60498Y44500D01*
Y46499D01*
X59999Y46999D01*
X58999D01*
X58499Y46499D01*
Y45999D01*
X58999Y45500D01*
X60498D01*
X91000Y44000D02*
Y46999D01*
X92500D01*
X92999Y46499D01*
Y45500D01*
X92500Y45000D01*
X91000D01*
X93999Y46499D02*
X94499Y46999D01*
X95499D01*
X95998Y46499D01*
Y45999D01*
X95499Y45500D01*
X95998Y45000D01*
Y44500D01*
X95499Y44000D01*
X94499D01*
X93999Y44500D01*
Y45000D01*
X94499Y45500D01*
X93999Y45999D01*
Y46499D01*
X94499Y45500D02*
X95499D01*
X150000Y44000D02*
Y46999D01*
X151499D01*
X151999Y46499D01*
Y45500D01*
X151499Y45000D01*
X150000D01*
X152999Y46999D02*
X154998D01*
Y46499D01*
X152999Y44500D01*
Y44000D01*
X185000D02*
Y46999D01*
X186500D01*
X186999Y46499D01*
Y45500D01*
X186500Y45000D01*
X185000D01*
X189998Y46999D02*
X188999Y46499D01*
X187999Y45500D01*
Y44500D01*
X188499Y44000D01*
X189499D01*
X189998Y44500D01*
Y45000D01*
X189499Y45500D01*
X187999D01*
X135500Y203500D02*
Y206499D01*
X136999D01*
X137499Y205999D01*
Y204999D01*
X136999Y204500D01*
X135500D01*
X140498Y206499D02*
X138499D01*
Y204999D01*
X139499Y205499D01*
X139999D01*
X140498Y204999D01*
Y204000D01*
X139999Y203500D01*
X138999D01*
X138499Y204000D01*
X266000Y73000D02*
Y75999D01*
X267499D01*
X267999Y75499D01*
Y74499D01*
X267499Y74000D01*
X266000D01*
X268999Y75499D02*
X269499Y75999D01*
X270498D01*
X270998Y75499D01*
Y74999D01*
X270498Y74499D01*
X269999D01*
X270498D01*
X270998Y74000D01*
Y73500D01*
X270498Y73000D01*
X269499D01*
X268999Y73500D01*
X45949Y8000D02*
Y10999D01*
X47448D01*
X47948Y10499D01*
Y9499D01*
X47448Y9000D01*
X45949D01*
X50947Y8000D02*
X48948D01*
X50947Y9999D01*
Y10499D01*
X50447Y10999D01*
X49448D01*
X48948Y10499D01*
X45949Y44500D02*
Y47499D01*
X47448D01*
X47948Y46999D01*
Y46000D01*
X47448Y45500D01*
X45949D01*
X48948Y44500D02*
X49948D01*
X49448D01*
Y47499D01*
X48948Y46999D01*
X197850Y108499D02*
X197350Y108999D01*
X196350D01*
X195850Y108499D01*
Y106500D01*
X196350Y106000D01*
X197350D01*
X197850Y106500D01*
X198849Y106000D02*
X199849D01*
X199349D01*
Y108999D01*
X198849Y108499D01*
X201349Y108999D02*
X203348D01*
Y108499D01*
X201349Y106500D01*
Y106000D01*
X123350Y170999D02*
X122850Y171499D01*
X121850D01*
X121350Y170999D01*
Y169000D01*
X121850Y168500D01*
X122850D01*
X123350Y169000D01*
X124349Y168500D02*
X125349D01*
X124849D01*
Y171499D01*
X124349Y170999D01*
X128848Y171499D02*
X127848Y170999D01*
X126849Y170000D01*
Y169000D01*
X127348Y168500D01*
X128348D01*
X128848Y169000D01*
Y169500D01*
X128348Y170000D01*
X126849D01*
X147499Y117999D02*
X147000Y118499D01*
X146000D01*
X145500Y117999D01*
Y116000D01*
X146000Y115500D01*
X147000D01*
X147499Y116000D01*
X148499Y115500D02*
X149499D01*
X148999D01*
Y118499D01*
X148499Y117999D01*
X152998Y118499D02*
X150998D01*
Y116999D01*
X151998Y117499D01*
X152498D01*
X152998Y116999D01*
Y116000D01*
X152498Y115500D01*
X151498D01*
X150998Y116000D01*
X169499Y124999D02*
X169000Y125499D01*
X168000D01*
X167500Y124999D01*
Y123000D01*
X168000Y122500D01*
X169000D01*
X169499Y123000D01*
X170499Y122500D02*
X171499D01*
X170999D01*
Y125499D01*
X170499Y124999D01*
X174498Y122500D02*
Y125499D01*
X172998Y124000D01*
X174998D01*
X205850Y164499D02*
X205350Y164999D01*
X204350D01*
X203850Y164499D01*
Y162500D01*
X204350Y162000D01*
X205350D01*
X205850Y162500D01*
X206849Y162000D02*
X207849D01*
X207349D01*
Y164999D01*
X206849Y164499D01*
X209349D02*
X209848Y164999D01*
X210848D01*
X211348Y164499D01*
Y163999D01*
X210848Y163499D01*
X210348D01*
X210848D01*
X211348Y163000D01*
Y162500D01*
X210848Y162000D01*
X209848D01*
X209349Y162500D01*
X133499Y181999D02*
X133000Y182499D01*
X132000D01*
X131500Y181999D01*
Y180000D01*
X132000Y179500D01*
X133000D01*
X133499Y180000D01*
X134499Y179500D02*
X135499D01*
X134999D01*
Y182499D01*
X134499Y181999D01*
X138998Y179500D02*
X136998D01*
X138998Y181499D01*
Y181999D01*
X138498Y182499D01*
X137498D01*
X136998Y181999D01*
X130850Y123999D02*
X130350Y124499D01*
X129350D01*
X128850Y123999D01*
Y122000D01*
X129350Y121500D01*
X130350D01*
X130850Y122000D01*
X131849Y121500D02*
X132849D01*
X132349D01*
Y124499D01*
X131849Y123999D01*
X134349Y121500D02*
X135348D01*
X134848D01*
Y124499D01*
X134349Y123999D01*
X274499Y146150D02*
Y148150D01*
X273000D01*
X273499Y147150D01*
Y146650D01*
X273000Y146150D01*
X272000D01*
X271500Y146650D01*
Y147650D01*
X272000Y148150D01*
X274499Y145151D02*
X272500D01*
X271500Y144151D01*
X272500Y143151D01*
X274499D01*
X10999Y203001D02*
X11499Y203501D01*
Y204500D01*
X10999Y205000D01*
X9000D01*
X8500Y204500D01*
Y203501D01*
X9000Y203001D01*
Y202001D02*
X8500Y201501D01*
Y200501D01*
X9000Y200002D01*
X10999D01*
X11499Y200501D01*
Y201501D01*
X10999Y202001D01*
X10499D01*
X10000Y201501D01*
Y200002D01*
X10999Y165501D02*
X11499Y166000D01*
Y167000D01*
X10999Y167500D01*
X9000D01*
X8500Y167000D01*
Y166000D01*
X9000Y165501D01*
X8500Y164501D02*
Y163501D01*
Y164001D01*
X11499D01*
X10999Y164501D01*
Y162002D02*
X11499Y161502D01*
Y160502D01*
X10999Y160002D01*
X9000D01*
X8500Y160502D01*
Y161502D01*
X9000Y162002D01*
X10999D01*
X28500Y273000D02*
Y275999D01*
X30000D01*
X30499Y275499D01*
Y274500D01*
X30000Y274000D01*
X28500D01*
X32999Y273000D02*
Y275999D01*
X31499Y274500D01*
X33498D01*
X46999Y198000D02*
X44500D01*
X44000Y197500D01*
Y196501D01*
X44500Y196001D01*
X46999D01*
X46499Y195001D02*
X46999Y194501D01*
Y193501D01*
X46499Y193002D01*
X45999D01*
X45500Y193501D01*
Y194001D01*
Y193501D01*
X45000Y193002D01*
X44500D01*
X44000Y193501D01*
Y194501D01*
X44500Y195001D01*
M02*
