G04 Layer_Physical_Order=2*
G04 Layer_Color=16711680*
%FSLAX25Y25*%
%MOIN*%
G70*
G01*
G75*
%ADD14R,0.03740X0.03937*%
%ADD24R,0.03937X0.04134*%
%ADD25R,0.04134X0.03937*%
%ADD31C,0.02000*%
%ADD32C,0.01000*%
%ADD33C,0.00800*%
%ADD34C,0.05000*%
%ADD35C,0.04000*%
%ADD36C,0.02500*%
%ADD37C,0.01200*%
%ADD38C,0.11811*%
%ADD39C,0.08661*%
%ADD40C,0.06000*%
%ADD41R,0.06000X0.06000*%
%ADD42R,0.05500X0.07500*%
%ADD43O,0.05500X0.07500*%
%ADD44O,0.07500X0.05500*%
%ADD45R,0.07500X0.05500*%
%ADD46C,0.03000*%
%ADD47C,0.20000*%
%ADD48C,0.02700*%
%ADD49C,0.01969*%
%ADD50R,0.06500X0.02800*%
%ADD51O,0.08661X0.02362*%
%ADD52R,0.08600X0.06500*%
%ADD53C,0.03000*%
G36*
X308500Y0D02*
X0D01*
Y287000D01*
X308500D01*
Y0D01*
D02*
G37*
%LPC*%
G36*
X56874Y271282D02*
X55895Y271153D01*
X54983Y270776D01*
X54800Y270635D01*
X56874Y268561D01*
X58948Y270635D01*
X58765Y270776D01*
X57853Y271153D01*
X56874Y271282D01*
D02*
G37*
G36*
X60009Y269574D02*
X57404Y266970D01*
X56874Y267500D01*
X56344Y266970D01*
X53739Y269574D01*
X53598Y269391D01*
X53220Y268479D01*
X53092Y267500D01*
Y265500D01*
X53220Y264521D01*
X53598Y263609D01*
X53739Y263426D01*
X56344Y266030D01*
X56874Y265500D01*
X57404Y266030D01*
X60009Y263426D01*
X60150Y263609D01*
X60527Y264521D01*
X60656Y265500D01*
Y267500D01*
X60527Y268479D01*
X60150Y269391D01*
X60009Y269574D01*
D02*
G37*
G36*
X52450Y270950D02*
X45550D01*
Y262050D01*
X52450D01*
Y270950D01*
D02*
G37*
G36*
X56874Y264439D02*
X54800Y262365D01*
X54983Y262224D01*
X55895Y261846D01*
X56874Y261718D01*
X57853Y261846D01*
X58765Y262224D01*
X58948Y262365D01*
X56874Y264439D01*
D02*
G37*
G36*
X248126Y257633D02*
X247147Y257504D01*
X246235Y257126D01*
X246052Y256985D01*
X248126Y254911D01*
X250200Y256985D01*
X250017Y257126D01*
X249105Y257504D01*
X248126Y257633D01*
D02*
G37*
G36*
X212126D02*
X211147Y257504D01*
X210235Y257126D01*
X210052Y256985D01*
X212126Y254911D01*
X214200Y256985D01*
X214017Y257126D01*
X213105Y257504D01*
X212126Y257633D01*
D02*
G37*
G36*
X176126D02*
X175147Y257504D01*
X174235Y257126D01*
X174052Y256985D01*
X176126Y254911D01*
X178200Y256985D01*
X178017Y257126D01*
X177105Y257504D01*
X176126Y257633D01*
D02*
G37*
G36*
X140126D02*
X139147Y257504D01*
X138235Y257126D01*
X138052Y256985D01*
X140126Y254911D01*
X142200Y256985D01*
X142017Y257126D01*
X141105Y257504D01*
X140126Y257633D01*
D02*
G37*
G36*
X290500Y274733D02*
X288821Y274601D01*
X287183Y274208D01*
X285627Y273563D01*
X284191Y272683D01*
X282911Y271589D01*
X281817Y270309D01*
X280937Y268873D01*
X280292Y267317D01*
X279899Y265679D01*
X279767Y264000D01*
X279899Y262321D01*
X280292Y260683D01*
X280937Y259127D01*
X281817Y257691D01*
X282911Y256411D01*
X284191Y255317D01*
X285627Y254437D01*
X287183Y253792D01*
X288821Y253399D01*
X290500Y253267D01*
X292179Y253399D01*
X293817Y253792D01*
X295373Y254437D01*
X296809Y255317D01*
X298089Y256411D01*
X299183Y257691D01*
X300063Y259127D01*
X300708Y260683D01*
X301101Y262321D01*
X301233Y264000D01*
X301101Y265679D01*
X300708Y267317D01*
X300063Y268873D01*
X299183Y270309D01*
X298089Y271589D01*
X296809Y272683D01*
X295373Y273563D01*
X293817Y274208D01*
X292179Y274601D01*
X290500Y274733D01*
D02*
G37*
G36*
X110500D02*
X108821Y274601D01*
X107183Y274208D01*
X105627Y273563D01*
X104191Y272683D01*
X102911Y271589D01*
X101817Y270309D01*
X100937Y268873D01*
X100292Y267317D01*
X99899Y265679D01*
X99767Y264000D01*
X99899Y262321D01*
X100292Y260683D01*
X100937Y259127D01*
X101817Y257691D01*
X102911Y256411D01*
X104191Y255317D01*
X105627Y254437D01*
X107183Y253792D01*
X108821Y253399D01*
X110500Y253267D01*
X112179Y253399D01*
X113817Y253792D01*
X115373Y254437D01*
X116809Y255317D01*
X118089Y256411D01*
X119183Y257691D01*
X120063Y259127D01*
X120708Y260683D01*
X121101Y262321D01*
X121233Y264000D01*
X121101Y265679D01*
X120708Y267317D01*
X120063Y268873D01*
X119183Y270309D01*
X118089Y271589D01*
X116809Y272683D01*
X115373Y273563D01*
X113817Y274208D01*
X112179Y274601D01*
X110500Y274733D01*
D02*
G37*
G36*
X244991Y255925D02*
X244850Y255742D01*
X244473Y254829D01*
X244344Y253850D01*
Y251850D01*
X244473Y250871D01*
X244850Y249959D01*
X244991Y249776D01*
X247596Y252381D01*
X248126Y251850D01*
X248656Y252381D01*
X251261Y249776D01*
X251402Y249959D01*
X251780Y250871D01*
X251908Y251850D01*
Y253850D01*
X251780Y254829D01*
X251402Y255742D01*
X251261Y255925D01*
X248656Y253320D01*
X248126Y253850D01*
X247596Y253320D01*
X244991Y255925D01*
D02*
G37*
G36*
X208991D02*
X208850Y255742D01*
X208472Y254829D01*
X208344Y253850D01*
Y251850D01*
X208472Y250871D01*
X208850Y249959D01*
X208991Y249776D01*
X211596Y252381D01*
X212126Y251850D01*
X212656Y252381D01*
X215261Y249776D01*
X215402Y249959D01*
X215779Y250871D01*
X215908Y251850D01*
Y253850D01*
X215779Y254829D01*
X215402Y255742D01*
X215261Y255925D01*
X212656Y253320D01*
X212126Y253850D01*
X211596Y253320D01*
X208991Y255925D01*
D02*
G37*
G36*
X172991D02*
X172850Y255742D01*
X172473Y254829D01*
X172344Y253850D01*
Y251850D01*
X172473Y250871D01*
X172850Y249959D01*
X172991Y249776D01*
X175596Y252381D01*
X176126Y251850D01*
X176656Y252381D01*
X179261Y249776D01*
X179402Y249959D01*
X179780Y250871D01*
X179908Y251850D01*
Y253850D01*
X179780Y254829D01*
X179402Y255742D01*
X179261Y255925D01*
X176656Y253320D01*
X176126Y253850D01*
X175596Y253320D01*
X172991Y255925D01*
D02*
G37*
G36*
X136991D02*
X136850Y255742D01*
X136472Y254829D01*
X136344Y253850D01*
Y251850D01*
X136472Y250871D01*
X136850Y249959D01*
X136991Y249776D01*
X139596Y252381D01*
X140126Y251850D01*
X140656Y252381D01*
X143261Y249776D01*
X143402Y249959D01*
X143780Y250871D01*
X143908Y251850D01*
Y253850D01*
X143780Y254829D01*
X143402Y255742D01*
X143261Y255925D01*
X140656Y253320D01*
X140126Y253850D01*
X139596Y253320D01*
X136991Y255925D01*
D02*
G37*
G36*
X259450Y257300D02*
X252550D01*
Y248400D01*
X259450D01*
Y257300D01*
D02*
G37*
G36*
X223450D02*
X216550D01*
Y248400D01*
X223450D01*
Y257300D01*
D02*
G37*
G36*
X187450D02*
X180550D01*
Y248400D01*
X187450D01*
Y257300D01*
D02*
G37*
G36*
X151450D02*
X144550D01*
Y248400D01*
X151450D01*
Y257300D01*
D02*
G37*
G36*
X248126Y250790D02*
X246052Y248715D01*
X246235Y248575D01*
X247147Y248197D01*
X248126Y248068D01*
X249105Y248197D01*
X250017Y248575D01*
X250200Y248715D01*
X248126Y250790D01*
D02*
G37*
G36*
X212126D02*
X210052Y248715D01*
X210235Y248575D01*
X211147Y248197D01*
X212126Y248068D01*
X213105Y248197D01*
X214017Y248575D01*
X214200Y248715D01*
X212126Y250790D01*
D02*
G37*
G36*
X176126D02*
X174052Y248715D01*
X174235Y248575D01*
X175147Y248197D01*
X176126Y248068D01*
X177105Y248197D01*
X178017Y248575D01*
X178200Y248715D01*
X176126Y250790D01*
D02*
G37*
G36*
X140126D02*
X138052Y248715D01*
X138235Y248575D01*
X139147Y248197D01*
X140126Y248068D01*
X141105Y248197D01*
X142017Y248575D01*
X142200Y248715D01*
X140126Y250790D01*
D02*
G37*
G36*
X299000Y245439D02*
X297646Y245306D01*
X296345Y244911D01*
X295145Y244269D01*
X294676Y243885D01*
X299000Y239561D01*
X303324Y243885D01*
X302855Y244269D01*
X301655Y244911D01*
X300354Y245306D01*
X299000Y245439D01*
D02*
G37*
G36*
X279000D02*
X277646Y245306D01*
X276345Y244911D01*
X275145Y244269D01*
X274676Y243885D01*
X279000Y239561D01*
X283324Y243885D01*
X282855Y244269D01*
X281655Y244911D01*
X280354Y245306D01*
X279000Y245439D01*
D02*
G37*
G36*
X304385Y242824D02*
X300061Y238500D01*
X304385Y234176D01*
X304769Y234645D01*
X305411Y235845D01*
X305806Y237146D01*
X305939Y238500D01*
X305806Y239854D01*
X305411Y241155D01*
X304769Y242355D01*
X304385Y242824D01*
D02*
G37*
G36*
X284385D02*
X280061Y238500D01*
X284385Y234176D01*
X284770Y234645D01*
X285411Y235845D01*
X285806Y237146D01*
X285939Y238500D01*
X285806Y239854D01*
X285411Y241155D01*
X284770Y242355D01*
X284385Y242824D01*
D02*
G37*
G36*
X273615D02*
X273231Y242355D01*
X272589Y241155D01*
X272194Y239854D01*
X272061Y238500D01*
X272194Y237146D01*
X272589Y235845D01*
X273231Y234645D01*
X273615Y234176D01*
X277939Y238500D01*
X273615Y242824D01*
D02*
G37*
G36*
X254000Y279724D02*
X30500D01*
X30032Y279630D01*
X29635Y279365D01*
X10635Y260365D01*
X10370Y259968D01*
X10277Y259500D01*
Y209828D01*
X9914Y209586D01*
X9428Y208858D01*
X9257Y208000D01*
X9428Y207142D01*
X9914Y206414D01*
X10642Y205928D01*
X11500Y205757D01*
X12358Y205928D01*
X13086Y206414D01*
X13572Y207142D01*
X13743Y208000D01*
X13572Y208858D01*
X13086Y209586D01*
X12723Y209828D01*
Y258993D01*
X31007Y277276D01*
X253493D01*
X288776Y241993D01*
Y236500D01*
X288870Y236032D01*
X289135Y235635D01*
X294777Y229993D01*
Y227007D01*
X289135Y221365D01*
X288870Y220968D01*
X288776Y220500D01*
Y201000D01*
X288870Y200532D01*
X289135Y200135D01*
X294777Y194493D01*
Y177828D01*
X294414Y177586D01*
X293928Y176858D01*
X293757Y176000D01*
X293928Y175142D01*
X294414Y174414D01*
X295142Y173928D01*
X296000Y173757D01*
X296858Y173928D01*
X297586Y174414D01*
X298072Y175142D01*
X298243Y176000D01*
X298072Y176858D01*
X297586Y177586D01*
X297223Y177828D01*
Y195000D01*
X297130Y195468D01*
X296865Y195865D01*
X291224Y201507D01*
Y219993D01*
X292823Y221593D01*
X292589Y221155D01*
X292194Y219854D01*
X292061Y218500D01*
X292194Y217146D01*
X292589Y215845D01*
X293231Y214645D01*
X293615Y214176D01*
X298470Y219030D01*
X303324Y223885D01*
X302855Y224270D01*
X301655Y224911D01*
X300354Y225306D01*
X299000Y225439D01*
X297646Y225306D01*
X296345Y224911D01*
X295907Y224677D01*
X296865Y225635D01*
X297130Y226032D01*
X297223Y226500D01*
Y230500D01*
X297130Y230968D01*
X296865Y231365D01*
X295907Y232323D01*
X296345Y232089D01*
X297646Y231694D01*
X299000Y231561D01*
X300354Y231694D01*
X301655Y232089D01*
X302855Y232731D01*
X303324Y233115D01*
X298470Y237970D01*
X293615Y242824D01*
X293231Y242355D01*
X292589Y241155D01*
X292194Y239854D01*
X292061Y238500D01*
X292194Y237146D01*
X292589Y235845D01*
X292823Y235407D01*
X291224Y237007D01*
Y242500D01*
X291130Y242968D01*
X290865Y243365D01*
X254865Y279365D01*
X254468Y279630D01*
X254000Y279724D01*
D02*
G37*
G36*
X279000Y237439D02*
X274676Y233115D01*
X275145Y232731D01*
X276345Y232089D01*
X277646Y231694D01*
X279000Y231561D01*
X280354Y231694D01*
X281655Y232089D01*
X282855Y232731D01*
X283324Y233115D01*
X279000Y237439D01*
D02*
G37*
G36*
X289000Y233574D02*
X287687Y233401D01*
X286463Y232894D01*
X285412Y232088D01*
X284606Y231037D01*
X284273Y230233D01*
X275000D01*
X274337Y230101D01*
X273774Y229726D01*
X267774Y223726D01*
X267399Y223163D01*
X267267Y222500D01*
Y212218D01*
X260782Y205733D01*
X239000D01*
X238337Y205601D01*
X237774Y205226D01*
X221782Y189233D01*
X213450D01*
Y189600D01*
X205550D01*
Y185400D01*
X213450D01*
Y185767D01*
X222500D01*
X223163Y185899D01*
X223726Y186274D01*
X239718Y202267D01*
X261500D01*
X262163Y202399D01*
X262726Y202774D01*
X270226Y210274D01*
X270601Y210837D01*
X270733Y211500D01*
Y221782D01*
X275718Y226767D01*
X284273D01*
X284606Y225963D01*
X285412Y224912D01*
X286463Y224106D01*
X287687Y223599D01*
X289000Y223426D01*
X290313Y223599D01*
X291537Y224106D01*
X292588Y224912D01*
X293394Y225963D01*
X293901Y227187D01*
X294074Y228500D01*
X293901Y229813D01*
X293394Y231037D01*
X292588Y232088D01*
X291537Y232894D01*
X290313Y233401D01*
X289000Y233574D01*
D02*
G37*
G36*
X202500Y227243D02*
X201642Y227072D01*
X200914Y226586D01*
X200428Y225858D01*
X200257Y225000D01*
X200342Y224572D01*
X189635Y213865D01*
X189370Y213468D01*
X189277Y213000D01*
Y158007D01*
X182993Y151724D01*
X176500D01*
X176032Y151630D01*
X175635Y151365D01*
X172428Y148158D01*
X172000Y148243D01*
X171142Y148072D01*
X170414Y147586D01*
X169928Y146858D01*
X169757Y146000D01*
X169928Y145142D01*
X170414Y144414D01*
X171142Y143928D01*
X172000Y143757D01*
X172858Y143928D01*
X173586Y144414D01*
X174072Y145142D01*
X174243Y146000D01*
X174158Y146428D01*
X177007Y149276D01*
X183500D01*
X183968Y149370D01*
X184365Y149635D01*
X191365Y156635D01*
X191630Y157032D01*
X191724Y157500D01*
Y212493D01*
X202072Y222842D01*
X202500Y222757D01*
X203358Y222928D01*
X204086Y223414D01*
X204572Y224142D01*
X204743Y225000D01*
X204572Y225858D01*
X204086Y226586D01*
X203358Y227072D01*
X202500Y227243D01*
D02*
G37*
G36*
X192000D02*
X191142Y227072D01*
X190414Y226586D01*
X189928Y225858D01*
X189757Y225000D01*
X189842Y224572D01*
X186635Y221365D01*
X186370Y220968D01*
X186276Y220500D01*
Y159007D01*
X181493Y154224D01*
X170000D01*
X169532Y154130D01*
X169135Y153865D01*
X166635Y151365D01*
X166370Y150968D01*
X166277Y150500D01*
Y148828D01*
X165914Y148586D01*
X165428Y147858D01*
X165257Y147000D01*
X165428Y146142D01*
X165914Y145414D01*
X166642Y144928D01*
X167500Y144757D01*
X168358Y144928D01*
X169086Y145414D01*
X169572Y146142D01*
X169743Y147000D01*
X169572Y147858D01*
X169086Y148586D01*
X168723Y148828D01*
Y149993D01*
X170507Y151777D01*
X182000D01*
X182468Y151870D01*
X182865Y152135D01*
X188365Y157635D01*
X188630Y158032D01*
X188724Y158500D01*
Y219993D01*
X191572Y222842D01*
X192000Y222757D01*
X192858Y222928D01*
X193586Y223414D01*
X194072Y224142D01*
X194243Y225000D01*
X194072Y225858D01*
X193586Y226586D01*
X192858Y227072D01*
X192000Y227243D01*
D02*
G37*
G36*
X279000Y225439D02*
X277646Y225306D01*
X276345Y224911D01*
X275145Y224270D01*
X274676Y223885D01*
X279000Y219561D01*
X283324Y223885D01*
X282855Y224270D01*
X281655Y224911D01*
X280354Y225306D01*
X279000Y225439D01*
D02*
G37*
G36*
X120248Y219282D02*
X119269Y219153D01*
X118357Y218776D01*
X118174Y218635D01*
X120248Y216561D01*
X122322Y218635D01*
X122139Y218776D01*
X121227Y219153D01*
X120248Y219282D01*
D02*
G37*
G36*
X123383Y217574D02*
X120778Y214970D01*
X120248Y215500D01*
X119718Y214970D01*
X117113Y217574D01*
X116972Y217391D01*
X116595Y216479D01*
X116466Y215500D01*
Y213500D01*
X116595Y212521D01*
X116972Y211609D01*
X117113Y211426D01*
X119718Y214030D01*
X120248Y213500D01*
X120778Y214030D01*
X123383Y211426D01*
X123524Y211609D01*
X123901Y212521D01*
X124030Y213500D01*
Y215500D01*
X123901Y216479D01*
X123524Y217391D01*
X123383Y217574D01*
D02*
G37*
G36*
X304385Y222824D02*
X300061Y218500D01*
X304385Y214176D01*
X304769Y214645D01*
X305411Y215845D01*
X305806Y217146D01*
X305939Y218500D01*
X305806Y219854D01*
X305411Y221155D01*
X304769Y222355D01*
X304385Y222824D01*
D02*
G37*
G36*
X284385D02*
X280061Y218500D01*
X284385Y214176D01*
X284770Y214645D01*
X285411Y215845D01*
X285806Y217146D01*
X285939Y218500D01*
X285806Y219854D01*
X285411Y221155D01*
X284770Y222355D01*
X284385Y222824D01*
D02*
G37*
G36*
X273615D02*
X273231Y222355D01*
X272589Y221155D01*
X272194Y219854D01*
X272061Y218500D01*
X272194Y217146D01*
X272589Y215845D01*
X273231Y214645D01*
X273615Y214176D01*
X277939Y218500D01*
X273615Y222824D01*
D02*
G37*
G36*
X299000Y217439D02*
X294676Y213115D01*
X295145Y212731D01*
X296345Y212089D01*
X297646Y211694D01*
X299000Y211561D01*
X300354Y211694D01*
X301655Y212089D01*
X302855Y212731D01*
X303324Y213115D01*
X299000Y217439D01*
D02*
G37*
G36*
X279000D02*
X274676Y213115D01*
X275145Y212731D01*
X276345Y212089D01*
X277646Y211694D01*
X279000Y211561D01*
X280354Y211694D01*
X281655Y212089D01*
X282855Y212731D01*
X283324Y213115D01*
X279000Y217439D01*
D02*
G37*
G36*
X120248Y212439D02*
X118174Y210365D01*
X118357Y210224D01*
X119269Y209846D01*
X120248Y209718D01*
X121227Y209846D01*
X122139Y210224D01*
X122322Y210365D01*
X120248Y212439D01*
D02*
G37*
G36*
X163500Y201549D02*
X162524Y201355D01*
X162333Y201227D01*
X163500Y200061D01*
X164667Y201227D01*
X164476Y201355D01*
X163500Y201549D01*
D02*
G37*
G36*
X165727Y200167D02*
X164561Y199000D01*
X165727Y197833D01*
X165855Y198024D01*
X166049Y199000D01*
X165855Y199976D01*
X165727Y200167D01*
D02*
G37*
G36*
X161273Y200167D02*
X161145Y199976D01*
X160951Y199000D01*
X161145Y198024D01*
X161273Y197833D01*
X162439Y199000D01*
X161273Y200167D01*
D02*
G37*
G36*
X163500Y197939D02*
X162333Y196773D01*
X162524Y196645D01*
X163500Y196451D01*
X164476Y196645D01*
X164667Y196773D01*
X163500Y197939D01*
D02*
G37*
G36*
X243500Y197243D02*
X242642Y197072D01*
X241914Y196586D01*
X241428Y195858D01*
X241257Y195000D01*
X241342Y194572D01*
X234635Y187865D01*
X234370Y187468D01*
X234277Y187000D01*
Y108000D01*
X234370Y107532D01*
X234635Y107135D01*
X245135Y96635D01*
X245532Y96370D01*
X246000Y96276D01*
X266050D01*
Y95400D01*
X273950D01*
Y99600D01*
X266050D01*
Y98724D01*
X246507D01*
X236723Y108507D01*
Y186493D01*
X243072Y192842D01*
X243500Y192757D01*
X244358Y192928D01*
X245086Y193414D01*
X245572Y194142D01*
X245743Y195000D01*
X245572Y195858D01*
X245086Y196586D01*
X244358Y197072D01*
X243500Y197243D01*
D02*
G37*
G36*
X265750Y193839D02*
Y191161D01*
X267089Y192500D01*
X265750Y193839D01*
D02*
G37*
G36*
X205250D02*
Y191161D01*
X206589Y192500D01*
X205250Y193839D01*
D02*
G37*
G36*
X274250Y193839D02*
X272911Y192500D01*
X274250Y191161D01*
Y193839D01*
D02*
G37*
G36*
X213750D02*
X212411Y192500D01*
X213750Y191161D01*
Y193839D01*
D02*
G37*
G36*
X273189Y194900D02*
X266811D01*
X268680Y193030D01*
X268150Y192500D01*
X268680Y191970D01*
X266811Y190100D01*
X273189D01*
X271320Y191970D01*
X271850Y192500D01*
X271320Y193030D01*
X273189Y194900D01*
D02*
G37*
G36*
X212689D02*
X206311D01*
X208180Y193030D01*
X207650Y192500D01*
X208180Y191970D01*
X206311Y190100D01*
X212689D01*
X210820Y191970D01*
X211350Y192500D01*
X210820Y193030D01*
X212689Y194900D01*
D02*
G37*
G36*
X248000Y193743D02*
X247142Y193572D01*
X246414Y193086D01*
X245928Y192358D01*
X245757Y191500D01*
X245842Y191072D01*
X239135Y184365D01*
X238870Y183968D01*
X238776Y183500D01*
Y111000D01*
X238870Y110532D01*
X239135Y110135D01*
X247635Y101635D01*
X247873Y101476D01*
X248032Y101370D01*
X248500Y101277D01*
X266050D01*
Y100400D01*
X273950D01*
Y104600D01*
X266050D01*
Y103724D01*
X249007D01*
X241224Y111507D01*
Y182993D01*
X247572Y189342D01*
X248000Y189257D01*
X248858Y189428D01*
X249586Y189914D01*
X250072Y190642D01*
X250243Y191500D01*
X250072Y192358D01*
X249586Y193086D01*
X248858Y193572D01*
X248000Y193743D01*
D02*
G37*
G36*
X151000Y189049D02*
X150024Y188855D01*
X149833Y188727D01*
X151000Y187561D01*
X152167Y188727D01*
X151976Y188855D01*
X151000Y189049D01*
D02*
G37*
G36*
X14350Y187049D02*
X13375Y186855D01*
X13184Y186727D01*
X14350Y185561D01*
X15517Y186727D01*
X15326Y186855D01*
X14350Y187049D01*
D02*
G37*
G36*
X273950Y189600D02*
X266050D01*
Y185400D01*
X273950D01*
Y189600D01*
D02*
G37*
G36*
X153227Y187667D02*
X152061Y186500D01*
X153227Y185333D01*
X153355Y185524D01*
X153549Y186500D01*
X153355Y187476D01*
X153227Y187667D01*
D02*
G37*
G36*
X148773Y187667D02*
X148645Y187476D01*
X148451Y186500D01*
X148645Y185524D01*
X148773Y185333D01*
X149939Y186500D01*
X148773Y187667D01*
D02*
G37*
G36*
X151000Y185439D02*
X149833Y184273D01*
X150024Y184145D01*
X151000Y183951D01*
X151976Y184145D01*
X152167Y184273D01*
X151000Y185439D01*
D02*
G37*
G36*
X16578Y185667D02*
X15411Y184500D01*
X16578Y183333D01*
X16705Y183525D01*
X16899Y184500D01*
X16705Y185476D01*
X16578Y185667D01*
D02*
G37*
G36*
X12123Y185667D02*
X11995Y185476D01*
X11801Y184500D01*
X11995Y183525D01*
X12123Y183333D01*
X13290Y184500D01*
X12123Y185667D01*
D02*
G37*
G36*
X252000Y187243D02*
X251142Y187072D01*
X250414Y186586D01*
X249928Y185858D01*
X249757Y185000D01*
X249842Y184572D01*
X243635Y178365D01*
X243370Y177968D01*
X243277Y177500D01*
Y128500D01*
X243370Y128032D01*
X243635Y127635D01*
X249635Y121635D01*
X250032Y121370D01*
X250500Y121276D01*
X266050D01*
Y120400D01*
X273950D01*
Y124600D01*
X266050D01*
Y123723D01*
X251007D01*
X245724Y129007D01*
Y176993D01*
X251572Y182842D01*
X252000Y182757D01*
X252858Y182928D01*
X253586Y183414D01*
X254072Y184142D01*
X254243Y185000D01*
X254072Y185858D01*
X253586Y186586D01*
X252858Y187072D01*
X252000Y187243D01*
D02*
G37*
G36*
X14350Y183439D02*
X13184Y182273D01*
X13375Y182145D01*
X14350Y181951D01*
X15326Y182145D01*
X15517Y182273D01*
X14350Y183439D01*
D02*
G37*
G36*
X265750Y183839D02*
Y181161D01*
X267089Y182500D01*
X265750Y183839D01*
D02*
G37*
G36*
X205250D02*
Y181161D01*
X206589Y182500D01*
X205250Y183839D01*
D02*
G37*
G36*
X213750Y183839D02*
X212411Y182500D01*
X213750Y181161D01*
Y183839D01*
D02*
G37*
G36*
X274250D02*
X272911Y182500D01*
X274250Y181161D01*
Y183839D01*
D02*
G37*
G36*
X273189Y184900D02*
X266811D01*
X268680Y183030D01*
X268150Y182500D01*
X268680Y181970D01*
X266811Y180100D01*
X273189D01*
X271320Y181970D01*
X271850Y182500D01*
X271320Y183030D01*
X273189Y184900D01*
D02*
G37*
G36*
X212689D02*
X206311D01*
X208180Y183030D01*
X207650Y182500D01*
X208180Y181970D01*
X206311Y180100D01*
X212689D01*
X210820Y181970D01*
X211350Y182500D01*
X210820Y183030D01*
X212689Y184900D01*
D02*
G37*
G36*
X258000Y181049D02*
X257025Y180855D01*
X256833Y180727D01*
X258000Y179561D01*
X259167Y180727D01*
X258976Y180855D01*
X258000Y181049D01*
D02*
G37*
G36*
X220000D02*
X219024Y180855D01*
X218833Y180727D01*
X220000Y179561D01*
X221167Y180727D01*
X220975Y180855D01*
X220000Y181049D01*
D02*
G37*
G36*
X179500Y212743D02*
X178642Y212572D01*
X177914Y212086D01*
X177428Y211358D01*
X177257Y210500D01*
X177428Y209642D01*
X177914Y208914D01*
X178277Y208672D01*
Y183328D01*
X177914Y183086D01*
X177428Y182358D01*
X177257Y181500D01*
X177428Y180642D01*
X177914Y179914D01*
X178642Y179428D01*
X179500Y179257D01*
X180358Y179428D01*
X181086Y179914D01*
X181572Y180642D01*
X181743Y181500D01*
X181572Y182358D01*
X181086Y183086D01*
X180724Y183328D01*
Y208672D01*
X181086Y208914D01*
X181572Y209642D01*
X181743Y210500D01*
X181572Y211358D01*
X181086Y212086D01*
X180358Y212572D01*
X179500Y212743D01*
D02*
G37*
G36*
X260227Y179667D02*
X259061Y178500D01*
X260227Y177333D01*
X260355Y177524D01*
X260549Y178500D01*
X260355Y179475D01*
X260227Y179667D01*
D02*
G37*
G36*
X222227D02*
X221061Y178500D01*
X222227Y177333D01*
X222355Y177524D01*
X222549Y178500D01*
X222355Y179475D01*
X222227Y179667D01*
D02*
G37*
G36*
X255773Y179667D02*
X255645Y179475D01*
X255451Y178500D01*
X255645Y177524D01*
X255773Y177333D01*
X256939Y178500D01*
X255773Y179667D01*
D02*
G37*
G36*
X217773D02*
X217645Y179475D01*
X217451Y178500D01*
X217645Y177524D01*
X217773Y177333D01*
X218939Y178500D01*
X217773Y179667D01*
D02*
G37*
G36*
X258000Y177439D02*
X256833Y176273D01*
X257025Y176145D01*
X258000Y175951D01*
X258976Y176145D01*
X259167Y176273D01*
X258000Y177439D01*
D02*
G37*
G36*
X220000D02*
X218833Y176273D01*
X219024Y176145D01*
X220000Y175951D01*
X220975Y176145D01*
X221167Y176273D01*
X220000Y177439D01*
D02*
G37*
G36*
X273950Y179600D02*
X266050D01*
Y175400D01*
X273950D01*
Y179600D01*
D02*
G37*
G36*
X213450D02*
X205550D01*
Y175400D01*
X213450D01*
Y179600D01*
D02*
G37*
G36*
X180677Y178920D02*
X179819Y178750D01*
X179091Y178263D01*
X178849Y177901D01*
X163677D01*
X163209Y177808D01*
X162812Y177542D01*
X154635Y169365D01*
X154370Y168968D01*
X154277Y168500D01*
Y142000D01*
X154370Y141532D01*
X154635Y141135D01*
X155777Y139993D01*
Y131507D01*
X154493Y130224D01*
X147000D01*
X146532Y130130D01*
X146135Y129865D01*
X142135Y125865D01*
X141870Y125468D01*
X141777Y125000D01*
Y119594D01*
X141503Y120003D01*
X140676Y120556D01*
X139701Y120750D01*
X138725Y120556D01*
X138534Y120428D01*
X140231Y118731D01*
X139701Y118201D01*
X140231Y117671D01*
X138534Y115974D01*
X138725Y115846D01*
X139701Y115652D01*
X140676Y115846D01*
X141503Y116398D01*
X141777Y116807D01*
Y111507D01*
X137985Y107716D01*
X137720Y107319D01*
X137627Y106850D01*
Y95498D01*
X136984Y95232D01*
X136212Y94639D01*
X135618Y93866D01*
X135246Y92966D01*
X135118Y92000D01*
X135246Y91034D01*
X135618Y90134D01*
X136212Y89361D01*
X136984Y88768D01*
X137884Y88395D01*
X138850Y88268D01*
X139816Y88395D01*
X140716Y88768D01*
X141489Y89361D01*
X142082Y90134D01*
X142455Y91034D01*
X142582Y92000D01*
X142455Y92966D01*
X142082Y93866D01*
X141489Y94639D01*
X140716Y95232D01*
X140074Y95498D01*
Y106344D01*
X143865Y110135D01*
X144130Y110532D01*
X144223Y111000D01*
Y124493D01*
X147507Y127777D01*
X155000D01*
X155468Y127870D01*
X155865Y128135D01*
X157865Y130135D01*
X158130Y130532D01*
X158223Y131000D01*
Y140500D01*
X158130Y140968D01*
X157865Y141365D01*
X156723Y142507D01*
Y167993D01*
X164184Y175454D01*
X178849D01*
X179091Y175091D01*
X179819Y174605D01*
X180677Y174434D01*
X181536Y174605D01*
X182263Y175091D01*
X182749Y175819D01*
X182920Y176677D01*
X182749Y177536D01*
X182263Y178263D01*
X181536Y178750D01*
X180677Y178920D01*
D02*
G37*
G36*
X301908Y173716D02*
X298092D01*
X300000Y171809D01*
X301908Y173716D01*
D02*
G37*
G36*
X148000Y208743D02*
X147142Y208572D01*
X146414Y208086D01*
X145928Y207358D01*
X145757Y206500D01*
X145928Y205642D01*
X146267Y205134D01*
Y196718D01*
X140274Y190726D01*
X139899Y190163D01*
X139767Y189500D01*
Y175366D01*
X139428Y174858D01*
X139257Y174000D01*
X139428Y173142D01*
X139914Y172414D01*
X140642Y171928D01*
X141500Y171757D01*
X142358Y171928D01*
X143086Y172414D01*
X143572Y173142D01*
X143743Y174000D01*
X143572Y174858D01*
X143233Y175366D01*
Y188782D01*
X149226Y194774D01*
X149601Y195337D01*
X149733Y196000D01*
Y205134D01*
X150072Y205642D01*
X150243Y206500D01*
X150072Y207358D01*
X149586Y208086D01*
X148858Y208572D01*
X148000Y208743D01*
D02*
G37*
G36*
X300000Y170748D02*
X299902Y170650D01*
X300000Y170551D01*
X300098Y170650D01*
X300000Y170748D01*
D02*
G37*
G36*
X273950Y174600D02*
X266050D01*
Y170400D01*
X273950D01*
Y174600D01*
D02*
G37*
G36*
X213450D02*
X205550D01*
Y170400D01*
X213450D01*
Y174600D01*
D02*
G37*
G36*
X297031Y172656D02*
Y168643D01*
X299038Y170650D01*
X297031Y172656D01*
D02*
G37*
G36*
X286531D02*
Y168643D01*
X288538Y170650D01*
X286531Y172656D01*
D02*
G37*
G36*
X302969Y172656D02*
X300962Y170650D01*
X302969Y168643D01*
Y172656D01*
D02*
G37*
G36*
X300000Y169491D02*
X298092Y167583D01*
X301908D01*
X300000Y169491D01*
D02*
G37*
G36*
X289500D02*
X287592Y167583D01*
X291408D01*
X289500Y169491D01*
D02*
G37*
G36*
X205250Y168839D02*
Y166161D01*
X206589Y167500D01*
X205250Y168839D01*
D02*
G37*
G36*
X265750D02*
Y166161D01*
X267089Y167500D01*
X265750Y168839D01*
D02*
G37*
G36*
X213750Y168839D02*
X212411Y167500D01*
X213750Y166161D01*
Y168839D01*
D02*
G37*
G36*
X274250D02*
X272911Y167500D01*
X274250Y166161D01*
Y168839D01*
D02*
G37*
G36*
X292168Y167117D02*
X286831D01*
Y165574D01*
X283668D01*
Y167117D01*
X278331D01*
Y163412D01*
X275635Y160715D01*
X275370Y160319D01*
X275276Y159850D01*
Y151007D01*
X273870Y149600D01*
X266050D01*
Y145400D01*
X273950D01*
Y146366D01*
X273968Y146370D01*
X274365Y146635D01*
X277365Y149635D01*
X277630Y150032D01*
X277724Y150500D01*
Y159344D01*
X279963Y161583D01*
X283668D01*
Y163127D01*
X286831D01*
Y161583D01*
X292168D01*
Y167117D01*
D02*
G37*
G36*
X273189Y169900D02*
X266811D01*
X268680Y168030D01*
X268150Y167500D01*
X268680Y166970D01*
X266811Y165100D01*
X273189D01*
X271320Y166970D01*
X271850Y167500D01*
X271320Y168030D01*
X273189Y169900D01*
D02*
G37*
G36*
X212689D02*
X206311D01*
X208180Y168030D01*
X207650Y167500D01*
X208180Y166970D01*
X206311Y165100D01*
X212689D01*
X210820Y166970D01*
X211350Y167500D01*
X210820Y168030D01*
X212689Y169900D01*
D02*
G37*
G36*
X119500Y162549D02*
X118525Y162355D01*
X118333Y162227D01*
X119500Y161061D01*
X120667Y162227D01*
X120475Y162355D01*
X119500Y162549D01*
D02*
G37*
G36*
X273950Y164600D02*
X266050D01*
Y160400D01*
X273950D01*
Y164600D01*
D02*
G37*
G36*
X213450D02*
X205550D01*
Y160400D01*
X213450D01*
Y164600D01*
D02*
G37*
G36*
X121727Y161167D02*
X120561Y160000D01*
X121727Y158833D01*
X121855Y159025D01*
X122049Y160000D01*
X121855Y160976D01*
X121727Y161167D01*
D02*
G37*
G36*
X117273Y161167D02*
X117145Y160976D01*
X116951Y160000D01*
X117145Y159025D01*
X117273Y158833D01*
X118439Y160000D01*
X117273Y161167D01*
D02*
G37*
G36*
X119500Y158939D02*
X118333Y157773D01*
X118525Y157645D01*
X119500Y157451D01*
X120475Y157645D01*
X120667Y157773D01*
X119500Y158939D01*
D02*
G37*
G36*
X178110Y161633D02*
X177252Y161462D01*
X176524Y160976D01*
X176282Y160613D01*
X162390D01*
X161922Y160520D01*
X161525Y160255D01*
X157635Y156365D01*
X157370Y155968D01*
X157276Y155500D01*
Y143500D01*
X157370Y143032D01*
X157635Y142635D01*
X158776Y141493D01*
Y128507D01*
X157493Y127224D01*
X148500D01*
X148032Y127130D01*
X147635Y126865D01*
X145635Y124865D01*
X145370Y124468D01*
X145276Y124000D01*
Y109000D01*
X145370Y108532D01*
X145635Y108135D01*
X149842Y103928D01*
X149757Y103500D01*
X149928Y102642D01*
X150414Y101914D01*
X151142Y101428D01*
X152000Y101257D01*
X152858Y101428D01*
X153586Y101914D01*
X154072Y102642D01*
X154243Y103500D01*
X154072Y104358D01*
X153586Y105086D01*
X152858Y105572D01*
X152000Y105743D01*
X151572Y105658D01*
X147723Y109507D01*
Y123493D01*
X149007Y124776D01*
X158000D01*
X158468Y124870D01*
X158865Y125135D01*
X160865Y127135D01*
X161130Y127532D01*
X161223Y128000D01*
Y142000D01*
X161130Y142468D01*
X160865Y142865D01*
X159723Y144007D01*
Y154993D01*
X162897Y158166D01*
X176282D01*
X176524Y157804D01*
X177252Y157317D01*
X178110Y157147D01*
X178969Y157317D01*
X179696Y157804D01*
X180183Y158531D01*
X180353Y159390D01*
X180183Y160248D01*
X179696Y160976D01*
X178969Y161462D01*
X178110Y161633D01*
D02*
G37*
G36*
X273950Y159600D02*
X266050D01*
Y155400D01*
X273950D01*
Y159600D01*
D02*
G37*
G36*
X213450D02*
X205550D01*
Y155400D01*
X213450D01*
Y159600D01*
D02*
G37*
G36*
X265750Y153839D02*
Y151161D01*
X267089Y152500D01*
X265750Y153839D01*
D02*
G37*
G36*
X274250Y153839D02*
X272911Y152500D01*
X274250Y151161D01*
Y153839D01*
D02*
G37*
G36*
X213450Y154600D02*
X205550D01*
Y150400D01*
X213450D01*
Y154600D01*
D02*
G37*
G36*
X273189Y154900D02*
X266811D01*
X268680Y153030D01*
X268150Y152500D01*
X268680Y151970D01*
X266811Y150100D01*
X273189D01*
X271320Y151970D01*
X271850Y152500D01*
X271320Y153030D01*
X273189Y154900D01*
D02*
G37*
G36*
X291408Y150716D02*
X287592D01*
X289500Y148809D01*
X291408Y150716D01*
D02*
G37*
G36*
X195500Y152743D02*
X194642Y152572D01*
X193914Y152086D01*
X193428Y151358D01*
X193257Y150500D01*
X193342Y150072D01*
X193135Y149865D01*
X192870Y149468D01*
X192777Y149000D01*
Y111000D01*
X192870Y110532D01*
X193135Y110135D01*
X196635Y106635D01*
X197032Y106370D01*
X197500Y106277D01*
X205550D01*
Y105400D01*
X213450D01*
Y109600D01*
X205550D01*
Y108723D01*
X198007D01*
X195223Y111507D01*
Y148312D01*
X195500Y148257D01*
X196358Y148428D01*
X197086Y148914D01*
X197572Y149642D01*
X197743Y150500D01*
X197572Y151358D01*
X197086Y152086D01*
X196358Y152572D01*
X195500Y152743D01*
D02*
G37*
G36*
X289500Y147748D02*
X289402Y147650D01*
X289500Y147551D01*
X289598Y147650D01*
X289500Y147748D01*
D02*
G37*
G36*
X82916Y154168D02*
X77383D01*
Y148831D01*
X78926D01*
Y147916D01*
X77332D01*
Y146223D01*
X77070D01*
Y147818D01*
X71930D01*
Y142481D01*
X77070D01*
Y143777D01*
X77332D01*
Y142383D01*
X82669D01*
Y143777D01*
X83352D01*
X83522Y143522D01*
X84200Y143069D01*
X85000Y142910D01*
X85800Y143069D01*
X86478Y143522D01*
X86931Y144200D01*
X87090Y145000D01*
X86931Y145800D01*
X86478Y146478D01*
X86000Y146797D01*
X85800Y146931D01*
X85000Y147090D01*
X84200Y146931D01*
X83522Y146478D01*
X83352Y146223D01*
X82669D01*
Y147916D01*
X81373D01*
Y148831D01*
X82916D01*
Y154168D01*
D02*
G37*
G36*
X286531Y149656D02*
Y145643D01*
X288538Y147650D01*
X286531Y149656D01*
D02*
G37*
G36*
X292469Y149656D02*
X290462Y147650D01*
X292469Y145643D01*
Y149656D01*
D02*
G37*
G36*
X213450Y149600D02*
X205550D01*
Y145400D01*
X213450D01*
Y149600D01*
D02*
G37*
G36*
X276500Y183743D02*
X275642Y183572D01*
X274914Y183086D01*
X274428Y182358D01*
X274257Y181500D01*
X274428Y180642D01*
X274914Y179914D01*
X275642Y179428D01*
X276500Y179257D01*
X276928Y179342D01*
X279777Y176493D01*
Y173416D01*
X278331D01*
Y167883D01*
X283668D01*
Y173416D01*
X282224D01*
Y175777D01*
X289493D01*
X291553Y173716D01*
X287592D01*
X290030Y171278D01*
X289402Y170650D01*
X289500Y170551D01*
X290030Y171081D01*
X292469Y168643D01*
Y172801D01*
X293776Y171493D01*
Y154873D01*
X287000D01*
X286532Y154780D01*
X286135Y154515D01*
X282037Y150417D01*
X278331D01*
Y144883D01*
X283668D01*
Y148588D01*
X287507Y152426D01*
X294493D01*
X297332Y149588D01*
Y144883D01*
X302668D01*
Y150417D01*
X299963D01*
X296223Y154156D01*
Y172000D01*
X296130Y172468D01*
X295865Y172865D01*
X290865Y177865D01*
X290468Y178130D01*
X290000Y178224D01*
X281507D01*
X278658Y181072D01*
X278743Y181500D01*
X278572Y182358D01*
X278086Y183086D01*
X277358Y183572D01*
X276500Y183743D01*
D02*
G37*
G36*
X156000Y227243D02*
X155142Y227072D01*
X154414Y226586D01*
X153928Y225858D01*
X153757Y225000D01*
X153928Y224142D01*
X154414Y223414D01*
X155142Y222928D01*
X156000Y222757D01*
X156858Y222928D01*
X157586Y223414D01*
X157828Y223777D01*
X171993D01*
X183776Y211993D01*
Y160007D01*
X180493Y156723D01*
X168500D01*
X168032Y156630D01*
X167635Y156365D01*
X162135Y150865D01*
X161870Y150468D01*
X161776Y150000D01*
Y148828D01*
X161414Y148586D01*
X160928Y147858D01*
X160757Y147000D01*
X160928Y146142D01*
X161414Y145414D01*
X162142Y144928D01*
X163000Y144757D01*
X163858Y144928D01*
X164586Y145414D01*
X165072Y146142D01*
X165243Y147000D01*
X165072Y147858D01*
X164586Y148586D01*
X164224Y148828D01*
Y149493D01*
X169007Y154277D01*
X181000D01*
X181468Y154370D01*
X181865Y154635D01*
X185865Y158635D01*
X186130Y159032D01*
X186223Y159500D01*
Y212500D01*
X186130Y212968D01*
X185865Y213365D01*
X173365Y225865D01*
X172968Y226130D01*
X172500Y226223D01*
X157828D01*
X157586Y226586D01*
X156858Y227072D01*
X156000Y227243D01*
D02*
G37*
G36*
X289500Y146491D02*
X287592Y144583D01*
X291408D01*
X289500Y146491D01*
D02*
G37*
G36*
X292168Y144117D02*
X286831D01*
Y142574D01*
X283668D01*
Y144117D01*
X278331D01*
Y142574D01*
X277850D01*
X277382Y142481D01*
X276985Y142216D01*
X273950Y139180D01*
Y139600D01*
X266050D01*
Y135400D01*
X273950D01*
Y136276D01*
X274000D01*
X274468Y136370D01*
X274865Y136635D01*
X278331Y140101D01*
Y138584D01*
X283668D01*
Y140127D01*
X286831D01*
Y138584D01*
X292168D01*
Y144117D01*
D02*
G37*
G36*
X302668Y167117D02*
X297332D01*
Y161583D01*
X302037D01*
X303276Y160344D01*
Y142574D01*
X302668D01*
Y144117D01*
X297332D01*
Y139412D01*
X296143Y138224D01*
X281500D01*
X281032Y138130D01*
X280635Y137865D01*
X276493Y133723D01*
X273950D01*
Y134600D01*
X266050D01*
Y130400D01*
X273950D01*
Y131277D01*
X277000D01*
X277468Y131370D01*
X277865Y131635D01*
X282007Y135776D01*
X296650D01*
X297118Y135870D01*
X297515Y136135D01*
X299963Y138584D01*
X302668D01*
Y140127D01*
X303850D01*
X304319Y140220D01*
X304715Y140485D01*
X305365Y141135D01*
X305630Y141532D01*
X305724Y142000D01*
Y160850D01*
X305630Y161319D01*
X305365Y161716D01*
X302668Y164412D01*
Y167117D01*
D02*
G37*
G36*
X205250Y143839D02*
Y141161D01*
X206589Y142500D01*
X205250Y143839D01*
D02*
G37*
G36*
X265750D02*
Y141161D01*
X267089Y142500D01*
X265750Y143839D01*
D02*
G37*
G36*
X213750Y143839D02*
X212411Y142500D01*
X213750Y141161D01*
Y143839D01*
D02*
G37*
G36*
X274250D02*
X272911Y142500D01*
X274250Y141161D01*
Y143839D01*
D02*
G37*
G36*
X273189Y144900D02*
X266811D01*
X268680Y143030D01*
X268150Y142500D01*
X268680Y141970D01*
X266811Y140100D01*
X273189D01*
X271320Y141970D01*
X271850Y142500D01*
X271320Y143030D01*
X273189Y144900D01*
D02*
G37*
G36*
X212689D02*
X206311D01*
X208180Y143030D01*
X207650Y142500D01*
X208180Y141970D01*
X206311Y140100D01*
X212689D01*
X210820Y141970D01*
X211350Y142500D01*
X210820Y143030D01*
X212689Y144900D01*
D02*
G37*
G36*
X82669Y141617D02*
X77332D01*
Y140074D01*
X77070D01*
Y141519D01*
X71930D01*
Y140074D01*
X60350D01*
X59882Y139981D01*
X59485Y139716D01*
X57493Y137724D01*
X33828D01*
X33586Y138086D01*
X32858Y138572D01*
X32000Y138743D01*
X31142Y138572D01*
X30414Y138086D01*
X29928Y137358D01*
X29757Y136500D01*
X29928Y135642D01*
X30414Y134914D01*
X31142Y134428D01*
X32000Y134257D01*
X32858Y134428D01*
X33586Y134914D01*
X33828Y135276D01*
X58000D01*
X58468Y135370D01*
X58865Y135635D01*
X60857Y137627D01*
X71930D01*
Y136182D01*
X77070D01*
Y137627D01*
X77332D01*
Y136083D01*
X82669D01*
Y141617D01*
D02*
G37*
G36*
X137350Y138049D02*
X136375Y137855D01*
X136184Y137727D01*
X137350Y136561D01*
X138517Y137727D01*
X138326Y137855D01*
X137350Y138049D01*
D02*
G37*
G36*
X213450Y139600D02*
X205550D01*
Y135400D01*
X213450D01*
Y139600D01*
D02*
G37*
G36*
X139578Y136667D02*
X138411Y135500D01*
X139578Y134333D01*
X139705Y134525D01*
X139899Y135500D01*
X139705Y136476D01*
X139578Y136667D01*
D02*
G37*
G36*
X135123Y136667D02*
X134995Y136476D01*
X134801Y135500D01*
X134995Y134525D01*
X135123Y134333D01*
X136290Y135500D01*
X135123Y136667D01*
D02*
G37*
G36*
X137350Y134439D02*
X136184Y133273D01*
X136375Y133145D01*
X137350Y132951D01*
X138326Y133145D01*
X138517Y133273D01*
X137350Y134439D01*
D02*
G37*
G36*
X112374Y218980D02*
X111473Y218861D01*
X110634Y218514D01*
X109913Y217961D01*
X109360Y217240D01*
X109013Y216401D01*
X108894Y215500D01*
Y213500D01*
X109013Y212599D01*
X109360Y211760D01*
X109913Y211039D01*
X110634Y210486D01*
X111151Y210273D01*
Y180126D01*
X111244Y179658D01*
X111509Y179261D01*
X151277Y139493D01*
Y134828D01*
X150914Y134586D01*
X150428Y133858D01*
X150257Y133000D01*
X150428Y132142D01*
X150914Y131414D01*
X151642Y130928D01*
X152500Y130757D01*
X153358Y130928D01*
X154086Y131414D01*
X154572Y132142D01*
X154743Y133000D01*
X154572Y133858D01*
X154086Y134586D01*
X153724Y134828D01*
Y140000D01*
X153630Y140468D01*
X153365Y140865D01*
X113598Y180633D01*
Y210273D01*
X114114Y210486D01*
X114835Y211039D01*
X115388Y211760D01*
X115735Y212599D01*
X115854Y213500D01*
Y215500D01*
X115735Y216401D01*
X115388Y217240D01*
X114835Y217961D01*
X114114Y218514D01*
X113275Y218861D01*
X112374Y218980D01*
D02*
G37*
G36*
X107950Y218950D02*
X101050D01*
Y210050D01*
X103277D01*
Y183000D01*
X103370Y182532D01*
X103635Y182135D01*
X145776Y139993D01*
Y134828D01*
X145414Y134586D01*
X144928Y133858D01*
X144757Y133000D01*
X144928Y132142D01*
X145414Y131414D01*
X146142Y130928D01*
X147000Y130757D01*
X147858Y130928D01*
X148586Y131414D01*
X149072Y132142D01*
X149243Y133000D01*
X149072Y133858D01*
X148586Y134586D01*
X148223Y134828D01*
Y140500D01*
X148130Y140968D01*
X147865Y141365D01*
X105724Y183507D01*
Y210050D01*
X107950D01*
Y218950D01*
D02*
G37*
G36*
X213450Y134600D02*
X205550D01*
Y130400D01*
X213450D01*
Y134600D01*
D02*
G37*
G36*
X201000Y129743D02*
X200142Y129572D01*
X199414Y129086D01*
X198928Y128358D01*
X198757Y127500D01*
X198928Y126642D01*
X199414Y125914D01*
X200142Y125428D01*
X201000Y125257D01*
X201858Y125428D01*
X202586Y125914D01*
X202828Y126277D01*
X205550D01*
Y125400D01*
X213450D01*
Y129600D01*
X205550D01*
Y128724D01*
X202828D01*
X202586Y129086D01*
X201858Y129572D01*
X201000Y129743D01*
D02*
G37*
G36*
X231000Y190743D02*
X230142Y190572D01*
X229414Y190086D01*
X228928Y189358D01*
X228757Y188500D01*
X228928Y187642D01*
X229414Y186914D01*
X229777Y186672D01*
Y136507D01*
X216993Y123723D01*
X213450D01*
Y124600D01*
X205550D01*
Y120400D01*
X213450D01*
Y121276D01*
X217500D01*
X217968Y121370D01*
X218365Y121635D01*
X231865Y135135D01*
X232130Y135532D01*
X232224Y136000D01*
Y186672D01*
X232586Y186914D01*
X233072Y187642D01*
X233243Y188500D01*
X233072Y189358D01*
X232586Y190086D01*
X231858Y190572D01*
X231000Y190743D01*
D02*
G37*
G36*
X181201Y120750D02*
X180225Y120556D01*
X180034Y120428D01*
X181201Y119262D01*
X182367Y120428D01*
X182176Y120556D01*
X181201Y120750D01*
D02*
G37*
G36*
X154299D02*
X153324Y120556D01*
X153133Y120428D01*
X154299Y119262D01*
X155466Y120428D01*
X155275Y120556D01*
X154299Y120750D01*
D02*
G37*
G36*
X183428Y119367D02*
X182262Y118201D01*
X183428Y117034D01*
X183556Y117225D01*
X183750Y118201D01*
X183556Y119176D01*
X183428Y119367D01*
D02*
G37*
G36*
X156526D02*
X155360Y118201D01*
X156526Y117034D01*
X156654Y117225D01*
X156848Y118201D01*
X156654Y119176D01*
X156526Y119367D01*
D02*
G37*
G36*
X178974Y119367D02*
X178846Y119176D01*
X178652Y118201D01*
X178846Y117225D01*
X178974Y117034D01*
X180140Y118201D01*
X178974Y119367D01*
D02*
G37*
G36*
X152072D02*
X151944Y119176D01*
X151750Y118201D01*
X151944Y117225D01*
X152072Y117034D01*
X153238Y118201D01*
X152072Y119367D01*
D02*
G37*
G36*
X137474D02*
X137346Y119176D01*
X137152Y118201D01*
X137346Y117225D01*
X137474Y117034D01*
X138640Y118201D01*
X137474Y119367D01*
D02*
G37*
G36*
X181201Y117140D02*
X180034Y115974D01*
X180225Y115846D01*
X181201Y115652D01*
X182176Y115846D01*
X182367Y115974D01*
X181201Y117140D01*
D02*
G37*
G36*
X154299D02*
X153133Y115974D01*
X153324Y115846D01*
X154299Y115652D01*
X155275Y115846D01*
X155466Y115974D01*
X154299Y117140D01*
D02*
G37*
G36*
X273950Y119600D02*
X266050D01*
Y115400D01*
X273950D01*
Y119600D01*
D02*
G37*
G36*
X200500Y154243D02*
X199642Y154072D01*
X198914Y153586D01*
X198428Y152858D01*
X198257Y152000D01*
X198428Y151142D01*
X198914Y150414D01*
X199076Y150306D01*
X196635Y147865D01*
X196370Y147468D01*
X196276Y147000D01*
Y119000D01*
X196370Y118532D01*
X196635Y118135D01*
X198135Y116635D01*
X198532Y116370D01*
X199000Y116277D01*
X205550D01*
Y115400D01*
X213450D01*
Y119600D01*
X205550D01*
Y118723D01*
X199507D01*
X198723Y119507D01*
Y146493D01*
X201365Y149135D01*
X201630Y149532D01*
X201724Y150000D01*
Y150172D01*
X202086Y150414D01*
X202572Y151142D01*
X202743Y152000D01*
X202572Y152858D01*
X202086Y153586D01*
X201358Y154072D01*
X200500Y154243D01*
D02*
G37*
G36*
X290500Y134733D02*
X288821Y134601D01*
X287183Y134208D01*
X285627Y133563D01*
X284191Y132683D01*
X282911Y131589D01*
X281817Y130309D01*
X280937Y128873D01*
X280292Y127317D01*
X279899Y125679D01*
X279767Y124000D01*
X279899Y122321D01*
X280292Y120683D01*
X280937Y119127D01*
X281817Y117691D01*
X282911Y116411D01*
X284191Y115317D01*
X285627Y114437D01*
X287183Y113792D01*
X288821Y113399D01*
X290500Y113267D01*
X292179Y113399D01*
X293817Y113792D01*
X295373Y114437D01*
X296809Y115317D01*
X298089Y116411D01*
X299183Y117691D01*
X300063Y119127D01*
X300708Y120683D01*
X301101Y122321D01*
X301233Y124000D01*
X301101Y125679D01*
X300708Y127317D01*
X300063Y128873D01*
X299183Y130309D01*
X298089Y131589D01*
X296809Y132683D01*
X295373Y133563D01*
X293817Y134208D01*
X292179Y134601D01*
X290500Y134733D01*
D02*
G37*
G36*
X110500D02*
X108821Y134601D01*
X107183Y134208D01*
X105627Y133563D01*
X104191Y132683D01*
X102911Y131589D01*
X101817Y130309D01*
X100937Y128873D01*
X100292Y127317D01*
X99899Y125679D01*
X99767Y124000D01*
X99899Y122321D01*
X100292Y120683D01*
X100937Y119127D01*
X101817Y117691D01*
X102911Y116411D01*
X104191Y115317D01*
X105627Y114437D01*
X107183Y113792D01*
X108821Y113399D01*
X110500Y113267D01*
X112179Y113399D01*
X113817Y113792D01*
X115373Y114437D01*
X116809Y115317D01*
X118089Y116411D01*
X119183Y117691D01*
X120063Y119127D01*
X120708Y120683D01*
X121101Y122321D01*
X121233Y124000D01*
X121101Y125679D01*
X120708Y127317D01*
X120063Y128873D01*
X119183Y130309D01*
X118089Y131589D01*
X116809Y132683D01*
X115373Y133563D01*
X113817Y134208D01*
X112179Y134601D01*
X110500Y134733D01*
D02*
G37*
G36*
X205250Y113839D02*
Y111161D01*
X206589Y112500D01*
X205250Y113839D01*
D02*
G37*
G36*
X265750D02*
Y111161D01*
X267089Y112500D01*
X265750Y113839D01*
D02*
G37*
G36*
X213750Y113839D02*
X212411Y112500D01*
X213750Y111161D01*
Y113839D01*
D02*
G37*
G36*
X274250D02*
X272911Y112500D01*
X274250Y111161D01*
Y113839D01*
D02*
G37*
G36*
X12000Y115243D02*
X11142Y115072D01*
X10414Y114586D01*
X9928Y113858D01*
X9757Y113000D01*
X9842Y112572D01*
X7135Y109865D01*
X6870Y109468D01*
X6776Y109000D01*
Y84500D01*
X6870Y84032D01*
X7135Y83635D01*
X9135Y81635D01*
X9532Y81370D01*
X10000Y81277D01*
X10457D01*
X10545Y81144D01*
X11168Y80728D01*
X11902Y80582D01*
X18201D01*
X18935Y80728D01*
X19557Y81144D01*
X19973Y81766D01*
X20119Y82500D01*
X19973Y83234D01*
X19557Y83856D01*
X18935Y84272D01*
X18201Y84418D01*
X11902D01*
X11168Y84272D01*
X10545Y83856D01*
X10477Y83754D01*
X9223Y85007D01*
Y108493D01*
X11572Y110842D01*
X12000Y110757D01*
X12858Y110928D01*
X13586Y111414D01*
X14072Y112142D01*
X14243Y113000D01*
X14072Y113858D01*
X13586Y114586D01*
X12858Y115072D01*
X12000Y115243D01*
D02*
G37*
G36*
X277000Y112049D02*
X276025Y111855D01*
X275833Y111727D01*
X277000Y110561D01*
X278167Y111727D01*
X277976Y111855D01*
X277000Y112049D01*
D02*
G37*
G36*
X122000D02*
X121025Y111855D01*
X120833Y111727D01*
X122000Y110561D01*
X123167Y111727D01*
X122976Y111855D01*
X122000Y112049D01*
D02*
G37*
G36*
X273189Y114900D02*
X266811D01*
X268680Y113030D01*
X268150Y112500D01*
X268680Y111970D01*
X266811Y110100D01*
X273189D01*
X271320Y111970D01*
X271850Y112500D01*
X271320Y113030D01*
X273189Y114900D01*
D02*
G37*
G36*
X212689D02*
X206311D01*
X208180Y113030D01*
X207650Y112500D01*
X208180Y111970D01*
X206311Y110100D01*
X212689D01*
X210820Y111970D01*
X211350Y112500D01*
X210820Y113030D01*
X212689Y114900D01*
D02*
G37*
G36*
X279227Y110667D02*
X278061Y109500D01*
X279227Y108333D01*
X279355Y108525D01*
X279549Y109500D01*
X279355Y110476D01*
X279227Y110667D01*
D02*
G37*
G36*
X124227D02*
X123061Y109500D01*
X124227Y108333D01*
X124355Y108525D01*
X124549Y109500D01*
X124355Y110476D01*
X124227Y110667D01*
D02*
G37*
G36*
X274773Y110667D02*
X274645Y110476D01*
X274451Y109500D01*
X274645Y108525D01*
X274773Y108333D01*
X275939Y109500D01*
X274773Y110667D01*
D02*
G37*
G36*
X119773D02*
X119645Y110476D01*
X119451Y109500D01*
X119645Y108525D01*
X119773Y108333D01*
X120939Y109500D01*
X119773Y110667D01*
D02*
G37*
G36*
X277000Y108439D02*
X275833Y107273D01*
X276025Y107145D01*
X277000Y106951D01*
X277976Y107145D01*
X278167Y107273D01*
X277000Y108439D01*
D02*
G37*
G36*
X122000D02*
X120833Y107273D01*
X121025Y107145D01*
X122000Y106951D01*
X122976Y107145D01*
X123167Y107273D01*
X122000Y108439D01*
D02*
G37*
G36*
X173000Y111243D02*
X172142Y111072D01*
X171414Y110586D01*
X171172Y110223D01*
X165000D01*
X164532Y110130D01*
X164135Y109865D01*
X153135Y98865D01*
X152870Y98468D01*
X152777Y98000D01*
Y92824D01*
X152747Y93044D01*
X152344Y94017D01*
X152164Y94253D01*
X149911Y92000D01*
X152164Y89747D01*
X152344Y89983D01*
X152747Y90956D01*
X152777Y91176D01*
Y87507D01*
X147493Y82223D01*
X113328D01*
X113086Y82586D01*
X112358Y83072D01*
X111500Y83243D01*
X110642Y83072D01*
X109914Y82586D01*
X109428Y81858D01*
X109257Y81000D01*
X109428Y80142D01*
X109914Y79414D01*
X110642Y78928D01*
X111500Y78757D01*
X112358Y78928D01*
X113086Y79414D01*
X113328Y79777D01*
X148000D01*
X148468Y79870D01*
X148865Y80135D01*
X154865Y86135D01*
X155130Y86532D01*
X155224Y87000D01*
Y91202D01*
X155246Y91034D01*
X155619Y90134D01*
X156211Y89361D01*
X156984Y88768D01*
X157885Y88395D01*
X158850Y88268D01*
X159816Y88395D01*
X160716Y88768D01*
X161489Y89361D01*
X162082Y90134D01*
X162455Y91034D01*
X162582Y92000D01*
X162455Y92966D01*
X162082Y93866D01*
X161489Y94639D01*
X160716Y95232D01*
X159816Y95605D01*
X158850Y95732D01*
X157885Y95605D01*
X156984Y95232D01*
X156211Y94639D01*
X155619Y93866D01*
X155246Y92966D01*
X155224Y92798D01*
Y97493D01*
X165507Y107776D01*
X171172D01*
X171414Y107414D01*
X172142Y106928D01*
X173000Y106757D01*
X173858Y106928D01*
X174586Y107414D01*
X175072Y108142D01*
X175243Y109000D01*
X175072Y109858D01*
X174586Y110586D01*
X173858Y111072D01*
X173000Y111243D01*
D02*
G37*
G36*
X273950Y109600D02*
X266050D01*
Y105400D01*
X273950D01*
Y109600D01*
D02*
G37*
G36*
X178000Y146743D02*
X177142Y146572D01*
X176414Y146086D01*
X175928Y145358D01*
X175757Y144500D01*
X175928Y143642D01*
X176414Y142914D01*
X176777Y142672D01*
Y135500D01*
X176870Y135032D01*
X177135Y134635D01*
X183776Y127993D01*
Y116328D01*
X183414Y116086D01*
X182928Y115358D01*
X182757Y114500D01*
X182928Y113642D01*
X183414Y112914D01*
X183776Y112672D01*
Y108656D01*
X170459Y95339D01*
X169816Y95605D01*
X168850Y95732D01*
X167885Y95605D01*
X166984Y95232D01*
X166211Y94639D01*
X165619Y93866D01*
X165246Y92966D01*
X165224Y92798D01*
Y99493D01*
X169072Y103342D01*
X169500Y103257D01*
X170358Y103428D01*
X171086Y103914D01*
X171572Y104642D01*
X171743Y105500D01*
X171572Y106358D01*
X171086Y107086D01*
X170358Y107572D01*
X169500Y107743D01*
X168642Y107572D01*
X167914Y107086D01*
X167428Y106358D01*
X167257Y105500D01*
X167342Y105072D01*
X163135Y100865D01*
X162870Y100468D01*
X162777Y100000D01*
Y85007D01*
X154493Y76723D01*
X93000D01*
X92532Y76630D01*
X92135Y76365D01*
X87635Y71865D01*
X87370Y71468D01*
X87277Y71000D01*
Y63328D01*
X86914Y63086D01*
X86428Y62358D01*
X86257Y61500D01*
X86428Y60642D01*
X86914Y59914D01*
X87642Y59428D01*
X88500Y59257D01*
X89358Y59428D01*
X90086Y59914D01*
X90572Y60642D01*
X90743Y61500D01*
X90572Y62358D01*
X90086Y63086D01*
X89723Y63328D01*
Y70493D01*
X93507Y74277D01*
X155000D01*
X155468Y74370D01*
X155865Y74635D01*
X164865Y83635D01*
X165130Y84032D01*
X165224Y84500D01*
Y91202D01*
X165246Y91034D01*
X165619Y90134D01*
X166211Y89361D01*
X166984Y88768D01*
X167885Y88395D01*
X168850Y88268D01*
X169816Y88395D01*
X170716Y88768D01*
X171489Y89361D01*
X172082Y90134D01*
X172455Y91034D01*
X172582Y92000D01*
X172455Y92966D01*
X172189Y93608D01*
X185865Y107284D01*
X186130Y107681D01*
X186223Y108150D01*
Y112672D01*
X186586Y112914D01*
X187072Y113642D01*
X187243Y114500D01*
X187072Y115358D01*
X186586Y116086D01*
X186223Y116328D01*
Y128500D01*
X186130Y128968D01*
X185865Y129365D01*
X179224Y136007D01*
Y142672D01*
X179586Y142914D01*
X180072Y143642D01*
X180243Y144500D01*
X180072Y145358D01*
X179586Y146086D01*
X178858Y146572D01*
X178000Y146743D01*
D02*
G37*
G36*
X205250Y103839D02*
Y101161D01*
X206589Y102500D01*
X205250Y103839D01*
D02*
G37*
G36*
X213750Y103839D02*
X212411Y102500D01*
X213750Y101161D01*
Y103839D01*
D02*
G37*
G36*
X212689Y104900D02*
X206311D01*
X208180Y103030D01*
X207650Y102500D01*
X208180Y101970D01*
X206311Y100100D01*
X212689D01*
X210820Y101970D01*
X211350Y102500D01*
X210820Y103030D01*
X212689Y104900D01*
D02*
G37*
G36*
X39096Y98437D02*
X38159Y97500D01*
X39096Y96563D01*
X39153Y96649D01*
X39322Y97500D01*
X39153Y98351D01*
X39096Y98437D01*
D02*
G37*
G36*
X28802Y98437D02*
X28745Y98351D01*
X28575Y97500D01*
X28745Y96649D01*
X28802Y96563D01*
X29739Y97500D01*
X28802Y98437D01*
D02*
G37*
G36*
X12000Y107243D02*
X11142Y107072D01*
X10414Y106586D01*
X9928Y105858D01*
X9757Y105000D01*
X9928Y104142D01*
X10414Y103414D01*
X11142Y102928D01*
X12000Y102757D01*
X12428Y102842D01*
X13828Y101442D01*
Y99418D01*
X11902D01*
X11168Y99272D01*
X10545Y98856D01*
X10130Y98234D01*
X9984Y97500D01*
X10130Y96766D01*
X10545Y96144D01*
X11168Y95728D01*
X11902Y95582D01*
X18201D01*
X18935Y95728D01*
X19557Y96144D01*
X19973Y96766D01*
X20119Y97500D01*
X19973Y98234D01*
X19557Y98856D01*
X18935Y99272D01*
X18201Y99418D01*
X16275D01*
Y101949D01*
X16182Y102417D01*
X15916Y102814D01*
X14158Y104572D01*
X14243Y105000D01*
X14072Y105858D01*
X13586Y106586D01*
X12858Y107072D01*
X12000Y107243D01*
D02*
G37*
G36*
X37098Y99724D02*
X30799D01*
X29948Y99555D01*
X29862Y99497D01*
X31330Y98030D01*
X30799Y97500D01*
X31330Y96970D01*
X29862Y95503D01*
X29948Y95446D01*
X30799Y95276D01*
X37098D01*
X37949Y95446D01*
X38035Y95503D01*
X36568Y96970D01*
X37098Y97500D01*
X36568Y98030D01*
X38035Y99497D01*
X37949Y99555D01*
X37098Y99724D01*
D02*
G37*
G36*
X22500Y104243D02*
X21642Y104072D01*
X20914Y103586D01*
X20428Y102858D01*
X20257Y102000D01*
X20428Y101142D01*
X20767Y100634D01*
Y95718D01*
X19282Y94233D01*
X18993D01*
X18935Y94272D01*
X18201Y94418D01*
X11902D01*
X11168Y94272D01*
X10545Y93856D01*
X10130Y93234D01*
X9984Y92500D01*
X10130Y91766D01*
X10545Y91144D01*
X11168Y90728D01*
X11902Y90582D01*
X18201D01*
X18935Y90728D01*
X18993Y90767D01*
X20000D01*
X20663Y90899D01*
X21226Y91274D01*
X23726Y93774D01*
X24101Y94337D01*
X24233Y95000D01*
Y100634D01*
X24572Y101142D01*
X24743Y102000D01*
X24572Y102858D01*
X24086Y103586D01*
X23358Y104072D01*
X22500Y104243D01*
D02*
G37*
G36*
X148850Y96034D02*
X147806Y95897D01*
X146833Y95494D01*
X146598Y95313D01*
X148850Y93061D01*
X151103Y95313D01*
X150868Y95494D01*
X149895Y95897D01*
X148850Y96034D01*
D02*
G37*
G36*
X273950Y129600D02*
X266050D01*
Y125400D01*
X273370D01*
X275777Y122993D01*
Y117000D01*
X275870Y116532D01*
X276135Y116135D01*
X288277Y103993D01*
Y97417D01*
X286831D01*
Y91883D01*
X292168D01*
Y97417D01*
X290723D01*
Y104500D01*
X290630Y104968D01*
X290365Y105365D01*
X278223Y117507D01*
Y123500D01*
X278130Y123968D01*
X277865Y124365D01*
X273950Y128280D01*
Y129600D01*
D02*
G37*
G36*
Y94600D02*
X266050D01*
Y90400D01*
X273950D01*
Y94600D01*
D02*
G37*
G36*
X198500Y179743D02*
X197642Y179572D01*
X196914Y179086D01*
X196428Y178358D01*
X196257Y177500D01*
X196428Y176642D01*
X196767Y176134D01*
Y160718D01*
X188774Y152726D01*
X188399Y152163D01*
X188267Y151500D01*
Y117366D01*
X187928Y116858D01*
X187757Y116000D01*
X187928Y115142D01*
X188267Y114634D01*
Y92578D01*
X186094Y90406D01*
X168176Y72488D01*
X121984D01*
X121858Y72572D01*
X121000Y72743D01*
X120142Y72572D01*
X119414Y72086D01*
X118928Y71358D01*
X118757Y70500D01*
X118928Y69642D01*
X119414Y68914D01*
X120142Y68428D01*
X121000Y68257D01*
X121858Y68428D01*
X121984Y68512D01*
X169000D01*
X169761Y68663D01*
X170406Y69094D01*
X188906Y87594D01*
X193630Y92318D01*
Y87443D01*
X195970Y89782D01*
X196500Y89252D01*
X196598Y89350D01*
X195970Y89979D01*
X198309Y92319D01*
X193631D01*
X194293Y92981D01*
X199070D01*
Y95408D01*
X199174Y95512D01*
X205550D01*
Y95400D01*
X207512D01*
Y94600D01*
X205550D01*
Y90400D01*
X213450D01*
Y94600D01*
X211488D01*
Y95400D01*
X213450D01*
Y99600D01*
X205550D01*
Y99488D01*
X198350D01*
X197590Y99337D01*
X196944Y98906D01*
X196357Y98318D01*
X193930D01*
Y97594D01*
X193389Y97487D01*
X192744Y97056D01*
X191733Y96045D01*
Y114634D01*
X192072Y115142D01*
X192243Y116000D01*
X192072Y116858D01*
X191733Y117366D01*
Y150782D01*
X199726Y158774D01*
X199726Y158774D01*
X199977Y159150D01*
X200101Y159337D01*
X200233Y160000D01*
X200233Y160000D01*
Y176134D01*
X200572Y176642D01*
X200743Y177500D01*
X200572Y178358D01*
X200086Y179086D01*
X199358Y179572D01*
X198500Y179743D01*
D02*
G37*
G36*
X145537Y94253D02*
X145356Y94017D01*
X144953Y93044D01*
X144816Y92000D01*
X144953Y90956D01*
X145356Y89983D01*
X145537Y89747D01*
X147790Y92000D01*
X145537Y94253D01*
D02*
G37*
G36*
X291408Y91417D02*
X287592D01*
X289500Y89509D01*
X291408Y91417D01*
D02*
G37*
G36*
X257000Y90049D02*
X256025Y89855D01*
X255833Y89727D01*
X257000Y88561D01*
X258167Y89727D01*
X257976Y89855D01*
X257000Y90049D01*
D02*
G37*
G36*
X89500D02*
X88525Y89855D01*
X88333Y89727D01*
X89500Y88561D01*
X90667Y89727D01*
X90475Y89855D01*
X89500Y90049D01*
D02*
G37*
G36*
X99000Y109223D02*
X81000D01*
X80295Y109131D01*
X79638Y108858D01*
X79074Y108426D01*
X75324Y104676D01*
X74892Y104112D01*
X74620Y103455D01*
X74527Y102750D01*
X74620Y102045D01*
X74892Y101388D01*
X75324Y100824D01*
X75888Y100391D01*
X76545Y100119D01*
X77250Y100027D01*
X77955Y100119D01*
X78612Y100391D01*
X79176Y100824D01*
X82128Y103777D01*
X97872D01*
X111574Y90074D01*
X112138Y89641D01*
X112795Y89369D01*
X113500Y89277D01*
X125150D01*
Y88300D01*
X132550D01*
Y95700D01*
X125150D01*
Y94723D01*
X114628D01*
X100926Y108426D01*
X100362Y108858D01*
X99705Y109131D01*
X99000Y109223D01*
D02*
G37*
G36*
X178850Y95732D02*
X177884Y95605D01*
X176984Y95232D01*
X176212Y94639D01*
X175619Y93866D01*
X175246Y92966D01*
X175119Y92000D01*
X175246Y91034D01*
X175619Y90134D01*
X176212Y89361D01*
X176984Y88768D01*
X177884Y88395D01*
X178850Y88268D01*
X179816Y88395D01*
X180716Y88768D01*
X181489Y89361D01*
X182082Y90134D01*
X182455Y91034D01*
X182582Y92000D01*
X182455Y92966D01*
X182082Y93866D01*
X181489Y94639D01*
X180716Y95232D01*
X179816Y95605D01*
X178850Y95732D01*
D02*
G37*
G36*
X289500Y88449D02*
X289402Y88350D01*
X289500Y88252D01*
X289598Y88350D01*
X289500Y88449D01*
D02*
G37*
G36*
X148850Y90939D02*
X146598Y88687D01*
X146833Y88506D01*
X147806Y88103D01*
X148850Y87966D01*
X149895Y88103D01*
X150868Y88506D01*
X151103Y88687D01*
X148850Y90939D01*
D02*
G37*
G36*
X199370Y91258D02*
X197462Y89350D01*
X199370Y87443D01*
Y91258D01*
D02*
G37*
G36*
X20198Y88437D02*
X19262Y87500D01*
X20198Y86563D01*
X20255Y86649D01*
X20425Y87500D01*
X20255Y88351D01*
X20198Y88437D01*
D02*
G37*
G36*
X9904Y88437D02*
X9847Y88351D01*
X9678Y87500D01*
X9847Y86649D01*
X9904Y86563D01*
X10841Y87500D01*
X9904Y88437D01*
D02*
G37*
G36*
X196500Y88191D02*
X194691Y86382D01*
X198309D01*
X196500Y88191D01*
D02*
G37*
G36*
X292469Y90357D02*
X290462Y88350D01*
X292469Y86344D01*
Y90357D01*
D02*
G37*
G36*
X286531Y90357D02*
Y86344D01*
X288538Y88350D01*
X286531Y90357D01*
D02*
G37*
G36*
X259227Y88667D02*
X258061Y87500D01*
X259227Y86333D01*
X259355Y86524D01*
X259549Y87500D01*
X259355Y88476D01*
X259227Y88667D01*
D02*
G37*
G36*
X91727D02*
X90561Y87500D01*
X91727Y86333D01*
X91855Y86524D01*
X92049Y87500D01*
X91855Y88476D01*
X91727Y88667D01*
D02*
G37*
G36*
X254773Y88667D02*
X254645Y88476D01*
X254451Y87500D01*
X254645Y86524D01*
X254773Y86333D01*
X255939Y87500D01*
X254773Y88667D01*
D02*
G37*
G36*
X87273D02*
X87145Y88476D01*
X86951Y87500D01*
X87145Y86524D01*
X87273Y86333D01*
X88439Y87500D01*
X87273Y88667D01*
D02*
G37*
G36*
X205250Y88839D02*
Y86161D01*
X206589Y87500D01*
X205250Y88839D01*
D02*
G37*
G36*
X265750D02*
Y86161D01*
X267089Y87500D01*
X265750Y88839D01*
D02*
G37*
G36*
X213750Y88839D02*
X212411Y87500D01*
X213750Y86161D01*
Y88839D01*
D02*
G37*
G36*
X274250D02*
X272911Y87500D01*
X274250Y86161D01*
Y88839D01*
D02*
G37*
G36*
X37098Y89418D02*
X30799D01*
X30065Y89272D01*
X29443Y88856D01*
X29423Y88826D01*
X28000D01*
X27493Y88725D01*
X27063Y88437D01*
X25063Y86437D01*
X24775Y86007D01*
X24675Y85500D01*
Y59000D01*
X24775Y58493D01*
X25063Y58063D01*
X29540Y53585D01*
X29588Y53225D01*
X29935Y52386D01*
X30109Y52160D01*
X25512Y47563D01*
X25224Y47133D01*
X25123Y46626D01*
Y23500D01*
X25224Y22993D01*
X25512Y22563D01*
X29525Y18550D01*
X29469Y18126D01*
X29588Y17225D01*
X29935Y16386D01*
X30488Y15665D01*
X31209Y15112D01*
X32048Y14765D01*
X32949Y14646D01*
X34949D01*
X35849Y14765D01*
X36689Y15112D01*
X37409Y15665D01*
X37962Y16386D01*
X38310Y17225D01*
X38429Y18126D01*
X38310Y19027D01*
X37962Y19866D01*
X37409Y20587D01*
X36689Y21140D01*
X35849Y21487D01*
X34949Y21606D01*
X32949D01*
X32048Y21487D01*
X31209Y21140D01*
X30912Y20911D01*
X27774Y24049D01*
Y46077D01*
X32414Y50717D01*
X32949Y50646D01*
X34949D01*
X35849Y50765D01*
X36689Y51112D01*
X37409Y51665D01*
X37962Y52386D01*
X38310Y53225D01*
X38429Y54126D01*
X38310Y55027D01*
X37962Y55866D01*
X37409Y56587D01*
X36689Y57140D01*
X35849Y57487D01*
X34949Y57606D01*
X32949D01*
X32048Y57487D01*
X31209Y57140D01*
X30488Y56587D01*
X30401Y56473D01*
X27325Y59549D01*
Y84951D01*
X28549Y86174D01*
X29423D01*
X29443Y86144D01*
X30065Y85728D01*
X30799Y85582D01*
X37098D01*
X37832Y85728D01*
X38455Y86144D01*
X38870Y86766D01*
X39016Y87500D01*
X38870Y88234D01*
X38455Y88856D01*
X37832Y89272D01*
X37098Y89418D01*
D02*
G37*
G36*
X289500Y87191D02*
X287592Y85283D01*
X291408D01*
X289500Y87191D01*
D02*
G37*
G36*
X18201Y89724D02*
X11902D01*
X11051Y89555D01*
X10965Y89497D01*
X12432Y88030D01*
X11902Y87500D01*
X12432Y86970D01*
X10965Y85503D01*
X11051Y85445D01*
X11902Y85276D01*
X18201D01*
X19052Y85445D01*
X19138Y85503D01*
X17671Y86970D01*
X18201Y87500D01*
X17671Y88030D01*
X19138Y89497D01*
X19052Y89555D01*
X18201Y89724D01*
D02*
G37*
G36*
X273189Y89900D02*
X266811D01*
X268680Y88030D01*
X268150Y87500D01*
X268680Y86970D01*
X266811Y85100D01*
X273189D01*
X271320Y86970D01*
X271850Y87500D01*
X271320Y88030D01*
X273189Y89900D01*
D02*
G37*
G36*
X212689D02*
X206311D01*
X208180Y88030D01*
X207650Y87500D01*
X208180Y86970D01*
X206311Y85100D01*
X212689D01*
X210820Y86970D01*
X211350Y87500D01*
X210820Y88030D01*
X212689Y89900D01*
D02*
G37*
G36*
X257000Y86439D02*
X255833Y85273D01*
X256025Y85145D01*
X257000Y84951D01*
X257976Y85145D01*
X258167Y85273D01*
X257000Y86439D01*
D02*
G37*
G36*
X89500D02*
X88333Y85273D01*
X88525Y85145D01*
X89500Y84951D01*
X90475Y85145D01*
X90667Y85273D01*
X89500Y86439D01*
D02*
G37*
G36*
X37098Y84418D02*
X30799D01*
X30065Y84272D01*
X29443Y83856D01*
X29027Y83234D01*
X28881Y82500D01*
X29027Y81766D01*
X29443Y81144D01*
X30065Y80728D01*
X30799Y80582D01*
X37098D01*
X37832Y80728D01*
X38455Y81144D01*
X38870Y81766D01*
X39016Y82500D01*
X38870Y83234D01*
X38455Y83856D01*
X37832Y84272D01*
X37098Y84418D01*
D02*
G37*
G36*
X209000Y72243D02*
X208142Y72072D01*
X207414Y71586D01*
X207172Y71223D01*
X196328D01*
X196086Y71586D01*
X195358Y72072D01*
X194500Y72243D01*
X193642Y72072D01*
X192914Y71586D01*
X192428Y70858D01*
X192257Y70000D01*
X192428Y69142D01*
X192914Y68414D01*
X193642Y67928D01*
X194500Y67757D01*
X195358Y67928D01*
X196086Y68414D01*
X196328Y68777D01*
X207172D01*
X207414Y68414D01*
X208142Y67928D01*
X209000Y67757D01*
X209858Y67928D01*
X210586Y68414D01*
X211072Y69142D01*
X211243Y70000D01*
X211072Y70858D01*
X210586Y71586D01*
X209858Y72072D01*
X209000Y72243D01*
D02*
G37*
G36*
X37098Y94418D02*
X30799D01*
X30065Y94272D01*
X29443Y93856D01*
X29027Y93234D01*
X28881Y92500D01*
X29027Y91766D01*
X29443Y91144D01*
X30065Y90728D01*
X30799Y90582D01*
X37098D01*
X37832Y90728D01*
X38455Y91144D01*
X38475Y91175D01*
X39451D01*
X41175Y89451D01*
Y66049D01*
X38451Y63326D01*
X38399D01*
Y65450D01*
X29499D01*
Y58550D01*
X38399D01*
Y60675D01*
X39000D01*
X39507Y60775D01*
X39937Y61063D01*
X43437Y64563D01*
X43725Y64993D01*
X43826Y65500D01*
Y90000D01*
X43725Y90507D01*
X43437Y90937D01*
X40937Y93437D01*
X40507Y93725D01*
X40000Y93826D01*
X38475D01*
X38455Y93856D01*
X37832Y94272D01*
X37098Y94418D01*
D02*
G37*
G36*
X259200Y71950D02*
X249200D01*
Y64050D01*
X255338D01*
X259294Y60094D01*
X259939Y59663D01*
X260700Y59512D01*
X271677D01*
X272039Y59039D01*
X272760Y58486D01*
X273599Y58139D01*
X274500Y58020D01*
X276500D01*
X277401Y58139D01*
X278240Y58486D01*
X278961Y59039D01*
X279514Y59760D01*
X279861Y60599D01*
X279980Y61500D01*
X279861Y62401D01*
X279514Y63240D01*
X278961Y63961D01*
X278240Y64514D01*
X277401Y64861D01*
X276500Y64980D01*
X274500D01*
X273599Y64861D01*
X272760Y64514D01*
X272039Y63961D01*
X271677Y63488D01*
X261524D01*
X259200Y65812D01*
Y71950D01*
D02*
G37*
G36*
X219500Y54368D02*
X218525Y54174D01*
X218333Y54046D01*
X219500Y52880D01*
X220667Y54046D01*
X220476Y54174D01*
X219500Y54368D01*
D02*
G37*
G36*
X221727Y52986D02*
X220561Y51819D01*
X221727Y50652D01*
X221855Y50844D01*
X222049Y51819D01*
X221855Y52794D01*
X221727Y52986D01*
D02*
G37*
G36*
X217273Y52986D02*
X217145Y52794D01*
X216951Y51819D01*
X217145Y50844D01*
X217273Y50652D01*
X218439Y51819D01*
X217273Y52986D01*
D02*
G37*
G36*
X276500Y57106D02*
X274500D01*
X273599Y56987D01*
X272760Y56640D01*
X272039Y56087D01*
X271677Y55614D01*
X259326D01*
X258565Y55463D01*
X257920Y55032D01*
X255838Y52950D01*
X249700D01*
Y45050D01*
X259700D01*
Y51188D01*
X260150Y51638D01*
X271677D01*
X272039Y51165D01*
X272760Y50612D01*
X273599Y50265D01*
X274500Y50146D01*
X276500D01*
X277401Y50265D01*
X278240Y50612D01*
X278961Y51165D01*
X279514Y51886D01*
X279861Y52725D01*
X279980Y53626D01*
X279861Y54527D01*
X279514Y55366D01*
X278961Y56087D01*
X278240Y56640D01*
X277401Y56987D01*
X276500Y57106D01*
D02*
G37*
G36*
X219500Y50758D02*
X218333Y49592D01*
X218525Y49464D01*
X219500Y49270D01*
X220476Y49464D01*
X220667Y49592D01*
X219500Y50758D01*
D02*
G37*
G36*
X170091Y49927D02*
X169115Y49733D01*
X168924Y49605D01*
X170091Y48439D01*
X171257Y49605D01*
X171066Y49733D01*
X170091Y49927D01*
D02*
G37*
G36*
X135091D02*
X134115Y49733D01*
X133924Y49605D01*
X135091Y48439D01*
X136257Y49605D01*
X136066Y49733D01*
X135091Y49927D01*
D02*
G37*
G36*
X100091D02*
X99115Y49733D01*
X98924Y49605D01*
X100091Y48439D01*
X101257Y49605D01*
X101066Y49733D01*
X100091Y49927D01*
D02*
G37*
G36*
X72878D02*
X71903Y49733D01*
X71711Y49605D01*
X72878Y48439D01*
X74045Y49605D01*
X73853Y49733D01*
X72878Y49927D01*
D02*
G37*
G36*
X172318Y48545D02*
X171151Y47378D01*
X172318Y46211D01*
X172446Y46403D01*
X172640Y47378D01*
X172446Y48353D01*
X172318Y48545D01*
D02*
G37*
G36*
X137318D02*
X136151Y47378D01*
X137318Y46211D01*
X137446Y46403D01*
X137640Y47378D01*
X137446Y48353D01*
X137318Y48545D01*
D02*
G37*
G36*
X102318D02*
X101151Y47378D01*
X102318Y46211D01*
X102446Y46403D01*
X102640Y47378D01*
X102446Y48353D01*
X102318Y48545D01*
D02*
G37*
G36*
X75105D02*
X73939Y47378D01*
X75105Y46211D01*
X75233Y46403D01*
X75427Y47378D01*
X75233Y48353D01*
X75105Y48545D01*
D02*
G37*
G36*
X167863Y48545D02*
X167736Y48353D01*
X167542Y47378D01*
X167736Y46403D01*
X167863Y46211D01*
X169030Y47378D01*
X167863Y48545D01*
D02*
G37*
G36*
X132863D02*
X132736Y48353D01*
X132542Y47378D01*
X132736Y46403D01*
X132863Y46211D01*
X134030Y47378D01*
X132863Y48545D01*
D02*
G37*
G36*
X97863D02*
X97736Y48353D01*
X97542Y47378D01*
X97736Y46403D01*
X97863Y46211D01*
X99030Y47378D01*
X97863Y48545D01*
D02*
G37*
G36*
X70651D02*
X70523Y48353D01*
X70329Y47378D01*
X70523Y46403D01*
X70651Y46211D01*
X71817Y47378D01*
X70651Y48545D01*
D02*
G37*
G36*
X170091Y46317D02*
X168924Y45151D01*
X169115Y45023D01*
X170091Y44829D01*
X171066Y45023D01*
X171257Y45151D01*
X170091Y46317D01*
D02*
G37*
G36*
X135091D02*
X133924Y45151D01*
X134115Y45023D01*
X135091Y44829D01*
X136066Y45023D01*
X136257Y45151D01*
X135091Y46317D01*
D02*
G37*
G36*
X100091D02*
X98924Y45151D01*
X99115Y45023D01*
X100091Y44829D01*
X101066Y45023D01*
X101257Y45151D01*
X100091Y46317D01*
D02*
G37*
G36*
X72878D02*
X71711Y45151D01*
X71903Y45023D01*
X72878Y44829D01*
X73853Y45023D01*
X74045Y45151D01*
X72878Y46317D01*
D02*
G37*
G36*
X276500Y49232D02*
X274500D01*
X273599Y49113D01*
X272760Y48766D01*
X272039Y48213D01*
X271677Y47740D01*
X269952D01*
X269191Y47589D01*
X268546Y47158D01*
X255838Y34450D01*
X249700D01*
Y26550D01*
X259700D01*
Y32688D01*
X270776Y43764D01*
X271677D01*
X272039Y43291D01*
X272760Y42738D01*
X273599Y42391D01*
X274500Y42272D01*
X276500D01*
X277401Y42391D01*
X278240Y42738D01*
X278961Y43291D01*
X279514Y44012D01*
X279861Y44851D01*
X279980Y45752D01*
X279861Y46653D01*
X279514Y47492D01*
X278961Y48213D01*
X278240Y48766D01*
X277401Y49113D01*
X276500Y49232D01*
D02*
G37*
G36*
X219500Y35868D02*
X218525Y35674D01*
X218333Y35546D01*
X219500Y34380D01*
X220667Y35546D01*
X220476Y35674D01*
X219500Y35868D01*
D02*
G37*
G36*
X221727Y34486D02*
X220561Y33319D01*
X221727Y32152D01*
X221855Y32344D01*
X222049Y33319D01*
X221855Y34295D01*
X221727Y34486D01*
D02*
G37*
G36*
X217273Y34486D02*
X217145Y34295D01*
X216951Y33319D01*
X217145Y32344D01*
X217273Y32152D01*
X218439Y33319D01*
X217273Y34486D01*
D02*
G37*
G36*
X219500Y32258D02*
X218333Y31092D01*
X218525Y30964D01*
X219500Y30770D01*
X220476Y30964D01*
X220667Y31092D01*
X219500Y32258D01*
D02*
G37*
G36*
X38399Y29450D02*
X29499D01*
Y22550D01*
X38399D01*
Y29450D01*
D02*
G37*
G36*
X95000Y176728D02*
X94165Y176618D01*
X93386Y176295D01*
X92718Y175782D01*
X92205Y175114D01*
X91882Y174335D01*
X91772Y173500D01*
Y131837D01*
X86163Y126228D01*
X66000D01*
X65165Y126118D01*
X64386Y125795D01*
X63718Y125282D01*
X46218Y107782D01*
X45705Y107114D01*
X45382Y106335D01*
X45272Y105500D01*
Y62337D01*
X44218Y61282D01*
X43705Y60614D01*
X43382Y59835D01*
X43272Y59000D01*
Y18000D01*
X43382Y17165D01*
X43705Y16386D01*
X44218Y15718D01*
X48718Y11218D01*
X49386Y10705D01*
X50165Y10382D01*
X51000Y10272D01*
X199163D01*
X203218Y6218D01*
X203886Y5705D01*
X204665Y5382D01*
X205053Y5331D01*
X205500Y5272D01*
X229000D01*
X229835Y5382D01*
X230614Y5705D01*
X231282Y6218D01*
X243582Y18518D01*
X244095Y19186D01*
X244418Y19965D01*
X244528Y20800D01*
Y24100D01*
X247714Y20914D01*
X248442Y20428D01*
X249300Y20257D01*
X260122D01*
X260980Y20428D01*
X261708Y20914D01*
X275222Y34428D01*
X279950D01*
Y41328D01*
X271050D01*
Y36600D01*
X259193Y24743D01*
X250229D01*
X246300Y28672D01*
Y34450D01*
X243543D01*
Y45050D01*
X246300D01*
Y52950D01*
X243543D01*
Y64050D01*
X245800D01*
Y71950D01*
X235800D01*
Y64050D01*
X239057D01*
Y52950D01*
X236300D01*
Y45050D01*
X239057D01*
Y34450D01*
X236300D01*
Y26550D01*
X238072D01*
Y22137D01*
X227663Y11728D01*
X206837D01*
X202782Y15782D01*
X202114Y16295D01*
X201335Y16618D01*
X200500Y16728D01*
X168592D01*
X169414Y17550D01*
X173800D01*
Y21941D01*
X174295Y22586D01*
X174618Y23365D01*
X174728Y24200D01*
Y29550D01*
X174950D01*
Y38450D01*
X168050D01*
Y29550D01*
X168272D01*
Y25537D01*
X168185Y25450D01*
X163800D01*
Y21065D01*
X159463Y16728D01*
X133592D01*
X134415Y17550D01*
X138800D01*
Y21941D01*
X139295Y22586D01*
X139618Y23365D01*
X139728Y24200D01*
Y29550D01*
X139950D01*
Y38450D01*
X133050D01*
Y29550D01*
X133272D01*
Y25537D01*
X133186Y25450D01*
X128800D01*
Y21065D01*
X124463Y16728D01*
X98592D01*
X99414Y17550D01*
X103800D01*
Y21941D01*
X104295Y22586D01*
X104618Y23365D01*
X104728Y24200D01*
Y29550D01*
X104950D01*
Y38450D01*
X98050D01*
Y29550D01*
X98272D01*
Y25537D01*
X98185Y25450D01*
X93800D01*
Y21065D01*
X89463Y16728D01*
X63592D01*
X64415Y17550D01*
X68800D01*
Y21941D01*
X69295Y22586D01*
X69618Y23365D01*
X69728Y24200D01*
Y29550D01*
X69950D01*
Y38450D01*
X63050D01*
Y29550D01*
X63272D01*
Y25537D01*
X63186Y25450D01*
X58800D01*
Y21065D01*
X54463Y16728D01*
X52337D01*
X49728Y19337D01*
Y57663D01*
X50782Y58718D01*
X51295Y59386D01*
X51618Y60165D01*
X51728Y61000D01*
Y104163D01*
X67337Y119772D01*
X87500D01*
X88335Y119882D01*
X89114Y120205D01*
X89782Y120718D01*
X97282Y128218D01*
X97795Y128886D01*
X98118Y129665D01*
X98228Y130500D01*
Y173500D01*
X98118Y174335D01*
X97795Y175114D01*
X97282Y175782D01*
X96614Y176295D01*
X95835Y176618D01*
X95000Y176728D01*
D02*
G37*
G36*
X179374Y38480D02*
X178473Y38361D01*
X177634Y38014D01*
X176913Y37461D01*
X176360Y36740D01*
X176013Y35901D01*
X175894Y35000D01*
Y33000D01*
X176013Y32099D01*
X176360Y31260D01*
X176651Y30882D01*
Y24326D01*
X176743Y23621D01*
X177016Y22964D01*
X177200Y22724D01*
Y17550D01*
X187200D01*
Y25450D01*
X182101D01*
X182097Y25454D01*
Y30882D01*
X182388Y31260D01*
X182735Y32099D01*
X182854Y33000D01*
Y35000D01*
X182735Y35901D01*
X182388Y36740D01*
X181835Y37461D01*
X181114Y38014D01*
X180275Y38361D01*
X179374Y38480D01*
D02*
G37*
G36*
X144374D02*
X143473Y38361D01*
X142634Y38014D01*
X141913Y37461D01*
X141360Y36740D01*
X141013Y35901D01*
X140894Y35000D01*
Y33000D01*
X141013Y32099D01*
X141360Y31260D01*
X141651Y30882D01*
Y24326D01*
X141744Y23621D01*
X142016Y22964D01*
X142200Y22724D01*
Y17550D01*
X152200D01*
Y25450D01*
X147101D01*
X147097Y25454D01*
Y30882D01*
X147388Y31260D01*
X147735Y32099D01*
X147854Y33000D01*
Y35000D01*
X147735Y35901D01*
X147388Y36740D01*
X146835Y37461D01*
X146114Y38014D01*
X145275Y38361D01*
X144374Y38480D01*
D02*
G37*
G36*
X109374D02*
X108473Y38361D01*
X107634Y38014D01*
X106913Y37461D01*
X106360Y36740D01*
X106013Y35901D01*
X105894Y35000D01*
Y33000D01*
X106013Y32099D01*
X106360Y31260D01*
X106651Y30882D01*
Y24326D01*
X106744Y23621D01*
X107016Y22964D01*
X107200Y22724D01*
Y17550D01*
X117200D01*
Y25450D01*
X112101D01*
X112097Y25454D01*
Y30882D01*
X112388Y31260D01*
X112735Y32099D01*
X112854Y33000D01*
Y35000D01*
X112735Y35901D01*
X112388Y36740D01*
X111835Y37461D01*
X111114Y38014D01*
X110275Y38361D01*
X109374Y38480D01*
D02*
G37*
G36*
X74374D02*
X73473Y38361D01*
X72634Y38014D01*
X71913Y37461D01*
X71360Y36740D01*
X71013Y35901D01*
X70894Y35000D01*
Y33000D01*
X71013Y32099D01*
X71360Y31260D01*
X71651Y30882D01*
Y24326D01*
X71744Y23621D01*
X72016Y22964D01*
X72200Y22724D01*
Y17550D01*
X82200D01*
Y25450D01*
X77101D01*
X77097Y25454D01*
Y30882D01*
X77388Y31260D01*
X77735Y32099D01*
X77854Y33000D01*
Y35000D01*
X77735Y35901D01*
X77388Y36740D01*
X76835Y37461D01*
X76114Y38014D01*
X75275Y38361D01*
X74374Y38480D01*
D02*
G37*
G36*
X219319Y17368D02*
X218344Y17174D01*
X218152Y17046D01*
X219319Y15880D01*
X220486Y17046D01*
X220294Y17174D01*
X219319Y17368D01*
D02*
G37*
G36*
X221546Y15986D02*
X220380Y14819D01*
X221546Y13652D01*
X221674Y13844D01*
X221868Y14819D01*
X221674Y15795D01*
X221546Y15986D01*
D02*
G37*
G36*
X217092Y15986D02*
X216964Y15795D01*
X216770Y14819D01*
X216964Y13844D01*
X217092Y13652D01*
X218258Y14819D01*
X217092Y15986D01*
D02*
G37*
G36*
X219319Y13758D02*
X218152Y12592D01*
X218344Y12464D01*
X219319Y12270D01*
X220294Y12464D01*
X220486Y12592D01*
X219319Y13758D01*
D02*
G37*
%LPD*%
D14*
X74500Y138850D02*
D03*
Y145150D02*
D03*
X196500Y89350D02*
D03*
Y95650D02*
D03*
D24*
X80000Y138850D02*
D03*
Y145150D02*
D03*
X300000Y170650D02*
D03*
Y164350D02*
D03*
Y141350D02*
D03*
Y147650D02*
D03*
X289500Y147650D02*
D03*
Y141350D02*
D03*
Y170650D02*
D03*
Y164350D02*
D03*
X281000Y164350D02*
D03*
Y170650D02*
D03*
X289500Y88350D02*
D03*
Y94650D02*
D03*
X281000Y141350D02*
D03*
Y147650D02*
D03*
D25*
X80150Y151500D02*
D03*
X73850D02*
D03*
D31*
X239000Y204000D02*
X261500D01*
X275000Y228500D02*
X289000D01*
X269000Y222500D02*
X275000Y228500D01*
X269000Y211500D02*
Y222500D01*
X261500Y204000D02*
X269000Y211500D01*
X137000Y120902D02*
X139701Y118201D01*
X137000Y120902D02*
Y124500D01*
X190000Y151500D02*
X198500Y160000D01*
X190000Y116000D02*
Y151500D01*
X198500Y160000D02*
Y177500D01*
X190000Y91500D02*
Y116000D01*
X187500Y89000D02*
X190000Y91500D01*
X151000Y186500D02*
X163500Y199000D01*
X222500Y187500D02*
X239000Y204000D01*
X209500Y187500D02*
X222500D01*
X22500Y95000D02*
Y102000D01*
X20000Y92500D02*
X22500Y95000D01*
X15051Y92500D02*
X20000D01*
X27000Y100500D02*
Y133000D01*
Y100500D02*
X30000Y97500D01*
X15051Y87500D02*
X23500D01*
X27000Y91000D02*
Y100500D01*
X23500Y87500D02*
X27000Y91000D01*
X30000Y97500D02*
X33949D01*
X148000Y196000D02*
Y206500D01*
X141500Y189500D02*
X148000Y196000D01*
X141500Y174000D02*
Y189500D01*
D32*
X74500Y138850D02*
X80000D01*
X73850Y151500D02*
Y159653D01*
X72669Y160835D02*
X73850Y159653D01*
X74650Y145000D02*
X80449D01*
X80150Y145299D02*
X80449Y145000D01*
X85000D01*
X80150Y145299D02*
Y151500D01*
X185000Y108150D02*
Y128500D01*
X11500Y208000D02*
Y259500D01*
X30500Y278500D01*
X254000D01*
X290000Y242500D01*
Y236500D02*
Y242500D01*
Y236500D02*
X296000Y230500D01*
Y226500D02*
Y230500D01*
X290000Y220500D02*
X296000Y226500D01*
X290000Y201000D02*
Y220500D01*
Y201000D02*
X296000Y195000D01*
Y176000D02*
Y195000D01*
X154299Y118201D02*
X181201D01*
X158000Y126000D02*
X160000Y128000D01*
X146500Y109000D02*
X152000Y103500D01*
X146500Y109000D02*
Y124000D01*
X148500Y126000D01*
X158000D01*
X155000Y129000D02*
X157000Y131000D01*
X147000Y129000D02*
X155000D01*
X143000Y125000D02*
X147000Y129000D01*
X143000Y111000D02*
Y125000D01*
X138850Y106850D02*
X143000Y111000D01*
X138850Y92000D02*
Y106850D01*
X178000Y135500D02*
X185000Y128500D01*
X168850Y92000D02*
X185000Y108150D01*
X194000Y149000D02*
X195500Y150500D01*
X194000Y111000D02*
Y149000D01*
Y111000D02*
X197500Y107500D01*
Y147000D02*
X200500Y150000D01*
X197500Y119000D02*
Y147000D01*
Y119000D02*
X199000Y117500D01*
X178000Y135500D02*
Y144500D01*
X179500Y181500D02*
Y210500D01*
X185000Y159500D02*
Y212500D01*
X172500Y225000D02*
X185000Y212500D01*
X156000Y225000D02*
X172500D01*
X201000Y127500D02*
X209500D01*
Y122500D02*
X217500D01*
X231000Y136000D01*
Y188500D01*
X199000Y117500D02*
X209500D01*
X200500Y150000D02*
Y152000D01*
X197500Y107500D02*
X209500D01*
X154000Y87000D02*
Y98000D01*
X148000Y81000D02*
X154000Y87000D01*
X111500Y81000D02*
X148000D01*
X164000Y84500D02*
Y100000D01*
X88500Y61500D02*
Y71000D01*
X93000Y75500D01*
X155000D01*
X164000Y84500D01*
X10000Y82500D02*
X15051D01*
X8000Y84500D02*
X10000Y82500D01*
X8000Y84500D02*
Y109000D01*
X12000Y113000D01*
X15051Y97500D02*
Y101949D01*
X12000Y105000D02*
X15051Y101949D01*
X147000Y133000D02*
Y140500D01*
X104500Y183000D02*
X147000Y140500D01*
X104500Y183000D02*
Y214500D01*
X112374Y180126D02*
Y214500D01*
X172000Y146000D02*
X176500Y150500D01*
X183500D01*
X190500Y157500D01*
Y213000D01*
X202500Y225000D01*
X167500Y147000D02*
Y150500D01*
X170000Y153000D01*
X182000D01*
X187500Y158500D01*
Y220500D01*
X192000Y225000D01*
X163000Y147000D02*
Y150000D01*
X168500Y155500D01*
X181000D01*
X185000Y159500D01*
X194500Y70000D02*
X209000D01*
X160000Y128000D02*
Y142000D01*
X158500Y143500D02*
X160000Y142000D01*
X158500Y143500D02*
Y155500D01*
X162390Y159390D01*
X178110D01*
X157000Y131000D02*
Y140500D01*
X155500Y142000D02*
X157000Y140500D01*
X155500Y142000D02*
Y168500D01*
X163677Y176677D01*
X180677D01*
X154000Y98000D02*
X165000Y109000D01*
X173000D01*
X164000Y100000D02*
X169500Y105500D01*
X112374Y180126D02*
X152500Y140000D01*
Y133000D02*
Y140000D01*
X60350Y138850D02*
X74500D01*
X58000Y136500D02*
X60350Y138850D01*
X32000Y136500D02*
X58000D01*
X235500Y187000D02*
X243500Y195000D01*
X235500Y108000D02*
Y187000D01*
Y108000D02*
X246000Y97500D01*
X270000D01*
X240000Y183500D02*
X248000Y191500D01*
X240000Y111000D02*
Y183500D01*
Y111000D02*
X248500Y102500D01*
X270000D01*
X244500Y177500D02*
X252000Y185000D01*
X244500Y128500D02*
Y177500D01*
Y128500D02*
X250500Y122500D01*
X270000D01*
X273500Y147500D02*
X276500Y150500D01*
X270000Y147500D02*
X273500D01*
X270000Y137500D02*
X274000D01*
X270000Y132500D02*
X277000D01*
X274000Y137500D02*
X277850Y141350D01*
X289500D01*
X276500Y159850D02*
X281000Y164350D01*
X289500D01*
X276500Y150500D02*
Y159850D01*
X277000Y132500D02*
X281500Y137000D01*
X296650D01*
X295000Y153650D02*
X301000Y147650D01*
X295000Y153650D02*
Y172000D01*
X290000Y177000D02*
X295000Y172000D01*
X281000Y177000D02*
X290000D01*
X276500Y181500D02*
X281000Y177000D01*
Y170650D02*
Y177000D01*
X287000Y153650D02*
X295000D01*
X281000Y147650D02*
X287000Y153650D01*
X270000Y127500D02*
X273000D01*
X277000Y123500D01*
Y117000D02*
Y123500D01*
Y117000D02*
X289500Y104500D01*
Y94650D02*
Y104500D01*
X303850Y141350D02*
X304500Y142000D01*
Y160850D01*
X301000Y164350D02*
X304500Y160850D01*
X296650Y137000D02*
X301000Y141350D01*
X303850D01*
D33*
X73850Y151500D02*
Y159803D01*
X72669Y160984D02*
X72744Y160909D01*
D34*
X137000Y124500D02*
Y142500D01*
X95000Y130500D02*
Y173500D01*
X56874Y222626D02*
X119500Y160000D01*
X137000Y142500D01*
X122000Y109500D02*
X137000Y124500D01*
X72878Y70878D02*
X89500Y87500D01*
X72878Y47378D02*
Y70878D01*
X160800Y13500D02*
X200500D01*
X125800D02*
X160800D01*
X200500D02*
X205500Y8500D01*
X229000D01*
X160800Y13500D02*
X168800Y21500D01*
X229000Y8500D02*
X241300Y20800D01*
Y30500D01*
X66000Y123000D02*
X87500D01*
X48500Y105500D02*
X66000Y123000D01*
X48500Y61000D02*
Y105500D01*
X51000Y13500D02*
X55800D01*
X46500Y18000D02*
X51000Y13500D01*
X46500Y18000D02*
Y59000D01*
X55800Y13500D02*
X63800Y21500D01*
X46500Y59000D02*
X48500Y61000D01*
X87500Y123000D02*
X95000Y130500D01*
X168800Y21500D02*
X171500Y24200D01*
Y34000D01*
X133800Y21500D02*
X136500Y24200D01*
Y34000D01*
X98800Y21500D02*
X101500Y24200D01*
Y34000D01*
X66500Y24200D02*
Y34000D01*
X63800Y21500D02*
X66500Y24200D01*
X90800Y13500D02*
X125800D01*
X55800D02*
X90800D01*
X98800Y21500D01*
X125800Y13500D02*
X133800Y21500D01*
X56874Y222626D02*
Y266500D01*
D35*
X113500Y92000D02*
X128850D01*
X99000Y106500D02*
X113500Y92000D01*
X81000Y106500D02*
X99000D01*
X196500Y80000D02*
X204000Y87500D01*
X184500Y68000D02*
X196500Y80000D01*
X204000Y87500D02*
X209500D01*
X184500Y61787D02*
Y68000D01*
X209500Y87500D02*
X213500D01*
X170091Y47378D02*
X184500Y61787D01*
X72878Y47378D02*
X100091D01*
X135091D02*
X170091D01*
X100091D02*
X135091D01*
X77250Y102750D02*
X81000Y106500D01*
X179374Y24326D02*
Y34000D01*
Y24326D02*
X182200Y21500D01*
X144374Y24326D02*
Y34000D01*
Y24326D02*
X147200Y21500D01*
X109374Y24326D02*
Y34000D01*
Y24326D02*
X112200Y21500D01*
X74374Y24326D02*
X77200Y21500D01*
X74374Y24326D02*
Y34000D01*
X14350Y184500D02*
X30000D01*
D36*
X273000Y112500D02*
X277000Y108500D01*
X187500Y89000D02*
X194150Y95650D01*
X219319Y14819D02*
Y81681D01*
X194150Y95650D02*
X196500D01*
X169000Y70500D02*
X187500Y89000D01*
X121000Y70500D02*
X169000D01*
X196500Y80000D02*
Y89350D01*
X213500Y87500D02*
X219319Y81681D01*
X209500Y92500D02*
Y97500D01*
X217000Y106000D02*
Y109000D01*
Y91000D02*
Y106000D01*
X213500Y102500D02*
X217000Y106000D01*
X209500Y102500D02*
X213500D01*
Y87500D02*
X257000D01*
X213500D02*
X217000Y91000D01*
X213500Y112500D02*
X217000Y109000D01*
X209500Y112500D02*
X213500D01*
X257000Y87500D02*
X270000D01*
X220000Y172500D02*
Y178500D01*
Y146500D02*
Y172500D01*
X216000Y142500D02*
X220000Y146500D01*
X209500Y142500D02*
X216000D01*
X209500Y167500D02*
X215000D01*
X220000Y172500D01*
X204000Y192500D02*
X209500D01*
X202000Y190500D02*
X204000Y192500D01*
X202000Y184500D02*
Y190500D01*
Y184500D02*
X204000Y182500D01*
X209500D01*
X216000D01*
X220000Y178500D01*
X277000Y89500D02*
Y108500D01*
X270000Y112500D02*
X273000D01*
X275000Y87500D02*
X277000Y89500D01*
X270000Y87500D02*
X275000D01*
X254700Y30500D02*
X269952Y45752D01*
X275500D01*
X254700Y49000D02*
X259326Y53626D01*
X275500D01*
X254200Y68000D02*
X260700Y61500D01*
X275500D01*
X198350Y97500D02*
X209500D01*
X196500Y95650D02*
X198350Y97500D01*
X262500Y144500D02*
X264500Y142500D01*
X270000D01*
X266500Y152500D02*
X270000D01*
X262500Y156500D02*
X266500Y152500D01*
X262500Y144500D02*
Y156500D01*
X265500Y167500D02*
X270000D01*
X262500Y170500D02*
X265500Y167500D01*
X262500Y156500D02*
Y170500D01*
Y174000D01*
X258000Y178500D02*
X262500Y174000D01*
X258000Y178500D02*
X262000Y182500D01*
X270000D01*
X262000D02*
Y189000D01*
X265500Y192500D01*
X270000D01*
D37*
X33949Y62000D02*
X39000D01*
X42500Y65500D01*
Y90000D01*
X40000Y92500D02*
X42500Y90000D01*
X33949Y92500D02*
X40000D01*
X30874Y54126D02*
X33949D01*
X26000Y59000D02*
X30874Y54126D01*
X26000Y59000D02*
Y85500D01*
X28000Y87500D01*
X33949D01*
X31823Y18126D02*
X33949D01*
X26449Y23500D02*
X31823Y18126D01*
X26449Y23500D02*
Y46626D01*
X33949Y54126D01*
D38*
X279000Y218500D02*
D03*
Y238500D02*
D03*
X299000D02*
D03*
Y218500D02*
D03*
D39*
X289000Y228500D02*
D03*
D40*
X178850Y92000D02*
D03*
X168850D02*
D03*
X158850D02*
D03*
X148850D02*
D03*
X138850D02*
D03*
D41*
X128850D02*
D03*
D42*
X256000Y252850D02*
D03*
X220000D02*
D03*
X184000D02*
D03*
X148000D02*
D03*
X66500Y34000D02*
D03*
X101500D02*
D03*
X136500D02*
D03*
X171500D02*
D03*
X104500Y214500D02*
D03*
X49000Y266500D02*
D03*
D43*
X248126Y252850D02*
D03*
X212126D02*
D03*
X176126D02*
D03*
X140126D02*
D03*
X74374Y34000D02*
D03*
X109374D02*
D03*
X144374D02*
D03*
X179374D02*
D03*
X120248Y214500D02*
D03*
X112374D02*
D03*
X56874Y266500D02*
D03*
D44*
X275500Y53626D02*
D03*
Y45752D02*
D03*
Y61500D02*
D03*
X33949Y18126D02*
D03*
Y54126D02*
D03*
D45*
X275500Y37878D02*
D03*
X33949Y26000D02*
D03*
Y62000D02*
D03*
D46*
X277000Y109500D02*
D03*
X137350Y135500D02*
D03*
X11500Y208000D02*
D03*
X296000Y176000D02*
D03*
X32000Y136500D02*
D03*
X122000Y109500D02*
D03*
X89500Y87500D02*
D03*
X139701Y118201D02*
D03*
X154299D02*
D03*
X181201D02*
D03*
X185000Y114500D02*
D03*
X190000Y116000D02*
D03*
X163500Y199000D02*
D03*
X151000Y186500D02*
D03*
X119500Y160000D02*
D03*
X198500Y177500D02*
D03*
X179500Y210500D02*
D03*
X95000Y163500D02*
D03*
X219500Y51819D02*
D03*
Y33319D02*
D03*
X219319Y14819D02*
D03*
X121000Y70500D02*
D03*
X201000Y127500D02*
D03*
X257000Y87500D02*
D03*
X220000Y178500D02*
D03*
X258000D02*
D03*
X252000Y185000D02*
D03*
X248000Y191500D02*
D03*
X243500Y195000D02*
D03*
X179500Y181500D02*
D03*
X231000Y188500D02*
D03*
X200500Y152000D02*
D03*
X195500Y150500D02*
D03*
X111500Y81000D02*
D03*
X72878Y47378D02*
D03*
X88500Y61500D02*
D03*
X81000Y106500D02*
D03*
X77250Y102750D02*
D03*
X95000Y173500D02*
D03*
Y168500D02*
D03*
X22500Y102000D02*
D03*
X12000Y113000D02*
D03*
Y105000D02*
D03*
X172000Y146000D02*
D03*
X202500Y225000D02*
D03*
X167500Y147000D02*
D03*
X192000Y225000D02*
D03*
X163000Y147000D02*
D03*
X156000Y225000D02*
D03*
X178000Y144500D02*
D03*
X209000Y70000D02*
D03*
X194500D02*
D03*
X152000Y103500D02*
D03*
X178110Y159390D02*
D03*
X180677Y176677D02*
D03*
X173000Y109000D02*
D03*
X169500Y105500D02*
D03*
X147000Y133000D02*
D03*
X152500D02*
D03*
X14350Y184500D02*
D03*
X100091Y47378D02*
D03*
X135091D02*
D03*
X170091D02*
D03*
X276500Y181500D02*
D03*
X148000Y206500D02*
D03*
X141500Y174000D02*
D03*
D47*
X290500Y124000D02*
D03*
Y264000D02*
D03*
X110500D02*
D03*
Y124000D02*
D03*
D48*
X85000Y145000D02*
D03*
D49*
X72669Y160835D02*
D03*
Y165165D02*
D03*
X77000Y160835D02*
D03*
Y165165D02*
D03*
X81331Y160835D02*
D03*
Y165165D02*
D03*
D50*
X209500Y87500D02*
D03*
Y92500D02*
D03*
Y97500D02*
D03*
Y102500D02*
D03*
Y107500D02*
D03*
Y112500D02*
D03*
Y117500D02*
D03*
Y122500D02*
D03*
Y127500D02*
D03*
Y132500D02*
D03*
Y137500D02*
D03*
Y142500D02*
D03*
Y147500D02*
D03*
Y152500D02*
D03*
Y157500D02*
D03*
Y162500D02*
D03*
Y167500D02*
D03*
Y172500D02*
D03*
Y177500D02*
D03*
Y182500D02*
D03*
Y187500D02*
D03*
Y192500D02*
D03*
X270000Y87500D02*
D03*
Y92500D02*
D03*
Y97500D02*
D03*
Y102500D02*
D03*
Y107500D02*
D03*
Y112500D02*
D03*
Y117500D02*
D03*
Y122500D02*
D03*
Y127500D02*
D03*
Y132500D02*
D03*
Y137500D02*
D03*
Y142500D02*
D03*
Y147500D02*
D03*
Y152500D02*
D03*
Y157500D02*
D03*
Y162500D02*
D03*
Y167500D02*
D03*
Y172500D02*
D03*
Y177500D02*
D03*
Y182500D02*
D03*
Y187500D02*
D03*
Y192500D02*
D03*
D51*
X33949Y97500D02*
D03*
Y92500D02*
D03*
Y87500D02*
D03*
Y82500D02*
D03*
X15051Y97500D02*
D03*
Y92500D02*
D03*
Y87500D02*
D03*
Y82500D02*
D03*
D52*
X254700Y30500D02*
D03*
X241300D02*
D03*
X254700Y49000D02*
D03*
X241300D02*
D03*
X254200Y68000D02*
D03*
X240800D02*
D03*
X182200Y21500D02*
D03*
X168800D02*
D03*
X147200D02*
D03*
X133800D02*
D03*
X112200D02*
D03*
X98800D02*
D03*
X77200D02*
D03*
X63800D02*
D03*
D53*
X241300Y49000D02*
Y67500D01*
Y30500D02*
Y49000D01*
Y30500D02*
X249300Y22500D01*
X260122D01*
X275500Y37878D01*
M02*
