M48
;Layer_Color=9474304
;FILE_FORMAT=2:5
INCH,LZ
;TYPE=PLATED
T1F00S00C0.00787
T2F00S00C0.01500
T3F00S00C0.03150
T4F00S00C0.03937
T5F00S00C0.05512
T6F00S00C0.07480
T7F00S00C0.12500
%
T01
X0072669Y0160835
Y0165165
X0077
Y0160835
X0081331
Y0165165
T02
X0219319Y0014819
X02195Y0033319
Y0051819
X0257Y00875
X0277Y01095
X019Y0116
X0185Y01145
X0181201Y0118201
X0173Y0109
X01695Y01055
X0152Y01035
X0154299Y0118201
X0139701
X013735Y01355
X0147Y0133
X01525
X0163Y0147
X01675
X0172Y0146
X0178Y01445
X01955Y01505
X02005Y0152
X0201Y01275
X01945Y007
X0209
X0170091Y0047378
X0135091
X0100091
X00885Y00615
X00895Y00875
X0081Y01065
X007725Y010275
X0085Y0145
X0122Y01095
X01115Y0081
X0121Y00705
X0072878Y0047378
X00225Y0102
X0012Y0105
Y0113
X0032Y01365
X001435Y01845
X00115Y0208
X0095Y01735
Y01685
Y01635
X01195Y016
X01415Y0174
X0151Y01865
X0148Y02065
X01635Y0199
X01795Y02105
X0192Y0225
X02025
X0156
X01795Y01815
X0180677Y0176677
X01985Y01775
X017811Y015939
X022Y01785
X0231Y01885
X02435Y0195
X0248Y01915
X0252Y0185
X0258Y01785
X02765Y01815
X0296Y0176
T03
X02755Y0037878
Y0045752
Y0053626
Y00615
X0179374Y0034
X01715
X0144374
X01365
X0109374
X01015
X0074374
X00665
X0033949Y0026
Y0018126
Y0054126
Y0062
X0049Y02665
X0056874
X0140126Y025285
X0148
X0176126
X0184
X0120248Y02145
X0112374
X01045
X0212126Y025285
X022
X0248126
X0256
T04
X012885Y0092
X013885
X014885
X015885
X016885
X017885
T05
X0289Y02285
T06
X0279Y02185
Y02385
X0299
Y02185
T07
X02905Y0124
X01105
Y0264
X02905
M30
